<svg xmlns="http://www.w3.org/2000/svg" viewBox="0 0 36 36">
	<path d="m26 4.6-.6 1c-.7 1.3-1.5 1.7-2.8.4l-4.8-5c-.4-.5-1-.7-1.5-.3-.4.3-4 3.3-5 4.5-.8 1-.9 2.2-.2 2.9l1.2.6c.5.1 1.8 0 2.5.7 1.1 1.2.5 3-1 4.4-1.4 1.5-3.2 2.1-4.4 1-.7-.7-.6-2-.7-2.5L8 11.1c-.7-.7-2-.6-2.9.1-1.2 1-4.2 4.7-4.5 5-.4.6-.2 1.2.3 1.6l5 4.8c1.3 1.3 1 2.1-.4 2.8-.1 0-.5.2-1 .7a3.7 3.7 0 0 0 5.3 5.3c.5-.5.6-.9.7-1 .7-1.3 1.5-1.7 2.8-.4l4.8 5c.4.5 1 .7 1.5.3.4-.3 4-3.3 5-4.5.8-1 .9-2.2.2-2.9l-1.2-.6c-.5-.1-1.8 0-2.5-.7-1.1-1.2-.5-3 1-4.5 1.4-1.4 3.2-2 4.4-.9.7.7.6 2 .7 2.5l.6 1.2c.7.7 2 .6 2.9-.1 1.2-1 4.2-4.7 4.5-5 .4-.6.2-1.2-.3-1.6l-5-4.8c-1.3-1.3-1-2.1.4-2.8.1 0 .5-.2 1-.7A3.7 3.7 0 0 0 26 4.6z"/>
</svg>
