<svg xmlns="http://www.w3.org/2000/svg" viewBox="0 0 24 24">
	<path d="M11 8.3a1.4 1.4 0 0 0-.5.5.8.8 0 0 1-1.4-.6 3 3 0 0 1 1-1.2c.5-.3 1.1-.5 1.9-.5.7 0 1.4.2 2 .6a2.5 2.5 0 0 1 1 2 3 3 0 0 1-1 2.2l-.7.5-.1.2a4.3 4.3 0 0 0-.5.4v1.3a.8.8 0 1 1-1.5 0v-1.4c0-.3.1-.5.3-.8l.7-.7.2-.1.5-.4c.3-.4.5-.7.5-1.2a1 1 0 0 0-.4-.8c-.2-.2-.6-.3-1-.3-.5 0-.8.1-1 .3zm2 8.7a1 1 0 1 1-2 0 1 1 0 0 1 2 0z"/>
	<path fill-rule="evenodd" d="M12 1a11 11 0 1 0 0 22 11 11 0 0 0 0-22zM2.5 12a9.5 9.5 0 1 1 19 0 9.5 9.5 0 0 1-19 0z"/>
</svg>
