<?xml version="1.0" encoding="UTF-8" standalone="no"?>
<svg
        id="Layer_1"
        data-name="Layer 1"
        viewBox="0 0 94.020791 127.99999"
        version="1.1"
        sodipodi:docname="favicon.svg"
        width="94.020782"
        height="128"
        inkscape:version="1.1.2 (0a00cf5339, 2022-02-04)"
        xmlns:inkscape="http://www.inkscape.org/namespaces/inkscape"
        xmlns:sodipodi="http://sodipodi.sourceforge.net/DTD/sodipodi-0.dtd"
        xmlns="http://www.w3.org/2000/svg"
        xmlns:svg="http://www.w3.org/2000/svg"
        xmlns:rdf="http://www.w3.org/1999/02/22-rdf-syntax-ns#"
        xmlns:cc="http://creativecommons.org/ns#"
        xmlns:dc="http://purl.org/dc/elements/1.1/">
    <metadata
            id="metadata33">
    </metadata>
    <defs
            id="defs4">
        <style id="style2">
            .cls-1{fill:#eb427e;}
            @media (prefers-color-scheme: dark) {
                .cls- { fill: #FFF; }
            }
        </style>
    </defs>
    <title
            id="title6">Prosopo Logo Black
    </title>
    <g
            id="g831"
            transform="scale(0.29562566)">
        <path
                class="cls-1"
                d="m 119.79,50.5 a 147.75,147.75 0 0 1 147.75,147.75 h 50.5 C 318.04,88.76 229.28,0 119.79,0 Z"
                id="path8"

        />
        <path
                class="cls-1"
                d="m 53.6,116.7 a 147.74,147.74 0 0 1 147.74,147.74 h 50.5 C 251.84,154.95 163.09,66.2 53.6,66.2 Z"
                id="path10"

        />
        <path
                class="cls-1"
                d="M 198.24,382.48 A 147.75,147.75 0 0 1 50.5,234.74 H 0 c 0,109.49 88.75,198.24 198.24,198.24 z"
                id="path12"

        />
        <path
                class="cls-1"
                d="M 264.41,316.31 A 147.74,147.74 0 0 1 116.67,168.56 H 66.16 c 0,109.49 88.76,198.25 198.25,198.25 z"
                id="path14"

        />
    </g>
</svg>
