<svg xmlns="http://www.w3.org/2000/svg" xml:space="preserve" viewBox="0 0 1202 148.5">
	<path d="m181.5 82.5 3.7 8.3 5.7 4.2-5.6 4.3-3.8 8.2-4.1-8.1-5.3-4.4 5.3-4.2zm162-34 3.7 8.3 5.7 4.2-5.6 4.3-3.8 8.2-4.1-8.1-5.3-4.4 5.3-4.2zm313 41 3.7 8.3 5.7 4.2-5.6 4.3-3.8 8.2-4.1-8.1-5.3-4.4 5.3-4.2zm525 1 3.7 8.3 5.7 4.2-5.6 4.3-3.8 8.2-4.1-8.1-5.3-4.4 5.3-4.2z"/>
	<circle cx="624.5" cy="65" r="4"/>
	<circle cx="1149.5" cy="52" r="3"/>
	<circle cx="237.5" cy="116" r="3"/>
	<circle cx="571.5" cy="103" r="3"/>
	<circle cx="372.5" cy="81" r="3"/>
	<circle cx="128.5" cy="138" r="3"/>
	<circle cx="14.5" cy="77" r="4"/>
	<circle cx="868.5" cy="128" r="4"/>
	<path d="M1058.5 4a60 60 0 1 0 .1 120.1 60 60 0 0 0-.1-120.1zm-20 66.7 3.2-6.3 2.9 6.3 4.3 3.3-4.2 3.3-3 6.3-3.2-6.2-4-3.4 4-3.3zm-7-49.7a2 2 0 0 1 2 2c0 1.1-.9 2-2 2s-2-.9-2-2 .9-2 2-2zm-13 64c0-2.2 1.8-4 4-4s4 1.8 4 4-1.8 4-4 4-4-1.8-4-4zm40 35a55.3 55.3 0 0 1-37.6-14.6 60 60 0 0 0 44.2-97 56.1 56.1 0 0 1-6.6 111.6z"/>
	<circle cx="475.5" cy="124" r="4"/>
	<circle cx="204.5" cy="64" r="4"/>
	<circle cx="153.5" cy="122" r="4"/>
	<circle cx="106.5" cy="102" r="4"/>
</svg>
