<?xml version="1.0" encoding="UTF-8"?>
<svg width="34px" height="34px" viewBox="0 0 34 34" version="1.1" xmlns="http://www.w3.org/2000/svg" xmlns:xlink="http://www.w3.org/1999/xlink">
    <title>Group Copy 3</title>
    <defs>
        <linearGradient x1="73.0094088%" y1="6.94053691%" x2="26.0467213%" y2="93.1750794%" id="linearGradient-1">
            <stop stop-color="#CC9300" offset="0%"></stop>
            <stop stop-color="#EA433A" offset="47%"></stop>
            <stop stop-color="#B327BF" offset="100%"></stop>
        </linearGradient>
        <linearGradient x1="68.6732654%" y1="-4.41158489%" x2="31.3270536%" y2="104.437787%" id="linearGradient-2">
            <stop stop-color="#CC9300" offset="0%"></stop>
            <stop stop-color="#EA433A" offset="26%"></stop>
            <stop stop-color="#B327BF" offset="47%"></stop>
            <stop stop-color="#6666FF" offset="76%"></stop>
            <stop stop-color="#00BF9A" offset="100%"></stop>
        </linearGradient>
        <linearGradient x1="9.68768356%" y1="102.991294%" x2="73.645339%" y2="33.0546881%" id="linearGradient-3">
            <stop stop-color="#B327BF" offset="0%"></stop>
            <stop stop-color="#6666FF" offset="47%"></stop>
            <stop stop-color="#00C09A" offset="100%"></stop>
        </linearGradient>
    </defs>
    <g id="Page-1" stroke="none" stroke-width="1" fill="none" fill-rule="evenodd">
        <g id="Group-Copy-3" fill-rule="nonzero">
            <path d="M22.7986134,32.5258014 L16.2812319,33.5573883 C11.8370736,34.2614494 10.1512347,34.0534585 8.39007109,33.4378533 C6.64933194,32.8426428 5.12793425,31.7376809 4.02362875,30.2665902 C2.89734488,28.779575 2.17877099,27.2411597 1.47454466,22.796849 L0.442715599,16.2821924 C-0.261510726,11.8378817 -0.0534710311,10.1524384 0.562278642,8.39288348 C1.15602117,6.65169747 2.25949152,5.1291075 3.72950366,4.02268447 C5.21686792,2.89666492 6.75086176,2.17825967 11.1998026,1.47419861 L17.7171841,0.442611701 C22.162538,-0.261449354 23.8471813,-0.0534584823 25.608345,0.562146685 C27.3491174,1.15669346 28.8711464,2.26025948 29.9771786,3.72982376 C31.1034624,5.21683896 31.8208407,6.7552542 32.525067,11.1995649 L33.5568961,17.7142215 C34.2611224,22.1585322 34.0542783,23.8427802 33.437333,25.6035305 C32.8415854,27.3436548 31.7364424,28.8645876 30.2653255,29.9689481 C28.7827438,31.0973583 27.2439674,31.8157636 22.7986134,32.5258014 Z" id="Shell" fill="#FEFEFE"></path>
            <g id="Shapes" transform="translate(7.75, 7.75)">
                <path d="M17.6788319,6.25831524 C19.1371438,7.36268415 19.8037273,9.26310163 19.3686393,11.0710514 C18.9331153,12.8808126 17.4792355,14.2421899 15.6858492,14.5158926 C14.5192084,14.7001831 13.3281943,14.3986999 12.3767328,13.6781651 C11.4268782,12.9588471 10.793671,11.8809417 10.6157775,10.6828556 C10.3333069,8.84288506 11.1563855,7.00821656 12.7020923,6.03712496 C14.2508956,5.06408805 16.2174022,5.1515852 17.6788319,6.25831524 Z M12.820638,8.40047983 C12.2000077,9.29504041 12.1651206,10.4892105 12.7325478,11.4209099 C13.2980852,12.3495066 14.3490979,12.8323796 15.3932599,12.6456034 C16.8087621,12.4029591 17.7676608,11.0208271 17.5321724,9.55394454 C17.3654332,8.46798705 16.5804008,7.59538409 15.5472853,7.34370317 C14.5159813,7.09246354 13.4390867,7.50906374 12.820638,8.40047983 Z" id="Combined-Shape" fill="url(#linearGradient-1)"></path>
                <path d="M7.73322938,0.18265415 C7.93090016,0.33058619 8.06284858,0.552372862 8.10088716,0.799264004 L9.0943797,7.26559631 C9.13230153,7.51200894 9.07361753,7.76397649 8.93075083,7.9665475 C8.7867496,8.17072715 8.56886671,8.30814344 8.32530189,8.34759923 L2.06551905,9.36960512 C1.55878816,9.45282767 1.08510868,9.09909 1.00478187,8.58351816 L0.0112994999,2.1172519 C-0.0266516542,1.87108641 0.0318151116,1.61934007 0.174344874,1.41681773 C0.318004867,1.21268944 0.535474553,1.07510965 0.779136199,1.03518942 L7.04022065,0.0119370269 C7.28444325,-0.0281008295 7.53395001,0.0335182735 7.73322938,0.18265415 Z M6.41500034,2.03200218 L1.98300034,2.75600218 L2.68900034,7.35100218 L7.12100034,6.62800218 L6.41500034,2.03200218 Z" id="Combined-Shape" fill="url(#linearGradient-2)"></path>
                <path d="M7.37145425,11.1352648 L12.299819,17.7296364 C12.4965462,17.9934762 12.5439274,18.343172 12.4252159,18.651591 C12.3057044,18.9620887 12.0349281,19.1861789 11.7108337,19.2399839 L4.06680832,20.4880206 C3.74171178,20.5413994 3.41400277,20.4141251 3.205451,20.1548807 C2.99893868,19.8981715 2.93939129,19.5496803 3.04790885,19.2369999 L5.76395749,11.3910923 C5.87806969,11.0649034 6.15672479,10.8279896 6.49206404,10.7741669 C6.82848146,10.7201711 7.1659942,10.859457 7.37145425,11.1352648 Z M6.93864546,13.6697056 L5.31264546,18.3627056 L9.88764546,17.6147056 L6.93864546,13.6697056 Z" id="Combined-Shape" fill="url(#linearGradient-3)"></path>
            </g>
        </g>
    </g>
</svg>