<svg xmlns="http://www.w3.org/2000/svg" fill="#F02E65" viewBox="0 0 384 290">
  <path fill-rule="evenodd" d="M245.43 251.19c-19.47 0-37.71-5.22-53.42-14.33a106.53 106.53 0 0 1-117.57-7.17A106.59 106.59 0 0 1 84.56 52.7a106.57 106.57 0 0 1 107.46-.33 106.09 106.09 0 0 1 53.4-14.33C304.3 38.04 352 85.76 352 144.62c0 58.85-47.71 106.57-106.57 106.57ZM174.18 65.36l.03-.03a86.9 86.9 0 1 0 40.62 37.51 87.25 87.25 0 0 0-40.66-37.48Z" clip-rule="evenodd"/>
  <path d="M141.49 107.74c-.13.32-1.76 6.72-3.52 14.31-1.82 7.6-4.7 19.57-6.33 26.66-3.14 12.99-5.02 21.52-5.02 22.65 0 .31 1.94.56 4.33.56h4.33l1.94-8.66c1.13-4.7 3.64-15.49 5.65-23.96 2-8.47 4.45-18.76 5.4-22.9.93-4.14 1.87-7.9 2.06-8.34.2-.56-.88-.75-4.14-.75-2.44 0-4.58.19-4.7.43Zm-33.7 27.17-5.77 6.27 1.7 2.01a184.5 184.5 0 0 0 5.7 6.28l4.02 4.26h11.42l-5.4-5.84c-2.94-3.13-5.39-6.14-5.39-6.52 0-.44 2.26-3.26 5.02-6.27 2.76-3.07 5.02-5.71 5.02-6.03 0-.25-2.39-.43-5.27-.43h-5.2l-5.84 6.27Zm43.92-5.9c0 .2 1.07 1.38 2.38 2.7 4.9 4.9 8.35 9.04 8.16 9.85-.12.44-2.5 3.39-5.4 6.46l-5.2 5.7h5.84l5.83-.05 5.33-5.84c2.95-3.26 5.33-6.15 5.33-6.52 0-.31-2.5-3.26-5.64-6.59l-5.65-6.08h-5.46c-3.07 0-5.52.18-5.52.37Z"/>
</svg>
