<svg xmlns="http://www.w3.org/2000/svg" xml:space="preserve" viewBox="0 0 400 400">
  <path fill="#fd6a3c" d="m32.3 366-1.7 1.7a18.5 18.5 0 0 0-4.1 20.6 19.5 19.5 0 0 0 18 11.7h217.1c109.9 0 155.2-137.3 66.6-200l-1.1.8L32.3 366"/>
  <path fill="#18b5f4" d="m32.3 34 294.8 165.2 1.1.8c88.5-62.7 43.3-200-66.6-200H44.5a19.8 19.8 0 0 0-18 11.7 18.3 18.3 0 0 0 4.1 20.6l1.7 1.7"/>
  <path fill="#a97ff2" d="m32.5 366 294.8-165.2 1.1-.8-1.1-.8L32.5 34a233.4 233.4 0 0 1 69.7 166c0 62.1-25 121.8-69.7 166z"/>
</svg>
