<svg xmlns="http://www.w3.org/2000/svg" viewBox="0 0 136 95.7">
  <path fill="#fff" d="M41.5 37.7c.6 0 1.1-.1 1.7-.4l17-9.1c1.7-.9 2.3-3 1.4-4.7-.9-1.7-3-2.3-4.7-1.4l-17 9.1c-1.7.9-2.3 3-1.4 4.7a3.3 3.3 0 0 0 3 1.8m25 13a3 3 0 0 0 1.6-.4l27-14.2a3.3 3.3 0 0 0 1.5-4.5v-.1c-.9-1.7-3-2.3-4.7-1.4l-27 14.2a3.3 3.3 0 0 0-1.5 4.5v.1a3.5 3.5 0 0 0 3.1 1.8m1.5 45a17 17 0 0 1-7.6-1.8L1.8 61.7A3.5 3.5 0 0 1 0 58.6V32.9c.1-1.2.5-2.3 1.2-3.3.8-1.1 1.8-2 3-2.6L50.5 1.8a17 17 0 0 1 15.2 0l19.8 10.8 2.4-1.3a17 17 0 0 1 15.2 0L131.7 27c1.9.9 3.4 2.6 4 4.6.2.4.2.8.2 1.3v25.4c0 1.3-.7 2.4-1.8 3L75.6 93.9a17 17 0 0 1-7.6 1.8zM6.9 41v15.6l56.8 31.2c2.8 1.2 5.9 1.2 8.6 0l56.8-31.5V41L75.6 70.2a17 17 0 0 1-15.2 0L6.9 41zM58.1 7c-1.5 0-3 .3-4.3.9L7.5 33.1l-.3.2.3.2 56.2 30.6a11 11 0 0 0 8.7 0l56.1-30.6.3-.2-.3-.2-28.8-15.7a11 11 0 0 0-8.7 0l-5.6 3.1-23-12.6c-1.4-.7-2.8-1-4.3-.9z"/>
</svg>
