<svg width="512" height="512" viewBox="0 0 512 512" fill="none" xmlns="http://www.w3.org/2000/svg">
<path d="M267.828 239.854C342.008 332.804 413.718 222.187 300.194 169.791L336.026 167.538C336.026 167.538 437.025 248.151 381.506 300.873C325.988 353.595 263.415 254.553 263.415 254.553L267.828 239.854Z" fill="#91C6FF"/>
<path d="M266.258 395.051C265.621 395.253 264.984 395.409 264.331 395.579L261.224 396.31C243.968 400.113 226.489 402.817 208.89 404.405C193.01 405.881 185.8 384.811 199.288 376.312C260.773 337.466 242.143 305.612 211.641 302.675C317.162 298.294 335.218 376.467 266.258 395.051Z" fill="#91C6FF"/>
<g style="mix-blend-mode:multiply" opacity="0.3">
<path d="M269.723 394.072C268.62 394.321 267.455 394.709 266.227 395.036C275.55 390.7 281.766 385.402 285.821 379.761C308.476 348.296 259.561 319.006 235.29 342.951C248.047 320.56 232.649 304.68 211.625 302.676C312.547 307.135 334.425 374.074 269.723 394.072Z" fill="#008CFF"/>
</g>
<path d="M265.823 395.176C323.315 378.549 318.11 307.384 210.367 302.613C177.285 300.283 127.734 307.943 98.1329 261.685C71.065 219.219 80.8231 162.69 106.648 131.427C122.342 112.299 144.095 102.634 166.906 111.538C181.527 117.256 196.631 130.541 210.864 153.895C271.246 252.891 324.791 326.123 370.194 291.628C411.387 260.349 373.38 191.094 298.003 169.108C280.911 164.12 281.128 139.585 298.609 135.653C459.96 99.4024 498.542 339.579 265.823 395.176Z" fill="#008CFF"/>
</svg>
