<svg xmlns="http://www.w3.org/2000/svg" width="115" height="115" viewBox="0 0 115 115">
  <g fill="none" fill-rule="evenodd" transform="translate(8)">
    <polygon fill="#AB2B4A" points="99.998 28.748 99.998 86.248 89.297 72.499 83.335 57.5 83.331 57.5 88.993 42.291"/>
    <polygon fill="#E87A68" points=".004 28.748 .004 86.248 9.464 72.915 16.667 57.5 16.671 57.5 9.348 42.875"/>
    <polygon fill="#D74D4E" points="83.331 57.5 51.816 59.492 16.667 57.5 31.335 28.748 50.001 0 70.297 31.564"/>
    <polygon fill="#BD3246" points="99.998 28.748 83.331 57.5 50.001 0"/>
    <polygon fill="#F19175" points="50.001 0 16.667 57.5 0 28.748"/>
    <polygon fill="#CF3942" points="83.331 57.5 71.94 82.328 50.001 115 27.424 81.23 16.667 57.5"/>
    <polygon fill="#E0625B" points="50.001 115 0 86.248 16.667 57.5"/>
    <polygon fill="#9A244F" points="49.998 115 99.998 86.248 83.331 57.5"/>
  </g>
</svg>