<svg xmlns="http://www.w3.org/2000/svg" width="32" height="22" fill="none" viewBox="0 0 139 95"><path fill="#ffffff" fill-rule="evenodd" d="M54.376 77.803a28.99 28.99 0 0 0 2.06 1.078c5.242 2.43 7.676 4.026 7.676 7.393 0 3.606-2.95 6.556-6.555 6.556-2.807 0-5.147-1.778-6.083-4.26a18.63 18.63 0 0 1-13.34 5.617A18.714 18.714 0 0 1 20.84 82.628a18.724 18.724 0 0 1-1.424-7.165c0-.983.138-1.966.28-2.95-9.598-2.808-16.99-10.81-18.677-20.831a27.676 27.676 0 0 1-.374-4.4c0-1.5.142-2.95.374-4.401 1.734-9.97 9.079-18.024 18.677-20.832l-.018-.123c-.135-.936-.265-1.84-.265-2.826A18.723 18.723 0 0 1 30.969 1.8 18.714 18.714 0 0 1 38.133.376c5.198 0 9.924 2.155 13.341 5.616a6.505 6.505 0 0 1 6.083-4.26c3.606 0 6.555 2.95 6.555 6.556 0 3.65-2.434 5.243-7.676 7.677-.515.246-1.023.507-1.523.784l-.537.29c-.42.236-.841.471-1.219.704-.326.188-.605.373-.888.562a1.93 1.93 0 0 0-.254.163c-.083.061-.17.116-.261.163-1.59 1.03-3.04 2.25-4.447 3.512a.454.454 0 0 0-.117.095c-.036.036-.072.072-.116.094a54.548 54.548 0 0 0-1.64 1.683l-.21.236c-.068.08-.137.163-.21.232-.22.274-.446.545-.675.813a22.61 22.61 0 0 0-1.008 1.248 34.806 34.806 0 0 0-7.022 20.879 34.505 34.505 0 0 0 7.022 20.879 23.14 23.14 0 0 0 1.893 2.292c.073.08.142.164.21.233.389.457.799.86 1.216 1.27l.424.416a.454.454 0 0 1 .117.095.57.57 0 0 0 .116.094 35.733 35.733 0 0 0 4.447 3.508c.094.047.177.11.257.164.081.062.168.118.258.166l.446.28.442.28.61.351c.2.116.399.236.61.352Zm65.055-55.565c9.598 2.808 16.991 10.81 18.677 20.831a27.894 27.894 0 0 1 0 9.08c-1.734 9.97-9.079 18.025-18.677 20.832l.018.124c.135.936.265 1.84.265 2.826a18.71 18.71 0 0 1-5.483 13.242 18.718 18.718 0 0 1-13.241 5.482 18.706 18.706 0 0 1-13.337-5.616 6.505 6.505 0 0 1-6.083 4.259 6.572 6.572 0 0 1-6.555-6.552c0-3.653 2.434-5.246 7.676-7.68a26.74 26.74 0 0 0 1.523-.784l.537-.29c.42-.236.841-.472 1.219-.704.326-.189.606-.374.888-.563a1.77 1.77 0 0 0 .254-.163 1.91 1.91 0 0 1 .262-.163 35.755 35.755 0 0 0 4.447-3.512.444.444 0 0 0 .116-.094.46.46 0 0 1 .116-.09c.562-.563 1.124-1.126 1.64-1.688l.21-.232c.069-.084.137-.167.21-.236.218-.276.45-.544.675-.813.352-.413.696-.82 1.008-1.247 4.353-5.805 7.022-13.061 7.022-20.88a34.503 34.503 0 0 0-7.022-20.874 23.144 23.144 0 0 0-1.893-2.297c-.073-.08-.142-.163-.21-.232a18.65 18.65 0 0 0-1.64-1.687.461.461 0 0 1-.116-.094.452.452 0 0 0-.117-.091 40.733 40.733 0 0 0-4.446-3.512 1.928 1.928 0 0 1-.258-.163c-.084-.058-.163-.116-.258-.163a10.47 10.47 0 0 0-.446-.283 12.66 12.66 0 0 1-.442-.28l-.61-.352c-.862-.523-1.752-1-2.666-1.429-5.198-2.478-7.679-4.07-7.679-7.677 0-3.602 2.95-6.552 6.555-6.552 2.807 0 5.147 1.778 6.083 4.26A18.63 18.63 0 0 1 100.994.563a18.712 18.712 0 0 1 17.293 11.56 18.74 18.74 0 0 1 1.424 7.164c0 .98-.138 1.966-.28 2.95Z" clip-rule="evenodd"/><path fill="#ffffff" d="M89.992 47.466a20.4 20.4 0 0 0-12.596-18.858 20.39 20.39 0 0 0-7.81-1.549A20.39 20.39 0 0 0 50.73 39.657a20.399 20.399 0 0 0-1.55 7.813 20.4 20.4 0 0 0 12.595 18.856 20.387 20.387 0 0 0 7.81 1.55 20.39 20.39 0 0 0 18.856-12.594 20.4 20.4 0 0 0 1.55-7.812v-.004Z"/></svg>
