<svg xmlns="http://www.w3.org/2000/svg" viewBox="0 0 172.8 113.18">
  <defs>
    <style>.cls-1{fill: white;}</style>
  </defs>
  <g>
    <path class="cls-1" d="M140.25,40.27A57.84,57.84,0,0,0,85.56,0,56.75,56.75,0,0,0,35.24,29.9a42.79,42.79,0,0,0-10.33,81l1.08.5h.06V99.23a31.95,31.95,0,0,1,13.31-59l3-.31,1.31-2.74A46,46,0,0,1,85.56,10.85a46.83,46.83,0,0,1,45.19,35.79l1,4.11,4.23.07a26.56,26.56,0,0,1,26,26.44c0,10.11-5.83,18.36-15.72,22.55v11.55l.71-.24c15.95-5.21,25.86-18.19,25.86-33.86A37.49,37.49,0,0,0,140.25,40.27Z"/>
    <path class="cls-1" d="M64.56,110l2.38,2.38a.47.47,0,0,1-.34.81H47.84a8.53,8.53,0,0,1-8.54-8.53V68.14a.47.47,0,0,0-.47-.47H34.76a.48.48,0,0,1-.34-.81L50.35,50.94a.46.46,0,0,1,.67,0L66.94,66.86a.47.47,0,0,1-.34.81H62.53a.47.47,0,0,0-.47.47V104A8.53,8.53,0,0,0,64.56,110Z"/>
    <path class="cls-1" d="M99.76,110l2.38,2.38a.47.47,0,0,1-.34.81H83a8.53,8.53,0,0,1-8.54-8.53V77.32a.47.47,0,0,0-.47-.48H70a.48.48,0,0,1-.34-.81L85.55,60.11a.46.46,0,0,1,.67,0L102.14,76a.47.47,0,0,1-.34.81H97.73a.47.47,0,0,0-.47.48V104A8.53,8.53,0,0,0,99.76,110Z"/>
    <path class="cls-1" d="M135,110l2.38,2.38a.47.47,0,0,1-.33.81H118.24a8.54,8.54,0,0,1-8.54-8.53V86.49a.47.47,0,0,0-.47-.47h-4.07a.47.47,0,0,1-.33-.81l15.92-15.93a.48.48,0,0,1,.67,0l15.92,15.93A.47.47,0,0,1,137,86h-4.08a.47.47,0,0,0-.47.47V104A8.53,8.53,0,0,0,135,110Z"/>
  </g>
</svg>