<svg xmlns="http://www.w3.org/2000/svg" fill="#fff" viewBox="0 0 139 95">
  <path fill-rule="evenodd" d="M54.4 77.8a29 29 0 0 0 2 1c5.3 2.5 7.7 4.1 7.7 7.5 0 3.6-3 6.5-6.5 6.5a6.5 6.5 0 0 1-6.1-4.2A18.6 18.6 0 0 1 38 94.2a18.7 18.7 0 0 1-17.3-11.6 18.7 18.7 0 0 1-1.4-7.1l.3-3A26.4 26.4 0 0 1 1 51.7a27.7 27.7 0 0 1-.4-4.4 26.5 26.5 0 0 1 19-25.2v-.2l-.2-2.8A18.7 18.7 0 0 1 31 1.8a18.7 18.7 0 0 1 7-1.4C43.2.4 48 2.5 51.4 6a6.5 6.5 0 0 1 6-4.3c3.7 0 6.6 3 6.6 6.6 0 3.6-2.4 5.2-7.7 7.7l-1.5.7-.5.3-1.2.7-1 .6a2 2 0 0 0-.2.2l-.2.1c-1.6 1-3 2.3-4.5 3.5a.5.5 0 0 0-.1.1l-.1.1a54.5 54.5 0 0 0-1.7 1.7l-.2.3-.2.2-.7.8a22.6 22.6 0 0 0-1 1.2 34.8 34.8 0 0 0-7 21 34.5 34.5 0 0 0 7 20.8 23.1 23.1 0 0 0 2 2.3l.1.2 1.2 1.3.5.4a.5.5 0 0 1 0 .1.6.6 0 0 0 .2.1 35.7 35.7 0 0 0 4.5 3.5l.2.2.3.1.4.3.5.3.6.4.6.3Zm65-55.6c9.6 2.8 17 10.8 18.7 20.9a27.9 27.9 0 0 1 0 9c-1.7 10-9 18-18.7 20.9v.1c.2 1 .3 1.8.3 2.8a18.7 18.7 0 0 1-5.5 13.3 18.7 18.7 0 0 1-13.2 5.5A18.7 18.7 0 0 1 87.7 89a6.5 6.5 0 0 1-6.1 4.3 6.6 6.6 0 0 1-6.6-6.6c0-3.6 2.4-5.2 7.7-7.6a26.7 26.7 0 0 0 1.5-.8l.6-.3 1.2-.7.9-.6a1.8 1.8 0 0 0 .2-.1 2 2 0 0 1 .3-.2 35.8 35.8 0 0 0 4.4-3.5.4.4 0 0 0 .1-.1.5.5 0 0 1 .2-.1l1.6-1.7.2-.2.2-.3.7-.8 1-1.2a35 35 0 0 0 7-20.9 34.5 34.5 0 0 0-7-20.9 23.1 23.1 0 0 0-1.9-2.3l-.2-.2a18.6 18.6 0 0 0-1.6-1.7.5.5 0 0 1-.2 0 .5.5 0 0 0 0-.2 40.7 40.7 0 0 0-4.5-3.5 2 2 0 0 1-.3-.1l-.2-.2a10.5 10.5 0 0 0-.5-.3 12.7 12.7 0 0 1-.4-.3l-.6-.3-2.7-1.5c-5.2-2.4-7.7-4-7.7-7.6 0-3.6 3-6.6 6.6-6.6 2.8 0 5.1 1.8 6 4.3A18.6 18.6 0 0 1 101 .6 18.7 18.7 0 0 1 118.3 12a18.7 18.7 0 0 1 1.4 7.2l-.3 3Z" clip-rule="evenodd"/>
  <path d="M90 47.5a20.4 20.4 0 0 0-12.6-18.9 20.4 20.4 0 0 0-7.8-1.5 20.4 20.4 0 0 0-18.9 12.6 20.4 20.4 0 0 0-1.5 7.8 20.4 20.4 0 0 0 12.6 18.8 20.4 20.4 0 0 0 7.8 1.6 20.4 20.4 0 0 0 18.8-12.6 20.4 20.4 0 0 0 1.6-7.8Z"/>
</svg>
