<?xml version="1.0" encoding="UTF-8"?>
<svg version="1.1" xmlns="http://www.w3.org/2000/svg" width="401" height="401">
<path d="M0 0 C132.33 0 264.66 0 401 0 C401 132.33 401 264.66 401 401 C268.67 401 136.34 401 0 401 C0 268.67 0 136.34 0 0 Z " fill="#551A8B" transform="translate(0,0)"/>
<path d="M0 0 C0.88486084 0.00563965 1.76972168 0.0112793 2.68139648 0.01708984 C19.26875012 0.32344857 31.7626663 6.45711515 43.3125 18.3125 C50.38620411 26.00337292 56.64666531 37.21088236 56.27734375 47.8671875 C55.72203496 57.33546424 55.72203496 57.33546424 59.25 65.609375 C61.74754881 66.9895134 61.74754881 66.9895134 64.48046875 68.0546875 C74.13857672 72.34421959 80.63224441 82.89663818 84.5625 92.3046875 C89.51854215 106.38122388 88.10772389 119.83515058 82.3125 133.3125 C75.76650513 146.65370274 64.89144064 155.2919841 50.9753418 160.12402344 C41.93200377 162.80695748 32.9439857 162.83723184 23.59204102 162.81347656 C20.85524829 162.8124929 18.12116348 162.8544793 15.38476562 162.8984375 C13.63281828 162.90363779 11.88086131 162.9063328 10.12890625 162.90625 C9.31740616 162.92264526 8.50590607 162.93904053 7.66981506 162.95593262 C3.42678125 162.90409834 1.77613997 162.66937162 -1.69946289 159.99414062 C-3.6875 157.3125 -3.6875 157.3125 -4.3125 153.8125 C-3.50544283 149.29297986 -2.32648314 148.08223699 1.3125 145.3125 C4.42750108 144.62215712 7.45737455 144.68527306 10.63671875 144.74609375 C11.53816116 144.74045914 12.43960358 144.73482452 13.36836243 144.72901917 C16.24610521 144.71258949 19.12231131 144.7280697 22 144.75 C38.23435125 145.39646658 38.23435125 145.39646658 53.3125 140.3125 C54.385 139.714375 55.4575 139.11625 56.5625 138.5 C64.21346275 132.4140069 68.34328217 124.89850378 70.3125 115.3125 C71.30891556 105.23400168 69.04809811 96.7713406 63.1875 88.5 C58.39942025 82.75635927 52.20640734 79.44133072 45.375 76.625 C42.44923308 75.37109989 41.1589454 74.81387093 39.3125 72.3125 C39.03540039 69.63623047 39.03540039 69.63623047 39.16015625 66.4296875 C39.20172852 64.67785156 39.20172852 64.67785156 39.24414062 62.890625 C39.33055805 60.44514083 39.42161342 57.99981563 39.51757812 55.5546875 C39.68421301 48.14146744 39.09543321 42.74876497 35.3125 36.3125 C34.714375 35.28125 34.11625 34.25 33.5 33.1875 C27.09070947 24.76386102 20.36164392 20.66221464 10.3125 17.3125 C-3.72500254 16.45017608 -13.52018723 17.45291922 -24.73046875 26.5625 C-26.88537986 28.42389353 -26.88537986 28.42389353 -29.3125 31.25 C-31.6875 33.3125 -31.6875 33.3125 -35.0625 33.8125 C-38.6875 33.3125 -38.6875 33.3125 -42 31.8125 C-47.34546848 29.63807214 -52.32108637 29.31151329 -57.89453125 30.96875 C-64.01411061 33.68336264 -68.18363817 38.08993893 -71 44.125 C-71.7790861 47.73712645 -72.0680439 51.25795759 -72.24609375 54.9453125 C-72.79416352 57.88451855 -73.57079506 59.20034711 -75.6875 61.3125 C-78.2890625 62.3671875 -78.2890625 62.3671875 -81.3125 63.1875 C-92.16706425 66.57464716 -100.79275297 73.09320464 -106.26171875 83.23046875 C-111.24881069 94.04774267 -112.64401423 105.12287633 -109.125 116.6875 C-104.54280465 128.49546494 -96.83029937 136.70161319 -85.34765625 141.98046875 C-78.00726585 144.95848663 -71.14336791 144.98290464 -63.3125 144.8125 C-61.97265388 144.81314962 -60.63280725 144.81574524 -59.29296875 144.8203125 C-49.34133772 144.77577208 -49.34133772 144.77577208 -40.9921875 139.7265625 C-40.52039063 139.13617188 -40.04859375 138.54578125 -39.5625 137.9375 C-36.42178882 134.15752903 -33.15954157 130.53365544 -29.8125 126.9375 C-24.71724267 121.44285005 -19.68166886 115.89941112 -14.6875 110.3125 C-16.10488489 107.06042908 -17.81276412 104.99888933 -20.375 102.5625 C-22.96671381 100.03546354 -25.45836051 97.49949116 -27.8125 94.75 C-32.01269541 89.85466735 -36.45657017 85.18772625 -40.88916016 80.50366211 C-41.47874512 79.8772583 -42.06833008 79.25085449 -42.67578125 78.60546875 C-43.20727783 78.0436792 -43.73877441 77.48188965 -44.28637695 76.90307617 C-46.4529642 74.44353341 -47.62785894 72.70442698 -48.125 69.4375 C-47.6875 66.3125 -47.6875 66.3125 -45.5625 63.4375 C-42.6875 61.3125 -42.6875 61.3125 -39.875 60.5625 C-31.16885469 62.61100478 -24.89806984 72.28567366 -19.11083984 78.73193359 C-16.82073131 81.27501467 -14.50299862 83.79255879 -12.1875 86.3125 C-11.28378907 87.29941956 -10.38014354 88.28639902 -9.4765625 89.2734375 C-7.51917952 91.40939854 -5.55445401 93.53835939 -3.5859375 95.6640625 C-3.07998047 96.21191406 -2.57402344 96.75976562 -2.05273438 97.32421875 C-1.07931824 98.37800869 -0.1041323 99.43016733 0.87304688 100.48046875 C5.18256456 105.15282618 5.18256456 105.15282618 5.625 109.1015625 C5.23089605 113.15098055 3.96036603 114.63708678 1.3125 117.6875 C0.49007812 118.64011719 -0.33234375 119.59273438 -1.1796875 120.57421875 C-3.97139624 123.62248639 -6.84202391 126.55616443 -9.8046875 129.4375 C-11.60516418 131.23050582 -13.27835278 133.07635105 -14.9375 135 C-36.96571027 160.51432612 -36.96571027 160.51432612 -48.59643555 161.71655273 C-50.00548697 161.74277873 -51.4149352 161.75189065 -52.82421875 161.74609375 C-53.58491165 161.7513356 -54.34560455 161.75657745 -55.12934875 161.76197815 C-56.73197213 161.76836776 -58.33464259 161.76710123 -59.93725586 161.75854492 C-62.35163023 161.75008192 -64.76359584 161.7787592 -67.17773438 161.81054688 C-83.77062742 161.88739452 -98.34894889 156.96639926 -110.74609375 145.44921875 C-123.58150919 131.32251403 -128.39901307 115.78167196 -128 96.98046875 C-127.70832797 90.93678133 -126.23600055 85.79058529 -123.6875 80.3125 C-123.26339844 79.38179688 -122.83929688 78.45109375 -122.40234375 77.4921875 C-116.21231532 65.11213063 -106.91394979 56.01219556 -94.3125 50.5 C-90.26089065 48.69250335 -90.26089065 48.69250335 -87.6875 45.3203125 C-87.43172687 43.82297397 -87.22939698 42.31576734 -87.07421875 40.8046875 C-85.81984661 32.72095594 -80.25711436 26.07964898 -74.125 21.03515625 C-66.77484679 15.84057681 -59.95183321 13.16365256 -50.9375 13.1875 C-49.88691406 13.1875 -48.83632812 13.1875 -47.75390625 13.1875 C-45.0210656 13.29890242 -42.55236829 13.67315138 -39.875 14.1875 C-37.33637296 14.50936164 -36.18511311 14.62466007 -34 13.25390625 C-32.87876464 12.21622449 -31.77948542 11.15448542 -30.69921875 10.07421875 C-22.17484973 2.60918879 -11.02294433 -0.07329782 0 0 Z " fill="#FBFAFC" transform="translate(220.6875,119.6875)"/>
</svg>
