<svg xmlns="http://www.w3.org/2000/svg" data-name="Layer 1" viewBox="0 0 150 150">
	<path fill="#ffda00" d="M61.2 92.3a24.6 24.6 0 0 1-7.1-17.4 24.3 24.3 0 0 1 7.2-17.4 9.7 9.7 0 0 0-13.6-13.7 44 44 0 0 0-.2 62.1 9.7 9.7 0 1 0 13.7-13.6Z"/>
	<path fill="#67b3ff" d="M61.3 57.5a24.6 24.6 0 0 1 17.5-7.2A24.3 24.3 0 0 1 96 57.6 9.7 9.7 0 1 0 109.8 44a43.8 43.8 0 0 0-62-.3 9.7 9.7 0 0 0 13.5 13.8Z"/>
	<path fill="#eb5a68" d="M96 92.4a24.6 24.6 0 0 1-17.4 7.1 24.3 24.3 0 0 1-17.3-7.2 9.7 9.7 0 1 0-13.8 13.6 43.9 43.9 0 0 0 62.2.3 9.7 9.7 0 0 0-13.6-13.8Z"/>
	<path fill="#47a1ff" d="M61.3 57.5a9.7 9.7 0 1 1 0-13.7 9.7 9.7 0 0 1 0 13.7Z"/>
	<path fill="#d5465f" d="M61.1 106a9.7 9.7 0 1 1 .1-13.7 9.7 9.7 0 0 1 0 13.6Z"/>
</svg>
