<svg width="180" height="180" viewBox="0 0 180 180" fill="none" xmlns="http://www.w3.org/2000/svg">
<path d="M44.7039 152.483C44.8536 153.868 44.1508 155.206 42.9208 155.879L24.8695 165.753C22.0587 167.291 18.8228 164.564 19.8994 161.566L34.5945 120.633C35.8382 117.169 40.9528 117.768 41.3476 121.424L44.7039 152.483Z" fill="#2AAB9F"/>
<path d="M158.574 44.6397C160.87 45.9595 160.897 49.2366 158.624 50.5935L130.741 67.2368C128.428 68.6179 125.477 66.9803 125.455 64.3028L125.184 31.4705C125.162 28.793 128.085 27.1077 130.421 28.4509L158.574 44.6397Z" fill="#2AAB9F"/>
<path d="M53.2698 11.2512C54.5943 11.2171 55.8236 11.9301 56.443 13.0914L112.49 118.178C113.384 119.853 112.751 121.929 111.072 122.833L93.283 132.418C91.6254 133.311 89.5517 132.735 88.6032 131.118L21.7749 17.1808C20.443 14.9099 22.0507 12.0538 24.6992 11.9857L53.2698 11.2512Z" fill="#2AAB9F"/>
<path d="M80.1568 49.936C79.2543 48.2395 79.9165 46.1385 81.633 45.254L117.044 27.0076C119.366 25.8113 122.14 27.4817 122.14 30.0758V114.871C122.14 118.479 117.266 119.676 115.568 116.485L80.1568 49.936Z" fill="#228C82"/>
<path d="M84.2591 132.575C85.2527 134.299 84.5817 136.496 82.7909 137.384L52.2527 152.524C50.0678 153.607 47.4659 152.185 47.2228 149.775L38.8941 67.1936C38.5195 63.4798 43.5247 61.8933 45.3922 65.1341L84.2591 132.575Z" fill="#228C82"/>
</svg>
