<?xml version="1.0" encoding="UTF-8"?><svg fill="#8052fd" id="AI-1" xmlns="http://www.w3.org/2000/svg" viewBox="0 0 198 198"><path d="M99,155.28c-25.5,0-45.47-10.48-45.47-23.86,0-1.24,1.01-2.25,2.25-2.25s2.25,1.01,2.25,2.25c0,10.5,18.76,19.36,40.97,19.36,1.24,0,2.25,1.01,2.25,2.25s-1.01,2.25-2.25,2.25Z" /><path d="M99,133.67c-25.5,0-45.47-10.48-45.47-23.86,0-1.24,1.01-2.25,2.25-2.25s2.25,1.01,2.25,2.25c0,10.5,18.76,19.36,40.97,19.36s40.97-8.87,40.97-19.36c0-1.24,1.01-2.25,2.25-2.25s2.25,1.01,2.25,2.25c0,13.38-19.97,23.86-45.47,23.86Z" /><path d="M99,155.28c-1.24,0-2.25-1.01-2.25-2.25s1.01-2.25,2.25-2.25c22.21,0,40.97-8.87,40.97-19.36,0-1.24,1.01-2.25,2.25-2.25s2.25,1.01,2.25,2.25c0,13.38-19.97,23.86-45.47,23.86Z" /><path d="M99,112.06c-25.5,0-45.47-10.48-45.47-23.86,0-1.24,1.01-2.25,2.25-2.25s2.25,1.01,2.25,2.25c0,10.5,18.76,19.36,40.97,19.36s40.97-8.87,40.97-19.36c0-1.24,1.01-2.25,2.25-2.25s2.25,1.01,2.25,2.25c0,13.38-19.97,23.86-45.47,23.86Z" /><path d="M99,90.44c-25.5,0-45.47-10.48-45.47-23.86s19.97-23.86,45.47-23.86,45.47,10.48,45.47,23.86-19.97,23.86-45.47,23.86Zm0-43.22c-22.21,0-40.97,8.87-40.97,19.36s18.76,19.36,40.97,19.36,40.97-8.87,40.97-19.36-18.76-19.36-40.97-19.36Z" /><path d="M55.78,133.67c-1.24,0-2.25-1.01-2.25-2.25V66.58c0-1.24,1.01-2.25,2.25-2.25s2.25,1.01,2.25,2.25v64.84c0,1.24-1.01,2.25-2.25,2.25Z" /><path d="M142.22,133.67c-1.24,0-2.25-1.01-2.25-2.25V66.58c0-1.24,1.01-2.25,2.25-2.25s2.25,1.01,2.25,2.25v64.84c0,1.24-1.01,2.25-2.25,2.25Z" /></svg>