<?xml version="1.0" encoding="utf-8"?>
<!-- Generator: Adobe Illustrator 27.1.1, SVG Export Plug-In . SVG Version: 6.00 Build 0)  -->
<svg version="1.1" id="Layer_1" xmlns="http://www.w3.org/2000/svg" xmlns:xlink="http://www.w3.org/1999/xlink" x="0px" y="0px"
	 viewBox="0 0 72 72" style="enable-background:new 0 0 72 72;" xml:space="preserve">
<style type="text/css">
  .st65{fill:#FF0082;}
</style>
<g>
	<path class="st65" d="M24.2,2.9L1.7,5l2.7,29.5l14.7-1.3l-1.5-16l7.8-0.7c7.8-0.7,14,5.5,14.9,14.8c0,0,0,0,0,0l14.4-1.3
		C53.3,13.6,39.6,1.5,24.2,2.9z"/>
	<path class="st65" d="M55.7,39.1c0,9.3-5.7,16.1-13.5,16.1h-7.9V39.1H19.6v29.6h22.6c15.4,0,27.9-13.3,27.9-29.6c0,0,0,0,0,0
		L55.7,39.1C55.7,39.1,55.7,39.1,55.7,39.1z"/>
</g>
</svg>
