<svg xmlns="http://www.w3.org/2000/svg" width="580" height="580" fill="none"><g clip-path="url(#a)"><path fill="#fff" fill-rule="evenodd" d="M300.227 69.242c121.29 5.642 215.181 108.695 209.539 229.985-5.642 121.29-108.695 215.18-229.985 209.538-121.29-5.643-215.182-108.694-209.54-229.984C75.885 157.491 178.938 63.6 300.227 69.241Zm51.437 264.904c-13.886-.683-27.595-3.003-38.617-4.846-8.381-1.402-16.33-3.611-22.856-5.852a2.577 2.577 0 0 0-2.932.879c-.678.906-.776 2.221-.019 3.061 3.08 3.418 12.85 10.538 20.442 13.807-6.49 5.358-10.928 17.61-12.677 23.953-2.348 8.511-2.681 20.801-2.113 25.312 2.287 18.145 8.96 34.406 25.48 48.632 11.565 9.957 28.299 16.763 45.403 17.068 23.603.42 51.878-9.72 74.075-32.513 29.019-31.815 48.031-73.183 51.56-119.405 8.404-110.062-74.129-206.241-184.191-214.646-110.061-8.404-206.24 74.13-214.644 184.191-4.353 56.998 15.684 110.275 51.307 149.56a3.186 3.186 0 0 0 5.421-2.976c-26.418-103.478 30.89-215.167 94.856-250.516 23.748-13.124 46.878-18.113 67.66-9.709 31.818 12.865 50.009 34.196 89.388 52.138 39.38 17.94 43.639 47.85 32.662 78.088-10.977 30.239-46.345 45.437-80.205 43.774Zm-68.906-160.059c-12.906 1.01-21.38 16.984-22.489 27.26-1.115 10.275 3.985 27.234 20.801 26.903 19.693-.388 25.676-17.245 23.516-33.555-1.622-12.25-11.039-21.454-21.828-20.608Z" clip-rule="evenodd"/></g><defs><clipPath id="a"><path fill="#fff" d="M70 69h441v441H70z"/></clipPath></defs></svg>
