<svg width="32" height="40" viewBox="0 0 32 40" fill="none" xmlns="http://www.w3.org/2000/svg">
<path d="M7.823 31.25V23.438L0 31.25H7.823ZM23.47 31.25H15.647V7.81401H23.47V31.25Z" fill="#4B25BB"/>
<path d="M23.47 39.059H7.823L15.647 31.247L23.47 39.059ZM7.823 11.718C7.82339 12.2314 7.92489 12.7396 8.1217 13.2137C8.31851 13.6878 8.60678 14.1185 8.97004 14.4812C9.3333 14.8439 9.76445 15.1315 10.2389 15.3276C10.7133 15.5237 11.2217 15.6244 11.735 15.624C12.2483 15.6244 12.7567 15.5237 13.2311 15.3276C13.7055 15.1315 14.1367 14.8439 14.5 14.4812C14.8632 14.1185 15.1515 13.6878 15.3483 13.2137C15.5451 12.7396 15.6466 12.2314 15.647 11.718C15.6466 11.2047 15.5451 10.6964 15.3483 10.2223C15.1515 9.74822 14.8632 9.31752 14.5 8.95481C14.1367 8.5921 13.7055 8.3045 13.2311 8.10842C12.7567 7.91234 12.2483 7.81162 11.735 7.81201C11.2217 7.81162 10.7133 7.91234 10.2389 8.10842C9.76445 8.3045 9.3333 8.5921 8.97004 8.95481C8.60678 9.31752 8.31851 9.74822 8.1217 10.2223C7.92489 10.6964 7.82339 11.2047 7.823 11.718Z" fill="white"/>
<path d="M23.47 31.25H31.293L23.47 23.438V31.25ZM15.647 0L23.47 7.812H7.823L15.647 0ZM15.647 31.25H7.823V15.625H15.647V31.249V31.25Z" fill="#40CF9F"/>
</svg>
