<?xml version="1.0" encoding="UTF-8"?>
<svg version="1.1" xmlns="http://www.w3.org/2000/svg" width="3000" height="2000">
<path d="M0 0 C1.37454346 0.81815186 1.37454346 0.81815186 2.77685547 1.65283203 C14.2988187 8.5433584 25.34698206 15.83289009 36 24 C37.14032563 24.86367666 38.28094855 25.72696094 39.421875 26.58984375 C49.66955046 34.3728884 59.56422919 42.45563167 68.98046875 51.2265625 C71.2305385 53.31675587 73.53414968 55.33369464 75.859375 57.33984375 C80.10180469 61.03757263 84.09582334 64.9477389 88.0625 68.9375 C88.73087891 69.60201172 89.39925781 70.26652344 90.08789062 70.95117188 C93.9994413 74.87032517 97.7334154 78.89302834 101.34936523 83.08618164 C102.88080231 84.86179697 104.4348167 86.61352394 106 88.359375 C127.90862794 113.00158983 146.54567551 140.90737642 162 170 C162.4748584 170.88929199 162.9497168 171.77858398 163.43896484 172.69482422 C205.55219782 252.26139779 221.26962195 347.61276929 194.75 514.4375 C187.4121704 537.6902048 178.72920971 560.09885369 168 582 C167.52336914 582.97388672 167.04673828 583.94777344 166.55566406 584.95117188 C155.39615896 607.51527758 142.20887966 628.94309817 127 649 C126.54399414 649.60618164 126.08798828 650.21236328 125.61816406 650.83691406 C117.93133458 661.04271926 109.95891855 670.98555078 101.3359375 680.41796875 C100.07459517 681.81219497 98.81907332 683.21231127 97.59960938 684.64331055 C92.47729223 690.63464778 86.96555524 696.22057669 81.39501953 701.7902832 C79.76172552 703.42575882 78.1366153 705.06907708 76.51171875 706.71289062 C70.72772434 712.52751224 64.82854125 717.96784336 58.40332031 723.0847168 C55.8735662 725.10075916 53.44533742 727.20342164 51.02294922 729.34545898 C25.62420273 751.72713732 -4.40116704 770.51261227 -34.93603516 785.01074219 C-37.21243417 786.10181964 -39.4710741 787.22571461 -41.73046875 788.3515625 C-89.84040982 812.10021853 -142.69212447 825.30598956 -196 830 C-196.78068848 830.07057617 -197.56137695 830.14115234 -198.36572266 830.21386719 C-209.93251149 831.21967491 -221.35255971 831 -233 831 C-233 774.24 -233 717.48 -233 659 C-289.43 659 -345.86 659 -404 659 C-404 702.56 -404 746.12 -404 791 C-448.22 791 -492.44 791 -538 791 C-538 747.44 -538 703.88 -538 659 C-574.3 659 -610.6 659 -648 659 C-648 622.04 -648 585.08 -648 547 C-611.37 547 -574.74 547 -537 547 C-537 583.63 -537 620.26 -537 658 C-493.44 658 -449.88 658 -405 658 C-405 601.24 -405 544.48 -405 486 C-347.91 486 -290.82 486 -232 486 C-232 542.43 -232 598.86 -232 657 C-201.11096601 654.42591383 -171.91873587 651.66240021 -143 641 C-142.01370605 640.63922363 -141.02741211 640.27844727 -140.01123047 639.90673828 C-108.08202961 628.06680688 -78.38585606 611.2227219 -53.2578125 588.07421875 C-51.22836537 586.20979587 -49.15965844 584.41225446 -47.0625 582.625 C-38.13604823 574.8143547 -30.36173281 566.28112849 -23 557 C-22.06744409 555.87825891 -21.13242538 554.75856196 -20.1953125 553.640625 C15.60816828 510.56943159 37.62875174 452.04232036 39 396 C39.02046387 395.16533203 39.04092773 394.33066406 39.06201172 393.47070312 C40.50226084 324.48157982 19.10651975 251.92488151 -29 201 C-30.13029167 199.69205429 -31.25543311 198.37963752 -32.375 197.0625 C-40.17319412 188.15027814 -48.67608315 180.28577422 -58 173 C-59.24483022 172.00265228 -60.48961931 171.00525323 -61.734375 170.0078125 C-101.95671216 138.13039879 -151.21571525 119.90388976 -202 114 C-202.77085937 113.9057373 -203.54171875 113.81147461 -204.3359375 113.71435547 C-213.57291486 112.71985039 -222.84522975 112.75635579 -232.125 112.75 C-233.0119455 112.74932526 -233.89889099 112.74865051 -234.81271362 112.74795532 C-302.13574462 112.82906102 -368.14012427 138.35813057 -417.33203125 184.51953125 C-419.52975844 186.56280616 -421.76341064 188.51148802 -424.0625 190.4375 C-433.3921086 198.57199345 -441.16122056 208.3696674 -448.625 218.19238281 C-449.53665531 219.39087285 -450.45328301 220.58559787 -451.375 221.77636719 C-458.70997682 231.26286774 -464.90837699 241.18328128 -470.7109375 251.67285156 C-471.91728643 253.85067695 -473.14471299 256.01533191 -474.375 258.1796875 C-496.24588919 297.31236979 -503.6750843 340.82660168 -506 385 C-563.42 385 -620.84 385 -680 385 C-680 303.50359178 -658.43175867 221.33692182 -615 152 C-614.35514648 150.96770264 -614.35514648 150.96770264 -613.69726562 149.91455078 C-598.10827839 125.10302766 -580.4425687 102.04461895 -560.48291016 80.60058594 C-558.87916316 78.8695742 -557.28869009 77.1269376 -555.69921875 75.3828125 C-550.59864305 69.80571243 -545.56202569 64.34471892 -539.74609375 59.49609375 C-537.95056867 57.95764609 -536.32780988 56.32706273 -534.6875 54.625 C-531.03532376 50.91511443 -527.05157538 47.69509176 -522.99609375 44.4375 C-520.4572149 42.37197145 -517.97603277 40.25588222 -515.50683594 38.1081543 C-507.09037548 30.82427603 -498.12114157 24.36766729 -489 18 C-488.38463379 17.56864746 -487.76926758 17.13729492 -487.13525391 16.69287109 C-433.24831654 -20.83904068 -371.79792137 -45.59377319 -307.125 -56.375 C-306.39453461 -56.49678619 -305.66406921 -56.61857239 -304.91146851 -56.74404907 C-216.94379782 -71.2159289 -122.77342221 -58.91873672 0 0 Z " fill="#007FFF" transform="translate(1733,395)"/>
<path d="M0 0 C1.55341681 1.31962498 3.09526317 2.65299624 4.625 4 C5.85089844 5.02867188 5.85089844 5.02867188 7.1015625 6.078125 C28.60445897 24.5852619 42.71885722 51.70958964 45.625 80 C47.40569328 115.39088635 39.49279445 146.24928786 15.375 173.0625 C-3.55587729 193.51560657 -31.01215737 208.96503438 -59.37841797 210.12255859 C-87.73611951 210.7825982 -87.73611951 210.7825982 -101.375 207 C-103.16744141 206.52433594 -103.16744141 206.52433594 -104.99609375 206.0390625 C-135.69566186 196.87792154 -160.0786634 175.50752602 -175.1875 147.5625 C-179.15687948 139.94481898 -182.13194284 132.31250593 -184.375 124 C-184.69339844 122.85402344 -185.01179688 121.70804688 -185.33984375 120.52734375 C-192.33921478 90.36876351 -186.71116489 58.14826671 -170.83203125 31.79296875 C-153.98171678 5.11615938 -128.09434439 -13.33193581 -97.50292969 -20.8347168 C-63.99382856 -28.25324829 -27.19169159 -21.32848309 0 0 Z M-129.20703125 46.1640625 C-143.06945712 64.29761417 -147.921355 84.73687387 -145.08642578 107.29638672 C-142.62535242 121.12134242 -135.69727372 133.66404215 -126.375 144 C-125.78332031 144.68449219 -125.19164062 145.36898438 -124.58203125 146.07421875 C-113.7718594 157.80636687 -98.07917122 165.63361803 -82.375 168 C-81.4984375 168.1340625 -80.621875 168.268125 -79.71875 168.40625 C-60.60949708 170.66648422 -41.89153304 165.21871569 -26.375 154 C-10.17624793 141.00464771 0.52433481 124.7906543 3.625 104 C5.45847503 83.00833345 0.65758796 63.44165348 -12.25 46.5625 C-25.11035264 31.68337108 -42.87101636 20.59460192 -62.82446289 18.77685547 C-88.97172533 17.5952028 -111.82580782 26.16796475 -129.20703125 46.1640625 Z " fill="#007FFF" transform="translate(1697.375,1396)"/>
<path d="M0 0 C101.73772435 0 101.73772435 0 119.5 5.8125 C120.31984375 6.07039307 121.1396875 6.32828613 121.984375 6.59399414 C137.02923172 11.46553531 150.79043158 18.94643983 163 29 C163.80953125 29.60972656 164.6190625 30.21945312 165.453125 30.84765625 C182.30556332 45.08951747 191.50220569 70.72551754 193.77294922 91.99121094 C196.34208326 126.03638069 192.84767702 159.43138488 171 187 C170.50886719 187.64453125 170.01773438 188.2890625 169.51171875 188.953125 C153.5127548 208.96309681 126.32419065 219.28038092 102 224 C68.20145767 227.75539359 34.00653532 226 0 226 C0 151.42 0 76.84 0 0 Z M43 39 C43 87.84 43 136.68 43 187 C91.84827873 187.91697338 91.84827873 187.91697338 133.78515625 165.43359375 C147.21102829 150.68170966 150.4030675 131.63662543 150.375 112.375 C150.37368576 111.38487915 150.37368576 111.38487915 150.37234497 110.37475586 C150.29556923 92.81356711 147.4452499 73.82124924 134.6953125 60.50390625 C109.06792431 37.76993286 75.6195344 39 43 39 Z " fill="#007FFF" transform="translate(608,1377)"/>
<path d="M0 0 C0.33 -3.3 0.66 -6.6 1 -10 C14.53 -10 28.06 -10 42 -10 C42.04524889 9.7069339 42.0820484 29.41382535 42.10362434 49.12079811 C42.1139113 58.27228284 42.12792197 67.42373287 42.15087891 76.57519531 C42.17089214 84.55703677 42.18373516 92.53885308 42.18817699 100.52071893 C42.190771 104.742112 42.19681352 108.96343313 42.21146011 113.18480301 C42.22516979 117.16891897 42.22919599 121.15293429 42.22621536 125.13707161 C42.2267596 126.58894843 42.23065654 128.0408291 42.23841095 129.49268532 C42.35738813 152.94561586 37.91724327 174.23713942 21.30078125 191.69140625 C20.54152344 192.45324219 19.78226563 193.21507812 19 194 C18.31292969 194.71027344 17.62585937 195.42054688 16.91796875 196.15234375 C0.71287631 211.81626428 -21.48929462 214.44071729 -42.95703125 214.21484375 C-68.06823737 213.58755063 -87.90876535 201.41347781 -105.1875 183.98046875 C-107 182 -107 182 -109 179 C-108.67701357 175.70990423 -107.43660864 174.06768162 -105.12109375 171.79296875 C-104.23925415 170.91777588 -104.23925415 170.91777588 -103.33959961 170.02490234 C-102.71190674 169.41855957 -102.08421387 168.8122168 -101.4375 168.1875 C-100.80142822 167.56311035 -100.16535645 166.9387207 -99.51000977 166.29541016 C-93.59309385 160.52247831 -87.46445228 155.14946114 -81 150 C-80.45472656 150.70125 -79.90945313 151.4025 -79.34765625 152.125 C-70.11873951 163.73608157 -60.65960212 173.26491272 -45.48828125 175.71875 C-34.06550288 177.00986467 -22.36351233 175.6923297 -12.9296875 168.66015625 C-2.07892209 159.32498358 -0.27014261 148.62060827 1 135 C0.01902344 135.54269531 -0.96195313 136.08539062 -1.97265625 136.64453125 C-20.84505717 146.77901054 -41.34243165 148.97230693 -62 143 C-80.99484959 136.80573201 -95.74990307 124.40496903 -105.17578125 106.75 C-115.95729615 85.37739696 -116.92037862 60.21412255 -109.93359375 37.5390625 C-102.26767691 16.2364157 -88.32108007 1.05804561 -68.01953125 -8.71484375 C-45.60146529 -18.25629744 -18.83758274 -16.05074934 0 0 Z M-58.625 32.25 C-59.40875 33.1575 -60.1925 34.065 -61 35 C-61.49371094 35.56460937 -61.98742187 36.12921875 -62.49609375 36.7109375 C-71.56373256 47.79109465 -72.87697091 61.17006798 -72 75 C-70.61856425 85.79801158 -66.01235757 95.07099905 -57.5 102 C-48.59751566 108.32863683 -39.78304599 109.7278556 -29 109 C-19.20380958 107.31983943 -11.77431002 102.6832184 -5.6875 94.875 C2.74991956 82.29465586 3.7330707 68.57290183 1.52734375 53.84375 C-1.17502575 43.61681873 -7.3739572 35.03404933 -16 29 C-29.35340112 21.65243479 -46.82616421 22.13671218 -58.625 32.25 Z " fill="#007FFF" transform="translate(1013,1453)"/>
<path d="M0 0 C12.69376795 10.32589201 18.67535837 26.42169719 20.46875 42.27734375 C20.97614265 50.4824823 20.81964313 58.71355338 20.76171875 66.9296875 C20.75611225 69.28479236 20.75184715 71.63990075 20.74885559 73.99501038 C20.73748978 80.14506974 20.70809503 86.29491107 20.67474365 92.44488525 C20.64386316 98.73991956 20.63031209 105.03498965 20.61523438 111.33007812 C20.58321632 123.64594374 20.53051723 135.96159137 20.46875 148.27734375 C6.93875 148.27734375 -6.59125 148.27734375 -20.53125 148.27734375 C-20.53125 144.64734375 -20.53125 141.01734375 -20.53125 137.27734375 C-21.19769531 137.72464844 -21.86414062 138.17195313 -22.55078125 138.6328125 C-39.4726186 149.73259113 -56.24374121 154.86432857 -76.53125 151.21484375 C-90.50644812 147.84638232 -103.04833949 140.62185238 -110.96875 128.40234375 C-117.93383192 115.45873543 -118.90436933 99.2712254 -114.90625 85.15234375 C-109.35868234 69.969527 -99.925231 61.05714553 -85.53125 54.27734375 C-65.47954214 46.15604272 -42.1465489 46.38725835 -21.53125 52.27734375 C-21.80773308 43.9828513 -22.08300379 36.52641476 -28.36328125 30.52734375 C-36.19172858 24.30050993 -44.67212777 22.8743927 -54.5234375 23.453125 C-65.49183224 24.86334718 -74.46987363 29.76700963 -81.53125 38.27734375 C-83.28803684 40.56608386 -84.91808256 42.88203452 -86.53125 45.27734375 C-89.56851958 43.91124107 -91.74040026 42.34660568 -94.140625 40.046875 C-94.81351563 39.40814453 -95.48640625 38.76941406 -96.1796875 38.11132812 C-96.87320313 37.44423828 -97.56671875 36.77714844 -98.28125 36.08984375 C-103.58980736 31.01845578 -108.96618121 26.06721148 -114.53125 21.27734375 C-109.60376639 7.79159913 -97.27626916 -1.0098698 -84.76318359 -7.03735352 C-57.74154306 -19.32877433 -24.56599961 -16.71852752 0 0 Z M-75.53125 93.27734375 C-77.31563576 98.63050102 -77.38982691 103.4571607 -74.96875 108.58984375 C-70.43121005 113.59277241 -65.2291475 116.02954649 -58.5 116.48046875 C-47.31809599 116.63157556 -37.21193511 115.10726745 -27.53125 109.27734375 C-25.79875 108.38015625 -25.79875 108.38015625 -24.03125 107.46484375 C-21.48091832 105.3142938 -21.50665617 104.03245203 -21.1640625 100.62109375 C-21.09540892 96.82572528 -21.27408212 93.06342641 -21.53125 89.27734375 C-23.75969214 88.62901485 -25.9890346 87.98378006 -28.21875 87.33984375 C-29.46011719 86.98019531 -30.70148437 86.62054687 -31.98046875 86.25 C-38.22262487 84.54010245 -43.82915881 84.0655218 -50.28125 84.02734375 C-51.1371875 84.00671875 -51.993125 83.98609375 -52.875 83.96484375 C-62.40729603 83.90707226 -69.33533442 85.84224506 -75.53125 93.27734375 Z " fill="#007FFF" transform="translate(2202.53125,1453.72265625)"/>
<path d="M0 0 C8.10480331 6.30700167 13.54966116 13.72238345 18.35400391 22.81591797 C18.83482422 23.69763672 19.31564453 24.57935547 19.81103516 25.48779297 C28.91885237 43.64839527 28.35400391 63.99914144 28.35400391 83.81591797 C-6.62599609 83.81591797 -41.60599609 83.81591797 -77.64599609 83.81591797 C-73.7229629 96.56577584 -71.00320575 105.38588788 -59.23583984 111.63232422 C-47.30621138 117.08432637 -35.20385929 117.5175322 -22.74365234 113.20263672 C-13.53012846 109.07804532 -6.4692626 102.09406891 0.35400391 94.81591797 C4.87234792 96.22767653 7.64947272 98.71382572 10.87353516 102.04248047 C11.37696945 102.55015961 11.88040375 103.05783875 12.39909363 103.5809021 C13.99544968 105.1939662 15.58101949 106.81717403 17.16650391 108.44091797 C18.25109325 109.54056431 19.33637273 110.63953041 20.42236328 111.73779297 C23.07429782 114.42269215 25.71661237 117.11673485 28.35400391 119.81591797 C20.73029401 135.3895821 3.08304715 145.19197583 -12.64599609 150.81591797 C-21.42418737 153.36709104 -29.77504087 154.33798749 -38.89599609 154.25341797 C-40.07331299 154.24439453 -41.25062988 154.23537109 -42.46362305 154.22607422 C-63.61764671 153.80841748 -82.50685754 146.99919395 -97.64599609 131.81591797 C-116.07105146 111.02275204 -119.85322469 86.64769135 -118.64599609 59.81591797 C-116.88930472 38.79926978 -107.15981265 18.16619828 -91.64599609 3.81591797 C-66.3875347 -16.70658192 -26.93377765 -19.37538143 0 0 Z M-66.64599609 33.81591797 C-70.86254214 39.5371236 -73.46022812 43.70131013 -74.64599609 50.81591797 C-54.84599609 50.81591797 -35.04599609 50.81591797 -14.64599609 50.81591797 C-16.84068453 39.84247577 -19.41510532 34.15084301 -28.64599609 27.81591797 C-40.67622174 21.75190179 -57.54523643 23.23935944 -66.64599609 33.81591797 Z " fill="#007FFF" transform="translate(2037.64599609375,1452.18408203125)"/>
<path d="M0 0 C12.61044016 10.01690909 20.26109402 23.67092624 22.33056641 39.76757812 C22.46881852 43.36092809 22.45692901 46.95078066 22.4440918 50.54638672 C22.44423782 51.62015564 22.44438385 52.69392456 22.4445343 53.80023193 C22.4438393 57.33884726 22.43606616 60.87740953 22.42822266 64.41601562 C22.42635701 66.87366711 22.4249338 69.33131896 22.42393494 71.78897095 C22.42012128 78.24978669 22.41030081 84.71057987 22.39923096 91.17138672 C22.38899208 97.7672495 22.38443201 104.36311593 22.37939453 110.95898438 C22.36867752 123.89519379 22.35109003 136.83138055 22.33056641 149.76757812 C9.13056641 149.76757812 -4.06943359 149.76757812 -17.66943359 149.76757812 C-17.99943359 146.13757812 -18.32943359 142.50757813 -18.66943359 138.76757812 C-20.80412109 140.34539062 -20.80412109 140.34539062 -22.98193359 141.95507812 C-37.44111308 152.00745712 -54.22646388 156.23176704 -71.72021484 153.11132812 C-85.02908658 150.34249654 -97.10813885 144.6418033 -105.66943359 133.76757812 C-114.28562239 120.58332372 -116.06501066 106.59208358 -113.45458984 91.15429688 C-110.51654572 78.4812409 -104.41051451 68.53511727 -93.46240234 61.39648438 C-81.30869606 54.30823889 -68.71977059 50.4754577 -54.66943359 49.76757812 C-53.73228516 49.71472656 -52.79513672 49.661875 -51.82958984 49.60742188 C-40.75193547 49.28612799 -29.3967262 50.98253575 -18.66943359 53.76757812 C-18.96268371 45.79117499 -19.69099783 39.1112797 -25.24365234 33.04882812 C-32.36897393 26.51594901 -40.15479048 24.59967266 -49.66943359 24.76757812 C-57.71226163 25.67393621 -64.32577512 27.41338011 -70.80224609 32.36523438 C-72.66943359 33.76757812 -72.66943359 33.76757812 -74.85302734 34.84570312 C-77.287529 36.08127816 -77.53230453 37.29265017 -78.66943359 39.76757812 C-80.27860741 42.14302518 -81.96887986 44.45690206 -83.66943359 46.76757812 C-88.92504354 45.29284012 -91.83277623 41.90845065 -95.48193359 38.08007812 C-99.92167119 33.51357396 -104.35233493 29.10911415 -109.31396484 25.09960938 C-110.66943359 23.76757812 -110.66943359 23.76757812 -111.66943359 20.76757812 C-102.76983562 4.18196371 -85.99260731 -5.33969994 -68.54443359 -10.60742188 C-46.58035433 -16.13762889 -18.58748551 -13.72179393 0 0 Z M-71.73193359 92.51757812 C-74.03956494 96.38844361 -74.95683994 99.27358794 -74.66943359 103.76757812 C-73.018721 109.49652183 -70.55982184 112.41142933 -65.66943359 115.76757812 C-55.33358683 119.96055993 -42.97024225 118.50125232 -32.66943359 114.76757812 C-29.51892437 113.30585538 -26.56566102 111.68282529 -23.66943359 109.76757812 C-22.93208984 109.38988281 -22.19474609 109.0121875 -21.43505859 108.62304688 C-19.08516264 106.15357657 -19.25800164 104.12419348 -19.31787109 100.81640625 C-19.36814453 99.70942383 -19.36814453 99.70942383 -19.41943359 98.58007812 C-19.43748047 97.83048828 -19.45552734 97.08089844 -19.47412109 96.30859375 C-19.5211925 94.46104102 -19.59293594 92.61414654 -19.66943359 90.76757812 C-21.70953115 90.11680517 -23.75159028 89.47217988 -25.79443359 88.83007812 C-27.49986328 88.29060547 -27.49986328 88.29060547 -29.23974609 87.74023438 C-42.00676295 84.11952003 -61.65910573 82.21965913 -71.73193359 92.51757812 Z " fill="#007FFF" transform="translate(1388.66943359375,1452.232421875)"/>
<path d="M0 0 C15.36411394 12.83435837 22.65180979 28.92120235 24.81152344 48.6975708 C25.51752193 57.32204659 25.23749357 66.03460102 25.1953125 74.6796875 C25.19157515 76.9465421 25.18873159 79.21339833 25.18673706 81.48025513 C25.17915745 87.40175966 25.15955863 93.32316367 25.1373291 99.24462891 C25.11674748 105.30499919 25.10770918 111.36538597 25.09765625 117.42578125 C25.0763066 129.28390509 25.04117166 141.1419284 25 153 C11.47 153 -2.06 153 -16 153 C-16.0093457 150.06907471 -16.01869141 147.13814941 -16.02832031 144.1184082 C-16.06220556 134.39533511 -16.11781843 124.67247168 -16.18390274 114.94956684 C-16.22328061 109.05905922 -16.25551658 103.16869892 -16.27099609 97.27807617 C-16.28622651 91.58499621 -16.32078506 85.89232155 -16.36830902 80.19942284 C-16.38305715 78.03594692 -16.39103721 75.87241312 -16.39188385 73.7088871 C-16.19711643 52.85839205 -16.19711643 52.85839205 -25.35546875 34.5859375 C-31.64824722 28.51736729 -38.51329367 27.68712994 -46.90234375 27.7890625 C-54.65434453 28.31694149 -61.65298199 31.27024807 -67 37 C-73.44783469 46.90764842 -75.28905147 57.13614611 -75.31884766 68.76416016 C-75.33391609 70.141604 -75.33391609 70.141604 -75.34928894 71.546875 C-75.37987008 74.54426518 -75.39708563 77.54156712 -75.4140625 80.5390625 C-75.43279436 82.63228095 -75.45236925 84.725492 -75.4727478 86.81869507 C-75.5238618 92.29957706 -75.56359798 97.78048348 -75.60089111 103.26147461 C-75.64813728 109.85297246 -75.70964555 116.44435109 -75.76873779 123.03575134 C-75.856697 133.02378555 -75.92664252 143.01179984 -76 153 C-89.53 153 -103.06 153 -117 153 C-117 100.53 -117 48.06 -117 -6 C-103.8 -6 -90.6 -6 -77 -6 C-76.505 -2.535 -76.505 -2.535 -76 1 C-75.36835938 0.54109375 -74.73671875 0.0821875 -74.0859375 -0.390625 C-53.38488326 -14.58904261 -20.67514233 -14.98198719 0 0 Z " fill="#007FFF" transform="translate(2367,1450)"/>
<path d="M0 0 C14.94769589 12.99152516 14.94769589 12.99152516 16.74609375 18.38671875 C1.28948998 34.03954894 1.28948998 34.03954894 -4.73828125 39.08984375 C-6.3270818 40.44933288 -7.79351489 41.89113724 -9.25390625 43.38671875 C-12.2340128 42.0636542 -14.09113573 40.68357115 -16.25390625 38.26171875 C-24.45279693 29.83361177 -34.96715742 23.34941582 -46.83984375 22.390625 C-57.24134563 22.37379409 -66.69892756 25.87087731 -74.44140625 32.82421875 C-84.55857851 43.65964868 -87.74454665 57.20989292 -87.5 71.609375 C-86.82194944 82.01691299 -83.62483846 93.02536039 -76.0625 100.57421875 C-74.25390625 102.38671875 -74.25390625 102.38671875 -74.25390625 104.38671875 C-73.67253906 104.66515625 -73.09117188 104.94359375 -72.4921875 105.23046875 C-70.25390625 106.38671875 -70.25390625 106.38671875 -68.421875 107.60546875 C-60.11469436 112.97973946 -50.01850136 114.25953872 -40.31640625 112.76171875 C-27.15296071 109.61099684 -16.43071656 99.89976057 -8.25390625 89.38671875 C-4.7518197 90.88103477 -2.53396273 92.88644202 0.1171875 95.59765625 C1.34985352 96.84675781 1.34985352 96.84675781 2.60742188 98.12109375 C3.45755859 98.9925 4.30769531 99.86390625 5.18359375 100.76171875 C6.86743056 102.4801813 8.55355834 104.19640262 10.2421875 105.91015625 C10.98654053 106.67247559 11.73089355 107.43479492 12.49780273 108.22021484 C14.80388049 110.44240335 17.21647015 112.42526526 19.74609375 114.38671875 C15.35000894 127.52770345 0.49879009 137.07321766 -11.12890625 143.19921875 C-31.45059449 152.88798825 -55.04578403 154.50088525 -76.4296875 147.3203125 C-97.34472105 139.1007857 -112.63487689 125.08726254 -122.62890625 105.07421875 C-131.46820622 84.08088132 -132.85740478 58.98276667 -125.25390625 37.38671875 C-124.96515625 36.47664063 -124.67640625 35.5665625 -124.37890625 34.62890625 C-118.02654282 16.53601398 -102.58321415 0.85215374 -85.6237793 -7.57470703 C-58.2304823 -20.52552413 -24.36106165 -18.87333391 0 0 Z " fill="#007FFF" transform="translate(1892.25390625,1455.61328125)"/>
<path d="M0 0 C13.2 0 26.4 0 40 0 C40 14.19 40 28.38 40 43 C52.54 43 65.08 43 78 43 C78 55.21 78 67.42 78 80 C65.46 80 52.92 80 40 80 C40.09114113 91.61541462 40.09114113 91.61541462 40.20898438 103.23046875 C40.26304476 107.97669417 40.31416283 112.72280816 40.34643555 117.46923828 C40.37269166 121.30145787 40.41324587 125.13329715 40.46318626 128.96527863 C40.47970584 130.41784131 40.49131194 131.87046954 40.49761391 133.32311249 C40.21916665 148.45742105 40.21916665 148.45742105 46.3203125 161.671875 C55.60530281 166.27376524 67.06775455 165 77 165 C77 177.21 77 189.42 77 202 C60.29761159 206.1755971 34.24888843 205.11821288 19 196 C18.30648438 195.59136719 17.61296875 195.18273438 16.8984375 194.76171875 C7.22840435 188.33313866 3.61241449 177.89175889 1 167 C0.14047226 161.927493 -0.13905355 156.99444898 -0.11352539 151.86157227 C-0.11367142 151.08026443 -0.11381744 150.2989566 -0.1139679 149.49397278 C-0.11327627 146.9347548 -0.10551927 144.37561138 -0.09765625 141.81640625 C-0.0957894 140.03279154 -0.09436676 138.24917632 -0.09336853 136.46556091 C-0.08956435 131.78848842 -0.07975213 127.11144735 -0.06866455 122.43438721 C-0.05840516 117.65483017 -0.05386123 112.87526802 -0.04882812 108.09570312 C-0.03812785 98.73045277 -0.02054819 89.36523393 0 80 C-7.59 80 -15.18 80 -23 80 C-23 67.79 -23 55.58 -23 43 C-15.41 43 -7.82 43 0 43 C0 28.81 0 14.62 0 0 Z " fill="#007FFF" transform="translate(1177,1400)"/>
<path d="M0 0 C13.53 0 27.06 0 41 0 C41 74.91 41 149.82 41 227 C27.47 227 13.94 227 0 227 C0 152.09 0 77.18 0 0 Z " fill="#007FFF" transform="translate(1441,1376)"/>
<path d="M0 0 C13.53 0 27.06 0 41 0 C41 52.8 41 105.6 41 160 C27.47 160 13.94 160 0 160 C0 107.2 0 54.4 0 0 Z " fill="#0080FF" transform="translate(1089,1443)"/>
<path d="M0 0 C13.53 0 27.06 0 41 0 C41 52.8 41 105.6 41 160 C27.47 160 13.94 160 0 160 C0 107.2 0 54.4 0 0 Z " fill="#007FFF" transform="translate(830,1443)"/>
<path d="M0 0 C6.95299773 4.02957823 10.90324518 9.02194578 13.09375 16.75390625 C14.81190479 24.75764398 12.79757284 32.45341587 8.4375 39.25 C1.87059965 45.38862424 -5.07258705 48.29509299 -14.00390625 48.1484375 C-21.4320724 47.50458361 -27.55418091 44.60722372 -32.4375 38.9375 C-36.64583485 32.2988198 -38.28108245 25.7620329 -37.4375 17.9375 C-35.58388902 10.19247578 -31.96421249 5.40445152 -25.4375 0.9375 C-17.79967923 -3.70509694 -8.0556014 -3.6870804 0 0 Z " fill="#007FFF" transform="translate(1121.4375,1376.0625)"/>
<path d="M0 0 C5.28070565 5.57407818 7.56451754 11.39589163 7.75 19.0625 C7.38205125 27.11963408 4.82494606 32.67011687 -0.59765625 38.57421875 C-5.41101361 42.60136529 -11.64257742 44.50150087 -17.875 44.8125 C-26.74456313 43.81109771 -32.60828856 40.92134184 -38.75 34.375 C-43.54371667 27.72565107 -43.53842287 20.34173805 -42.75 12.375 C-40.56837416 4.90242179 -36.44602563 0.1974817 -29.75 -3.625 C-19.50858562 -8.74570719 -9.168561 -5.41778605 0 0 Z " fill="#007FFF" transform="translate(868.75,1379.625)"/>
</svg>
