<svg xmlns="http://www.w3.org/2000/svg" width="200" height="200" style="shape-rendering:geometricPrecision;text-rendering:geometricPrecision;image-rendering:optimizeQuality;fill-rule:evenodd;clip-rule:evenodd"><path fill="black" d="M-.5-.5h200v200H-.5V-.5Z" style="opacity:1"/><path fill="#fdfdfd" d="M35.5 24.5c22.7-.2 45.3 0 68 .5 35.1 5.5 57.3 25.3 66.5 59.5 5 44.3-13.5 73.5-55.5 87.5-6 1.3-12 2.2-18 2.5h-61v-150Z" style="opacity:1"/><path fill="black" d="M61.5 48.5c12.7-.2 25.3 0 38 .5A49.4 49.4 0 0 1 141 82.5c5 18.4 2 35.4-9 51a55.1 55.1 0 0 1-30.5 16.5c-13.3.5-26.7.7-40 .5v-102Z" style="opacity:1"/><path fill="#a9acb1" d="M35.5 24.5v150h61c-20.5 1-41.2 1.3-62 1-.3-50.5 0-100.8 1-151Z" style="opacity:1"/></svg>