<svg xmlns="http://www.w3.org/2000/svg" fill="none" viewBox="0 0 1024 1028">
	<path fill="#fff" fill-rule="evenodd" d="M752 578c-4-1-7-1-10-3l-5-3c-1-1-2-2-1-3 1-16-1-30 1-45 6-63 45-43 81-53 20-6 40-17 48-39 1-4 0-8-3-10-23-27-49-50-76-70-94-66-215-94-326-78-4 1-6 6-4 9 14 22 33 40 54 53 4 3 2 8-2 7-11-2-24-7-37-16h-4l-20 8c-4 2-5 7-2 9 56 49 137 56 201 18 4-3 10 2 9 6-2 7-5 17-7 30-16 80-61 74-118 54-112-41-176-6-233-75-4-5-11-7-15-3a53 53 0 0 0 5 85c2 2 4 1 6-1 3-4 6-7 10-9 3-2 5 4 2 7-12 10-15 23-23 48-13 39-7 80-65 90-31 2-30 22-41 53-13 38-30 54-62 87-4 4-4 11 0 16 13 10 26 11 39 5 32-13 57-55 81-83 26-30 89-17 137-47 26-15 41-35 36-66-1-4 5-7 7-3 4 9 6 18 7 27 1 3 3 4 5 4 52-3 119 54 181 70 4 1 6-4 4-7a115 115 0 0 1-16-38c-1-5 6-6 8-2 16 29 48 56 93 59 15 2 32 0 49-6 21-6 40-14 63-9 17 3 32 11 42 26 14 20 44 25 59 4 2-3 3-6 1-10-34-80-122-86-159-96Z" />
</svg>
