<svg xmlns="http://www.w3.org/2000/svg" xmlns:xlink="http://www.w3.org/1999/xlink" viewBox="0 0 256 217.6">
  <g fill-rule="evenodd" transform="translate(-4 -22.6) scale(1.313)">
    <path fill="#fff" d="M99 52h84v34H99z"/>
    <g fill="#3ecc5f">
      <path d="M23 163a20 20 0 0 1-17.3-10A20 20 0 0 0 23 183h20v-20H23z"/>
      <path d="m113 57.4 70-4.4V43c0-11-9-20-20-20H73l-2.5-4.3a2.9 2.9 0 0 0-5 0L63 23l-2.5-4.3a2.9 2.9 0 0 0-5 0L53 23l-2.5-4.3a2.9 2.9 0 0 0-5 0L43 23l-4.2-4.1a2.9 2.9 0 0 0-4.8 1.3l-1.4 5-5.2-1.3a2.9 2.9 0 0 0-3.5 3.5l1.4 5.2-5.1 1.4a2.9 2.9 0 0 0-1.3 4.8l4.1 4.1v.1l-4.3 2.5a2.9 2.9 0 0 0 0 5L23 53l-4.3 2.5a2.9 2.9 0 0 0 0 5L23 63l-4.3 2.5a2.9 2.9 0 0 0 0 5L23 73l-4.3 2.5a2.9 2.9 0 0 0 0 5L23 83l-4.3 2.5a2.9 2.9 0 0 0 0 5L23 93l-4.3 2.5a2.9 2.9 0 0 0 0 5L23 103l-4.3 2.5a2.9 2.9 0 0 0 0 5L23 113l-4.3 2.5a2.9 2.9 0 0 0 0 5L23 123l-4.3 2.5a2.9 2.9 0 0 0 0 5L23 133l-4.3 2.5a2.9 2.9 0 0 0 0 5L23 143l-4.3 2.5a2.9 2.9 0 0 0 0 5L23 153l-4.3 2.5a2.9 2.9 0 0 0 0 5L23 163c0 11 9 20 20 20h120c11 0 20-9 20-20V83l-70-4.4a10.6 10.6 0 0 1 0-21.2"/>
      <path d="M143 183h30v-40h-30z"/>
    </g>
    <path fill="#44d860" d="M193 158h-.6l-.2-.4a5 5 0 0 0 3.1-4.6 5 5 0 0 0-5-5 5 5 0 0 0-3 1l-.3-.3a5 5 0 0 0 1-3 5 5 0 0 0-9.6-2h-.5v-.7a5 5 0 1 0-10 0l.2.6-.5.2a5 5 0 0 0-9.6 2 5 5 0 0 0 1 2.9 20 20 0 0 0-6 14.3 20 20 0 0 0 39.4 5h.6a5 5 0 1 0 0-10"/>
    <path fill="#3ecc5f" d="M153 123h30v-20h-30z"/>
    <use xlink:href="#a" fill="#44d860"/>
    <path d="M63 55.5a2.5 2.5 0 0 1-2.5-2.5 7.5 7.5 0 0 0-7.5-7.5 7.5 7.5 0 0 0-7.5 7.5 2.5 2.5 0 1 1-5 0 12.5 12.5 0 0 1 25 0 2.5 2.5 0 0 1-2.5 2.5"/>
    <path fill="#ffff50" d="M103 183h60c11 0 20-9 20-20V93h-60c-11 0-20 9-20 20v70z"/>
    <use xlink:href="#b"/>
    <use xlink:href="#b" y="20"/>
    <use xlink:href="#b" y="40"/>
    <use xlink:href="#b" y="-9.8"/>
    <use xlink:href="#b" y="10"/>
    <use xlink:href="#b" y="30"/>
    <path d="M183 61.6c-3.1.1-4.6 3.2-5.9 6-1.3 2.8-2.4 4.6-4 4.6-2-.1-3-2.2-4.2-4.5-1.3-2.6-2.8-5.5-6-5.4-3 0-4.5 2.8-5.8 5.1-1.3 2.6-2.3 4.1-4 4-2 0-3-1.8-4.2-3.8-1.3-2.2-2.9-4.7-6-4.6-3 0-4.4 2.3-5.7 4.4-1.4 2-2.3 3.4-4.2 3.3-2 0-3-1.5-4.1-3.2-1.4-1.8-2.9-4-6-3.9-2.9.1-4.3 2-5.6 3.7C116 68.8 115 70 113 70a1 1 0 1 0 0 2c3 0 4.5-1.8 5.8-3.5 1.2-1.5 2.2-2.8 4.2-2.9 2 0 2.9 1.2 4.2 3 1.3 2 2.8 4 5.8 4.1 3 .1 4.6-2.2 5.9-4.3C140 66.6 141 65 143 65c1.8-.1 2.8 1.3 4.2 3.6 1.3 2.2 2.7 4.7 5.8 4.8 3 .1 4.6-2.6 6-5 1-2.1 2.1-4 4-4.1 1.8 0 2.8 1.6 4.1 4.3 1.3 2.5 2.8 5.4 5.9 5.6h.1c3 0 4.5-3.1 5.8-5.8 1.2-2.4 2.2-4.7 4-4.8v-2z"/>
    <path fill="#3ecc5f" d="M83 183h40v-40H83z"/>
    <path fill="#44d860" d="M143 158h-.6l-.2-.4a5 5 0 0 0 3.1-4.6 5 5 0 0 0-5-5 5 5 0 0 0-3 1l-.3-.3a5 5 0 0 0 1-3 5 5 0 0 0-9.6-2h-.5v-.7a5 5 0 1 0-10 0l.2.6-.5.2a5 5 0 0 0-9.6 2 5 5 0 0 0 1 2.9 20 20 0 0 0-6 14.3 20 20 0 0 0 39.4 5h.6a5 5 0 1 0 0-10"/>
    <path fill="#3ecc5f" d="M83 123h40v-20H83z"/>
    <use xlink:href="#a" x="-60" fill="#44d860"/>
    <path d="M143 41.8a3 3 0 0 1-.5-.1 2.5 2.5 0 0 1-.5-.1l-.4-.3-.4-.3-.3-.3a2.6 2.6 0 0 1-.2-.5 2.6 2.6 0 0 1-.1-.4 2.7 2.7 0 0 1 0-1v-.5a2.6 2.6 0 0 1 .3-.4l.3-.4.4-.3a2 2 0 0 1 .4-.3 2.5 2.5 0 0 1 .5-.1h1l.5.1.4.3.4.3a3.7 3.7 0 0 1 .3.4 2.5 2.5 0 0 1 .2.4l.1.5a2.8 2.8 0 0 1 0 .4 2.5 2.5 0 0 1-.6 1.8l-.4.3a2 2 0 0 1-.4.2l-.5.2a2 2 0 0 1-.5 0m20-1.2a2.5 2.5 0 0 1-1.8-.7 3.7 3.7 0 0 1-.3-.4 2.6 2.6 0 0 1-.2-.4 2.6 2.6 0 0 1-.1-.5l-.1-.5a2.5 2.5 0 0 1 .7-1.8l.4-.3a2 2 0 0 1 .4-.2 2.5 2.5 0 0 1 .5-.1h1.5l.4.3.4.3a2.5 2.5 0 0 1 .7 1.8 2.8 2.8 0 0 1 0 .5l-.2.5a3.5 3.5 0 0 1-.2.4 3.7 3.7 0 0 1-.3.4c-.2 0-.3.2-.4.3a2 2 0 0 1-.4.2l-.5.1a2 2 0 0 1-.5 0"/>
  </g>
  <defs>
    <path id="a" d="M193 115.5a2.5 2.5 0 1 0 0-5h-.3v-.2a2.5 2.5 0 0 0-1-4.8 2.5 2.5 0 0 0-1.5.5l-.2-.1a2.5 2.5 0 0 0 .5-1.5 2.5 2.5 0 0 0-4.8-1A10 10 0 0 0 173 113a10 10 0 0 0 12.7 9.6 2.5 2.5 0 0 0 4.8-1c0-.5-.2-1-.5-1.4l.2-.2a2.5 2.5 0 0 0 1.5.5 2.5 2.5 0 0 0 1-4.8v-.2h.3"/>
    <path id="b" d="M168 124h-50a1 1 0 1 1 0-2h50a1 1 0 1 1 0 2"/>
  </defs>
</svg>
