<svg xmlns="http://www.w3.org/2000/svg" viewBox="0 0 42.15 55.08"><defs><style>.cls-1{fill:#009cde;}</style></defs><title>Risorsa 23</title><g id="Livello_2" data-name="Livello 2"><g id="Livello_1-2" data-name="Livello 1"><path class="cls-1" d="M29.75,11.73C25.87,7.86,22.18,4.16,21.08,0,20,4.16,16.28,7.86,12.4,11.73,6.59,17.54,0,24.12,0,34a21.08,21.08,0,1,0,42.15,0C42.15,24.12,35.56,17.54,29.75,11.73ZM10.84,35.92a14.13,14.13,0,0,0-1.65,2.62.54.54,0,0,1-.36.3H8.65c-.47,0-1-.92-1-.92h0c-.14-.22-.27-.45-.4-.69l-.09-.19C5.94,34.25,7,30.28,7,30.28h0a17.42,17.42,0,0,1,2.52-5.41,31.53,31.53,0,0,1,2.28-3l1,1,4.72,4.82a.54.54,0,0,1,0,.72l-4.93,5.47h0ZM21.32,49.73a7.29,7.29,0,0,1-5.4-12.14c1.54-1.83,3.42-3.63,5.46-6,2.42,2.58,4,4.35,5.55,6.29a3.08,3.08,0,0,1,.32.48,7.15,7.15,0,0,1,1.3,4.12A7.23,7.23,0,0,1,21.32,49.73ZM35,38.14v0a.84.84,0,0,1-.67.58h-.14a1.22,1.22,0,0,1-.68-.55h0a37.77,37.77,0,0,0-4.28-5.31l-1.93-2-6.41-6.65a54,54,0,0,1-3.84-3.94,1.3,1.3,0,0,0-.1-.15,3.84,3.84,0,0,1-.51-1c0-.06,0-.13,0-.19a3.4,3.4,0,0,1,1-3c1.24-1.24,2.49-2.49,3.67-3.79,1.3,1.44,2.69,2.82,4.06,4.19v0a57.6,57.6,0,0,1,7.55,8.58A16,16,0,0,1,35.65,34,14.55,14.55,0,0,1,35,38.14Z"/></g></g></svg>