<svg width="28" height="28" viewBox="0 0 28 28" fill="none" xmlns="http://www.w3.org/2000/svg">
<path d="M27.7784 16.4944C27.924 15.6849 28 14.8513 28 14C28 13.2803 27.9457 12.5734 27.841 11.8829C27.8005 11.6162 27.5679 11.424 27.2981 11.424H18.2935C17.999 11.424 17.7846 11.1446 17.8608 10.86L18.9267 6.88207C19.0054 6.58829 19.2716 6.384 19.5758 6.384H24.9239C25.2793 6.384 25.4903 5.99169 25.2795 5.70554C22.7306 2.24513 18.6275 0 14 0C6.26801 0 0 6.26801 0 14C0 17.5202 1.29921 20.7369 3.44429 23.1969C3.67271 23.4588 4.0922 23.3504 4.18175 23.0146L7.27934 11.3986C7.33622 11.1853 7.17545 10.976 6.95468 10.976H4.26421C3.96986 10.976 3.75549 10.697 3.83134 10.4126L4.70485 7.13693C4.77038 6.89118 4.99334 6.72137 5.24762 6.7161C8.17874 6.65542 11.0752 5.88815 13.647 4.4841C13.9129 4.33898 14.2342 4.58196 14.1561 4.87457L8.45823 26.2418C8.37314 26.5608 8.53186 26.8961 8.83881 27.0179C10.4359 27.6517 12.1773 28 14 28C18.4191 28 22.3599 25.9526 24.9257 22.7546C25.153 22.4713 24.9444 22.064 24.5811 22.064H15.4425C15.148 22.064 14.9336 21.7846 15.0098 21.5L16.0757 17.5221C16.1544 17.2283 16.4207 17.024 16.7248 17.024H27.1324C27.4479 17.024 27.7226 16.8049 27.7784 16.4944Z" fill="url(#paint0_linear_3190_5227)"/>
<defs>
<linearGradient id="paint0_linear_3190_5227" x1="4.816" y1="2.352" x2="22.288" y2="23.184" gradientUnits="userSpaceOnUse">
<stop stop-color="#00DDFF"/>
<stop offset="1" stop-color="#0C60F2"/>
</linearGradient>
</defs>
</svg>
