<svg xmlns="http://www.w3.org/2000/svg" cursor="default" viewBox="0 0 1568 2186">
	<path fill="#cbcbcb" fill-rule="evenodd" d="M848 615c-10 3-18 13-20 28l-2 19-10 201v3h-16c-18 0-24 1-30 7-5 5-9 13-11 22l-1 31c1 21 1 24 3 30 3 9 7 14 14 17 6 3 7 4 23 4l18 1v178c1 198 0 188 8 224 10 53 29 83 65 101 21 11 36 13 88 13 37 0 44-1 51-5 13-7 17-18 17-50s-4-42-19-49c-4-1-9-2-35-2-31 0-32-1-36-3-6-3-9-8-14-23-8-25-8-28-8-218V977h34c39 0 41 0 49-6 6-5 10-13 12-22a251 251 0 0 0-2-62c-3-8-8-14-14-17l-5-3-37-1h-37V756l-2-117c-3-11-8-18-16-23l-5-2-29-1c-22 0-29 0-33 2m-522 1a117158 117158 0 0 0-142 38c-6 3-13 10-15 17-2 5-2 6-2 43l1 43c3 7 9 14 14 17 8 4 14 4 34-1l20-5c1 0 2 0 2 345l1 345 2 7c4 16 12 25 23 27l43 1h37l5-3c10-5 16-15 19-32l1-413c0-395-1-406-2-410-7-18-21-24-41-19m227 17c-40 10-74 20-76 21-9 5-15 12-17 23-3 9-3 64-1 74 4 15 12 24 25 26l24-4 20-6c2 0 2 18 2 344l1 345 2 8c3 10 5 15 10 21 7 7 8 8 53 8 28 0 40-1 43-2 9-3 17-14 21-30l2-406-1-408c-2-16-6-25-15-30l-13-3c-8 0-12 1-80 19m533 234c-6 2-11 6-13 12-5 8-7 23-5 36 1 5 26 108 63 251 62 243 66 260 70 281 3 19 2 39-3 58-3 10-11 25-15 30-3 4-4 4-8 3l-20-5c-17-5-23-6-29-4-10 3-17 11-21 26-2 6-2 10-2 26-1 23 1 29 9 39 14 17 34 25 67 26 25 1 40-2 57-11 33-17 54-51 70-114 6-20 5-17 61-308l55-283c3-15 3-35 1-43-3-9-8-15-13-18-5-2-6-3-32-3-31 0-34 0-42 7-5 5-11 14-13 23a11519 11519 0 0 0-62 333v4l-1-3-27-122c-53-239-48-217-54-226-4-7-10-12-17-14-4-2-9-2-38-2l-38 1"/>
</svg>
