<svg xmlns="http://www.w3.org/2000/svg" fill="#FF9100" viewBox="0 0 600 600">
  <path d="M214 560.5a221 221 0 0 0 175.3-4.4 312.7 312.7 0 0 1-98-61.4 167.6 167.6 0 0 1-77.4 65.8Z"/>
  <path fill="#FFC400" d="M291.4 494.7a312 312 0 0 1-99.8-249.8 167 167 0 0 0-87.2.9 221.3 221.3 0 0 0 109.5 314.7 167.6 167.6 0 0 0 77.5-65.8Z"/>
  <path d="M291.4 494.7a167 167 0 0 0-99.8-249.8l-.5 9.2a312 312 0 0 0 100.3 240.6Z"/>
  <path fill="#DD2C00" d="M308.2 20.9a313.2 313.2 0 0 0-116.7 224 167 167 0 0 1 99.9 249.8 313 313 0 0 0 97.8 61.4A221.1 221.1 0 0 0 517.6 363c2-55.9-19.5-105.7-49.9-147.8C435.7 170.7 308.2 21 308.2 21Z"/>
</svg>
