<svg xmlns="http://www.w3.org/2000/svg" width="83" height="32" fill="none"><path fill="#fff" d="m13.186 10.242-4.864 7.405 3.704-.789.219.363L.683 31.338h-.42l4.755-9.17-3.494.744-.233-.34 4.714-7.275-3.542.753c-.112-.179-.11-.179-.221-.36L13.796 1.58h.425l-4.69 9.05 3.422-.73c.114.165.121.177.233.342ZM28.594 26.065l3.97-18.708h3.412l-3.969 18.708h-3.413ZM36.03 20.68c0-4.272 3.641-7.912 8.066-7.912 4.247 0 6.775 3.59 5.41 7.988H39.393c.127 1.669 1.29 2.63 2.908 2.63 1.517 0 2.806-.683 3.69-1.82l2.706 1.264c-1.315 1.946-3.792 3.488-6.573 3.488-3.565 0-6.093-2.2-6.093-5.637Zm3.894-2.527h6.573c-.1-1.315-1.163-2.453-2.73-2.453-1.542 0-3.06.936-3.843 2.453ZM51.77 20.68c0-4.272 3.64-7.912 8.064-7.912 4.247 0 6.775 3.59 5.41 7.988H55.132c.126 1.669 1.29 2.63 2.907 2.63 1.517 0 2.806-.683 3.691-1.82l2.705 1.264c-1.314 1.946-3.792 3.488-6.573 3.488-3.565 0-6.093-2.2-6.093-5.637Zm3.893-2.527h6.573c-.101-1.315-1.163-2.453-2.73-2.453-1.543 0-3.06.936-3.843 2.453ZM71.017 22.88l-.682 3.185h-3.413L70.89 7.357h3.413l-2.25 10.492 5.309-4.829h4.702l-6.32 5.638 4.399 7.407H76.2l-3.034-5.106-2.149 1.921ZM19.313 26.065l2.123-10.036h-2.63l.658-3.009h2.63l.126-.606c.733-3.64 2.477-5.057 6.32-5.057h1.542l-.657 3.009h-1.517c-1.416 0-1.947.455-2.25 1.845l-.152.81h3.363l-.632 3.008h-3.388l-2.123 10.036h-3.413Z"/></svg>
