<svg xmlns="http://www.w3.org/2000/svg" width="352" height="137" viewBox="0 0 352 137" fill="none">
<path d="M57.1018 43.8831L36.3312 75.5416L52.1457 72.1689C52.4578 72.6851 52.7699 73.2014 53.082 73.7177L3.71492 134.07H1.92383L22.2263 94.8709L7.30729 98.05C6.82899 97.3469 6.78828 97.296 6.30997 96.5929L26.4394 65.4948L11.3169 68.7147C10.8386 67.9504 10.8488 67.9505 10.3705 67.1761L59.707 6.85474H61.5184L41.4907 45.5439L56.1044 42.426C56.5929 43.129 56.6235 43.18 57.1018 43.8831Z" fill="white"/>
<path d="M122.891 111.529L139.838 31.553H154.411L137.463 111.529H122.891Z" fill="white"/>
<path d="M154.645 88.5093C154.645 70.2444 170.189 54.6814 189.079 54.6814C207.214 54.6814 218.008 70.0282 212.179 88.8335H169.001C169.541 95.9665 174.506 100.073 181.415 100.073C187.892 100.073 193.397 97.1554 197.175 92.292L208.725 97.6958C203.112 106.018 192.533 112.61 180.659 112.61C165.439 112.61 154.645 103.208 154.645 88.5093ZM171.268 77.7016H199.334C198.902 72.0817 194.368 67.2182 187.676 67.2182C181.091 67.2182 174.614 71.2171 171.268 77.7016Z" fill="white"/>
<path d="M221.844 88.5093C221.844 70.2444 237.388 54.6814 256.278 54.6814C274.413 54.6814 285.207 70.0282 279.378 88.8335H236.2C236.74 95.9665 241.706 100.073 248.614 100.073C255.091 100.073 260.596 97.1554 264.374 92.292L275.924 97.6958C270.311 106.018 259.732 112.61 247.858 112.61C232.638 112.61 221.844 103.208 221.844 88.5093ZM238.467 77.7016H266.533C266.101 72.0817 261.567 67.2182 254.875 67.2182C248.29 67.2182 241.814 71.2171 238.467 77.7016Z" fill="white"/>
<path d="M304.028 97.9118L301.114 111.529H286.541L303.488 31.553H318.061L308.454 76.4046L331.122 55.7621H351.2L324.214 79.8631L342.996 111.529H326.157L313.203 89.698L304.028 97.9118Z" fill="white"/>
<path d="M83.2605 111.529L92.3278 68.6231H81.1016L83.9081 55.7621H95.1344L95.6741 53.1682C98.8045 37.6052 106.253 31.553 122.66 31.553H129.245L126.438 44.4141H119.962C113.917 44.4141 111.65 46.3594 110.355 52.3036L109.707 55.7621H124.064L121.365 68.6231H106.9L97.833 111.529H83.2605Z" fill="white"/>
</svg>
