<svg width="700" height="200" viewBox="0 0 700 200" fill="none" xmlns="http://www.w3.org/2000/svg">
<path d="M95.92 70.24V58.24H50.92V130H63.52V100.36H93.76V88.36H63.52V70.24H95.92ZM109.048 130H121.168L119.608 119.44V58.24H107.608V120.76L109.048 130ZM133.621 70.84H146.461V58H133.621V70.84ZM134.101 130H146.101V78.16H134.101V130ZM176.319 149.8H188.439C190.959 149.8 193.719 149.08 195.999 147.4C197.439 146.32 200.679 143.08 201.759 141.64C203.439 139.36 204.159 136.6 204.159 134.08V88.84L205.119 78.16H193.239L192.759 81.28C190.599 79.6 187.959 77.56 185.079 77.56H174.759C172.239 77.56 169.479 78.28 167.199 79.96C165.759 81.04 162.519 84.28 161.439 85.72C159.759 88 159.039 90.76 159.039 93.28V114.88C159.039 117.4 159.759 120.16 161.439 122.44C162.519 123.88 165.759 127.12 167.199 128.2C169.479 129.88 172.239 130.6 174.759 130.6H185.079C187.599 130.6 190.479 128.56 192.159 126.88V133.6C192.159 134.56 191.679 135.28 190.359 136.6C189.039 137.92 188.319 138.4 187.359 138.4H175.959C174.639 138.4 172.719 135.88 171.399 134.2L160.239 137.56C163.239 143.32 169.119 149.8 176.319 149.8ZM171.039 114.4V93.76C171.039 92.8 171.519 92.08 172.839 90.76C174.159 89.44 174.879 88.96 175.839 88.96H184.719C186.159 88.96 190.479 92.44 192.159 94.24V113.8C190.599 115.6 186.039 119.2 184.719 119.2H175.839C174.879 119.2 174.159 118.72 172.839 117.4C171.519 116.08 171.039 115.36 171.039 114.4ZM218.358 130H230.358V94.24C231.798 92.44 236.118 88.96 237.678 88.96H245.838C246.798 88.96 247.518 89.44 248.838 90.76C250.158 92.08 250.638 92.8 250.638 93.76V130H262.638V93.28C262.638 90.76 261.918 88 260.238 85.72C259.158 84.28 255.918 81.04 254.478 79.96C252.198 78.28 249.438 77.56 246.918 77.56H237.438C234.918 77.56 232.398 79.36 230.358 80.8V58.24H218.358V130ZM306.483 89.56V78.16H291.603V58.24H279.603V78.16H271.563V89.56H279.603V114.28C279.603 116.8 280.323 119.56 282.003 121.84C283.083 123.28 286.323 126.52 287.763 127.6C290.043 129.28 292.803 130 295.323 130H304.563V118.6H296.403C295.443 118.6 294.723 118.12 293.403 116.8C292.083 115.48 291.603 114.76 291.603 113.8V89.56H306.483ZM331.79 130.6H345.23C352.43 130.6 358.19 123.76 361.19 118L350.03 114.64C348.71 116.32 346.67 119.2 345.35 119.2H332.87C331.91 119.2 331.19 118.72 329.87 117.4C328.55 116.08 328.07 115.36 328.07 114.4V93.76C328.07 92.8 328.55 92.08 329.87 90.76C331.19 89.44 331.91 88.96 332.87 88.96H345.11C346.43 88.96 348.47 91.84 349.79 93.52L360.95 90.16C357.95 84.4 352.19 77.56 344.99 77.56H331.79C329.27 77.56 326.51 78.28 324.23 79.96C322.79 81.04 319.55 84.28 318.47 85.72C316.79 88 316.07 90.76 316.07 93.28V114.88C316.07 117.4 316.79 120.16 318.47 122.44C319.55 123.88 322.79 127.12 324.23 128.2C326.51 129.88 329.27 130.6 331.79 130.6ZM386.868 130.6H400.668C403.188 130.6 405.948 129.88 408.228 128.2C409.668 127.12 412.908 123.88 413.988 122.44C415.668 120.16 416.388 117.4 416.388 114.88V93.28C416.388 90.76 415.668 88 413.988 85.72C412.908 84.28 409.668 81.04 408.228 79.96C405.948 78.28 403.188 77.56 400.668 77.56H386.868C384.348 77.56 381.588 78.28 379.308 79.96C377.868 81.04 374.628 84.28 373.548 85.72C371.868 88 371.148 90.76 371.148 93.28V114.88C371.148 117.4 371.868 120.16 373.548 122.44C374.628 123.88 377.868 127.12 379.308 128.2C381.588 129.88 384.348 130.6 386.868 130.6ZM383.148 114.4V93.76C383.148 92.8 383.628 92.08 384.948 90.76C386.268 89.44 386.988 88.96 387.948 88.96H399.588C400.548 88.96 401.268 89.44 402.588 90.76C403.908 92.08 404.388 92.8 404.388 93.76V114.4C404.388 115.36 403.908 116.08 402.588 117.4C401.268 118.72 400.548 119.2 399.588 119.2H387.948C386.988 119.2 386.268 118.72 384.948 117.4C383.628 116.08 383.148 115.36 383.148 114.4ZM471.656 85.72C470.576 84.28 467.336 81.04 465.896 79.96C463.616 78.28 460.856 77.56 458.336 77.56H448.496C445.736 77.56 443.096 79.72 440.936 81.28L440.216 78.16H428.576L429.776 88.84V130H441.776V93.88C443.336 92.2 446.576 88.96 448.856 88.96H457.256C458.216 88.96 458.936 89.44 460.256 90.76C461.576 92.08 462.056 92.8 462.056 93.76V130H474.056V93.28C474.056 90.76 473.336 88 471.656 85.72ZM517.89 89.56V78.16H503.01V58.24H491.01V78.16H482.97V89.56H491.01V114.28C491.01 116.8 491.73 119.56 493.41 121.84C494.49 123.28 497.73 126.52 499.17 127.6C501.45 129.28 504.21 130 506.73 130H515.97V118.6H507.81C506.85 118.6 506.13 118.12 504.81 116.8C503.49 115.48 503.01 114.76 503.01 113.8V89.56H517.89ZM528.917 130H540.917V93.88C542.357 92.08 545.597 88.96 547.997 88.96H555.677C556.997 88.96 559.037 91.84 560.357 93.52L571.517 90.16C568.517 84.4 562.757 77.56 555.557 77.56H547.637C544.877 77.56 542.117 79.6 539.957 81.28L539.237 78.16H527.717L528.917 88.84V130ZM593.822 130.6H607.622C610.142 130.6 612.902 129.88 615.182 128.2C616.622 127.12 619.862 123.88 620.942 122.44C622.622 120.16 623.342 117.4 623.342 114.88V93.28C623.342 90.76 622.622 88 620.942 85.72C619.862 84.28 616.622 81.04 615.182 79.96C612.902 78.28 610.142 77.56 607.622 77.56H593.822C591.302 77.56 588.542 78.28 586.262 79.96C584.822 81.04 581.582 84.28 580.502 85.72C578.822 88 578.102 90.76 578.102 93.28V114.88C578.102 117.4 578.822 120.16 580.502 122.44C581.582 123.88 584.822 127.12 586.262 128.2C588.542 129.88 591.302 130.6 593.822 130.6ZM590.102 114.4V93.76C590.102 92.8 590.582 92.08 591.902 90.76C593.222 89.44 593.942 88.96 594.902 88.96H606.542C607.502 88.96 608.222 89.44 609.542 90.76C610.862 92.08 611.342 92.8 611.342 93.76V114.4C611.342 115.36 610.862 116.08 609.542 117.4C608.222 118.72 607.502 119.2 606.542 119.2H594.902C593.942 119.2 593.222 118.72 591.902 117.4C590.582 116.08 590.102 115.36 590.102 114.4ZM637.329 130H649.449L647.889 119.44V58.24H635.889V120.76L637.329 130Z" fill="white"/>
</svg>
