<svg width="400" height="400" viewBox="0 0 400 400" fill="none" xmlns="http://www.w3.org/2000/svg">
<g clip-path="url(#clip0_1_12136)">
<path fill-rule="evenodd" clip-rule="evenodd" d="M75 100C75 79.2893 91.7893 62.5 112.5 62.5H175C179.398 62.5 183.62 63.2572 187.541 64.6484C206.397 71.3378 223.743 87.5 243.75 87.5C263.757 87.5 281.103 71.3378 299.959 64.6484C303.88 63.2572 308.102 62.5 312.5 62.5C333.211 62.5 350 79.2893 350 100C350 120.711 333.211 137.5 312.5 137.5C308.102 137.5 303.88 136.743 299.959 135.352C281.103 128.662 263.757 112.5 243.75 112.5C223.743 112.5 206.397 128.662 187.541 135.352C183.62 136.743 179.398 137.5 175 137.5H112.5C91.7893 137.5 75 120.711 75 100ZM75.0002 200C75.0002 179.289 91.7895 162.5 112.5 162.5C118.004 162.5 123.231 163.686 127.939 165.815C144.462 173.289 159.991 187.5 178.125 187.5C196.259 187.5 211.789 173.289 228.311 165.815C233.019 163.686 238.246 162.5 243.75 162.5C264.461 162.5 281.25 179.289 281.25 200C281.25 220.711 264.461 237.5 243.75 237.5C238.246 237.5 233.019 236.314 228.311 234.184C211.788 226.711 196.259 212.5 178.125 212.5C159.991 212.5 144.462 226.711 127.939 234.185C123.231 236.314 118.004 237.5 112.5 237.5C91.7895 237.5 75.0002 220.711 75.0002 200ZM112.5 262.5C91.7895 262.5 75.0002 279.289 75.0002 300C75.0002 320.711 91.7895 337.5 112.5 337.5C133.211 337.5 150 320.711 150 300C150 279.289 133.211 262.5 112.5 262.5Z" fill="#0083FC"/>
</g>
<defs>
<clipPath id="clip0_1_12136">
<rect width="400" height="400" fill="white"/>
</clipPath>
</defs>
</svg>
