<svg xmlns="http://www.w3.org/2000/svg" xml:space="preserve" viewBox="0 0 1201 1201"><g fill="#00eaff"><path d="M173 577H97V215h135v85h-59v52h55v82h-55v143zM463 577h-82l-38-129a137 137 0 0 0-5-22v151h-76V215h78c35 0 61 8 78 26 22 22 32 53 32 94 0 44-14 74-43 91l56 151zM338 382h5c9 0 17-4 22-13 6-8 9-19 9-32 0-28-11-41-33-41h-3v86zM693 397c0 55-10 100-29 135-20 34-45 51-77 51-28 0-52-13-71-40-26-33-38-83-38-150 0-64 13-114 39-147 20-26 43-38 69-38 33 0 59 17 78 51 20 34 29 80 29 138zm-79 1c0-66-9-99-27-99-10 0-17 9-22 26-6 16-8 39-8 70s2 55 7 71c5 17 12 26 21 26s16-9 21-25c5-17 8-40 8-69zM726 577V215h73l38 127 7 25 9 34 8 32a3207 3207 0 0 1-9-137v-81h73v362h-73l-38-133a1916 1916 0 0 1-20-76 2650 2650 0 0 1 5 117v92h-73zM1064 577h-77V301h-42v-86h163v86h-44v276z"/></g><g fill="#00eaff"><path d="M123 658h36l27 133a1428 1428 0 0 1 18 98v-3l6-38 5-35 5-24 24-131h36l29 327h-40l-7-111-1-14v-11l-2-43-1-41v-5l-1 6-3 21-3 14-5 30-2 11-26 144h-28l-25-124a1089 1089 0 0 1-16-102l-12 225H98l25-327zM396 658h32l67 327h-42l-11-63h-62l-12 64h-40l68-328zm40 230-10-53c-6-35-11-73-15-114a1296 1296 0 0 1-18 125l-7 42h50zM496 658h136v38h-47v290h-41V696h-48v-38zM638 658h136v38h-47v290h-41V696h-48v-38zM805 658h112v37h-70v104h62v37h-62v112h70v38H805V658zM963 658h55c23 0 40 5 51 17 14 15 21 38 21 68 0 24-4 42-11 57-8 14-18 23-32 26l57 160h-42l-57-161v161h-42V658zm42 145c16 0 27-4 34-12s10-21 10-40c0-10 0-19-2-26-1-7-3-13-6-18-3-4-7-8-12-10s-10-3-17-3h-7v109z"/></g><path fill="#00eaff" d="M97 94h170v43H97zM352 94h170v43H352zM610 94h170v43H610zM97 1061h170v43H97zM352 1061h170v43H352zM610 1061h170v43H610z"/></svg>
