<svg xmlns="http://www.w3.org/2000/svg" fill="none" viewBox="0 0 245 245">
  <path fill="url(#a)" d="M221 101c12 0 23 9 24 21 4 57-48 121-122 123C61 246 0 197 0 122c0-12 10-22 22-22 11 0 21 10 21 22 0 49 40 81 79 80 49-1 81-44 79-78 0-12 9-22 20-23Z"/>
  <path fill="#00A672" d="M168 123c0-12 10-22 22-22h32c13 0 23 10 23 22s-10 22-23 22h-32c-12 0-22-10-22-22Zm-67 0a22 22 0 1 1 44 0 22 22 0 0 1-44 0Z"/>
  <path fill="#00A672" fill-rule="evenodd" d="M144 21c0 12-9 21-21 22-50 2-81 42-80 80 1 12-8 22-20 22-12 1-22-9-23-21C-2 63 49 1 122 0c11 0 21 9 22 21Z" clip-rule="evenodd"/>
  <defs>
    <linearGradient id="a" x1="122.5" x2="122.5" y1="100.2" y2="244.8" gradientUnits="userSpaceOnUse">
      <stop stop-color="#00583E"/>
      <stop offset="1" stop-color="#00835C"/>
    </linearGradient>
  </defs>
</svg>
