<svg xmlns="http://www.w3.org/2000/svg" data-name="HackMD Logo" viewBox="0 0 113.4 113.4"><defs><linearGradient id="a" x1="35.9" x2="78" y1="665.4" y2="597.3" gradientTransform="matrix(1 0 0 -1 0 687.9)" gradientUnits="userSpaceOnUse"><stop offset="0" stop-color="#9894f9"/><stop offset="1" stop-color="#453aff"/></linearGradient></defs><path d="M99 60.1c0-3.3-1-5.2-3.7-6.5l-16.2-7.9c-.6-.3-1.2-.6-2-.8V34c0-3.1-1-5.2-3.7-6.4l-16.2-8a19.7 19.7 0 0 0-17.8.2L18.7 30.7a6.5 6.5 0 0 0-3.6 5.7l-1 16.3c0 1.5.6 3.2 2.1 4L33.5 67c1 .7 2 1.2 3.2 1.6l-.5 10.2c-.1 1.7.4 3.2 2 4L55.3 93c6 3.6 13.6 3.7 19.8.2l22-12.6c1.5-.8 2-2.3 2-4L99 60.1ZM36.2 46.5c-3.7-1.7-13.7-7-14.4-7.3-1.8-1-1.8-2-1.8-3.2a3.3 3.3 0 0 1 2-2.8l19.7-9.9a15.3 15.3 0 0 1 13.5 0l14.1 7c1.5.7 2.1 2.2 1.9 3.6-.2 1-.7 1.7-1.8 2.3L51 46c-4.6 2.4-10 2.6-14.8.5ZM93 60.3c-.1 1-.7 2-1.7 2.6l-18.9 11a15.6 15.6 0 0 1-15.2.2l-13.8-7.4a3.6 3.6 0 0 1 0-6.3L62 50c4.4-2.4 9.6-2.6 14-.5l15 6.9a3.6 3.6 0 0 1 2 3.8Z" style="fill:url(#a);fill-rule:evenodd;stroke-width:0"/></svg>