<svg xmlns="http://www.w3.org/2000/svg" viewBox="0 0 150 85"><path d="m95.82 84.55-3.43.09c-2.31-4.02-4.53-7.63-7.7-11.37l-.09 11.34h-4.22l-.01-18.21h3.46c2.77 3.17 5.08 6.36 7.68 10l.08-9.95 4.23-.06zm-68.88.42c-2.16-.17-4.32-1.03-5.77-2.58-2.33-2.48-2.92-5.98-2.28-9.23.93-4.74 4.95-7.41 9.61-7.08 5.06.36 8.09 4.5 8.1 9.46.01 5.49-3.73 9.9-9.66 9.43m5.1-7.61c.45-2.29.19-4.74-1.44-6.41-1.35-1.39-3.9-1.44-5.44-.43-1.86 1.22-2.01 3.29-2.06 5.26-.07 2.67 1.14 4.92 3.72 5.36 2.35.4 4.69-1.04 5.22-3.78m113.33 7.33-3.8-6.19c-.4-.66-2.13-.84-2.13-.21l.03 6.33-4.26.05V66.75c.59-.12 1.37-.34 1.83-.34l6.19.06c1.15.01 2.79.82 3.7 1.52 1.82 1.39 2.19 3.91 1.64 5.96-.42 1.59-1.5 2.64-3.03 3.21 1.7 2.44 3.11 4.79 4.45 7.47l-4.63.06Zm-2.53-10.32c.64-.08 1.4-1.06 1.57-1.59.19-.57-.02-1.76-.59-2.14-1.3-.84-3.04-.86-4.45-.66.11 1.74.1 2.99.03 4.8l3.44-.42ZM14.91 84.56c-1.5.1-2.72.1-4.24.05l-.03-7.74H4.27l-.03 7.75-4.24.04V66.4h4.26v6.98h6.39V66.4h4.26zm115.26-7.68h-6.93v4.03l8.5-.01-.03 3.75-12.73.02V66.4h12.24l.01 3.77-7.99-.01v3.23l6.92-.01zm-19.44 4.31V75h3.68c.09 0 .51.15.49.23-.03.13-.13.48-.15.64l-.03 8.16c-2.83.88-5.73 1.27-8.5.67-5.5-1.21-7.4-6.63-6.41-11.56.84-4.19 4.3-7.08 8.52-7.06 2.27.01 4.18.27 6.28 1.32-.39 1.25-.75 2.26-1.25 3.42-2.37-.98-4.9-1.49-7.12-.36-1.98 1.01-2.19 3.34-2.22 5.33-.04 2.43.97 4.9 3.6 5.31.83.13 1.88.08 3.11.09m-58.37-1.06c-.5 4.51-5.38 5.18-9.24 4.73-1.29-.15-2.74-.85-3.99-1.34l1.23-3.51c1.73 1.3 6.84 1.88 7.5.18.33-.86-.13-1.88-1.01-2.26l-4.66-2c-2.66-1.14-3.49-4.51-2.09-6.94 2.22-3.84 8.22-3.47 11.44-1.63l-1.22 3.31c-1.65-.89-6.09-1.81-6.42.12-.16.95.29 1.62 1.16 1.98l4.33 1.79c2.22.92 3.23 3.29 2.98 5.55Zm10.99 4.46-4.25.02-.01-14.45h-5.32l.01-3.76h14.89l.01 3.77-5.33-.01zM71.6 66.4h4.26v18.26H71.6zm12.53-24.15-.02-9.94-14.8-.02-12-6.67 38.51-.03.01 22.96zm-2.78-25.79 11.44 6.4-37.96.05V0l11.43 6.2.04 10.25zM95.82 6.07l.01 15.51-11.71-6.88L84.11.02l9.02 4.66zM66.27 48.14l-6.16-3.17-5.28-2.76.02-14.98 11.43 6.69z" style="fill:#6747c6"/></svg>