<svg xmlns="http://www.w3.org/2000/svg" fill-rule="evenodd" stroke-linejoin="round" stroke-miterlimit="1.4" aria-label="Logo" clip-rule="evenodd" viewBox="0 0 1500 410">
  <path fill="#FF4088" d="M335.1 261.9V139.6a45 45 0 0 0-22.1-38.7L199.8 34.4a52.6 52.6 0 0 0-54.3.6L45 97a58 58 0 0 0-27.5 49.3v125.2a56 56 0 0 0 27.7 48.4L150 381c13.9 8.1 31 8.3 45.2.5l116-64.6a46.7 46.7 0 0 0 23.9-40.8v-14.3z"/>
  <path fill="#C9177E" d="M173.2 13.7h4.4l.3.1h1.1l.2.1h1l.2.1h.9l.2.1h.6l.3.1h.2l.3.1h.5l.3.1h.3l.3.1h.5v.1h.5l.3.1h.3l.2.1h.3l.3.1.3.1h.2l.3.1h.3v.1h.2l.3.1h.3l.2.1.3.1h.3l.2.1.3.1h.3l.2.1.3.1h.3v.1h.3l.2.1.3.1.3.1h.2v.1h.3l.3.2h.2l.3.1.3.1.2.1h.3v.1h.3l.2.2h.3l.2.1.3.1.3.1.2.1.3.1.3.1.2.1.3.1.2.1.3.1.3.1.2.1.3.2h.3l.2.2h.3v.1l.2.1.3.1.2.1.3.1.3.1.2.2h.3l.2.2.3.1.2.1.3.2h.2l.3.2.3.1.2.2h.2v.1l.3.1.3.1.2.2.3.1.2.1.3.2.2.1.3.2.2.1.3.1.2.2.2.1.3.2 113.3 66.6h.2l.2.2.2.1.2.2h.2v.1l.2.1.2.1.2.1.2.2.2.1.2.1.2.2.2.1.2.1.2.2h.2v.1l.2.1.2.1.2.2.2.1.2.2.2.1.2.1.2.2.1.1.2.1.2.2.2.1.2.2.2.1.2.2.2.1.2.2.2.1.3.3.4.3.4.3.3.3.4.3.3.3.4.3.3.3.4.4.3.3.4.3.3.3.4.3.3.4.3.3.4.4.3.3.3.3.3.4.3.3.4.4.3.3.3.4.3.3.3.4.3.4.3.3.3.4.3.3.3.4.2.4.3.4.3.3.3.4.3.4.2.4.3.4.3.4.2.4.3.3.2.4.3.4.2.4.3.4.2.4.3.4.2.4.2.4.3.4.2.4.2.4v.1l.2.4.2.4.3.4.2.4.2.4v.1l.2.4.2.4.2.4.2.5.1.4.2.4.2.4v.1l.2.4.1.4.2.5.2.4.2.4.1.5.2.4.1.5.2.4.1.4v.1l.1.4.2.4.1.5.2.4v.5h.1l.1.4.1.5.2.5v.4l.2.5.1.4v.1l.1.4.1.5v.4h.1v.5l.2.4v.5l.1.5.1.5v.5l.1.4v.3l.1.2v.7h.1v.7l.1.3v.7l.1.2v1.2l.1.3v145.2l-.1.3v.7l-.1.3v.7l-.1.3v.5l-.1.2v.3l-.1.2v.5l-.1.3v.5l-.1.2v.3l-.1.2v.5l-.1.2v.3l-.1.2v.3l-.1.2v.3l-.1.2v.2l-.1.3v.2l-.1.2v.3l-.1.2v.3l-.1.2-.1.2v.3l-.1.2-.1.2v.3l-.1.2v.3h-.1v.2l-.1.3-.1.2v.2l-.2.3v.4h-.1v.3l-.1.2-.1.2-.1.3v.2l-.2.3v.2l-.1.2-.1.3v.2l-.2.2v.3l-.1.2-.1.2v.3h-.1v.2l-.2.2v.3l-.2.2v.2l-.1.3-.1.2-.1.2-.1.2-.1.3-.1.2-.1.2-.1.3-.1.2-.1.2-.1.2-.1.3-.1.2-.1.2-.1.2-.1.2-.1.2-.1.3-.2.2v.2l-.2.2v.3l-.2.2-.1.2-.1.2-.1.3-.1.2-.2.2v.2h-.1l-.1.2-.1.2-.2.2v.3l-.2.2-.1.2-.1.2-.2.2v.2h-.1l-.1.2-.1.3-.2.2v.2h-.1l-.1.2-.2.2v.2h-.1l-.1.2-.2.2-.1.2-.1.2-.2.2-.1.2-.1.2-.2.2-.1.2-.2.2-.1.2-.1.2-.2.2-.1.2-.2.2-.1.2-.2.2-.1.2-.2.2-.1.2-.2.2-.1.2-.2.2-.1.2-.2.2-.1.2-.2.2-.1.1-.2.2-.2.2-.1.2-.2.2-.1.2-.2.2-.2.2-.1.2-.2.2-.1.1-.2.2-.2.2-.1.2-.2.2-.2.2-.1.2-.2.1-.2.2-.2.2-.1.2-.2.2-.2.1-.1.2-.2.2-.2.2-.2.1-.2.2-.1.2-.2.2-.2.1-.2.2-.2.2-.1.2-.2.1-.2.2-.2.2-.2.1-.2.2-.1.2-.2.1-.2.2-.2.1-.2.2-.2.2-.2.2-.2.1-.2.2-.2.1-.2.2-.2.1-.2.2-.1.2-.2.1-.2.2-.2.1-.2.2-.2.2-.2.1-.2.2-.2.1-.2.1-.2.2-.2.1-.2.2-.2.1-.3.2-.2.1-.2.2-.2.1-.2.1-.2.2-.2.1-.2.2-.2.1-.3.1-.2.2-.2.1-.2.2h-.2v.1l-.2.1-.2.2-.3.1-.2.1-.2.2h-.2v.1l-.2.1-.3.2h-.2v.1l-.2.1-.2.1-.3.1-115.9 64.7h-.2l-.2.2-.2.1-.2.1-.3.1-.2.1-.2.1-.2.2h-.2l-.2.2h-.3v.1l-.2.1-.2.1-.2.1-.2.1-.2.1-.2.1-.2.1-.3.1-.2.1-.2.1-.2.1-.2.1-.3.1-.2.1-.2.1-.2.1h-.2v.1h-.3l-.2.2h-.2l-.2.1-.3.1-.2.1-.2.1-.2.1h-.3l-.2.2h-.2l-.2.1-.3.1h-.2v.1h-.2l-.3.1-.2.1h-.2v.1h-.2l-.2.1-.3.1h-.2l-.2.1-.3.1-.4.2-.5.1-.4.1-.5.1-.5.2-.4.1-.5.1-.4.1h-.1l-.4.1-.5.1-.4.1h-.1l-.4.1-.5.1-.5.1h-.4v.1h-.5l-.5.1-.4.1h-.5v.1h-.5l-.4.1h-.5v.1h-.5l-.5.1h-.8l-.5.1h-1l-.4.1h-7.7l-.5-.1h-.5l-.4-.1h-.5l-.5-.1h-.5l-.4-.1h-.5v-.1h-.5l-.4-.1-.5-.1h-.5l-.4-.2h-.5l-.4-.1-.5-.1-.5-.1-.4-.1h-.1l-.4-.1-.5-.1-.4-.2h-.5v-.1l-.5-.1-.4-.1-.5-.2-.4-.1h-.1l-.4-.2h-.5v-.1l-.4-.1-.5-.2h-.2l-.3-.1h-.2v-.1h-.2l-.2-.2h-.3l-.2-.1h-.2v-.1h-.2l-.3-.2h-.2l-.2-.1-.2-.1-.3-.1-.2-.1-.2-.1h-.2v-.1h-.3l-.2-.2h-.2l-.3-.2h-.2l-.2-.1-.2-.1-.2-.1-.3-.1-.2-.1-.2-.1-.2-.1-.3-.1-.2-.1-.2-.1-.2-.1-.2-.2h-.2l-.3-.2h-.2v-.1l-.2-.1-.2-.1-.2-.1-.2-.1-.3-.2h-.2l-.2-.2h-.2v-.1l-.2-.1-.2-.1-.2-.1-.3-.2h-.2l-.2-.2-.2-.1-104.8-61.2-.2-.1-.3-.2-.2-.1-.3-.2-.2-.1-.3-.2-.2-.1-.3-.2-.2-.1-.3-.2h.1l-.2-.1-.3-.2-.2-.2-.3-.1-.2-.2-.2-.2-.3-.1-.2-.2-.3-.2-.2-.1-.2-.2-.3-.2-.2-.1-.2-.2-.3-.2-.2-.1-.2-.2-.3-.2-.2-.2-.2-.1-.3-.2-.2-.2-.2-.2-.2-.1-.2-.2-.3-.2-.2-.2-.2-.2-.2-.2-.2-.1-.2-.2-.3-.2-.2-.2-.2-.2-.2-.1-.2-.2-.2-.2-.3-.2-.2-.2-.2-.2-.2-.2-.2-.2-.2-.1-.2-.2-.2-.2-.2-.2-.2-.2-.2-.2-.2-.2-.3-.2-.2-.2-.2-.2-.2-.2-.2-.2-.2-.2-.2-.2-.1-.2-.2-.2-.2-.2-.2-.2-.2-.3-.2-.2-.2-.2-.2-.2-.2-.2-.2-.2-.2-.2-.1-.2-.2-.2-.2-.3-.2-.2-.2-.2-.2-.2-.2-.2-.1-.2-.2-.2-.2-.3-.2-.2-.2-.2-.2-.2-.1-.2-.2-.2-.2-.3-.2-.2-.1-.2-.2-.2-.2-.2-.1-.3-.2-.2-.2-.2-.1-.2-.2-.3-.2-.2-.1-.2-.2-.2-.2-.3-.1-.2-.2-.2-.1-.3-.2-.2-.2-.2-.1-.3-.2-.2-.1-.2-.2-.3-.1-.2-.2-.2-.1-.3-.2-.2-.2-.2v-.3H14l-.1-.2-.2-.2-.1-.3-.2-.2-.1-.3-.2-.2-.1-.3-.2-.2-.1-.2-.1-.3-.2-.2-.1-.3-.1-.2-.2-.3-.1-.2-.1-.3-.2-.2v-.3l-.2-.2-.1-.3-.2-.2v-.3H11l-.1-.2-.1-.3-.2-.2v-.3l-.2-.2-.1-.3-.1-.2-.1-.3-.2-.2v-.3l-.2-.2-.1-.3-.1-.3-.1-.2-.2-.3v-.2l-.2-.3v-.2l-.2-.3v-.2l-.2-.3v-.3h-.1v-.2h-.1v-.3h-.1v-.2h-.1v-.3h-.1v-.3H8v-.2l-.2-.3v-.3l-.2-.2v-.3l-.2-.3v-.2l-.1-.3-.1-.3-.1-.2-.1-.3v-.5l-.2-.3v-.3l-.1-.3-.1-.2v-.3l-.2-.3v-.3l-.1-.2v-.3h-.1v-.2l-.1-.3v-.3H6v-.2l-.1-.3v-.3l-.1-.2-.1-.3v-.3l-.1-.2-.1-.3v-.3l-.1-.3-.1-.3v-.2l-.1-.3v-.3l-.1-.3v-.2l-.1-.3v-.3h-.1v-.3l-.1-.3v-.5l-.1-.3v-.3l-.1-.2v-.3l-.1-.3v-.5l-.1-.3v-.6l-.1-.3v-.6l-.1-.2v-.6l-.1-.3v-.6L4 277v-1.2l-.1-.3v-2.3l-.1-.2V142.8l.1-.3v-1.7l.1-.3v-.9l.1-.2v-.6l.1-.3v-.6l.1-.3v-.5l.1-.3v-.6l.1-.3v-.3l.1-.2v-.3l.1-.3v-.6l.2-.2v-.6l.1-.3v-.3l.1-.2v-.3l.1-.3.1-.3v-.2l.1-.3v-.3l.1-.2v-.3h.1v-.3l.1-.3v-.3l.2-.2v-.6l.1-.3.1-.2v-.3l.2-.3v-.3l.1-.2v-.3h.1v-.3l.2-.3v-.2l.1-.3.1-.3v-.2l.2-.3v-.3l.1-.2.1-.3.1-.3v-.2h.1v-.3l.2-.3v-.2l.2-.3v-.3l.1-.2.1-.3.1-.2.1-.3.1-.3.1-.2.1-.3.1-.3.1-.2.2-.3v-.2l.2-.3v-.3h.1l.1-.3.1-.2.1-.3.1-.2.1-.3.2-.3v-.2l.2-.3.1-.2.1-.3.1-.2.2-.3v-.2h.1l.1-.3.1-.2.1-.3.2-.2v-.3h.1l.1-.2.1-.3.2-.2.1-.3.1-.2.2-.3.1-.2.1-.3.2-.2.1-.3.1-.2.2-.2.1-.3.2-.2.1-.3.1-.2.2-.3.1-.2.2-.2.1-.3.2-.2.1-.3.2-.2.1-.2.2-.3.1-.2.2-.2.1-.3.2-.2.1-.2.2-.3.1-.2.2-.2.1-.3.2-.2.2-.2.1-.3.2-.2.2-.2.1-.3.2-.2.2-.2.1-.2.2-.3.2-.2.1-.2.2-.2.2-.2.1-.3.2-.2.2-.2.2-.2.2-.2.1-.3.2-.2.2-.2.2-.2.1-.2.2-.3.2-.2.2-.2.2-.2.2-.2.1-.2.2-.2.2-.3.2-.2.2-.2.2-.2.2-.2.2-.2.1-.2.2-.2.2-.2.2-.2.2-.2.2-.3.2-.2.2-.2.2-.2.2-.2.2-.2.2-.2.2-.2.2-.2.2-.2.2-.2.2-.2.3-.1.2-.2.2-.2.2-.2.2-.2.2-.2.2-.2.2-.2.2-.2.3-.1.2-.2.2-.2.2-.2.2-.2.2-.2.3-.1.2-.2.2-.2.2-.2.2-.2.3-.1.2-.2.2-.2.3-.2.2-.2.2-.1.2-.2.3-.2.2-.2.2-.1.2-.2.3-.2.2-.1.2-.2.3-.2.2-.1.3-.2.2-.1.2-.2.3-.2.2-.1.2-.2.3-.1.2-.2.3-.2.2-.1.3-.2.2-.1.2-.2.3-.1.2-.2 100.5-62 .3-.1.2-.2.3-.1.2-.2.3-.1.2-.2.3-.1.2-.1.3-.2.2-.1.2-.2h.3v-.1l.2-.1.3-.2.2-.1.3-.1.2-.2.3-.1.2-.1.3-.2h.3v-.1l.2-.1.3-.1.2-.1.3-.2h.2V20l.3-.1.3-.1.2-.1.3-.2h.2l.3-.2.2-.1.3-.1.2-.1.3-.1.3-.1.2-.1.3-.2h.3l.2-.2h.3v-.1h.2v-.1h.3V18h.5l.3-.2h.3l.2-.2h.3l.3-.1.2-.1.3-.1.3-.1.2-.1.3-.1h.3v-.1h.3l.2-.1.3-.1.3-.1h.2l.3-.2h.2l.3-.1.3-.1h.3l.2-.1.3-.1h.3l.2-.2h.6v-.1h.2l.3-.1h.3l.3-.1.2-.1h.3l.3-.1h.2l.3-.1h.3l.3-.1.2-.1h.3l.3-.1h.3l.2-.1h.3l.3-.1h.3l.2-.1h.6l.3-.1h.2l.3-.1h.6l.2-.1h.6l.3-.1h.8l.3-.1h.5l.3-.1h1.1l.3-.1h2l.3-.1h2zm-.2 27h-2.6l-.2.1h-.7l-.2.1h-.6l-.2.1h-.6l-.2.1h-.5l-.1.1h-.4l-.1.1h-.5l-.2.1h-.3l-.2.1h-.3l-.1.1h-.4l-.1.1h-.3l-.2.1h-.2l-.1.1h-.3l-.2.1h-.2l-.1.1h-.2l-.1.1h-.4l-.1.1h-.2l-.1.1h-.2l-.1.1h-.2l-.2.1h-.1l-.2.2h-.3l-.2.1h-.1l-.2.1h-.1l-.2.1h-.1l-.2.1-.2.1h-.1l-.2.1h-.1l-.2.2h-.3l-.2.1-.1.1h-.2l-.1.1-.2.1h-.1l-.2.1-.1.1h-.2l-.1.2h-.3l-.2.2h-.1l-.2.1h-.1l-.2.2h-.1l-.2.1h-.1l-.2.2h-.1l-.2.1h-.1l-.2.2h-.1l-.2.1-.1.1-.2.1h-.1l-.2.2h-.1l-.2.2h-.1l-.2.1-.1.1-.2.1h-.1l-.2.2L52 108.6l-.2.2h-.1l-.2.2h-.1l-.2.2H51l-.2.2h-.1l-.2.2h-.1l-.2.2h-.1l-.2.2h-.1l-.2.2h-.1l-.2.2-.2.2h-.2l-.1.2-.2.1v.1l-.2.1-.2.1-.1.1-.2.1v.2h-.2l-.2.2h-.1l-.1.2-.2.1-.1.1-.2.1v.1l-.2.1-.2.2-.2.2-.1.1-.2.1-.1.1-.1.1-.2.2-.2.2-.2.1v.1l-.2.2h-.1l-.2.2-.1.1-.1.1-.2.2-.2.2-.1.1-.2.2-.2.2-.1.1-.1.2H43v.2l-.2.1-.1.2-.1.1-.2.1v.2h-.2l-.1.2-.1.2h-.2v.2l-.2.2-.2.2-.1.2h-.1l-.2.2v.2h-.2v.2l-.2.2-.1.1-.1.2h-.1l-.1.2-.1.2-.1.1-.2.2-.2.2v.2l-.2.1v.2l-.2.1v.1l-.2.2v.1l-.2.2v.1l-.2.2v.1l-.2.2-.2.2v.2l-.1.1-.1.2-.1.1-.1.2v.1l-.2.2v.1l-.2.2v.1l-.2.2v.1l-.1.2-.1.1-.1.2-.1.1-.1.2v.1l-.2.2v.1l-.2.2v.2l-.1.1-.1.2v.1l-.2.2v.1l-.1.2-.1.1v.2l-.2.2v.1l-.1.2-.1.1v.2l-.2.1v.2l-.1.2v.1l-.2.2v.3l-.2.2v.1l-.1.2v.1l-.1.2-.1.2v.1l-.1.2-.1.2v.1l-.1.2-.1.1v.2l-.1.2-.1.1v.2l-.1.2v.1l-.1.2-.1.2v.1l-.1.2v.2l-.1.1v.2l-.1.2v.1l-.1.2v.2l-.1.1v.2l-.2.2v.3l-.1.2v.1l-.1.2v.2l-.1.1v.4l-.1.2v.1l-.1.2v.2l-.1.1v.4l-.1.2v.1l-.1.2v.2l-.1.2v.4l-.1.2v.4l-.1.2v.5l-.1.2v.3l-.1.2v.5l-.1.2v.5l-.1.2v.7l-.1.2v.9l-.1.2v1.8l-.1.1v129.7l.1.2v1.1l.1.1v.7l.1.2v.7l.1.2v.5l.1.2v.3l.1.2v.5l.1.2v.3l.1.2v.1l.1.2v.3l.1.2v.4l.1.1v.2l.1.2v.1l.1.2v.3l.1.2v.2l.1.1v.4l.1.1v.2l.1.2v.1l.1.2v.2l.1.1v.2l.1.2v.1l.1.2.1.1v.2l.1.2v.1l.1.2.1.1v.2l.1.2v.1l.1.2.1.1v.2l.1.2v.1l.2.2v.3l.1.2.1.1v.2l.1.1.1.2v.2l.1.1.1.2v.1l.1.2.1.2v.1l.2.2v.1l.1.2v.2l.2.1v.2l.1.1.1.2v.1l.2.2v.1l.1.2.1.1v.2l.2.1v.2l.1.1.1.2.1.1v.2l.2.1v.2l.1.1.1.2.1.1.1.1.1.2v.1l.2.2v.1l.2.2v.1l.1.2.1.1.1.1.1.2.1.1.1.2v.1l.2.2.2.2v.2l.2.1v.2l.2.1v.1l.2.2v.1l.2.2.1.1.1.1.1.2.1.1.1.2h.1l.1.2.1.2h.1l.2.2v.2h.2v.2l.2.2h.1l.1.2.1.1.1.2.1.1.2.1v.2h.2l.1.2.1.2h.1l.2.2v.1l.2.2h.1l.1.2.1.1.2.2.2.2.1.1.1.1.2.2.2.2.1.1.2.1v.2h.2l.1.2.1.1.2.1.1.2h.1l.2.2v.1l.2.1.1.1.2.1.1.2h.1l.2.2.1.1.1.1.2.1.1.1.1.1.2.2h.1l.2.2.2.2h.2l.1.2.1.1.2.1.1.1.2.1.1.1.1.1.2.1.1.1.2.1.1.1.1.1.2.1.1.1.2.1.1.1.2.1.1.1.2.1.1.1.2.1.1.1.1.1h.2l.1.2h.2l.1.2h.2l.2.1.1.1.2.1 104.7 61.2v.1h.2l.1.1h.1l.2.2h.2l.1.1.1.1h.1l.2.1.2.2h.2l.2.1.2.2h.2l.2.1.2.1h.1l.1.1h.2v.2h.5l.1.1h.2v.1h.2l.1.1h.1l.2.1.2.1h.1l.1.1h.2v.1h.2l.1.1h.1l.2.1h.2l.1.1h.2v.1h.2l.2.1.3.1h.2l.3.2h.5l.2.2h.3l.2.1h.3l.2.1h.3l.2.1h.3l.2.1h.3l.2.1h.3l.2.1h.3l.2.1h.6l.2.1h.5l.3.1h1l.3.1h4.8l.2-.1h.5l.3-.1h.5l.3-.1h.5l.2-.1h.3l.2-.1h.3l.2-.1h.3l.2-.1h.3l.2-.1.3-.1h.2l.3-.1.2-.1h.3l.2-.1.3-.1h.1l.1-.1h.3l.1-.1h.1l.1-.1h.3l.1-.1h.1l.2-.1.2-.1h.3v-.1h.2l.1-.1h.1l.2-.1.2-.1h.1l.1-.1h.2v-.1h.2l.1-.1h.1l.2-.1.2-.1h.1l.1-.1.2-.1.2-.1h.1l.1-.1.2-.1.2-.1h.1l.1-.1.2-.1.2-.1h.1l.1-.1.1-.1h.2l116-64.7.2-.1.1-.1h.2v-.1l.2-.1.1-.1h.1l.2-.1v-.1h.2l.1-.2h.1l.2-.1.2-.2h.1l.1-.1h.2v-.2h.2l.1-.1.1-.1h.1l.1-.2h.2v-.1l.2-.1h.1l.1-.2h.1l.1-.1.1-.1h.2v-.2h.2v-.1l.2-.1.1-.1.1-.1h.1l.1-.2h.1l.2-.1v-.1l.2-.1v-.1h.2v-.2h.2l.1-.2h.1l.1-.1.1-.1.1-.1.1-.1.1-.1.1-.1.1-.1.1-.1.1-.1.1-.1.1-.1.1-.1.1-.1.1-.1.1-.1.1-.1.1-.1.1-.1.1-.1.1-.1.1-.1v-.1l.2-.1v-.1l.2-.1v-.1l.1-.1.1-.1.1-.1.1-.1.1-.1.1-.1v-.1l.2-.1v-.1l.2-.1v-.1l.1-.1.1-.1.1-.1.1-.1.1-.1v-.1l.2-.2.1-.2h.1v-.2l.2-.1v-.1l.1-.1.1-.1v-.1l.2-.1v-.2h.1l.1-.2.2-.2v-.1l.1-.1v-.1l.2-.2.1-.2v-.1l.2-.1v-.1l.1-.1v-.2h.1l.1-.2v-.1l.2-.1v-.1l.1-.2.1-.2.1-.1v-.1l.1-.2h.1v-.2l.1-.1.1-.1v-.2h.1v-.2l.1-.1.1-.1v-.2h.1l.1-.2v-.1l.1-.1v-.2l.1-.1.1-.1v-.1l.1-.2.1-.2.1-.1v-.2l.1-.1v-.1l.1-.1v-.2l.1-.1v-.1l.1-.2.1-.2v-.1l.1-.2v-.1l.1-.1v-.2h.1v-.2l.1-.1v-.3l.1-.1v-.2l.1-.1v-.1l.1-.2.1-.2v-.1l.1-.2v-.2l.1-.2v-.1l.1-.1v-.2l.1-.2v-.3l.1-.1v-.3l.1-.1v-.4l.1-.1v-.2l.1-.1v-.4l.1-.1v-.3l.1-.2v-.4l.1-.1v-.4l.1-.1v-.6l.1-.1v-.7l.1-.2v-.8l.1-.1v-1.3l.1-.1V137h-.1v-1h-.1v-.7l-.1-.1v-.5l-.1-.3v-.2l-.1-.3v-.5l-.1-.2-.1-.3v-.2l-.1-.3v-.2l-.1-.3-.1-.2v-.3l-.1-.2-.1-.3v-.2l-.2-.3v-.2l-.1-.3v-.2l-.2-.3v-.2l-.1-.2-.1-.3-.1-.2-.1-.2v-.3l-.2-.2v-.3l-.2-.2v-.2l-.2-.3v-.2l-.2-.2v-.2l-.2-.3-.1-.2-.1-.2-.1-.3-.1-.2-.2-.2v-.2l-.2-.3-.1-.2-.1-.2-.2-.2v-.2l-.2-.3-.2-.2v-.2l-.2-.2-.2-.2v-.2l-.2-.2-.2-.2-.1-.3-.2-.2v-.2l-.2-.2-.2-.2-.1-.2-.2-.2-.1-.2-.2-.2-.2-.2-.1-.2-.2-.2-.1-.2-.2-.2-.2-.1-.1-.2-.2-.2-.2-.2-.2-.2-.1-.2-.2-.2-.2-.2-.2-.1-.1-.2-.2-.2-.2-.2-.2-.2-.2-.1-.2-.2-.2-.2-.2-.1-.2-.2-.2-.2-.2-.1-.2-.2-.1-.2-.3-.1-.1-.2h-.1l-.1-.1-.1-.1h-.1l-.1-.2h-.1l-.2-.1v-.1h-.2v-.2h-.2v-.1h-.2v-.2h-.2v-.1h-.2v-.2h-.2l-.1-.1h-.1l-.1-.1-.1-.1h-.1l-.2-.2h-.2v-.2h-.4l-.1-.2h-.1L193 46l-.2-.1h-.1l-.2-.2h-.1l-.2-.2h-.1l-.1-.1h-.2l-.1-.2h-.2l-.1-.1-.2-.1h-.1l-.2-.2h-.1l-.2-.1-.1-.1h-.2l-.1-.2h-.2l-.1-.1h-.2l-.2-.2h-.3l-.1-.2h-.3l-.2-.2h-.1l-.2-.1h-.1l-.2-.1h-.1l-.2-.2h-.3l-.2-.1-.1-.1h-.2l-.1-.1h-.2l-.1-.1-.2-.1h-.1l-.2-.1h-.2l-.1-.1h-.2l-.1-.1h-.2l-.1-.1h-.2l-.2-.1h-.1l-.2-.1h-.1l-.2-.1h-.1l-.2-.1h-.3l-.2-.1h-.1l-.2-.1h-.2l-.1-.1h-.3l-.2-.1h-.2l-.1-.1h-.3l-.2-.1h-.4l-.2-.1h-.2l-.2-.1h-.4l-.2-.1h-.5l-.2-.1h-.4l-.2-.1h-.5l-.1-.1h-.9l-.1-.1h-1.1l-.2-.1h-2.4z"/>
  <path fill="#fff" fill-rule="nonzero" d="M97 310V102.6h43.3v75.5h71.9v-75.5h43.5v207.2h-43.5v-90.6h-72V310H97z"/>
  <path fill="#0594CB" d="M715.9 259.3V136.6a44 44 0 0 0-21.8-38L580.6 31.7a52.6 52.6 0 0 0-54.3.6L430 91.7a67 67 0 0 0-31.8 57v120.1a56 56 0 0 0 27.8 48.5l104.7 61.2c13.9 8.1 31 8.3 45.2.4l116-64.5a46.7 46.7 0 0 0 23.9-40.8v-14.4z"/>
  <path fill="#0083C0" d="M554 11h1.7l.2.1h2l.2.1h1.1l.3.1h1.1l.3.1h.5l.3.1h.8l.3.1h.5l.3.1h.5l.3.1h.3l.3.1h.5l.3.1h.3l.2.1h.3l.3.1h.3v.1h.2l.3.1h.3l.2.1h.3l.3.1h.2v.1h.3l.3.1h.2v.1h.3l.3.1.2.1h.3l.3.1h.2v.1h.3l.3.1.2.1.3.1h.3l.2.2h.3l.3.1.2.1h.3v.1h.3l.2.2h.3l.3.1.2.1.3.1.3.1.2.1h.3v.1h.3v.1h.2v.1h.3v.1h.3v.1h.2v.1h.3v.1l.2.1.3.1.3.1.2.1.3.1.2.1.3.1.2.2h.3l.3.2.2.1.3.1.2.1.3.1.3.2h.2v.1l.3.1.2.1.3.1.2.2h.3v.1l.2.1.3.2h.2v.1l.3.1.2.1.3.2.3.1.2.1.2.2.3.1.2.1.3.2.2.1.3.2.2.1L701 87h.2l.2.1.2.2.2.1.2.1.2.2h.2v.1l.2.1.2.1.2.1.2.2.2.1.2.1.2.2.3.2h.1l.3.3h.1l.3.2.4.3.4.3.4.3.4.2.3.3.4.3.4.3.3.3.4.3.3.3.4.3.4.3.3.3.4.3.3.3.4.3.3.3.3.3.4.4.3.3.3.3.4.3.3.4.3.3.3.4.4.3.3.3.3.4.3.3.3.4.3.3.3.4.3.3.3.4.3.4.3.3.2.4.3.4.3.3.3.4.2.4.3.3.3.4.2.4.3.4.3.4.2.4.3.4.2.4.3.4.2.3v.1l.2.3v.1l.3.3.2.4.2.4v.1l.3.4.2.4.2.4.2.4.2.4.2.4.2.4.2.4.2.5.2.4.2.4.2.4.2.4v.1l.2.4.2.4.1.4.2.5.2.4.1.4.2.5.2.4.1.4.2.5.1.4.2.5.1.4.1.4.2.5v.4h.1l.1.5.1.4.2.5v.4l.2.5.1.4.1.5.1.4.1.5.1.4v.1l.1.4v.5h.1v.5l.1.4.1.5v.5l.1.4.1.5v.5l.1.4v.5h.1v.9l.1.5v.5l.1.4v2.2l.1.2v141.5l-.1.3v1.3l-.1.2v1l-.1.3v.5l-.1.2v.8h-.1v.5l-.1.2v.5l-.1.3v.5l-.1.2v.5l-.1.3v.2l-.1.3v.2l-.1.2v.3l-.1.2v.3l-.1.2v.3l-.1.2v.3l-.1.2v.2h-.1v.3l-.1.2v.3l-.1.2-.1.3v.2l-.1.2v.3l-.2.2v.5l-.1.2-.1.3v.2l-.2.3v.2l-.1.2v.3h-.1v.2l-.2.2v.3l-.1.2v.3h-.1v.2l-.2.2v.3l-.1.2-.1.2v.3l-.2.2v.2l-.2.3v.2l-.1.2-.1.3-.1.2-.1.2v.3h-.1v.2l-.2.2v.3l-.2.2v.2l-.2.2v.3l-.2.2v.2l-.2.2v.3l-.2.2v.2h-.1l-.1.2-.1.3-.1.2-.1.2-.1.2-.2.2v.2l-.2.3v.2l-.2.2-.1.2-.1.2-.2.2v.3l-.2.2-.1.2-.1.2-.1.2-.2.3-.1.2-.1.2-.2.2v.2l-.2.2-.1.2-.1.2-.2.3-.1.2-.2.2v.2h-.1l-.1.2-.2.2v.2h-.1l-.1.2-.2.2v.2l-.2.2-.1.2-.2.2-.1.2-.2.2v.2h-.1l-.1.2-.2.2-.1.2-.2.2-.1.2-.2.2-.1.2-.2.2-.1.2-.2.2-.1.2-.2.2-.1.2-.2.2-.1.2-.2.2-.2.2-.1.2-.2.1-.1.2-.2.2-.1.2-.2.2-.1.2-.2.2-.2.2-.1.1-.2.2-.2.2-.1.2-.2.2-.2.1-.2.2-.1.2-.2.2-.2.2-.1.1-.2.2-.2.2-.2.2-.1.2-.2.1-.2.2-.2.2-.1.2-.2.1-.2.2-.2.2-.2.1-.2.2-.1.2-.2.2-.2.1-.2.2-.2.2-.2.1-.2.2-.1.2-.2.1-.2.2-.2.1-.2.2-.2.2-.2.1-.2.2-.2.1-.2.2-.1.2-.2.1-.2.2-.2.1-.2.2-.2.2-.2.1-.2.2-.2.1-.3.2-.2.1-.2.2-.2.1-.2.1-.2.2-.2.1-.2.2-.2.1-.2.2-.2.1-.2.1-.2.2-.2.1-.2.2-.3.1-.2.1-.2.2-.2.1-.2.1-.2.2-.2.1-.3.1-.2.2-.2.1-.2.1-.2.2-.2.1-.2.1-.3.2h-.2v.1l-.2.1-116 64.6-.2.1-.2.1-.2.1-.2.2h-.2v.1l-.3.1-.2.1-.2.1-.2.1-.2.1-.2.2h-.3l-.2.2h-.2v.1h-.2v.1h-.2v.1h-.3v.1h-.2v.1h-.2v.1h-.2v.1h-.2v.1h-.3v.1h-.2v.1h-.2v.1h-.2l-.2.2h-.3l-.2.2h-.2l-.2.1-.3.1-.2.1-.2.1-.2.1h-.2v.1h-.3l-.2.2h-.2l-.2.1-.3.1-.2.1h-.2l-.2.2h-.3l-.2.1h-.2v.1h-.2l-.3.1-.2.1-.2.1h-.3l-.2.1-.4.2-.5.1-.5.1-.4.1-.5.2h-.5l-.4.2-.5.1-.5.1-.4.1-.5.1-.4.1-.5.1h-.5v.1h-.4l-.5.2h-.5l-.4.1h-.5l-.5.1-.4.1h-.5l-.5.1h-.4l-.5.1h-.5l-.5.1h-.9l-.5.1h-7.5l-.5-.1h-.5l-.4-.1h-.5l-.5-.1h-.4l-.5-.1h-.5v-.1h-.5l-.4-.1-.5-.1h-.4l-.5-.2h-.5l-.4-.1-.5-.1-.5-.1-.4-.1-.5-.1-.5-.1-.4-.1-.5-.1-.5-.2h-.4v-.1l-.5-.1-.4-.1-.5-.2-.4-.1-.5-.1-.4-.2h-.3l-.2-.1-.2-.1h-.2v-.1h-.3l-.2-.1-.2-.1-.2-.1h-.3v-.1h-.2l-.2-.2h-.3l-.2-.1-.2-.1-.2-.1-.3-.1h-.2v-.1h-.2l-.2-.2h-.3l-.2-.2h-.2l-.2-.1-.3-.1-.2-.1-.2-.1-.2-.1-.3-.1-.2-.1-.2-.1-.2-.1-.2-.1-.3-.1-.2-.2h-.2l-.2-.2-.2-.1-.2-.1-.3-.1-.2-.1-.2-.1-.2-.2h-.2v-.1l-.2-.1-.2-.1-.3-.1-.2-.2h-.2v-.1l-.2-.1-.2-.1-.2-.1-.2-.2-104.8-61.2-.3-.1-.2-.2-.3-.1-.2-.2-.2-.1-.3-.2-.2-.1-.3-.2-.2-.1-.3-.2-.2-.1-.2-.2-.3-.1-.2-.2-.2-.2-.3-.1-.2-.2-.3-.1-.2-.2-.2-.2-.3-.1-.2-.2-.2-.2-.3-.1-.2-.2-.2-.2-.3-.2-.2-.1-.2-.2-.2-.2-.3-.2-.2-.2-.2-.1-.2-.2-.3-.2-.2-.2-.2-.2-.2-.1-.3-.2-.2-.2-.2-.2-.2-.2-.2-.2-.3-.2-.2-.1-.2-.2-.2-.2-.2-.2-.2-.2-.2-.2-.3-.2-.2-.2-.2-.2-.2-.1-.2-.2-.2-.2-.2-.2-.2-.2-.2-.2-.2-.2-.2-.2-.2-.2-.2-.2-.2-.2-.2-.2-.2-.2-.2-.2-.2-.2-.2-.2-.2-.2-.2-.2-.2-.2-.2-.2-.2-.3-.1-.2-.2-.2-.2-.2-.2-.2-.2-.2-.2-.2-.2-.2-.2-.2-.1-.2-.2-.3-.2-.2-.2-.2-.2-.2-.2-.2-.1-.2-.2-.3-.2-.2-.2-.2-.1-.2-.2-.2-.2-.3-.1-.2-.2-.2-.2-.2-.1-.3-.2-.2-.2-.2-.1-.3-.2-.2-.2-.2-.1-.2-.2-.3-.2-.2-.1-.2-.2-.3-.1-.2-.2-.2-.1-.3-.2-.2-.2-.2-.1-.2-.2-.3-.1-.2-.1-.3-.2-.2-.1-.2-.2-.3-.1-.2-.1-.2-.2-.3-.1-.2-.2-.3-.1-.2-.2-.2-.1-.3-.1-.2-.2-.3-.1-.2-.1-.3-.2-.2-.1-.2-.1-.3-.2-.2v-.3h-.1l-.1-.2-.1-.3-.2-.2v-.3h-.1l-.1-.2-.1-.3-.1-.2-.2-.3v-.2h-.1l-.1-.3-.1-.3-.1-.2-.2-.3v-.2l-.2-.3-.1-.3-.1-.2-.1-.3-.1-.2-.1-.3-.1-.2-.1-.3-.2-.2v-.3l-.2-.3v-.2l-.2-.3v-.3l-.2-.2v-.3l-.2-.3v-.2l-.2-.3v-.2l-.1-.3-.1-.3-.1-.2-.1-.3-.1-.3-.1-.3-.1-.2v-.3l-.2-.3v-.2l-.1-.3-.1-.3-.1-.2v-.3h-.1v-.3l-.1-.2-.1-.3-.1-.3v-.3l-.1-.2-.1-.3-.1-.3v-.3l-.1-.2v-.3h-.1v-.3l-.1-.3-.1-.3v-.2l-.1-.3-.1-.3v-.3l-.1-.2v-.3l-.1-.3-.1-.3v-.3l-.1-.2v-.3l-.1-.3v-.3l-.1-.2v-.3l-.1-.3v-.3l-.1-.3v-.5l-.1-.3v-.2l-.1-.3v-.6h-.1v-.5l-.1-.3v-.5l-.1-.3v-1l-.1-.3v-.8l-.1-.3v-1.4l-.1-.3V143.6l.1-.3V142h.1v-1l.1-.3v-.6l.1-.4v-.6h.1v-.6l.1-.4v-.3l.1-.3v-.3l.1-.3v-.4l.1-.3v-.3l.1-.3v-.3l.1-.4v-.3l.1-.3v-.3l.1-.3.1-.4v-.3l.1-.3v-.3l.1-.3.1-.3v-.4l.1-.3.1-.3v-.3l.2-.3v-.3l.1-.4v-.3l.2-.3v-.3l.1-.3v-.3h.1v-.3l.2-.4v-.3l.1-.3.1-.3.1-.3.1-.3v-.3h.1v-.3l.2-.3v-.3l.2-.3v-.3l.2-.3v-.3l.2-.3v-.3l.2-.3v-.3l.2-.3v-.3l.2-.3.1-.3.1-.3.1-.3.1-.3.1-.3.2-.3v-.3l.2-.3.1-.3.1-.3.2-.3v-.3l.2-.3.1-.3.2-.3v-.3l.2-.3.1-.3.2-.2v-.3h.1l.1-.3.2-.3v-.3h.1l.1-.3.2-.3.1-.2.1-.3.2-.3.1-.3.1-.3.2-.3.1-.2.2-.3.1-.3.2-.3.1-.3.2-.2.1-.3.2-.3.1-.3.2-.3.1-.3.2-.2.1-.3.2-.3.2-.3.1-.2.2-.3.1-.3.2-.2.2-.3.1-.3.2-.3.2-.2.1-.3.2-.3.2-.2.1-.3.2-.3.2-.2.2-.3.1-.2.2-.3.2-.3.2-.2.1-.3.2-.2.2-.3.2-.3.2-.2.1-.3.2-.2.2-.3.2-.2.2-.3.2-.2.2-.3.1-.2.2-.3.2-.2.2-.3.2-.2.2-.3.2-.2.2-.3.2-.2.2-.3.2-.2.2-.3.2-.2.2-.2.2-.3.2-.2.2-.3.3-.2.2-.2.2-.3.2-.2.2-.3.2-.2.2-.2.2-.3.3-.2.2-.2.2-.3.2-.2.2-.2.3-.3.2-.2.2-.2.3-.2.2-.3.2-.2.2-.2.3-.2.2-.3.2-.2.3-.2.2-.2.2-.2.3-.3.2-.2.2-.2.3-.2.2-.2.3-.2.2-.3.2-.2.3-.2.2-.2.3-.2.2-.2.3-.2.2-.2.3-.2.2-.2.3-.2.2-.3.3-.2.2-.2.3-.2.2-.2.3-.2.2-.2.3-.2.3-.2.2-.2.3-.2.3-.1.2-.2.3-.2.2-.2.3-.2.3-.2.2-.2.3-.2.3-.1.2-.2.3-.2.2-.2.3-.2.3-.2.3-.1.2-.2.3-.2.3-.1.3-.2.3-.2.2-.2L519 20.8l.2-.1.3-.2.2-.1.3-.2.2-.1.3-.2.2-.1.3-.1.2-.2.3-.1.2-.2.3-.1.2-.1.3-.2.2-.1.3-.1.2-.2.3-.1.2-.1.3-.2h.2v-.1l.3-.1.2-.2h.3l.3-.2.2-.1.3-.1.2-.2h.3l.3-.2.2-.1.3-.1.2-.1.3-.1.3-.1.2-.2h.3l.2-.2h.3l.3-.2h.2v-.1h.3v-.1h.3v-.1h.2v-.1h.3v-.1h.2V15h.6v-.1h.2l.3-.2h.3l.2-.2h.3l.3-.1.2-.1.3-.1h.3V14h.2l.3-.2h.3l.2-.1.3-.1h.3l.2-.2h.3l.3-.1h.2l.3-.2h.3l.2-.1h.6l.3-.1h.2v-.1h.3l.3-.1.2-.1h.3l.3-.1.3-.1h.2l.3-.1h.3l.2-.1h.3l.3-.1h.3l.2-.1h.3l.3-.1h.2l.3-.1h.3l.3-.1h.5l.3-.1h.3l.3-.1h.8l.2-.1h.6l.3-.1h.8l.3-.1h1.1l.3-.1h1.9l.3-.1h2.3zm-.2 27h-2l-.1.1H550l-.1.1h-.9l-.1.1h-.7l-.2.1h-.5l-.2.1h-.5l-.1.1h-.3l-.2.1h-.2l-.2.1h-.4l-.2.1h-.2l-.2.1h-.4l-.1.1h-.2l-.2.1h-.3l-.1.1h-.2l-.1.1h-.4l-.1.1h-.2l-.1.1h-.2l-.2.1h-.1l-.2.1h-.1l-.2.1h-.1l-.2.1h-.2l-.1.1h-.2l-.1.1-.2.1h-.1l-.2.1h-.2l-.1.1h-.2l-.1.1-.2.1h-.1l-.2.1h-.1l-.2.1-.1.1h-.2l-.2.1-.1.1h-.2l-.1.1-.2.1h-.1l-.2.2h-.1l-.2.1h-.1l-.2.1-.1.1-.2.1h-.1l-.2.1-.1.1-.2.1h-.1l-.2.2h-.1l-.2.1-.1.1h-.2l-.1.2h-.2l-.1.1-.2.1h-.1l-.2.2h-.1l-.2.1-.1.1-.2.1-.1.1L437 103l-.2.1-.2.1-.2.2h-.2l-.2.2-.1.1-.2.1-.2.1-.2.2h-.2l-.1.2-.2.1-.2.2h-.2l-.1.2-.2.1-.2.2h-.2l-.1.2-.2.1-.2.2h-.2l-.1.2-.2.1-.2.2-.1.1-.2.1-.2.2h-.2l-.1.2-.2.2h-.1l-.2.2-.2.2h-.2l-.1.2-.2.2-.1.1-.2.2h-.2l-.1.2-.2.2-.1.1-.2.2-.2.1-.1.1-.2.2-.1.1-.2.2-.1.1-.2.2-.2.1-.1.2h-.2l-.1.2-.2.2-.1.1-.2.2-.1.1-.2.2-.1.1-.2.2-.1.1-.2.2-.1.2-.1.1-.2.2-.1.1-.2.2-.1.1-.2.2-.1.2-.1.1-.2.2-.1.1-.2.2-.1.2-.1.1-.2.2-.1.1-.1.2-.2.2-.1.1-.1.2-.2.2-.1.1-.1.2-.2.1v.2l-.2.2-.2.2v.1l-.2.2-.1.2-.2.1v.2l-.2.2-.1.1-.2.2v.2l-.2.2-.1.1-.1.2-.2.2v.1l-.2.2-.1.2-.1.2-.2.2v.1l-.2.2-.1.2-.1.2-.1.1-.1.2-.2.2v.2l-.2.2v.1l-.2.2-.1.2-.1.2-.1.2-.1.2-.1.1-.1.2-.1.2-.1.2-.2.2v.2l-.2.2v.1l-.2.2v.2l-.2.2v.2l-.1.2-.1.2-.1.2-.1.1-.1.2-.1.2-.1.2v.2l-.2.2v.2l-.2.2v.2l-.1.2-.1.1-.1.2v.2l-.2.2v.2l-.1.2-.1.2v.2l-.2.2v.2l-.1.2-.1.2v.2l-.2.2v.2l-.1.2-.1.2v.2l-.1.2-.1.2v.2l-.2.2v.4l-.2.2v.2l-.1.2v.2l-.1.2-.1.2v.2l-.1.2v.2l-.1.2-.1.2v.2l-.1.2v.2l-.1.2-.1.2v.2l-.1.2v.2l-.1.3v.2l-.1.2v.2l-.1.2v.2l-.1.2v.2l-.1.2v.2l-.1.2v.3l-.1.2v.4l-.1.2v.2l-.1.2v.4l-.1.2v.3l-.1.2v.4l-.1.2v.4l-.1.2v.7l-.1.2v.4l-.1.2v.7l-.1.2v.8l-.1.3v1l-.1.2v126.6l.1.2v.7l.1.2v.7l.1.1v.5l.1.2v.5l.1.2v.3l.1.2v.5l.1.2v.3l.1.2v.2l.1.1v.4l.1.1v.4l.1.2v.1l.1.2v.2l.1.1v.4l.1.1v.2l.1.2v.1l.1.2v.1l.1.2v.2l.1.1v.2l.1.2v.1l.1.2v.2l.1.1v.2l.1.2.1.1v.2l.1.1v.2l.1.2.1.1v.2l.1.1v.2l.1.2.1.1v.2l.1.2.1.1v.2l.1.1.1.2v.2l.1.1.1.2v.1l.2.2v.2l.1.1v.2l.1.1.1.2v.1l.1.2.1.1.1.2v.2l.2.1v.2l.1.1.1.2v.1l.2.2v.1l.1.2.1.1v.2l.2.1v.2l.1.1.1.2.1.1v.2l.2.1v.1l.2.2v.1l.1.2.1.1.1.2.1.1.1.2.1.1v.2l.2.1v.2l.2.1v.1l.2.2v.1l.1.2.1.1.1.2.1.1.1.1.1.2.1.1.1.2.1.1.1.1.1.2.1.1.1.2h.1l.1.2.1.2.1.1.2.2.2.2v.2l.2.1.1.1.1.2.1.1.1.1.1.2h.2v.2l.2.2.2.2.1.1.1.2h.2v.2l.2.2h.1l.1.2.2.1v.2h.2l.1.2.1.1.2.1v.2h.2l.1.2.1.1.2.2.2.2.1.1.2.1v.2h.2l.2.2v.1l.2.1.1.1.2.2h.1l.1.2.2.1v.1l.2.1.2.2.2.2h.2v.2l.2.1.2.1.1.1.2.1v.1l.2.2h.2l.1.2h.1l.2.2h.1l.2.2h.1l.1.2h.2l.1.2h.2l.1.2.1.1.2.1.1.1.2.1.1.1.2.1.1.1.1.1h.2l.1.2h.2l.1.2h.2l.1.2h.2l.1.2h.2l.1.2h.2l.1.1.2.1 104.7 61.2.1.1h.1l.2.1v.1h.2v.1h.2l.1.2h.4v.1l.2.1h.1l.1.1h.2v.1h.2l.1.2h.4v.1h.2l.1.1h.1l.2.1.2.2h.2l.2.1.2.1h.1l.1.1h.2v.1h.2l.1.1h.2v.1h.3l.1.1h.2v.1h.2l.1.1h.2v.1h.2l.1.1h.3l.2.2h.3l.2.1h.3l.2.2h.5l.3.2h.5l.2.1h.3l.2.1h.3l.2.1h.3l.2.1h.3l.3.1h.5l.2.1h.6l.2.1h1l.3.1h5.2l.2-.1h.5l.3-.1h.5l.3-.1h.5l.2-.1h.3l.2-.1h.3l.2-.1h.3l.2-.1h.3l.2-.1.3-.1h.2l.3-.1.2-.1h.3l.2-.2h.4l.1-.1h.2v-.1h.4l.2-.1.2-.1h.1l.1-.1h.2l.2-.1h.1l.2-.1.2-.1h.2l.2-.1.2-.1h.1l.1-.1h.2v-.1l.2-.1h.1l.1-.1h.2v-.1h.2l.1-.1h.1l.2-.1.2-.1h.1l.1-.1.2-.1.2-.1h.1l.1-.1.1-.1h.2v-.1h.2l.1-.2h.1l.2-.1 115.9-64.6h.1l.1-.1h.2v-.1l.2-.1h.1l.1-.2h.2v-.1h.2l.1-.2h.1l.2-.1.2-.2h.1l.1-.1.2-.1.2-.2h.1l.1-.1.1-.1h.2v-.2h.2l.1-.1.1-.1h.1l.1-.2h.1l.2-.1v-.1h.2v-.2h.2l.1-.1.1-.1.1-.1.1-.1h.1l.2-.2.2-.1v-.1l.2-.1v-.1l.2-.1.2-.2.2-.2.2-.1v-.1l.2-.1v-.1l.2-.1v-.1l.2-.1v-.1l.2-.1.2-.2.2-.2.2-.2.2-.2.1-.2h.1l.1-.2h.1l.1-.2.2-.2.2-.2.2-.2.1-.2h.1l.1-.2h.1v-.2h.2v-.2l.2-.1v-.1l.1-.1.1-.1v-.1l.2-.1v-.1l.1-.2h.1v-.2h.2v-.2l.1-.1.1-.1v-.1l.2-.1v-.2h.1l.1-.2.2-.2v-.1l.1-.1.1-.1v-.1l.2-.2.1-.2v-.1l.1-.1.1-.1v-.2h.2v-.2l.1-.1v-.1l.1-.1.1-.2.1-.2.1-.1v-.1l.2-.2v-.2l.2-.1v-.1l.1-.2.1-.2.1-.1v-.1l.1-.2.1-.2.1-.1v-.1l.1-.2v-.1l.1-.1v-.1l.2-.2v-.2l.1-.1v-.2h.1v-.2l.1-.1.1-.2v-.1l.1-.1v-.2h.1v-.2l.1-.1v-.2l.1-.1v-.1l.1-.2.1-.2v-.1l.1-.2.1-.2v-.3l.1-.1v-.1l.1-.2v-.1l.1-.1v-.4l.1-.1v-.1l.1-.2v-.2l.1-.2v-.1l.1-.1v-.2l.1-.2v-.2l.1-.2v-.2l.1-.1v-.4l.1-.1v-.4l.1-.1v-.5h.1v-.3l.1-.2v-.5l.1-.2v-.5l.1-.2v-.7l.1-.1v-1l.1-.1v-142l-.1-.3v-.5l-.1-.2v-.5l-.1-.3v-.5l-.1-.2v-.3l-.1-.2v-.2l-.1-.3v-.2l-.1-.3v-.2l-.1-.2-.1-.3v-.2l-.1-.3-.1-.2v-.2l-.1-.3-.1-.2v-.2l-.2-.3v-.2l-.1-.2-.1-.3v-.2l-.2-.2v-.2l-.1-.3-.1-.2-.1-.2-.1-.3-.1-.2-.1-.2-.1-.2-.1-.2-.1-.3-.1-.2-.1-.2-.1-.2-.2-.2v-.3l-.2-.2-.1-.2-.1-.2-.1-.2-.2-.2v-.2l-.2-.3-.1-.2-.2-.2v-.2l-.2-.2-.2-.2-.1-.2-.1-.2-.2-.2-.1-.2-.1-.2-.2-.2-.1-.2-.2-.2-.1-.2-.2-.2-.1-.2-.2-.2-.1-.2-.2-.1-.2-.2-.1-.2-.2-.2-.1-.2-.2-.2-.2-.2-.2-.1-.1-.2-.2-.2-.2-.2-.2-.2-.1-.1-.2-.2-.2-.2-.2-.1-.1-.2-.2-.2-.2-.2-.2-.1-.2-.2-.2-.2-.2-.1-.1-.2-.2-.1-.2-.2-.2-.2-.2-.1-.2-.2-.2-.1-.2-.2-.2-.1-.2-.1-.2-.2-.2-.1-.2-.2-.3-.1-.2-.2-.2-.1-.2-.1-.1-.1h-.1l-.1-.1-.1-.1h-.1l-.1-.1-.2-.1-113.5-66.9h-.1l-.2-.1-.1-.1-.2-.1h-.1l-.2-.2h-.1l-.2-.1-.1-.1h-.2l-.1-.2h-.2l-.1-.1-.2-.1h-.1l-.2-.1-.1-.1h-.2l-.1-.2h-.2l-.1-.1h-.2l-.1-.2h-.2l-.1-.1h-.2l-.1-.1-.2-.1h-.1l-.2-.1-.1-.1h-.2l-.1-.2h-.4l-.2-.1-.1-.1h-.2l-.1-.1h-.2l-.1-.1-.2-.1h-.1l-.2-.1h-.2l-.1-.1-.2-.1h-.1l-.2-.1h-.1l-.2-.1h-.2l-.1-.1h-.2l-.1-.1h-.2l-.1-.1h-.2l-.2-.1h-.1l-.2-.1h-.3l-.2-.1h-.1l-.2-.1h-.3l-.2-.1h-.1l-.2-.1h-.3l-.2-.1h-.3l-.1-.1h-.2l-.2-.1h-.4l-.2-.1h-.3l-.2-.1h-.3l-.2-.1h-.5l-.1-.1h-.7l-.1-.1h-.7l-.1-.1h-1.2l-.2-.1H554z"/>
  <path fill="#fff" fill-rule="nonzero" d="M477.3 109.4h42.3v112.2c0 17.8.5 29.3 1.5 34.6a30.5 30.5 0 0 0 11.2 19.5c6.3 5 13.7 6.5 24.8 6.5 11.2 0 15-1.7 20.6-6.5 5.7-4.9 9.2-9.5 10.3-16.6 1.2-7 3.1-18.8 3.1-35.2V109.4h42.3v108.8c0 24.8-1 42.4-3.2 52.7a60.5 60.5 0 0 1-11.9 26 59.8 59.8 0 0 1-23 16.8 95.2 95.2 0 0 1-37.6 6.3c-18.7 0-32.9-2.3-42.6-6.8a61.2 61.2 0 0 1-22.9-17.8c-5.6-7.3-9.3-15-11-23a265.7 265.7 0 0 1-4-52.5V109.4z"/>
  <path fill="#33BA91" d="M1099.4 259.3V136.8c0-15.8-8.5-30.4-22.3-38.3l-113.6-65a52.6 52.6 0 0 0-53.2.6l-96 57.6a67 67 0 0 0-32.6 57.5v119.5c0 20 10.6 38.4 27.8 48.5l104.8 61.2c13.9 8.1 31 8.3 45.2.5l115.9-64.6a46.7 46.7 0 0 0 24-40.8v-14.4z"/>
  <path fill="#00A88A" d="M937.5 13.2h2.1l.3.1h1.4l.3.1h.8l.2.1h1.1l.3.1h.5l.3.1h.5l.3.1h.6l.2.1h.6l.2.1h.3l.3.1h.3l.2.1h.3l.3.1h.2l.3.1h.3l.2.1h.3l.3.1h.3l.2.1h.3l.3.1.2.1h.3l.3.1h.2l.3.1.3.1h.2l.3.2h.5l.3.2h.5v.1h.3l.3.1.2.1h.3v.1h.3l.3.2h.2l.3.1.3.1h.2l.3.2h.3l.2.1.3.1.3.1.2.1h.3v.1h.2l.3.2h.3l.2.2h.3l.2.2h.3l.2.2h.3l.3.2h.2l.3.2h.2l.3.2h.2l.3.2.3.1.2.1.3.1.2.1.3.2h.2l.3.2.2.1.3.1.3.1.2.2h.2l.3.2.2.1.3.2h.3l.2.2.2.1.3.2.2.1.3.1.2.2.3.1.2.1.3.2.2.1.2.2L1084 87h.2l.3.2.2.1.2.2h.2l.2.2.2.1.2.2h.2l.2.2.2.1.2.2h.2l.2.2.3.1.2.2h.2v.1l.2.1.2.2h.2l.2.2.2.1.2.2.2.1.1.2h.2v.1l.2.1.2.2.2.1.2.2.2.1.2.2.2.1.2.2h.2v.1l.2.1.2.2.1.1.2.2.2.2.2.1.2.2.2.1.2.2.3.2.4.4.3.3.4.3.3.3.4.3.3.4.4.3.3.3.3.4.4.3.3.3.3.4.4.3.3.4.3.3.3.4.3.3.4.4.3.3.3.4.3.4.3.3.3.4.3.4.3.3.2.4.3.4.3.4.3.4.2.3.3.4.3.4.2.4.3.4.2.4.3.4.2.4.3.4.2.4.3.4.2.4.3.4.2.4.2.4.2.4.3.4.2.4.2.5.2.4.2.4.2.4.2.4.2.5.2.4.2.4.2.4v.1l.2.4.2.4.1.5.2.4.2.4.1.5.2.4.2.5.1.4.2.4.1.5.2.4v.5h.1l.1.4.2.5.1.4.1.5.2.4v.5l.2.5.1.4.1.5.1.5.1.4v.5h.1v.5h.1v.4l.1.3v.2l.1.3v.4l.1.3v.2l.1.2v.5l.1.2v.5l.1.2v.8l.1.2v.7l.1.2v.7h.1v1.5l.1.2V278l-.1.2v1.3h-.1v.7l-.1.3v.5l-.1.2v.8l-.1.2v.5h-.1v.6l-.1.2v.3l-.1.2v.5l-.1.2v.3l-.1.2v.3l-.1.2v.3l-.1.2v.3l-.1.2v.3l-.1.2v.3l-.1.2v.2h-.1v.3l-.1.2v.2l-.1.3v.2h-.1v.3l-.1.2v.3l-.1.2-.1.2v.3l-.1.2-.1.3v.2h-.1v.2l-.1.3-.1.2v.2l-.1.3-.1.2-.1.2v.3l-.2.2v.2l-.1.3-.1.2v.2h-.1v.3l-.2.2v.2l-.1.3-.1.2-.1.2-.1.3-.1.2-.1.2v.2h-.1v.3l-.2.2v.2l-.2.3v.2l-.2.2v.3l-.2.2v.2l-.2.2v.3l-.2.2v.2h-.1l-.1.2-.1.3-.1.2-.1.2-.1.2-.1.3-.2.2v.2l-.2.2-.1.2-.1.2-.1.2-.1.3-.2.2v.2h-.1l-.1.2-.1.2-.1.2-.2.3-.1.2-.1.2-.1.2-.2.2v.2h-.1l-.1.2-.1.2-.2.2-.1.3-.1.2-.2.2-.1.2-.1.2-.2.2-.1.2-.1.2-.2.2-.1.2-.1.2-.2.2-.1.2-.1.2-.2.2-.1.2-.2.3-.1.2-.2.2-.1.2-.2.2-.1.2-.2.2-.1.1-.2.2-.1.2-.2.2-.1.2-.2.2-.1.2-.2.2-.1.2-.2.2-.2.2-.1.2-.2.2-.2.2-.1.1-.2.2-.1.2-.2.2-.2.2-.1.2-.2.2-.2.1-.1.2-.2.2-.2.2-.1.2-.2.1-.2.2-.2.2-.1.2-.2.2-.2.2-.2.1-.1.2-.2.2-.2.2-.2.1-.2.2-.1.2-.2.2-.2.1-.2.2-.2.2-.2.1-.1.2-.2.2-.2.1-.2.2-.2.2-.2.1-.2.2-.2.1-.2.2-.2.2-.1.1-.2.2-.2.1-.2.2-.2.1-.2.2-.2.2-.2.1-.2.2-.2.1-.2.2-.2.1-.2.2-.2.1-.2.2-.2.1-.2.2-.2.1-.2.2-.2.1-.2.2h-.2v.1l-.2.1-.2.2-.2.1-.3.2-.2.1-.2.2-.2.1-.2.1-.2.2-.2.1-.2.2h-.2v.1l-.2.1-.3.2h-.2v.1l-.2.1-.2.2h-.2v.1l-.3.1-.2.1-.2.2-.2.1-.3.1-116 64.6-.1.1-.2.2h-.3l-.2.2-.2.1-.2.1-.2.1-.2.2h-.2l-.3.2h-.2v.1l-.2.1-.2.1-.3.1-.2.1-.2.1-.2.1-.2.1-.3.1-.2.1-.2.1-.2.1-.2.1-.3.1-.2.1-.2.1-.2.1-.3.1h-.2v.1h-.2v.1h-.2l-.3.2h-.2l-.2.2h-.2l-.3.1-.2.1-.2.1h-.2v.1h-.3l-.2.2h-.2l-.2.1h-.3v.1h-.2l-.2.2h-.3l-.2.1h-.2l-.2.1-.3.1h-.3l-.4.2-.5.1-.5.2-.4.1-.5.1-.4.1h-.1l-.4.1-.5.1-.4.1-.5.1-.5.1-.4.1-.5.1-.5.1-.4.1h-.5v.1h-.5l-.4.1h-.5v.1h-.5l-.5.1h-.4l-.5.1h-.5l-.5.1h-.4l-.5.1h-1l-.4.1H939l-.5.1h-4.8l-.5-.1h-.9l-.5-.1h-.5l-.4-.1h-.5l-.5-.1h-.5v-.1h-.4l-.5-.1-.5-.1-.5-.1h-.4v-.1h-.5l-.5-.2h-.5l-.4-.2h-.5l-.5-.2h-.4l-.5-.2-.4-.1-.5-.1-.5-.1-.4-.2-.5-.1-.4-.1-.5-.2-.4-.1-.5-.2h-.2l-.3-.1-.2-.1-.2-.1h-.3l-.2-.2h-.2l-.2-.1-.2-.1h-.3l-.2-.2h-.2l-.2-.1-.3-.1-.2-.1-.2-.1-.2-.1h-.3v-.1h-.2l-.2-.2h-.2l-.2-.2h-.3l-.2-.2h-.2l-.2-.2h-.2l-.3-.2h-.2l-.2-.2h-.2l-.2-.2h-.3l-.2-.2h-.2l-.2-.2h-.3v-.1l-.2-.1-.2-.1-.2-.1-.2-.1-.2-.1-.3-.1-.2-.2h-.2l-.2-.2-.2-.1-.2-.1-.2-.2h-.2v-.1l-.3-.1-.2-.1-105-61.3-.2-.1-.2-.2-.3-.1-.2-.2-.3-.1-.2-.1-.3-.2-.2-.2-.3-.1-.2-.2-.3-.1-.2-.2-.2-.2-.3-.1-.2-.2-.3-.1-.2-.2-.2-.2-.3-.2-.2-.1-.2-.2-.2-.1-.3-.2-.2-.2-.2-.1-.3-.2-.2-.2-.2-.2-.2-.1-.3-.2-.2-.2-.2-.2-.2-.2-.3-.1-.2-.2-.2-.2-.2-.2-.3-.1-.2-.2-.2-.2-.2-.2-.2-.2-.3-.2-.2-.2-.2-.2-.2-.1-.2-.2-.2-.2-.2-.2-.3-.2-.2-.2-.2-.2-.2-.2-.2-.2-.2-.2-.2-.2-.2-.2-.2-.2-.2-.2-.2-.1-.2-.2-.2-.2-.2-.2-.2-.2-.2-.2-.2-.2-.2-.2-.2-.2-.2-.2-.2-.2-.2-.3-.2-.2-.2-.2-.2-.2-.2-.2-.2-.2-.2-.2-.1-.2-.2-.2-.2-.2-.2-.3-.2-.2-.2-.2-.1-.2-.2-.2-.2-.2-.2-.2-.2-.3-.1-.2-.2-.2-.2-.2-.2-.2-.1-.2-.2-.3-.2-.2-.2-.2-.1-.2-.2-.3-.2-.2-.1-.2-.2-.3-.2-.2-.1-.2-.2-.2-.2-.3-.1-.2-.2-.2-.1-.2-.2-.3-.1-.2-.2-.2-.2-.3-.1-.2-.2-.2-.1-.3-.2-.2-.1-.2-.2-.3-.1-.2-.2-.3-.1-.2-.2-.2-.1-.3-.2-.2v-.2h-.1l-.1-.3-.2-.2-.1-.3-.2-.2v-.3h-.1l-.1-.2-.2-.2-.1-.3-.1-.2-.2-.3-.1-.2-.1-.3-.2-.2v-.2l-.2-.3-.1-.2-.2-.3v-.2l-.2-.3-.1-.2-.1-.3-.2-.3v-.2l-.2-.3-.1-.2-.1-.3-.2-.2v-.3l-.2-.3v-.2h-.1l-.1-.3-.1-.2-.1-.3-.1-.3-.1-.2-.1-.3-.2-.2v-.3l-.2-.3v-.2l-.2-.3v-.3l-.2-.2v-.3l-.2-.2v-.3l-.2-.3v-.2l-.2-.3v-.3l-.2-.2v-.3l-.1-.2-.1-.3-.1-.3v-.2h-.1v-.3l-.2-.3v-.2l-.1-.3-.1-.3v-.3l-.2-.2v-.3l-.1-.3-.1-.3v-.2l-.2-.3v-.3l-.1-.3v-.2l-.1-.3-.1-.3v-.3l-.1-.2v-.3l-.2-.3v-.5h-.1v-.3l-.1-.3v-.3l-.1-.3v-.3l-.1-.3-.1-.3v-.2l-.1-.3v-.3l-.1-.3v-.3l-.1-.2v-.3l-.1-.3v-.6l-.1-.3v-.2l-.1-.3v-.6l-.1-.3v-1h-.1v-.8l-.1-.3V274l-.1-.2V272l-.1-.3V144.4l.1-.4v-1l.1-.3v-.6l.1-.4v-.9l.1-.4v-.6l.1-.4v-.3l.1-.3v-.6l.1-.3v-.4l.1-.3v-.3l.1-.3v-.3l.1-.4v-.3l.1-.3v-.3l.2-.3v-.7l.1-.3.1-.3v-.3l.1-.4.1-.3v-.3l.2-.3v-.6h.1v-.3l.1-.4.1-.3v-.3l.2-.3v-.3l.1-.3.1-.4.1-.3v-.3h.1v-.3l.2-.3v-.3l.1-.3.1-.3.1-.4.1-.3.1-.3.1-.3.1-.3.1-.3.1-.3.1-.3.1-.3.1-.3.1-.3.1-.3.1-.3.1-.3.1-.3.2-.3v-.3l.2-.3.1-.3.1-.3.1-.3.1-.3.2-.3v-.3l.2-.3.1-.3.1-.3.2-.3v-.3h.1l.1-.3.2-.3v-.3h.1l.1-.3.1-.3.2-.3.1-.3.1-.3.2-.2.1-.3.1-.3.2-.3.1-.3.2-.3.1-.3.1-.3.2-.2.1-.3.2-.3.1-.3.2-.3.1-.3.2-.3.1-.2.2-.3.1-.3.2-.3.2-.2.1-.3.2-.3.1-.3.2-.3.2-.2.1-.3.2-.3.2-.2.1-.3.2-.3.1-.3.2-.2.2-.3.2-.3.1-.2.2-.3.2-.3.2-.3.1-.2.2-.3.2-.2.2-.3.2-.3.1-.2.2-.3.2-.3.2-.2.2-.3.2-.2.2-.3.2-.2.1-.3.2-.3.2-.2.2-.3.2-.2.2-.3.2-.2.2-.3.2-.2.2-.3.2-.2.2-.3.2-.2.3-.3.2-.2.2-.3.2-.2.2-.3.2-.2.2-.3.2-.2.3-.2.2-.3.2-.2.2-.3.2-.2.2-.2.3-.3.2-.2.2-.2.2-.3.3-.2.2-.2.2-.3.2-.2.3-.2.2-.3.2-.2.3-.2.2-.2.2-.3.3-.2.2-.2.2-.2.3-.3.2-.2.3-.2.2-.2.2-.2.3-.3.2-.2.3-.2.2-.2.3-.2.2-.2.2-.2.3-.2.2-.3.3-.2.2-.2.3-.2.2-.2.3-.2.3-.2.2-.2.3-.2.2-.2.3-.2.2-.2.3-.2.3-.2.2-.2.3-.2.2-.2.3-.2.3-.2.2-.2.3-.2.3-.1.2-.2.3-.2.3-.2.2-.2.3-.2.3-.2.3-.1.2-.2.3-.2.3-.2.3-.2.2-.1.3-.2.3-.2.3-.2.3-.1.2-.2.3-.2 96-57.5.3-.1.2-.2.2-.1.3-.1.2-.2.3-.1.2-.2.2-.1.3-.1.2-.2.3-.1.2-.1.2-.2h.3l.2-.2.3-.1.2-.2h.3l.2-.2.3-.1.2-.1.3-.2h.2v-.1l.3-.1.2-.1.3-.1.2-.1.3-.2h.2V19l.3-.1.2-.1.3-.1.3-.1.2-.1.3-.1.2-.1.3-.1.2-.2h.3l.2-.2h.3l.3-.2h.2l.3-.1.2-.1.3-.1.2-.1.3-.1.3-.1.2-.1h.3v-.1h.2l.3-.2h.2l.3-.1.2-.1.3-.1h.3v-.1h.2l.3-.1.3-.1.2-.1h.3l.3-.1.2-.1.3-.1h.2l.3-.1.3-.1h.2l.3-.1.3-.1h.2l.3-.1.3-.1h.2l.3-.1.3-.1h.3l.2-.1h.3l.3-.1h.2v-.1h.3l.3-.1h.2l.3-.1h.5v-.1h.6l.2-.1h.3l.3-.1h.5l.3-.1h.5l.3-.1h.8l.3-.1h.8l.3-.1h.8l.2-.1h1.7l.2-.1h3.3zm-.2 27h-1.5l-.1.1h-1.3l-.2.1h-.8l-.1.1h-.7l-.1.1h-.7l-.1.1h-.3l-.2.1h-.5l-.1.1h-.4l-.1.1h-.3l-.2.1h-.3l-.2.1h-.3l-.2.1h-.1l-.2.1h-.3l-.2.1h-.1l-.2.1h-.3l-.2.1h-.1l-.2.1h-.1l-.2.1h-.1l-.2.1h-.2l-.1.1h-.2l-.1.1h-.2l-.1.1h-.2l-.2.1h-.1l-.2.1h-.1l-.2.1h-.1l-.2.1h-.1l-.2.1-.1.1h-.2l-.1.1h-.2l-.1.1-.2.1h-.1l-.2.1h-.1l-.2.1-.1.1h-.2l-.1.1-.2.1h-.1l-.2.2h-.2l-.1.2h-.2l-.1.1h-.2l-.1.1-.2.1h-.1l-.2.2h-.1l-.2.1h-.1l-.2.2h-.1l-.2.1-.2.2h-.2l-.1.1-.2.1h-.1l-.2.2h-.1l-.1.1-.2.1h-.1l-.2.2-96 57.5-.1.2h-.2l-.2.2-.2.1-.2.1-.2.1-.2.2h-.2l-.1.2-.2.1-.2.1-.2.2h-.2l-.1.2-.2.1-.2.2h-.2l-.2.2-.1.1-.2.2-.2.1-.2.1-.2.2h-.1l-.2.2-.2.2h-.2l-.1.2-.2.1-.2.2-.2.1-.1.1-.2.2-.2.1-.1.1-.2.2-.2.1-.1.2-.2.1-.2.1-.1.2-.2.1-.1.2-.2.1-.2.2-.1.1-.2.1-.2.2-.1.1-.2.2-.1.1-.2.2-.2.1-.1.2-.2.1-.1.2-.2.1-.1.2-.2.1-.1.2-.2.1-.1.2-.2.1-.1.2-.2.1-.1.2-.2.2-.1.1-.2.2v.1l-.2.2-.2.2-.1.1-.2.2-.1.1-.2.2v.2l-.2.1-.2.2-.1.1-.2.2v.2l-.2.1-.2.2-.1.1-.1.2-.2.2-.1.1-.1.2-.2.2-.1.1-.1.2-.2.2-.1.2-.1.1-.2.2v.2l-.2.1-.1.2-.2.2v.1l-.2.2-.1.2-.2.2v.1l-.2.2-.1.2-.2.2v.2l-.2.1-.1.2-.1.2-.2.2v.2l-.2.1-.1.2-.1.2-.1.2-.1.2-.2.1v.2l-.2.2v.2l-.2.2-.1.1-.1.2-.1.2-.1.2-.1.2-.1.2-.1.1-.2.2v.2l-.2.2v.2l-.2.2v.2l-.2.2v.2l-.2.2v.1l-.1.2-.1.2-.1.2-.1.2v.2l-.2.2v.2l-.2.2v.2l-.1.2-.1.2-.1.2-.1.1v.2l-.2.2v.2l-.1.2-.1.2v.2l-.2.2v.2l-.1.2-.1.2v.2l-.2.2v.2l-.1.2v.2l-.2.2v.2l-.1.2v.2l-.2.2v.4l-.2.2v.2l-.1.2v.2l-.1.3-.1.2v.2l-.1.2v.2l-.2.2v.4l-.1.2v.2l-.1.2v.2l-.1.2v.3l-.1.2v.2l-.1.2v.2l-.1.2v.2l-.1.2v.2l-.1.2v.3l-.1.2v.2l-.1.2v.2l-.1.2v.4l-.1.2v.3l-.1.2v.4l-.1.2v.4l-.1.2v.7l-.1.2v.4l-.1.2v.7l-.1.2v.9l-.1.2v1.1l-.1.2V273l.1.1v.7l.1.2v.7l.1.2v.5l.1.2v.3l.1.2v.5l.1.2v.2l.1.2v.4l.1.2v.2l.1.2v.2l.1.1v.4l.1.1v.2l.1.2v.1l.1.2v.3l.1.2v.2l.1.1v.2l.1.2v.1l.1.2v.2l.1.1v.2l.1.2v.1l.1.2v.2l.1.1v.2l.1.2.1.1v.2l.1.2v.1l.1.2.1.1v.2l.1.2v.1l.1.2.1.1v.2l.1.2.1.1v.2l.1.1.1.2v.2l.1.1.1.2v.1l.1.2.1.2v.1l.2.2v.1l.1.2v.1l.2.2v.2l.1.1v.2l.2.1v.2l.1.1.1.2v.1l.2.2v.1l.1.2.1.1v.2l.2.1v.2l.1.1.1.2.1.1v.2l.2.1v.2l.2.1v.2l.1.1.1.2.1.1.1.2h.1l.1.2v.2l.2.1v.2l.2.1v.2l.2.1v.2l.2.1v.2h.1l.1.2.1.2.1.1.1.2h.1l.1.2.2.2v.1l.2.1v.2l.2.1v.2h.2v.2l.2.2h.1l.1.2.1.1.1.2.1.1.1.1.1.2.2.1v.1l.2.2.2.2.1.2h.1l.1.2.2.1v.2l.2.1.1.1.1.2h.1l.2.2v.1l.2.2h.1l.1.2.2.1v.2h.2l.1.2.1.1.2.1v.2h.2l.1.2.2.1v.1l.2.1.1.2h.2l.1.2.1.1.2.1.1.1.1.1.2.2.2.2h.2l.1.2.1.1.2.1v.1l.2.1.2.2.2.2h.1l.2.2h.1l.2.2.1.1.1.1.2.1.1.1.2.1.1.1.1.1.2.1.1.1.2.1.1.1.1.1.2.1.1.1.2.1.1.1.2.1.1.1.2.1.1.1.2.1h.1l.2.2h.1l.2.2h.1l.2.2h.1l.2.1.1.1L920.8 367l.2.1.2.1.1.1h.1l.1.1.2.1.2.1h.1l.1.2h.2l.2.1.1.1h.1l.1.1h.2v.1l.2.1h.1l.1.1h.2v.1h.2l.1.1h.1l.2.1.2.1h.1l.1.1h.2v.1h.2l.1.1h.2v.1h.2l.1.1h.1l.2.1.2.1h.1l.1.1h.3l.1.1h.1l.2.1.3.1h.3l.2.2h.3l.2.1h.3l.2.2h.5l.3.1.2.1h.3l.2.1h.3l.2.1h.3l.2.1h.6l.2.1h.3l.2.1h.5l.3.1h.7l.3.1h1.8l.3.1h3.1l.2-.1h.8l.2-.1h.5l.3-.1h.5l.3-.1h.2l.3-.1h.2l.3-.1h.2l.3-.1h.2l.3-.1.2-.1h.3l.3-.1.2-.1h.3l.2-.1.3-.1h.2l.1-.1h.2v-.1h.3l.1-.1h.2v-.1h.4l.1-.1h.2v-.1h.2l.1-.1h.2l.1-.1h.1l.1-.1h.2v-.1h.2l.1-.1h.1l.2-.1.2-.1h.1l.1-.1h.2v-.1l.2-.1h.1l.1-.1h.2v-.1h.2l.1-.1.1-.1h.2v-.1h.2l.1-.1.1-.1h.1l.2-.1.2-.1.1-.1h.1l.2-.1 115.9-64.6h.1l.1-.1.2-.1h.1l.1-.2h.1l.2-.1.2-.1.1-.1h.1l.2-.2.2-.1h.1l.1-.2h.1l.2-.1.2-.2h.1l.1-.1.1-.1h.1l.2-.2.2-.1.1-.1h.1l.1-.2h.1l.2-.1v-.1l.2-.1.2-.2h.1l.1-.1.1-.1.1-.1.1-.1h.1l.1-.2h.2v-.2h.2v-.1l.2-.1.1-.1.1-.1.1-.1h.1l.1-.2h.1l.1-.2h.1l.1-.1.1-.1.1-.1.1-.1.1-.1.1-.1.1-.1h.1l.1-.2h.1l.1-.2h.1l.1-.2h.1l.1-.2h.1v-.2h.2v-.2h.2v-.2h.1l.1-.2h.1l.1-.2h.1l.1-.2.2-.2v-.1l.2-.1v-.1l.1-.1.1-.1.1-.1.1-.1v-.1l.2-.1v-.1l.1-.1.1-.1.1-.1v-.2h.2v-.2h.1l.1-.2v-.1l.2-.1v-.1l.1-.1.1-.2.2-.2.1-.2v-.1l.2-.1v-.1l.1-.1.1-.2.1-.2.1-.1.1-.1v-.1l.1-.1.1-.2.2-.2v-.1l.1-.1v-.2h.1v-.2l.1-.1.1-.1v-.1l.1-.2h.1v-.2l.1-.1.1-.1v-.2h.1v-.2l.1-.1.1-.2.1-.2v-.1l.1-.2.1-.2.1-.1v-.2h.1v-.2l.1-.1v-.1l.1-.2v-.1l.1-.1v-.2h.1v-.2l.1-.1.1-.2.1-.2v-.1l.1-.2v-.1l.1-.1v-.2l.1-.2v-.1l.1-.2v-.1l.1-.1v-.2h.1v-.2l.1-.1v-.4l.1-.1v-.2l.1-.1v-.1l.1-.2v-.2l.1-.2v-.2l.1-.1v-.3l.1-.2v-.2l.1-.2v-.2l.1-.2v-.2l.1-.1v-.4l.1-.2v-.3l.1-.1v-.4l.1-.1v-.6l.1-.1v-.6l.1-.1v-.8l.1-.1v-.9l.1-.1V133.8h-.1v-1h-.1v-.5l-.1-.2v-.4l-.1-.2v-.4l-.1-.2v-.3l-.1-.2v-.3l-.1-.2-.1-.3v-.2l-.1-.2v-.3l-.2-.2v-.3l-.1-.2v-.2l-.2-.3v-.2l-.1-.3v-.2l-.2-.2v-.3l-.1-.2-.1-.2-.1-.3v-.2l-.2-.2v-.3l-.2-.2v-.2l-.2-.3v-.2l-.2-.2v-.2l-.2-.3v-.2l-.2-.2-.1-.2-.1-.2-.2-.3v-.2l-.2-.2-.1-.2-.1-.2-.2-.3v-.2l-.2-.2-.2-.2v-.2l-.2-.2-.2-.2-.1-.2-.1-.3-.2-.2-.1-.2-.2-.2-.1-.2-.2-.2-.1-.2-.2-.2-.1-.2-.2-.2-.1-.1-.2-.2-.2-.2-.1-.2-.2-.2-.2-.2-.1-.2-.2-.2-.2-.2-.1-.1-.2-.2-.2-.2-.1-.2-.2-.2-.2-.1-.2-.2-.2-.2-.1-.2-.2-.1-.2-.2-.2-.2-.2-.1-.2-.2-.2-.2-.2-.1v-.1l-.2-.1-.2-.2-.2-.1v-.1h-.2v-.2h-.2v-.1l-.2-.1-.2-.1v-.1h-.2v-.2h-.2v-.1l-.2-.1-.2-.1-.1-.1h-.1l-.1-.2h-.1l-.1-.1h-.1l-.2-.1v-.1h-.2v-.1l-.2-.1-.2-.1-.1-.1h-.1l-.1-.2h-.3v-.2h-.2l-113.5-65h-.2l-.1-.2h-.2l-.1-.1-.1-.1h-.2l-.1-.2h-.2l-.1-.1-.2-.1h-.1l-.2-.2h-.1l-.2-.1h-.1l-.2-.1-.1-.1h-.2l-.1-.2h-.2l-.1-.1h-.2l-.1-.1-.2-.1h-.1l-.2-.1-.1-.1h-.2l-.1-.1-.2-.1h-.1l-.2-.1h-.1l-.2-.1-.1-.1h-.2l-.1-.1h-.2l-.1-.1h-.2l-.1-.1h-.2l-.1-.1h-.2l-.1-.1h-.2l-.2-.1h-.1l-.2-.1h-.1l-.2-.1h-.1l-.2-.1h-.1l-.2-.1h-.1l-.2-.1h-.2l-.1-.1h-.2l-.1-.1h-.3l-.2-.1h-.2l-.1-.1h-.3l-.2-.1h-.1l-.2-.1h-.3l-.2-.1h-.3l-.2-.1h-.4l-.2-.1h-.3l-.2-.1h-.4l-.2-.1h-.5l-.1-.1h-.7l-.1-.1h-.7l-.1-.1h-.8l-.2-.1h-1.7l-.2-.1h-1z"/>
  <path fill="#EBB951" d="M1482.5 260V137.5a44 44 0 0 0-22.2-38.3l-113.7-65a52.6 52.6 0 0 0-53.1.6l-96 57.6a67 67 0 0 0-32.6 57.5v119.5c0 20 10.6 38.4 27.8 48.5l104.7 61.2c14 8.1 31.1 8.3 45.2.4l116-64.5a46.7 46.7 0 0 0 24-40.8v-14.4z"/>
  <path fill="#FCD804" d="M1320.7 13.9h3.3l.2.1h1.7l.2.1h.8l.3.1h.8l.3.1h.5l.3.1h.8l.3.1h.5l.3.1h.2l.3.1h.3l.2.1h.6l.2.1h.3l.3.1h.3l.2.1h.3v.1h.3l.2.1h.3l.3.1h.2l.3.1.3.1h.2l.3.1.3.1h.2l.3.1.2.1h.3l.3.1.2.1h.3l.3.2h.2l.3.1h.3v.1h.2l.3.2h.2l.3.1.3.1.2.1.3.1h.2l.3.2h.2l.3.1.3.1.2.1.3.1.2.1.3.1.2.1.3.1.2.1.3.1.2.1.3.1.3.1.2.1.3.1.2.1.3.1.2.1.3.2h.2l.3.2.2.1.3.1.2.1.3.1.2.2h.3v.1l.2.1.3.1.2.2h.3l.2.2.3.1.2.1.3.2.2.1.3.2h.2v.1l.2.1.3.2.2.1.3.1.2.2 113.7 65 .2.1.2.1.2.1.2.2h.2v.1l.2.1.2.1.2.1.2.2.2.1.2.1.2.2h.2v.1l.2.1.2.2.2.1.2.1.2.2.2.1.2.1.2.2.2.1.2.1.2.2.2.1.2.2.2.1.2.1.2.2.1.1.2.2.2.1.2.1.2.2.2.1.2.2.2.1.1.2.2.1.2.2.2.1.2.2.1.1.2.2.4.3.3.3.4.3.3.3.4.4.3.3.4.3.3.3.4.4.3.3.3.3.4.4.3.3.3.4.3.3.4.4.3.3.3.4.3.3.3.4.3.3.3.4.3.3.3.4.3.4.3.3v.1l.3.3.3.4.2.4.3.3.3.4.2.4.3.4.3.4.2.4.3.4.2.4.3.4.2.4.3.4.2.4.2.4.3.4.2.4.2.4.2.4.3.4.2.4v.1l.2.4.2.4.2.4.2.4.2.4v.1l.2.4.2.4.2.4.2.5.2.4.2.4.1.5.2.4.2.4v.1l.1.4.2.4.1.5.2.4.1.4v.1l.2.4.1.4.2.5.1.4.1.5.2.4v.5h.1l.1.4.1.5.1.4v.1l.2.4v.5l.2.4v.5l.2.5v.4l.1.5v.2l.1.3v.2l.1.2v.3l.1.2v.7h.1v.5l.1.2v.5l.1.2v.7l.1.3v.9l.1.3v.9l.1.3v2.1l.1.3v141.1l-.1.2v1.3l-.1.3v.7l-.1.3v.7l-.1.3v.5l-.1.2v.6l-.1.2v.5l-.1.2v.6h-.1v.5l-.1.2v.3l-.1.2v.2l-.1.3v.2l-.1.3v.2l-.1.3v.2l-.1.3v.2l-.1.2v.3l-.1.2v.3h-.1v.2l-.1.3v.2l-.1.3-.1.2v.2l-.2.3v.5l-.2.2v.5h-.1v.2l-.2.3v.4h-.1v.3l-.2.2v.2l-.1.3v.2h-.1v.2l-.2.3v.2l-.1.2-.1.3-.1.2v.2h-.1v.3l-.2.2v.2l-.1.3-.1.2-.1.2-.1.3-.1.2-.1.2v.3h-.1v.2l-.2.2v.2l-.2.3v.2l-.2.2v.3l-.2.2v.2l-.2.2v.3l-.2.2v.2l-.2.2-.1.3-.1.2-.1.2-.1.2-.1.2-.2.3v.2l-.2.2-.1.2-.1.2-.1.2-.2.3v.2l-.2.2-.1.2-.1.2-.2.2v.3l-.2.2-.1.2-.2.2v.2h-.1l-.1.2-.1.2-.2.3v.2h-.1l-.1.2-.2.2v.2h-.1l-.1.2-.2.2-.1.2-.1.2-.2.2-.1.2-.2.2v.2l-.2.2-.2.2v.2h-.1l-.1.2-.2.2-.1.2-.2.2-.1.2-.2.2-.1.2-.2.2-.1.2-.2.2-.1.2-.2.2-.1.2-.2.2-.1.2-.2.2-.1.2-.2.2-.2.2-.1.2-.2.1-.1.2-.2.2-.1.2-.2.2-.2.2-.1.2-.2.2-.2.1-.1.2-.2.2-.2.2-.1.2-.2.2-.2.2-.1.1-.2.2-.2.2-.2.2-.1.1-.2.2-.2.2-.2.2-.2.2-.1.1-.2.2-.2.2-.2.1-.2.2-.1.2-.2.2-.2.1-.2.2-.2.2-.2.1-.2.2-.1.2-.2.1-.2.2-.2.2-.2.1-.2.2-.2.2-.2.1-.2.2-.2.1-.2.2-.1.2-.2.1-.2.2-.2.1-.2.2-.2.1-.2.2-.2.1-.2.2-.2.1-.2.2-.2.1-.2.2-.2.1-.3.2-.2.1-.2.2h-.2v.1l-.2.1-.2.2-.2.1-.2.2-.2.1-.2.2-.3.1-.2.2h-.2v.1l-.2.1-.2.2h-.2v.1l-.2.1-.2.2-.3.1-.2.1-.2.2h-.2l-.2.2-.3.1-.2.1-.2.2h-.2l-116 64.7h-.2v.1l-.2.1-.2.1-.3.1-.2.2h-.2l-.2.2-.2.1-.2.1-.3.1-.2.1-.2.1-.2.1-.2.1-.3.1-.2.1-.2.1-.2.1-.3.2h-.2l-.2.2h-.2l-.3.1-.2.1-.2.1-.2.1-.3.1-.2.1-.2.1h-.2v.1h-.3l-.2.2h-.2l-.2.2h-.2l-.3.1-.2.1h-.2v.1h-.2l-.3.2h-.2l-.2.1h-.2v.1h-.3l-.2.2h-.2l-.3.1h-.2l-.2.2h-.4v.1h-.3l-.4.2-.5.1-.4.2h-.5l-.5.2-.4.1-.5.1-.5.1-.4.2h-.5l-.4.2h-.5l-.5.1-.4.1-.5.1h-.5v.1h-.4l-.5.1-.5.1h-.5l-.4.2h-1l-.4.1h-1v.1h-.9l-.5.1h-1.4v.1h-5.7l-.4-.1h-1l-.5-.1h-.9l-.5-.1h-.4l-.5-.1-.5-.1h-.5l-.4-.1-.5-.1h-.5v-.1h-.4l-.5-.2h-.5l-.4-.1-.5-.1-.5-.1-.4-.1-.5-.1-.5-.2h-.4l-.5-.2-.5-.1-.4-.1-.5-.2-.4-.1-.5-.2-.4-.1h-.1l-.4-.2h-.3l-.2-.1-.2-.1h-.2l-.3-.2h-.2l-.2-.1-.3-.1h-.2v-.1h-.2l-.2-.1-.2-.1-.3-.1-.2-.1-.2-.1h-.3v-.1h-.2l-.2-.2h-.2l-.3-.1-.2-.1-.2-.1-.2-.1-.2-.1-.3-.1-.2-.1-.2-.1-.2-.1-.3-.1-.2-.1-.2-.1-.2-.1-.2-.1-.3-.1-.2-.2h-.2l-.2-.2-.2-.1-.2-.1-.3-.1-.2-.1-.2-.1-.2-.1-.2-.2h-.2l-.3-.2-.2-.1-.2-.1-.2-.2h-.2v-.1l-.2-.1-.2-.1-104.8-61.2-.2-.2-.3-.1-.2-.2-.3-.1-.2-.2-.3-.1-.2-.2-.3-.1-.2-.2-.3-.1-.2-.2-.2-.2-.3-.1-.2-.2-.3-.1-.2-.2-.2-.1-.3-.2-.2-.2-.3-.1-.2-.2-.2-.2-.3-.1-.2-.2-.2-.2-.2-.1-.3-.2-.2-.2-.2-.1-.2-.2-.3-.2-.2-.2-.2-.1-.2-.2-.3-.2-.2-.2-.2-.1-.2-.2-.2-.2-.3-.2-.2-.2-.2-.1-.2-.2-.2-.2-.2-.2-.2-.2-.3-.2-.2-.2-.2-.1-.2-.2-.2-.2-.2-.2-.2-.2-.2-.2-.2-.2-.2-.2-.2-.2-.2-.2-.2-.2-.2-.2-.2-.2-.2-.2-.2-.2-.2-.2-.2-.2-.2-.2-.2-.2-.2-.2-.2-.2-.2-.2-.2-.2-.2-.2-.2-.2-.2-.2-.2-.3-.2-.2-.2-.2-.1-.2-.2-.2-.2-.2-.2-.2-.2-.3-.2-.2-.1-.2-.2-.2-.2-.2-.2-.2-.2-.2-.1-.3-.2-.2-.2-.2-.2-.2-.1-.2-.2-.3-.2-.2-.1-.2-.2-.2-.2-.2-.1-.3-.2-.2-.2-.2-.1-.3-.2-.2-.2-.2-.1-.3-.2-.2-.1-.2-.2-.3-.2-.2-.1-.2-.2-.2-.1-.3-.2-.2-.1-.3-.2-.2-.1-.2-.2-.2-.1-.3-.2-.2-.1-.2-.2-.3-.1-.2-.2-.2-.1-.3-.1-.2-.2-.2-.1-.3-.2-.2-.1-.3-.1-.2-.2-.3-.1-.2-.2-.2v-.3h-.1l-.1-.2-.2-.3v-.2l-.2-.3-.1-.2-.2-.3v-.2l-.2-.3-.1-.2-.2-.3v-.2l-.2-.3-.1-.2-.1-.3-.2-.2v-.3l-.2-.2-.1-.3-.1-.3-.1-.2-.2-.3v-.2l-.2-.3v-.2l-.2-.3-.1-.2-.1-.3-.1-.3-.1-.2-.1-.3-.1-.3-.1-.2-.1-.3-.1-.3-.1-.2-.1-.3-.1-.3-.1-.2-.1-.3-.1-.3-.1-.2v-.3h-.1v-.3l-.2-.2v-.3l-.2-.3v-.2l-.1-.3-.1-.3v-.2h-.1v-.3l-.1-.3-.1-.3-.1-.2v-.3l-.2-.3v-.2l-.1-.3v-.3l-.2-.3v-.2l-.1-.3v-.3l-.2-.3v-.5l-.2-.3v-.5h-.1v-.3l-.1-.3v-.3l-.1-.2v-.3h-.1v-.3l-.1-.3v-.3l-.1-.2v-.3l-.1-.3v-.3l-.1-.2v-.6l-.1-.3v-.3l-.1-.3v-.2l-.1-.3v-.5l-.1-.3v-.6l-.1-.3v-.6l-.1-.2v-1l-.1-.3v-1.1l-.1-.3v-1.8l-.1-.3V145l.1-.3v-1l.1-.3v-1l.1-.3v-.7l.1-.3v-.7l.1-.3v-.3l.1-.3v-.4l.1-.3v-.3l.1-.3v-.3l.1-.4v-.3l.1-.3v-.3l.1-.3v-.4l.1-.3v-.3l.1-.3.1-.4v-.3l.1-.3.1-.3v-.3l.1-.3v-.4l.2-.3v-.3l.1-.3v-.3h.1v-.4l.1-.3.1-.3v-.3h.1v-.3l.2-.3v-.4l.1-.3.1-.3v-.3l.2-.3v-.3l.2-.3v-.3l.1-.3.1-.4.1-.3.1-.3.1-.3.1-.3.1-.3.1-.3.1-.3.1-.3.1-.3.1-.3.1-.3.1-.3.1-.4.2-.3v-.3l.2-.3.1-.3.1-.3.1-.3.1-.3.2-.3v-.3l.2-.3.1-.3.1-.3.2-.3v-.3l.2-.3.1-.3.2-.3v-.3h.1l.1-.3.2-.3v-.3h.1l.1-.2.2-.3.1-.3.1-.3.2-.3.1-.3.2-.3.1-.3.1-.2.2-.3.1-.3.2-.3.1-.3.2-.3.1-.3.2-.2.1-.3.2-.3.1-.3.2-.3.2-.2.1-.3.2-.3.1-.3.2-.3.2-.2.1-.3.2-.3.1-.3.2-.2.2-.3.1-.3.2-.3.2-.2.2-.3.1-.3.2-.2.2-.3.2-.3.1-.3.2-.2.2-.3.2-.3.2-.2.1-.3.2-.2.2-.3.2-.3.2-.2.2-.3.2-.2.2-.3.2-.3.1-.2.2-.3.2-.2.2-.3.2-.2.2-.3.2-.2.2-.3.2-.3.3-.2.2-.3.2-.2.2-.3.2-.2.2-.3.2-.2.2-.3.2-.2.2-.3.2-.2.2-.3.2-.2.3-.2.2-.3.2-.2.2-.2.2-.3.3-.2.2-.3.2-.2.2-.2.2-.3.3-.2.2-.2.2-.3.3-.2.2-.2.2-.2.2-.3.3-.2.2-.2.2-.3.3-.2.2-.2.3-.2.2-.3.2-.2.3-.2.2-.2.3-.2.2-.2.2-.2.3-.3.2-.2.3-.2.2-.2.3-.2.2-.2.3-.2.2-.3.3-.2.2-.2.3-.2.2-.2.3-.2.2-.2.3-.2.3-.2.2-.2.3-.2.2-.2.3-.2.3-.2.2-.2.3-.2.3-.2.2-.2.3-.2.3-.2.2-.1.3-.2.3-.2.3-.2.2-.2.3-.2.3-.1.2-.2.3-.2.3-.2.3-.1.3-.2.2-.2.3-.2.3-.1.3-.2.3-.2 96-57.6h.2l.2-.1.3-.2.2-.1.2-.2h.3v-.1l.2-.1.3-.2.2-.1.2-.1.3-.2h.2v-.1l.3-.1.2-.1.3-.2h.2V21l.3-.1.2-.1.2-.2h.3v-.1l.2-.1.3-.1.2-.2h.3l.2-.2.3-.1.2-.1.3-.1.2-.2h.3l.2-.2h.3l.2-.2.3-.1.2-.1.3-.1.3-.1.2-.1.3-.1.2-.1.3-.1.2-.1.3-.1.3-.1.2-.1.3-.1.2-.1.3-.1h.2v-.1h.3l.3-.2h.2l.3-.2h.3l.2-.1.3-.1h.3l.2-.2h.3l.2-.1.3-.1h.3l.2-.2h.3l.3-.1.2-.1h.3l.2-.1.3-.1h.2l.3-.1.3-.1h.2l.3-.2h.5l.3-.1h.3v-.1h.2l.3-.1h.3l.3-.1h.2l.3-.1h.3l.2-.1h.3l.3-.1h.2l.3-.1h.3l.2-.1h.6l.2-.1h.3l.3-.1h.5l.3-.1h.5l.3-.1h.8l.3-.1h.8l.3-.1h1.1l.2-.1h2l.2-.1h2.1zm-.3 27h-3.3l-.2.1h-1.1l-.2.1h-.6l-.2.1h-.4l-.2.1h-.5l-.1.1h-.4l-.1.1h-.5l-.2.1h-.3l-.1.1h-.2l-.2.1h-.3l-.1.1h-.2l-.2.1h-.3l-.1.1h-.2l-.2.1h-.3l-.1.1h-.2l-.1.1h-.2l-.2.1h-.1l-.2.1h-.1l-.2.1h-.1l-.2.1h-.2l-.1.1h-.2l-.1.1h-.2l-.1.1h-.2l-.1.1-.2.1h-.1l-.2.1h-.1l-.2.1-.1.1h-.2l-.1.1h-.2l-.1.1-.2.1h-.1l-.2.1h-.1l-.2.1-.1.1h-.2l-.1.1-.2.1h-.1l-.2.2h-.1l-.2.1h-.1l-.2.1-.1.1-.2.1h-.1l-.2.1-.1.1-.2.1h-.1l-.2.2h-.1l-.2.1-.1.1h-.2l-.1.2h-.2l-.1.1-.1.1h-.2l-.1.2h-.2l-96 57.6-.1.1-.2.1-.2.2h-.2l-.2.2-.2.1-.2.1-.2.1-.1.2h-.2l-.2.2-.2.1-.2.2-.2.1-.1.1-.2.1-.2.2h-.2l-.2.2-.1.1-.2.2h-.2l-.2.2-.1.1-.2.2-.2.1-.2.1-.2.2-.1.1-.2.1-.2.2-.1.1-.2.1-.2.2-.2.1-.1.1-.2.2-.2.1-.1.1-.2.2-.2.1-.1.2-.2.1-.1.1-.2.2-.2.1-.1.2-.2.1-.2.2-.1.1-.2.1-.1.2-.2.1-.2.2-.1.1-.2.2-.1.1-.2.2-.1.2-.2.1-.1.2-.2.1-.1.2-.2.1-.1.2-.2.1-.1.2-.2.2-.1.1-.2.2-.1.1-.2.2-.1.2-.2.1-.1.2-.2.1-.1.2-.1.2-.2.1-.1.2-.2.1v.2l-.2.2-.2.1-.1.2-.1.2-.2.1-.1.2-.1.2-.2.1v.2l-.2.2-.2.1v.2l-.2.2-.2.1v.2l-.2.2-.1.1-.2.2v.2l-.2.2-.1.1-.2.2v.2l-.2.2-.1.1-.1.2-.2.2v.2l-.2.2-.1.1-.1.2-.2.2v.2l-.2.1-.1.2-.1.2-.1.2-.1.2-.2.2v.1l-.2.2v.2l-.2.2-.1.2-.1.2-.1.2-.1.1-.1.2-.1.2-.1.2-.1.2-.1.2-.1.2-.1.1-.1.2-.1.2-.1.2-.1.2-.1.2-.1.2-.1.2v.2l-.2.2v.2l-.2.1v.2l-.1.2-.1.2-.1.2-.1.2v.2l-.2.2v.2l-.1.2-.1.2-.1.2v.2l-.2.2v.2l-.1.2-.1.2v.2l-.2.2v.2l-.1.2v.2l-.2.2v.2l-.1.2v.2l-.2.2v.2l-.1.2v.2l-.1.2-.1.2v.2l-.1.2v.2l-.2.2v.4l-.1.2-.1.2v.3l-.1.2v.2l-.1.2v.2l-.1.2-.1.2v.2l-.1.2v.2l-.1.2v.2l-.1.3v.2l-.1.2v.2l-.1.2v.2l-.1.2v.4l-.1.3v.2l-.1.2v.4l-.1.2v.5l-.1.2v.2l-.1.2v.6l-.1.3v.4l-.1.2v.6l-.1.2v.9l-.1.2v1l-.1.2v1.2l-.1.2V273l.1.1v.9l.1.2v.6l.1.2v.5l.1.2v.4l.1.1v.5l.1.2v.4l.1.1v.4l.1.1v.2l.1.2v.2l.1.2v.3l.1.2v.1l.1.2v.2l.1.1v.4l.1.1v.2l.1.2v.1l.1.2v.2l.1.1v.2l.1.1v.2l.1.2v.2l.1.1v.2l.1.1v.2l.1.2v.1l.1.2v.2l.1.1.1.2v.1l.1.2v.2l.1.1.1.2v.2l.1.1.1.2v.1l.1.2v.2l.2.1v.2l.1.1v.2l.1.1.1.2v.2l.1.1.1.2v.1l.2.2v.1l.1.2v.1l.2.2v.1l.1.2v.1l.2.2v.1l.1.2.1.1v.2l.2.2v.1l.1.2.1.1v.2l.2.1v.2l.1.1.1.1.1.2.1.1v.2l.2.1v.2l.1.1.1.2.1.1.1.2.1.1.1.2v.1l.2.1v.2l.2.1v.2l.2.1v.1l.2.2v.1l.2.2v.1l.2.2v.1l.2.1v.2l.2.1v.2l.2.1v.1l.2.2v.1l.2.1v.2l.2.1v.2l.2.1v.1l.2.2h.1l.1.2.1.1.1.2.1.1.1.1.2.2v.1l.2.1v.2l.2.1.1.1.1.2h.1l.2.2v.1l.2.2.1.1.1.1.2.2.2.2.1.1.1.2h.2v.2l.2.1.1.1.1.2h.2l.1.2.1.1.1.1.2.2h.1l.1.2.2.1.1.1.1.1.1.2h.2l.1.2.1.1.2.1.1.1.1.1.2.1.1.2h.1l.2.2.2.2.2.1.1.1.1.1.2.1.1.1.2.2h.1l.1.2h.2l.1.2h.2l.1.2h.1l.2.2h.1l.2.2h.1l.2.2.1.1.2.1.1.1h.2l.1.2h.2l.1.2h.1l.2.2h.1l.2.2h.1l.2.1.1.1.2.1.1.1.2.1.1.1.2.1 104.7 61.2h.1l.2.1v.1h.2l.1.1.1.1h.1l.2.1.2.1.1.1h.1l.1.1h.2v.1l.2.1h.1l.1.1h.2v.1h.2l.1.1h.1l.2.1.2.1.1.1h.1l.2.1.2.1h.1l.1.1h.2v.1h.2l.1.1h.1l.2.1.2.1h.2l.2.1.2.1h.1l.1.1h.2v.1h.4l.3.2h.2l.3.1.2.1h.3l.2.1.3.1h.2l.3.1h.2l.3.1.2.1h.3l.2.1h.3l.2.1h.6l.2.1h.3l.2.1h.3l.2.1h.8l.3.1h.8l.2.1h5.3l.2-.1h.6l.2-.1h.5l.3-.1h.2l.3-.1h.3l.2-.1h.3l.2-.1h.3l.2-.1h.3l.2-.2h.5l.3-.1.2-.1h.3l.2-.2h.4l.1-.1h.3v-.1h.2l.1-.1h.3l.1-.1h.1l.2-.1.2-.1h.2l.2-.1.2-.1h.1l.1-.1h.2v-.1h.2l.1-.1h.1l.2-.1.2-.1h.1l.1-.1h.2v-.1h.2l.1-.2h.3v-.1h.2l.1-.1.1-.1h.2v-.1h.2l.1-.1.1-.1h.2v-.1h.2l.1-.2h.4l116-64.5v-.1h.2l.1-.1.1-.1h.2l.1-.2h.2l.2-.2.2-.1h.1l.1-.2h.2v-.1h.2l.1-.1.1-.1h.1l.1-.2h.1l.2-.1v-.1h.2v-.2h.2l.1-.1.1-.1h.1l.1-.2h.1l.2-.1v-.1h.2v-.2h.2l.1-.1.1-.1.1-.1h.1l.1-.2h.1l.2-.2.2-.1v-.1l.2-.1v-.1h.2v-.2h.2v-.2h.2v-.2h.2v-.1l.2-.1v-.1l.2-.1v-.1h.2v-.2h.2v-.2h.2v-.2h.2v-.2h.2v-.2h.2v-.1l.1-.1.1-.1.1-.1.1-.1.1-.1.1-.1.1-.1.1-.1v-.1l.2-.1v-.1l.2-.2.1-.2h.1l.1-.2h.1v-.2h.2v-.2h.1l.1-.2.1-.1v-.1l.2-.1v-.1l.1-.1.1-.1.1-.2.2-.2.1-.2h.1v-.2l.2-.1v-.1l.1-.1.1-.1v-.2h.1l.1-.2h.1v-.2l.1-.1.1-.1v-.1l.2-.2.1-.2v-.1l.1-.1.1-.1v-.1l.1-.2h.1v-.2l.2-.1v-.1l.1-.1v-.2h.1l.1-.2v-.1l.1-.1.1-.2.1-.2.1-.1v-.1l.1-.2.1-.2.1-.1v-.2h.1l.1-.2v-.1l.1-.2.1-.2v-.1l.1-.1v-.2h.1l.1-.2v-.1l.1-.2.1-.2v-.1l.1-.2.1-.2v-.1l.1-.2v-.1l.1-.1v-.2h.1v-.2l.1-.1v-.2l.1-.1v-.3h.1v-.2l.1-.2v-.2l.1-.1v-.2l.1-.1v-.3l.1-.1v-.1l.1-.2v-.2l.1-.2v-.2l.1-.2v-.2l.1-.2v-.2l.1-.2v-.4h.1v-.5l.1-.1v-.3l.1-.1v-.4l.1-.2v-.5l.1-.2v-.5l.1-.2v-.8l.1-.1v-1.5l.1-.1V134.8l-.1-.2v-.8l-.1-.2v-.4l-.1-.2v-.5l-.1-.1v-.5l-.1-.3v-.2l-.1-.3v-.2l-.2-.3v-.5l-.1-.2v-.3l-.2-.2v-.5l-.2-.2v-.5l-.2-.3v-.2l-.1-.2-.1-.3v-.2l-.2-.2v-.3l-.2-.2v-.2l-.2-.3v-.2l-.2-.2v-.2l-.2-.3v-.2l-.2-.2v-.3l-.2-.2v-.2l-.2-.2-.1-.3-.1-.2-.2-.2v-.2l-.2-.2-.1-.3-.1-.2-.2-.2-.1-.2-.1-.2-.2-.2-.1-.2-.1-.3-.2-.2-.1-.2-.1-.2-.2-.2-.1-.2-.2-.2-.1-.2-.2-.2-.1-.2-.2-.2-.1-.2-.2-.2-.1-.2-.2-.2-.2-.2-.1-.2-.2-.2-.1-.2-.2-.1-.2-.2-.1-.2-.2-.2-.2-.2-.2-.2-.1-.1-.2-.2-.2-.2-.2-.2-.2-.1-.1-.2-.2-.2-.2-.2-.2-.1-.2-.2-.2-.1-.2-.2-.2-.2-.2-.1v-.1h-.2v-.2h-.2v-.1l-.2-.1-.2-.2-.2-.1-.2-.2-.2-.1v-.1h-.2v-.1l-.2-.1h-.1l-.1-.2h-.1l-.1-.1h-.1l-.1-.2h-.2l-.1-.2h-.2l-.2-.2h-.2v-.2h-.2v-.1h-.2l-.1-.1-.1-.1h-.1l-.2-.1L1340 46h-.2v-.1l-.2-.1h-.2l-.1-.1-.2-.1-.1-.1h-.2l-.1-.2h-.2l-.1-.1h-.2l-.1-.2h-.2l-.1-.1h-.2l-.1-.1-.2-.1h-.1l-.2-.1-.1-.1h-.2l-.1-.1-.2-.1h-.1l-.2-.1-.1-.1h-.2l-.1-.1h-.2l-.1-.1-.2-.1h-.1l-.2-.1h-.1l-.2-.1-.1-.1h-.2l-.1-.1h-.2l-.2-.1h-.1l-.2-.1h-.1l-.2-.1h-.1l-.2-.1h-.1l-.2-.1h-.1l-.2-.1h-.2l-.1-.1h-.2l-.1-.1h-.3l-.2-.1h-.1l-.2-.1h-.2l-.1-.1h-.3l-.2-.1h-.1l-.2-.1h-.3l-.2-.1h-.3l-.1-.1h-.3l-.2-.1h-.3l-.2-.1h-.5l-.1-.1h-.3l-.2-.1h-.6l-.2-.1h-.6l-.2-.1h-.6l-.2-.1h-1l-.1-.1h-2.9z"/>
  <path fill="#fff" fill-rule="nonzero" d="M1040 204c0 47.2-9 61-26.9 80.6-17.9 19.7-41.6 27.6-71 27.6-27 0-48.8-9.6-67.7-26.3-20.9-18.4-36-47-36-78.9 0-31.4 11.6-58.5 32.4-78.7a107.4 107.4 0 0 1 73.3-29.2c33.8 0 68.8 16 90.4 47.6l-31.7 26.8c-13.4-25-33-33.5-60.8-34.3-30.8-.8-64.8 28.6-62.3 67.8 1.4 22 11.7 59.6 61 66.6 26 3.6 55.4-24 55.4-39h-48.7V197h92.5v7z"/>
  <path fill="#fff" d="M1323.7 99.2a106.6 106.6 0 1 1 0 213 106.6 106.6 0 0 1 0-213zm0 39.5a67 67 0 1 1 0 134 67 67 0 0 1 0-134z"/>
</svg>
