<svg xmlns="http://www.w3.org/2000/svg" xml:space="preserve" id="Layer_1" x="0" y="0" style="enable-background:new 0 0 400 400" version="1.1" viewBox="0 0 400 400"><style type="text/css">.st0{fill-rule:evenodd;clip-rule:evenodd;fill:#fff}</style><g><path d="M10 195.8c-1.2-1.3-1.8-2.8-1.8-4.8.1-1.9.7-3.4 2-4.8 1.4-1.3 2.9-2 4.9-2s3.4.7 4.7 2c1.4 1.4 2.1 2.9 2.1 4.8 0 2-.8 3.5-2.1 4.8-1.4 1.3-3 1.9-4.9 1.9s-3.6-.6-4.9-1.9zm19.5 34.3c-6.8 18.5-32.6 23.5-27.8-.5l5.6-27.1h11.8c-2.7 14.5-4.7 23.3-6.7 33.4-2 10.3 10.8 2.7 13.7-5.7l3.4-.1z" class="st0"/><path d="M94.1 230.7c-6.8 18.4-30.6 21-27 1.9 1.2-6.6 2.6-13.4 3.9-20.9 2.1-9.8-7.2-2.5-10.3 5.4-.1.2-.2.3-.3.7-.5 2.7-4.5 25.3-4.9 27.5H44.4c2.4-13.4 4.2-24 5.9-33.3 1.6-9.1-7-3.7-10.5 3.5-.1.1-.1.2-.2.3l-5.9 29.4H21.9l8.6-42.8h11.8l-1.1 5.8c6.8-8.2 19.2-9.2 19.9 2.5 9-12.2 24.4-13.1 20.3 7l-1.4 7.6c-.7 3.7-.8 3.9-2.1 10.9-1.5 6.8 10 2.6 12.8-5.6h3.4v.1z" class="st0"/><path d="M118.3 210.3c-5.2-9.5-15.3-.3-18.3 13.6-3.3 15.5 2.4 23.5 14.2 7.6l4.1-21.2zm23.2 20.3c-5.9 15.8-26.4 21.3-27.6 6.6-9.1 13.5-28.6 11-27-6.7 1.2-13.8 8-27.6 23.3-28.1h21.7l-.7 3.3c-2.7 13.1-4.5 20.7-6.4 30.6-1.9 9.8 10.6 2.4 13.4-5.6l3.3-.1z" class="st0"/><path d="M166.4 209.6c-5.2-9.7-15.6-.3-18.7 13.8-3.4 15.9 2.6 24 14.4 7.9-.1-.1 4.3-21.7 4.3-21.7zM180 202l-6.6 32.3c-3.6 19.9-9.4 37.8-34.8 30.6l7.9-8.2c4.3 3.3 7.4 3.7 9.8 2.3l.3-1.4 3.9-19c-9.5 11.9-27.8 8.9-26.4-8.5 1.7-19.7 13.1-27.5 21.7-27.9 1.6-.1 3.2-.2 5-.2H180zm11.7 22.5c13.5.4 15.1-15.8 12.9-17.5-1.7-1.3-5.5.3-8.6 5.2-1.8 2.7-3.3 6.6-4.3 11.4.1.3 0 .7 0 .9zm25.7 6c-6.7 12.3-13.7 15.5-23.5 15.2-16.2-.5-16.4-21-8.5-33.6 6.5-10.1 17.6-12.2 22.5-8.1 4.4 3.5 4.5 10 1.9 15.1-3.9 7.1-11 9.8-18.4 9.5.1 4.1 1.6 8.9 5.3 10.7 6.6 3.1 13.5-2.1 17.6-8.7 0-.1 3.1-.1 3.1-.1z" class="st0"/><path d="M240.7 207.9c-4 2.1-9.3 10-12.3 13.8l-.9 4.1c.9-.3 1.7-.7 2.4-1 13.8-5.7 17.5-20.6 10.8-16.9zm7.6 37.4h-12.2l-9.5-14.7-2.7 14.7h-12l11.9-59.9h11.6c-2 10.7-3.8 18.9-5.8 29.6 2.9-4 7.1-9 11.2-11.4 12.2-7.4 15.8 14-4.7 22.7l12.2 19zm12.3-49.5c-1.2-1.3-1.8-2.8-1.8-4.8.1-1.9.7-3.4 2-4.8 1.4-1.3 2.9-2 4.9-2s3.4.7 4.7 2c1.4 1.4 2.1 2.9 2.1 4.8 0 2-.8 3.5-2.1 4.8-1.4 1.3-3 1.9-4.9 1.9-2 0-3.6-.6-4.9-1.9zm19.4 34.3c-6.8 18.5-32.6 23.5-27.8-.5l5.6-27.1h11.8c-2.7 14.5-4.7 23.3-6.7 33.4-2 10.3 10.8 2.7 13.7-5.7l3.4-.1z" class="st0"/><path d="M303.7 230.3c-6.8 18.3-32.1 23.2-27.3-.3l4.5-22.3h-5.1l2.1-5.2h4.1l2.3-11.1 12.2-2.4-2.7 13.5h6.9l-2.5 5.2h-5.4l-5.7 28.4c-2 10 10.2 2.6 13.1-5.8h3.5zm3.2 3.7c1.4-1.3 3-2 4.9-2s3.5.7 5 2c1.3 1.5 2 3.1 2 5s-.7 3.5-2 4.9c-1.5 1.3-3.1 2-5 2s-3.5-.7-4.9-2c-1.3-1.4-2-3-2-4.9 0-2 .7-3.6 2-5m29.9-38.2c-1.2-1.3-1.8-2.8-1.8-4.8.1-1.9.7-3.4 2-4.8 1.4-1.3 2.9-2 4.9-2s3.4.7 4.7 2c1.4 1.4 2.1 2.9 2.1 4.8 0 2-.8 3.5-2.1 4.8-1.4 1.3-3 1.9-4.9 1.9-2 0-3.6-.6-4.9-1.9zm19.4 34.3c-6.8 18.5-32.6 23.5-27.8-.5l5.6-27.1h11.8c-2.7 14.5-4.7 23.3-6.7 33.4-2 10.3 10.8 2.7 13.7-5.7l3.4-.1z" class="st0"/><path d="M378.6 223.3c-2.7-.5-5.3-1.7-8.2-3.9l4.5-6.1c1.1 1 2.4 1.8 3.7 2.3-1.4-6.3-6.8-12-11.6-5.2-4.3 6.2-8.1 24.9-.5 29.2 4.1 2.4 10-1.8 12.2-15.9v-.4h-.1zm20.4-8.7c-3.4 3.1-6.8 5.5-10.2 7-2.5 19.5-18.4 27.1-28.5 23.2-8-2.9-10.9-10.3-10-18.1.9-8.3 5.9-16.9 13.9-21.5s19.9-5 24 4.9c.7 1.6 1.1 3.7 1.1 6 3.4-.9 6.8-2.5 9.5-4.4l.2 2.9z" class="st0"/></g></svg>