<svg xmlns="http://www.w3.org/2000/svg" width="400" height="400" viewBox="0 0 400 400"><path fill="#fc7414" fill-rule="evenodd" d="M102.8 6.8c-.497.321-.462.388.2.388.44 0 1.07-.175 1.4-.388.497-.321.462-.388-.2-.388-.44 0-1.07.175-1.4.388m121.07-.056c-.401.158-.721.413-.711.567.074 1.101-.487 1.485-1.031.707-.316-.45-.869-.818-1.231-.818-.511 0-.55.107-.177.48.833.833.521 1.165-.479.51-.936-.613-4.14-.49-10.641.41-1.31.182-1.327.17-.271-.176.622-.204 3.036-.562 5.367-.797s4.342-.541 4.47-.681c.227-.248-1.037-.151-8.566.654-2.108.226-24.498.389-54.011.393-44.971.006-50.507.074-51.3.63-1.045.732-1.17.351-.227-.692.623-.687.609-.731-.23-.731-.491 0-1.264.417-1.718.926l-.825.927-.926-.927c-.51-.509-1.329-.926-1.82-.926h-.894l.902.84c1.247 1.162.883 1.295-.963.354-.856-.437-1.924-.787-2.373-.778-.605.011-.481.161.485.58 1.912.831 1.582 1.052-.507.34-1.75-.597-3.261-.493-2.836.195.114.184-.037.336-.336.336-.995 0-.139-1.103 1.038-1.339 1.364-.273 1.933-.928.807-.928-.43 0-1.36.541-2.067 1.201l-1.286 1.202.259-1.035c.169-.671.114-.945-.156-.778-.229.142-.416.517-.416.834 0 .86-.676.695-.916-.224-.115-.44-.442-.8-.727-.8-.402 0-.41.107-.037.48.264.264.466.759.448 1.1q-.03.627-.234.115c-.327-.81-1.601-1.361-1.601-.691 0 .308.138.476.306.372s.398-.04.511.143-.505.327-1.372.321c-1.593-.011-1.825-.167-1.278-.861.165-.209-.105.017-.6.503s-.919 1.296-.943 1.801c-.025.535-.198.224-.416-.748-.206-.915-.671-1.905-1.034-2.2-.557-.451-.608-.447-.325.023.185.306.386 1.116.447 1.8s.015 1.004-.102.713c-.158-.394-.475-.291-1.235.4-.561.511-.908.73-.769.487.139-.242-.198-.646-.747-.896-.55-.251-1.163-.862-1.362-1.359q-.363-.9-.389-.257c-.014.355.335 1.103.774 1.662.766.973.768 1.008.043.819-.444-.116-.878-.72-1.051-1.462-.237-1.015-.333-1.107-.486-.465-.474 1.986-2.754 2.521-3.882.911l-.623-.889v1.089c0 .832-.194 1.089-.823 1.089-.77 0-.783.057-.2.889 1.09 1.556.403 4.601-.814 3.608-.2-.164.058.182.573.767 1.003 1.14 1.034 2.53.059 2.546-.327.005-.571.313-.542.684s-.061.66-.2.643a1.1 1.1 0 0 0-.453.05c-1.085.446-3.072.287-3.5-.279-.275-.363-.5-.475-.5-.249 0 .227-.45.618-1 .868-.55.251-1 .65-1 .888s.15.34.333.226c.184-.113.334.053.334.37 0 .414-.14.46-.498.163-.343-.285-.579-.281-.761.013-.316.512-1.01.158-1.002-.511q.005-.477.35.067c.212.333.439.388.592.142.136-.221-.052-.516-.418-.657-.674-.258-1.313.356-1.324 1.272-.003.275-.169.5-.369.5s-.273-.34-.165-.755c.395-1.51-.751-1.354-2.416.328-.911.921-1.476 1.642-1.256 1.603.871-.154 1.169.056.6.424-.513.331-.498.389.1.394.815.007.901-.433.22-1.114q-.481-.48-.043-.48c.424 0 .923.883.923 1.633 0 .202-.225.37-.5.373-.916.011-1.53.65-1.272 1.324.141.366.436.554.657.418.247-.153.193-.393-.142-.628-.432-.303-.435-.352-.013-.24.808.214.677.875-.259 1.308-.461.213-.895.753-.964 1.2s-.317.777-.55.734-.424.172-.424.478.184.521.408.478.456.461.516 1.119c.081.879.01 1.038-.267.6-.334-.529-.379-.528-.39.003-.011.533-.055.533-.4 0-.282-.436-.389-.457-.394-.076-.003.293-.209.398-.468.238-.286-.177-.353-.11-.176.176.157.254.125.462-.072.462-.698 0-.876-.536-.387-1.163.44-.564.416-.574-.203-.088-.593.465-.702.465-.716 0-.009-.302-.285-.054-.613.551-.623 1.148-1.179 1.336-2.145.724-.499-.315-.499-.459 0-1.094.525-.668.515-.684-.126-.181-.977.766-.876 1.212.4 1.775 1.489.657 1.699 1.608.231 1.05-1.213-.461-1.645-.174-1.857 1.235-.201 1.336-1.952 1.586-2.784.398-.588-.839-.588-.839-.802-.023-.123.473-.544.816-1.002.816-.433 0-1.026.315-1.318.7-.45.596-.446.625.031.2.855-.762 2.402-.633 2.395.2-.009 1.036-.583 1.766-1.858 2.361-1.124.526-.157.413 1.364-.159.31-.116.5.163.5.735 0 .718-.107.816-.48.443-.264-.264-.637-.48-.829-.48s-.065.283.28.629c.915.915.785 1.297-.671 1.966-.715.328-.894.496-.399.374.543-.135 1.151.026 1.529.404.345.345.465.627.267.627-.199 0-.346.585-.329 1.3.026 1.066-.112 1.287-.768 1.23-.753-.067-.759-.04-.088.452.675.497.676.537.011.792-.589.226-.609.326-.123.626.487.301.47.398-.111.621-.856.329-.886.818-.068 1.132.341.131.523.08.404-.112-.119-.193.037-.561.347-.818.517-.429.618.135.211 1.177-.043.11-.059.329-.035.486s-.27.168-.653.025c-.608-.228-.626-.176-.146.414.33.406.378.675.12.675-.236 0-.613-.315-.837-.7s-.413-.509-.42-.275.357.82.808 1.304c.705.757.733.914.2 1.119-.341.131-.62.409-.62.618s.18.27.4.134.4-.035.4.225c0 .335.205.312.7-.076.63-.494.647-.481.166.133-.294.376-.416.916-.271 1.2.145.285-.019.169-.365-.258-.82-1.011-.853-.061-.051 1.476.62 1.19.124 1.553-.547.4-.319-.548-.409-.57-.414-.1-.014 1.243.496 2.4 1.058 2.4.447 0 .39.244-.247 1.054-.456.58-.825 1.435-.82 1.9.008.81.042.804.794-.154l.786-1-.659 1.709c-.535 1.388-.575 1.989-.212 3.2.353 1.175.345 1.355-.035.851-.378-.5-.483 28.267-.483 131.64s.105 132.14.483 131.64c.38-.504.388-.324.035.851-.363 1.211-.323 1.812.212 3.2l.659 1.709-.786-1c-.752-.958-.786-.964-.794-.154-.005.465.364 1.32.82 1.9.637.81.694 1.054.247 1.054-.562 0-1.072 1.157-1.058 2.4.005.47.095.448.414-.1.671-1.153 1.167-.79.547.4-.802 1.537-.769 2.487.051 1.476.346-.427.51-.543.365-.258-.145.284-.06.763.19 1.064.34.41.333.621-.027.844-.295.182-.377.129-.213-.137.147-.238.085-.547-.138-.685s-.407-.05-.407.196-.18.336-.4.2-.4-.076-.4.134c0 .209.279.487.62.618.533.205.505.362-.2 1.119-.451.484-.815 1.071-.808 1.304s.196.11.42-.275.601-.7.837-.7c.272 0 .244.223-.077.609-.417.503-.402.57.087.382.326-.125.832.061 1.125.413.446.538.44.621-.036.519-.313-.068-.519.115-.458.407.06.291-.078.414-.307.272s-.314-.423-.189-.625c.126-.203-.078-.251-.455-.106-.609.234-.585.341.224.995.818.663.834.737.161.766-.421.017-.527.119-.244.233.833.336.559 1.008-.3.735-.477-.151-.8-.072-.8.197 0 .247.161.351.358.229s.473.078.614.444c.14.366.024.813-.258.992-.514.326-.486.338.786.338.417 0 .402-.947-.02-1.244-.191-.135-.053-.358.307-.496s.552-.085.427.117-.032.488.206.635c.291.18.228.493-.195.96-.345.381-.491.838-.326 1.015.166.177.033.238-.295.136-.589-.185-1.604.529-1.604 1.128 0 .17.216.093.48-.171s.939-.472 1.5-.462c1.011.018 1.009.023-.18.568-.66.302-.991.564-.735.582.502.035.501.73-.002 1.535-.358.573.656 1.118 1.318.709.239-.148.419.088.419.552 0 .601-.181.746-.7.56-.385-.138-.565-.102-.399.08s-.015.706-.4 1.164c-.698.828-.697.829.18.087.872-.737.884-.734 1.154.343.176.698.095 1.198-.224 1.395-.353.218-.368.386-.054.581.244.15.464.668.49 1.15.035.646.115.561.302-.324.296-1.395 2.253-1.983 2.702-.812.336.875-.956 2.212-2.137 2.212-.528 0-.852.177-.718.393.409.663 2.759-.552 3.326-1.719.287-.591.737-1.071 1-1.068.325.004.305.116-.061.348-.679.43-.458 1.715.339 1.978.507.167.518.099.069-.446-.433-.524-.232-.499 1.08.135.887.428 1.945.779 2.352.779.959 0 1.694.748 1.425 1.449-.131.342.061.551.508.551.665 0 .661.043-.058.575-.827.612-.036.69.924.09.505-.315.678.314.515 1.868-.042.404.252.991.654 1.306.537.421.572.545.131.467-.369-.065-.6.203-.6.694 0 .496.223.751.589.67.441-.097.403.076-.155.693-.61.674-.653.932-.24 1.429.608.733 1.345.806 1.089.108-.101-.275-.386-.455-.633-.4-.248.055-.45-.08-.45-.3 0-.638.866-.463 1.413.285.444.607.585.618 1.244.1.691-.544.703-.534.162.154-.535.679-.503.728.4.6.766-.109 1.009.059 1.11.767.075.529.309.794.561.638.259-.159.318-.081.148.194-.157.254-.11.462.105.462s.481-.225.592-.5c.116-.288.215-.191.233.229.045 1.026-1.263.706-1.763-.431-.472-1.074-2.205-1.259-2.205-.236 0 .616-.051.616-.731 0-.81-.733-1.669-.874-1.669-.275 0 .214.3.273.666.132.454-.174.571-.103.37.223-.177.286-.09.434.216.368a.47.47 0 0 1 .58.39c.037.275.091.683.118.908.029.236.489.297 1.093.145.69-.173 1.161-.074 1.394.293.253.399.352.414.357.054.003-.275.366-.5.806-.5s.8.182.8.403c0 .239.336.198.824-.1.697-.425.907-.393 1.353.209.425.572.571.601.744.15.31-.808 2.128-.692 2.923.187.557.615.792.659 1.317.25.566-.442.576-.419.09.201-.514.655-.347.889.517.725.385-.074-.48 1.163-1.168 1.669q-.4.294 0 .294c.599 0 1.214-.494 1.729-1.388.438-.76.454-.753.334.147-.07.521-.562 1.29-1.095 1.71s-.721.714-.42.653c.665-.133 1.982 1.944 2.023 3.19.021.668.261.892.929.868.495-.017.663-.126.374-.242-1.207-.482-1.526-3.726-.367-3.726.322 0 .315.138-.027.48-1.047 1.047-.295 1.807.992 1.002.522-.326 1.065.248.639.674-.324.323-.517 1.444-.249 1.444.105 0 .584-.19 1.064-.422.844-.408.848-.401.098.2-.428.342-.968.636-1.2.652-.233.017.206.261.976.543 1.067.391 1.391.731 1.362 1.429-.038.9-.025.898.733-.143.425-.582 1.072-1.056 1.438-1.053.576.005.585.058.067.385-.33.208-.62.741-.645 1.184s.098.716.272.608.436-.004.581.23c.312.505 1.396-.247 1.386-.962-.004-.261-.154-.218-.356.1-.24.38-.333.176-.3-.651.034-.833.216-1.139.589-.996.449.172.45.264.007.546-.294.186-.444.354-.334.374l.9.171c.78.15.936-.599.265-1.27-.313-.313-.31-.512.01-.71.245-.151.411-.126.37.055-.041.182.16.87.447 1.53l.52 1.2.339-1c.301-.889.319-.861.163.251-.105.752.066 1.549.428 2 .566.704.576.694.163-.156-.32-.66-.318-1.094.008-1.6.384-.596.419-.601.244-.033-.117.383.166.97.67 1.39.48.4.648.471.373.157s-.5-.843-.5-1.178c0-.42.197-.327.636.299.647.924 1.773.618 1.758-.479-.003-.248-.181-.181-.394.149-.345.533-.389.533-.4 0s-.055-.533-.4 0c-.213.33-.391.397-.394.149-.012-.925 1.053-1.4 1.617-.721.439.528.438.785-.004 1.504-.527.86-.524.861.315.115.466-.415.761-.894.655-1.065-.106-.172.123-.263.509-.204s.834-.091.996-.335c.201-.304.296-.278.3.081.003.293.209.398.468.238.264-.164.354-.111.209.123-.139.224.135.747.607 1.162.473.414.716.509.541.21-.244-.414-.116-.478.537-.271 1.013.321 3.751-.489 3.427-1.014-.124-.199.055-.256.396-.125.889.342.784.521-.679 1.157-.966.419-1.09.569-.485.58.449.009 1.484-.325 2.3-.741 1.62-.826 2.022-.465.596.534l-.889.623h.967c.532 0 1.472-.484 2.089-1.075s1.122-.874 1.122-.628c0 .729 1.195 1.703 2.091 1.703.811 0 .814-.021.1-.809-.603-.668-.639-.896-.203-1.3.392-.364.46-.367.259-.011-.726 1.291 1.336 1.32 94.953 1.32s95.679-.029 94.953-1.32c-.201-.356-.133-.353.259.011.436.404.4.632-.203 1.3-.714.788-.711.809.1.809.896 0 2.091-.974 2.091-1.703 0-.246.505.037 1.122.628s1.557 1.075 2.089 1.075h.967l-.889-.623c-1.426-.999-1.024-1.36.596-.534.816.416 1.851.75 2.3.741.605-.011.481-.161-.485-.58-1.463-.636-1.568-.815-.679-1.157.341-.131.52-.074.396.125-.324.525 2.414 1.335 3.427 1.014.653-.207.781-.143.537.271-.175.299.068.204.541-.21.472-.415.746-.938.607-1.162-.145-.234-.055-.287.209-.123.282.174.473.003.49-.438.023-.591.078-.612.3-.116.226.506.976.731 1.372.411.504-.406 1.48-.277 1.126.15-.231.277-.286.652-.123.832.164.18.072.198-.203.04-.275-.159-.5-.117-.5.093 0 .209.279.488.621.619.405.155.521.077.334-.226q-.284-.462.367-.212c.359.137.776.05.927-.194.16-.259.093-.333-.16-.176-.238.147-.525.121-.636-.058-.111-.18.237-.327.773-.327 1.015 0 1.18.213.674.868-.165.214.006.061.38-.339s.582-1.034.462-1.409c-.171-.534-.133-.561.177-.126.242.34.26 1.023.045 1.773-.221.77-.21 1.079.03.839.209-.209.548-1.097.753-1.973l.373-1.593.101 1.6c.153 2.418.169 2.524.448 2.802.142.142.197-.61.122-1.672s-.041-1.57.075-1.13c.265 1.001.934 1.758.934 1.056 0-.277.183-.39.407-.252s.284.464.135.724-.117.332.071.162c.187-.171.397-.711.465-1.2.099-.706.043-.766-.271-.29-.238.362-.397.411-.401.124a.94.94 0 0 1 .401-.728.484.484 0 0 0 .15-.665c-.14-.228.206-.112.77.258.985.645 1.109 2.103.131 1.545-.252-.144-.325-.115-.161.065.163.18.109.553-.12.829-.289.348-.285.582.013.766.237.146.382.117.323-.064-.059-.182.19-.752.554-1.267.602-.854.677-.872.85-.2.178.689.193.69.237.019.025-.395-.409-1.173-.965-1.729-.986-.987-.99-1.008-.134-.882q.878.13 1.381 1.529c.343.953.513 1.138.534.58.064-1.727 1.928-2.358 3.299-1.118.412.373.731.467.731.214 0-.606-1.327-1.276-2.527-1.276q-.98 0-1.195-.823c-.156-.597-.086-.716.253-.436.963.795 3.442.996 3.709.3.445-1.16-.206-3.301-1.147-3.772-.837-.42-.824-.433.207-.215 1.044.221 1.103.154 1.154-1.311.03-.848.131-1.156.223-.682.179.916 2.128 1.961 3.003 1.611.296-.119.169-.222-.294-.24-.872-.034-2.437-2.23-1.848-2.594.483-.298.847.135.617.736-.292.76 1.363.486 2.157-.357.379-.401.463-.604.188-.45-.287.161-.503.057-.506-.243-.005-.392-.099-.377-.374.057-.202.319-.261.752-.132.962.13.209.036.257-.209.106-.244-.151-.331-.568-.194-.927.187-.487.107-.566-.317-.311-.489.295-.49.246-.005-.351.391-.481.691-.566.98-.277.578.578 1.478.523 1.357-.083-.057-.283.245-.469.694-.429.437.039.912-.119 1.055-.351.144-.232.472-.292.73-.133.332.205.257.444-.254.819-.398.291-.589.663-.424.828s.299.089.299-.167c0-.257.174-.467.387-.467s.333.225.266.5-.046.364.047.198c.092-.167.378-.177.634-.024.344.207.352.129.03-.297-.461-.611.699-2.18 1.224-1.655.141.14.423-.01.628-.334.237-.375.374-.412.378-.102.003.267-.354.679-.794.914s-.8.606-.8.823c0 .218.433.112.963-.236.535-.35 1.064-.467 1.19-.262.126.202.71.276 1.299.163.939-.179 1.044-.098.847.654-.123.473-.061.758.138.635.2-.123.363-.484.363-.801 0-.373.422-.576 1.2-.576 1.067 0 1.2-.133 1.2-1.2 0-.69.212-1.203.5-1.206.358-.005.342-.106-.057-.359-.321-.203-.466-.702-.343-1.175.118-.452.056-.875-.138-.941-.193-.065-.095-.614.219-1.219s.431-1.1.259-1.1-.508-.432-.749-.96c-.52-1.141-.206-2.76.454-2.347.88.55 1.728.51.978-.046-.616-.456-.576-.561.435-1.159.872-.515 1.219-.552 1.601-.173.384.381.429.33.213-.238-.181-.474-.498-.631-.924-.455-1.4.58-2.17.586-.92.007.731-.338 1.225-.781 1.1-.984-.126-.204.131-.276.571-.161.519.135.801.545.801 1.163 0 .911.032.922.722.253.397-.385.609-.79.471-.9s-.384-.56-.546-1c-.236-.642-.195-.701.209-.3.585.581 1.3.676.961.128-.126-.205-.019-.503.238-.662.293-.181.361-.116.183.172-.157.254-.084.462.162.462s.336.18.2.4.033.4.376.4c.365 0 .624-.345.624-.829 0-.76.053-.776.642-.186.494.494.771.536 1.196.183.596-.494.355-1.334-.272-.947-.209.129-.258.43-.111.668.157.253.083.32-.176.16-.244-.151-.331-.57-.192-.931.196-.512.082-.599-.518-.396-.609.207-.58.127.142-.387.877-.623.885-.679.211-1.491-.386-.464-.459-.633-.163-.375s.832.376 1.19.262c.567-.18.573-.147.051.253-.508.388-.477.44.2.334.902-.141 1.334-2.034.652-2.856a.91.91 0 0 1-.057-1.055c.269-.434.41-.326.609.468.204.812.442.986 1.109.811l.85-.222-.882-.393c-.484-.216-.881-.649-.881-.961 0-.464.115-.453.629.061.345.346.83.629 1.076.629s.116-.243-.289-.539c-.576-.421-.623-.61-.215-.862q.517-.317.24.135-.279.454.382.202c.609-.234.61-.286.018-.617-.356-.199-.854-.235-1.106-.079-.283.175-.349.107-.173-.178.16-.259.055-.463-.238-.465-.288-.001.016-.378.676-.836l1.2-.834-1.2.249c-.66.136-1.014.108-.787-.064.228-.172.412-.852.41-1.512-.003-.953.159-1.186.787-1.13.78.07.78.064.014-.5-.579-.425-.625-.57-.18-.57.328 0 .848.225 1.157.5.445.397.441.335-.02-.3-.32-.44-.756-.925-.97-1.078-.222-.159-.093-.393.3-.543.379-.146.689-.429.689-.631s-.495-.05-1.1.336c-.805.514-.98.543-.651.109.246-.326.397-.909.335-1.295-.063-.386.053-.599.258-.472.204.126.252.442.106.702-.156.276-.034.254.293-.055.476-.449.444-.612-.217-1.1-.654-.483-.673-.573-.12-.573.361 0 .84.315 1.064.7s.413.503.42.262-.346-.762-.784-1.159c-.753-.681-.759-.752-.1-1.294.512-.422.537-.526.096-.393-.414.126-.619-.132-.662-.828-.046-.767.034-.875.332-.449.431.616.278-.75-.251-2.239-.28-.789-.275-.789.348-.024.348.428.633 1.133.633 1.567 0 .435.11.68.245.545.494-.494-.704-4.288-1.355-4.288-.504 0-.456-.185.24-.926.479-.509.87-1.339.87-1.844v-.919l-.796.945-.796.944.66-1.37c.54-1.12.581-1.666.226-3-.335-1.26-.327-1.485.036-.99.36.49.442-22.802.352-99.692-.084-71.33.007-100.566.314-101.14.537-1.005-.107-2.405-1.11-2.414-.499-.004-.422-.14.282-.5.533-.272 1.038-.764 1.124-1.094.104-.406.011-.373-.289.1-.571.903-1.171.903-.998 0 .073-.385.148-.846.164-1.024s.211-.212.431-.076.4.084.4-.115c0-.2-.405-.558-.9-.797-.645-.311-.715-.442-.249-.461.358-.015.889-.342 1.181-.727.45-.596.446-.625-.031-.2-.781.696-1.15.624-1.017-.2.062-.385-.089-.954-.335-1.265-.38-.479-.31-.492.451-.086.5.266.9.31.9.098 0-.209-.495-.577-1.1-.818s-.735-.373-.288-.294c.446.079 1.031-.091 1.3-.379.589-.63.644-1.099.088-.756-.22.136-.4.046-.4-.2s-.16-.349-.355-.228-.552-.019-.793-.31c-.33-.397-.296-.529.137-.529.317 0 .484.148.373.329-.112.181.112.208.497.06.456-.175.527-.327.204-.434-.395-.132-.395-.301.001-.827.419-.557.409-.582-.063-.161-.746.665-1.417.642-.859-.03.32-.385.316-.652-.015-.983-.338-.338-.323-.61.059-1.07.667-.804.077-.798-.815.009-.526.476-.764.509-.993.138-.193-.311-.135-.384.16-.202.291.18.462-.015.462-.526 0-.596-.186-.748-.7-.574-.44.149-.35-.024.244-.466.785-.585 1.002-.61 1.293-.149.241.38.353.4.357.066.003-.269.231-.433.506-.366s.364.046.198-.047c-.167-.092-.177-.378-.024-.634.154-.256-.025-.219-.397.083-.461.374-.677.402-.677.087 0-.253.299-.576.664-.716.569-.218.54-.301-.2-.575a1.35 1.35 0 0 1-.889-1.232l-.026-.913-.361.9c-.199.495-.57.9-.824.9-.346 0-.345-.142.006-.564.321-.386.336-.647.049-.824-.403-.249-.577.024-.456.718.031.181-.138.209-.377.062-.238-.148-.382-.656-.32-1.13.116-.889-.257-1.117-1.219-.748-.304.117-.889.002-1.3-.254-.572-.358-.929-.353-1.525.019-.633.395-.911.366-1.5-.159-.619-.553-.796-.565-1.238-.083-.283.31-.733.558-1 .551-.266-.007-.176-.192.199-.411.947-.552.446-1.579-.723-1.482-.528.044-.96.231-.96.416s-.172.23-.383.1c-.21-.13-.281-.501-.157-.824s.026-.587-.217-.587c-.708 0-.511-.721.257-.945.41-.119.289-.172-.29-.129-.714.053-1.025-.15-1.116-.726-.323-2.061-.553-2.6-1.111-2.6-.517 0-.508.143.07 1.024.623.951.624 1.065.01 1.601-.363.318-.481.361-.262.096.682-.823.439-1.169-.501-.713-.79.383-.818.37-.229-.109 1.015-.824.253-1.884-.859-1.196-.463.287-.812.334-.812.108 0-.218.454-.51 1.009-.649l1.009-.253-1.009-.936c-1.54-1.427-1.379-2.973.311-2.973 1.321 0 2.291-.59 2.268-1.38-.007-.231-.196-.105-.42.28-.44.755-2.768.996-2.768.286 0-.286-.24-.286-.774 0-1.132.606-2.061.508-2.712-.286-.315-.385-.485-.516-.377-.292s-.464.831-1.27 1.349c-.807.517-1.242.702-.967.412.628-.665.655-1.312.038-.931-.279.173-.353.11-.187-.159.151-.244.539-.343.862-.219.387.149.585-.027.581-.517-.004-.414-.136-.566-.3-.343-.515.701-2.908 1.109-2.786.475.051-.261-.163-.42-.476-.352-.452.097-.47.004-.086-.458.265-.32.454-.735.421-.923-.159-.886.106-1.3.933-1.46.83-.16.821-.177-.12-.228-.561-.029-1.236.162-1.5.426-.373.373-.48.373-.48 0 0-.264-.373-.48-.829-.48-.753 0-.771-.057-.2-.629.808-.807.799-1.72-.025-2.631-.606-.67-.606-.742 0-.974.359-.139.654-.537.654-.885 0-.527-.091-.51-.539.103-.373.511-.626.596-.824.277-.156-.254-.113-.461.097-.461.661 0 .842-1.122.258-1.606-.454-.377-.53-.308-.4.362.087.455-.038.949-.278 1.097s-.332.099-.202-.11c.129-.21.092-.613-.083-.896-.247-.4-.371-.374-.56.117-.143.372.111.958.62 1.433.474.442.676.803.448.803-1.254 0-2.343-2.917-1.237-3.312.275-.098.377-.311.227-.473-.49-.528-1.127.206-1.127 1.298v1.065l-.623-.889c-.742-1.059-1.445-1.177-1.127-.189.191.593.158.608-.212.1-.389-.533-.482-.533-.832 0-.276.421-.396.447-.4.087-.003-.281.264-.616.594-.742.829-.318.754-.945-.113-.945-.483 0-.741-.343-.801-1.068-.119-1.435-.486-1.737-.486-.399 0 .587-.192 1.067-.427 1.067-.251 0-.323-.371-.174-.9.139-.495.107-.72-.073-.5-.203.249-.724-.007-1.382-.681-.665-.682-.887-1.161-.6-1.297.251-.118.051-.114-.444.009-.511.126-.9.038-.9-.204 0-.235.48-.427 1.067-.427 1.338 0 1.036-.367-.399-.486-.725-.06-1.068-.318-1.068-.801 0-.867-.627-.942-.945-.113-.126.33-.461.597-.742.594-.36-.004-.334-.124.087-.4.533-.35.533-.443 0-.832-.508-.37-.493-.403.1-.212.988.318.87-.385-.189-1.127l-.889-.623h1.065c1.092 0 1.826-.637 1.298-1.127-.162-.15-.375-.048-.473.227-.409 1.146-3.312.001-3.312-1.307 0-.189.361.044.803.518.475.509 1.061.763 1.433.62.491-.189.517-.313.117-.56-.283-.175-.686-.212-.896-.083-.209.13-.259.039-.11-.202.148-.24.642-.365 1.097-.278.67.13.739.054.362-.4-.484-.584-1.606-.403-1.606.258 0 .21-.207.253-.461.097-.319-.198-.234-.451.277-.824.613-.448.63-.539.103-.539-.348 0-.746.295-.885.654-.232.606-.304.606-.974 0-.911-.824-1.824-.833-2.631-.025-.572.571-.629.553-.629-.2 0-.456-.216-.829-.48-.829-.373 0-.373-.107 0-.48.264-.264.455-.939.426-1.5-.051-.941-.068-.95-.228-.12-.191.992-.533 1.125-1.193.465-.313-.313-.512-.31-.71.01-.151.245-.059.395.205.335.264-.061.568.132.676.429.157.43.026.447-.646.088-.854-.457-.968-1.199-.262-1.705.214-.153.263-.404.11-.557s-.557-.048-.898.235-.745.389-.898.235c-.153-.153-.014-.466.31-.694.477-.338.45-.372-.145-.179-.403.131-.818.238-.923.238s-.081.178.053.395c.14.227-.02.294-.374.159-.723-.278-.439-.954.401-.954.317 0 .576-.163.576-.363 0-.425 1.536-.106 2.4.499.512.359.511.322-.011-.255-.337-.371-1.089-.715-1.672-.763-.879-.073-1.142-.377-1.532-1.772-.35-1.251-.766-1.807-1.615-2.158-1.67-.692-2.119-1.362-1.584-2.362.527-.984 2.232-1.172 1.861-.205-.136.356-.069.516.158.376.217-.134.395-.024.395.246s.105.386.232.258c.501-.501-.695-1.901-1.622-1.901-1.073 0-1.524.52-1.726 1.993-.197 1.433-.483 1.535-.49.174-.005-.94-.09-1.05-.438-.567-.353.492-.386.461-.18-.168.502-1.534-2.036-1.978-3.336-.583-.77.826-.785.827-.579.041.116-.445.011-1.183-.234-1.64-.369-.689-.341-.792.164-.598.335.128.609.111.609-.038 0-.329-1.086-1.448-1.386-1.428a.183.183 0 0 1-.2-.2c.02-.3-1.099-1.386-1.428-1.386-.149 0-.166.274-.038.609.194.505.091.533-.598.164-.457-.245-1.195-.35-1.64-.234-.786.206-.785.191.041-.579 1.395-1.3.951-3.838-.583-3.336-.629.206-.66.173-.168-.18.483-.348.373-.433-.567-.438-1.361-.007-1.259-.293.174-.49 1.473-.202 1.993-.653 1.993-1.726 0-.927-1.4-2.123-1.901-1.622-.128.127-.012.232.258.232s.38.178.246.395c-.14.227.02.294.376.158.967-.371.779 1.334-.205 1.861-1 .535-1.67.086-2.362-1.584-.356-.86-.907-1.265-2.227-1.634-.964-.27-1.739-.605-1.722-.744.149-1.188-.206-2.093-.963-2.46-.762-.369-.804-.356-.269.086.707.585 1.276 2.322.761 2.322-.183 0-.399.315-.479.7-.118.569-.191.531-.392-.201-.137-.499-.085-.8.116-.676.2.123.36.079.357-.099-.01-.498-.641-1.385-1.039-1.458-.195-.036-.311-.198-.257-.359s-.352-.406-.9-.543c-1.143-.287-1.342-.951-.298-.991.557-.022.517-.116-.2-.461-.95-.458-1.037-.758-.648-2.212.181-.675.554-.912 1.495-.946.737-.028.952-.125.521-.236-1.641-.424-2.668.218-2.668 1.666 0 .753-.199 1.492-.443 1.642q-.445.277-.178-.561c.438-1.38-.462-2.573-1.793-2.378-.629.093-1.045.009-.925-.185.12-.195.766-.297 1.435-.228 1.553.161 2.234-.776 1.689-2.32-.424-1.198-1.252-1.719-1.252-.787 0 .324.191.554.424.511.914-.168.702 1.613-.221 1.855-1.69.442-3.015-1.653-1.836-2.903.4-.424.4-.567 0-.713-.275-.101-.503-.484-.506-.85-.005-.576-.058-.585-.385-.067-.208.33-1.151.793-2.094 1.029-1.273.318-1.699.614-1.651 1.149.059.668.016.673-.592.065-.54-.54-.569-.796-.164-1.444 1.445-2.314-1.193-4.952-3.507-3.507-.648.405-.904.376-1.444-.164-.608-.608-.603-.651.065-.592.535.048.831-.378 1.149-1.651.236-.943.699-1.886 1.029-2.094.518-.327.509-.38-.067-.385-.366-.003-.749-.231-.85-.506-.146-.4-.289-.4-.713 0-1.25 1.179-3.345-.146-2.903-1.836.242-.923 2.023-1.135 1.855-.221-.043.233.187.424.511.424.932 0 .411-.828-.787-1.252-1.544-.545-2.481.136-2.32 1.689.069.669-.033 1.315-.228 1.435-.194.12-.278-.296-.185-.925.195-1.331-.998-2.231-2.378-1.793q-.839.267-.561-.178c.15-.244.889-.443 1.642-.443 1.448 0 2.09-1.027 1.666-2.668-.111-.431-.208-.216-.236.521-.034.941-.271 1.314-.946 1.495-1.454.389-1.754.302-2.212-.648-.297-.616-.442-.7-.461-.267-.015.349-.286.634-.604.634-.401 0-.519-.314-.389-1.034.208-1.144-.408-2.404-.912-1.867-.177.189-.097.424.178.522s.494.479.487.845c-.011.597-.07.591-.559-.054-.408-.538-.598-.589-.747-.2-.11.286-.155.002-.101-.633.062-.723.438-1.334 1.007-1.639.839-.449.852-.507.171-.768-.624-.239-.646-.339-.147-.654.434-.275.452-.374.065-.379-.293-.003-.398-.209-.238-.468.178-.288.11-.353-.183-.172-.257.159-.347.485-.2.723.16.26.082.32-.193.149-.734-.453-.535.218.238.805.801.608.207.743-.7.158-.53-.34-.522-.524.065-1.564.558-.991.574-1.213.1-1.395-1.153-.442-.692-2.36.511-2.13l1.076.206-.97-.731c-.686-.518-1.052-.598-1.252-.274-.469.759-2.508-.178-2.658-1.221-.132-.919-1.4-1.256-1.869-.497-.135.218-.01.337.276.266s.385-.054.219.039c-.167.092-.177.378-.024.634q.283.47-.334-.031c-.337-.273-.761-.363-.941-.2-.179.164-.213-.018-.075-.403.186-.519.041-.7-.56-.7-.488 0-.703.175-.539.44.197.32.047.32-.55 0-.453-.242-1.274-.44-1.825-.44-.552 0-1.116-.183-1.254-.407s-.464-.284-.724-.135c-.271.155-.33.116-.139-.094.184-.2.499-.364.7-.364.202 0 .367-.135.367-.3v-.7c0-.22-.191-.4-.424-.4s-.351.135-.263.3-.189.633-.616 1.039c-.759.723-.77.719-.516-.2.252-.908.24-.913-.36-.163-.616.77-.828.485-.651-.876.036-.275-.133-.5-.376-.5s-.33.18-.194.4.062.4-.164.4-.298.315-.159.7c.2.558.05.517-.739-.2-1.092-.993-1.908-1.227-1.168-.336.359.433.356.634-.012.862-.328.202-.377.128-.154-.232.24-.388.143-.459-.359-.267-.408.157-.587.103-.442-.132.134-.217.063-.395-.16-.395-.222 0-.587.315-.811.7-.35.601-.521.363-.398-.555.043-.32-.9-.933-1.434-.933q-.4 0 0 .294c.686.504.577 1.123-.199 1.123-.408 0-.667-.123-.574-.273.609-.985-5.614-.75-7.71.291-1.567.778-1.655.784-1.286.094.219-.407.256-.759.083-.781s.136-.184.686-.36c.804-.257.843-.323.2-.332a4.8 4.8 0 0 0-1.53.276m20.445.875c-.373.65-.5 1.181-.284 1.181s.54-.392.717-.871l.322-.87.236.902c.303 1.161 2.027 1.035 2.205-.161.108-.731.081-.74-.316-.1-.489.788-1.403.979-.954.2.158-.275.133-.359-.056-.187s-.534-.045-.768-.481c-.404-.755-.458-.736-1.102.387m-159.501.355c-.507.947-.53 1.345-.062 1.056.353-.218.903-1.83.625-1.83-.082 0-.335.348-.563.774M230.2 7.6c.292.473-.099.473-1.2 0-.771-.331-.769-.345.076-.372.482-.015.988.152 1.124.372m17.8.136c0 .892 1.117 1.318 1.727.658.371-.401.352-.442-.088-.192-.36.206-.753.057-1.1-.417-.491-.673-.539-.677-.539-.049m-171.3.263c.714.801.636 1.739-.121 1.448-.395-.151-.52-.075-.344.209.168.272.058.369-.279.246-.306-.111-.521-.374-.478-.585s-.192-.384-.522-.384c-.474 0-.437.163.173.774.634.634.927.691 1.622.319 1.032-.552 1.089-1.346.149-2.058-.596-.45-.625-.446-.2.031m5.462.301c.419.495.576.9.349.9s-.623-.253-.879-.562a1.306 1.306 0 0 0-1.92-.083c-.172.171-.042.252.288.178.33-.073.557.087.504.355-.184.937 1.334 1.354 2.049.564.609-.673.592-.775-.25-1.487L81.4 7.4zm137.489.4c.477.609.471.64-.051.243-.33-.251-.96-.545-1.4-.654-.76-.186-.757-.199.051-.243.468-.025 1.098.269 1.4.654M251.2 9.951c0 .521 1.033 1.283 1.333.982s-.461-1.333-.982-1.333a.35.35 0 0 0-.351.351M77.889 11.988c.05.669-.034.678-1.133.13-2.107-1.051-3.282.146-2.224 2.267.646 1.294.537 1.541-.307.697-.646-.646-.976-3.211-.477-3.711.693-.695 4.08-.191 4.141.617m-1.265.613c.764.592.764.597-.024.325-.68-.234-.725-.184-.303.336.644.794.159 1.279-.635.635-.513-.417-.569-.384-.349.203.361.964.012.881-.527-.126-.796-1.487.469-2.432 1.838-1.373m176.508.199c.168.508.099.518-.449.066-.357-.294-.864-.402-1.127-.239-.311.193-.375.127-.181-.187.392-.633 1.504-.405 1.757.36m-181.563.9c-.363 1.189-.245 1.462.467 1.081.42-.225.75-.628.732-.895-.023-.366-.081-.363-.233.014-.111.275-.377.5-.592.5s-.279-.18-.143-.4.147-.4.024-.4-.238.045-.255.1m-.069 3.365c.275.111.5.377.5.592s-.184.276-.41.137-.384-.105-.353.076c.141.812-.071 1.356-.44 1.128-.221-.137-.51.032-.642.374-.131.343-.403.522-.603.398-.201-.124-.244-.421-.097-.659.162-.262.082-.319-.2-.145-.257.159-.346.487-.196.73q.273.44-.481.151c-.415-.159-.609-.145-.433.032.831.831 2.711.372 3.323-.811.475-.918.692-1.059.966-.626.495.781.455.072-.048-.868-.228-.426-.633-.76-.9-.742-.366.023-.363.081.014.233m-8.926 2.577c-.177.287-.129.377.119.224.229-.141.639.011.911.338.674.813 1.603.752 1.564-.104-.018-.418-.112-.499-.233-.2-.111.275-.361.5-.556.5s-.299-.225-.232-.5.044-.357-.051-.183c-.096.174-.41.12-.699-.12-.383-.317-.607-.305-.823.045m196.77 1.474c-.377.598-.518.61-1.186.103-.728-.552-.73-.545-.058.189.657.717.741.722 1.376.087.372-.372.591-.762.486-.866-.105-.105-.383.114-.618.487m-197.35.784c-.015.711-.699 1.378-.968.943-.15-.244-.162-.623-.026-.843.288-.467 1.003-.538.994-.1m197.614 2.31c.278.335.39.725.249.866s-.257.047-.257-.209c0-.257-.203-.422-.45-.367s-.532-.125-.633-.4c-.257-.699.481-.625 1.091.11m2.252-.022c-.257.671.814 1.921 1.461 1.705.236-.079.51-.402.609-.718s.036-.442-.138-.278c-.407.379-1.456-.47-1.164-.942.121-.195.048-.355-.162-.355-.209 0-.482.265-.606.588m3.352.05c-.007.241.393.779.888 1.196s.767.596.603.399c-.163-.198-.073-.646.2-.996.434-.557.413-.571-.171-.115-.563.441-.733.41-1.088-.2-.231-.397-.425-.525-.432-.284M56.617 26.772c-.126.205-.044.488.183.628s.295.468.15.728c-.144.259.054.174.441-.19s.582-.859.433-1.1c-.332-.536-.897-.567-1.207-.066m207.314.867c.289.461.422.941.297 1.067-.126.125-.228.007-.228-.263s-.208-.362-.462-.205c-.287.178-.353.11-.174-.179.443-.718-.961-1.053-1.917-.458-.77.479-.797.467-.298-.137a1.704 1.704 0 0 1 2.782.175m-1.314.334c-.127.205.141.632.594.95.712.498.737.611.186.823-.351.135-.541.087-.422-.105.119-.193-.052-.573-.379-.845-.693-.575-.783-1.196-.172-1.196.233 0 .32.168.193.373m2.583 1.416c0 .692 1.58 1.074 2.37.573.49-.312.428-.345-.28-.151-.6.164-.873.087-.8-.228.06-.262-.205-.53-.59-.594-.385-.065-.7.115-.7.4m2.869 2.473c.402.364.72 1.039.706 1.5-.024.794-.045.789-.397-.088-.223-.557-.557-.811-.836-.638-.291.18-.358.113-.178-.178.173-.279-.081-.613-.638-.836-.792-.317-.815-.375-.157-.397.422-.014 1.097.273 1.5.637m-1.441.493c-.272.44.747 1.337 1.109.975.145-.145.263-.064.263.18 0 .814-.592.75-1.459-.158-.817-.855-.835-1.352-.051-1.352.197 0 .259.16.138.355m3.242.206c-.319.832.147 2.239.741 2.239.285 0 .465-.315.4-.7-.064-.385-.332-.65-.594-.59-.31.071-.387-.175-.22-.7.288-.909.008-1.122-.327-.249m-213.399.856c.82-.225.844-.202.2.2-.95.593-2.671.151-2.671-.687 0-.59.075-.586.771.044.507.459 1.09.611 1.7.443m218.525-.21c-.138.223-.464.282-.724.131-.259-.152-.129.115.29.593s.959.864 1.2.857.113-.201-.284-.432c-.571-.332-.623-.54-.251-.988.259-.313.37-.568.246-.568s-.339.183-.477.407M49.1 34.856c.706.712.623.973-.31.973-.563 0-.739-.188-.576-.615.183-.481.128-.509-.253-.131-.383.379-.377.616.025 1.1.66.796 1.463.788 1.771-.016.378-.985.297-1.261-.457-1.548-.561-.214-.601-.167-.2.237m3.472.699c.121.195-.034.565-.344.822-.51.423-.601.043-.259-1.077.067-.219.396-.08.603.255m219.928.602c.884.671.901 1.979.036 2.694-.604.499-.616.472-.137-.298.595-.956.26-2.36-.458-1.917-.276.171-.357.114-.2-.14.145-.235.038-.519-.239-.63-.276-.112-.322-.211-.102-.222.22-.01.715.221 1.1.513m-.473 1.226c.205-.127.373-.04.373.193 0 .611-.621.521-1.196-.172-.272-.327-.652-.498-.845-.379s-.24-.071-.105-.422c.212-.551.325-.526.823.186.318.453.745.721.95.594m2.24-1.116c-.415.414-.32.823.345 1.487.638.639 1.788.469 1.788-.263 0-.234-.118-.306-.263-.161-.362.362-1.381-.535-1.109-.975.254-.412-.366-.484-.761-.088m-225.3 1.576c.348.133.633.433.633.666s-.118.306-.263.161-.54-.04-.877.233c-.489.397-.553.396-.313-.003.165-.275.11-.5-.123-.5-.572 0-.538.926.056 1.52.365.365.367.48.008.48-.558 0-1.079-1.767-.702-2.377.298-.483.68-.526 1.581-.18m-3.467.422c.275.111.5.377.5.592s-.15.298-.333.184-.334.065-.334.396c0 .525.073.528.581.02.618-.618.355-1.478-.438-1.425-.343.022-.337.087.024.233m230.42 2.215c.596.596.627 1.236.05 1.043-.237-.078-.401-.298-.366-.488s-.176-.498-.47-.684-.345-.342-.114-.345.636.21.9.474m2.463.14c-.427.515-.388.735.229 1.3.707.646.716.643.181-.063-.495-.654-.471-.811.199-1.3.418-.306.569-.557.333-.557s-.659.279-.942.62M44.847 42.371c-.401.248-.378.37.107.556.341.131.719.078.84-.117.315-.51-.34-.814-.947-.439m.1 3.777c-.345.394-.292.619.22.938.56.35.673.261.673-.533 0-1.066-.225-1.168-.893-.405m240.937.502c-.448.448.122.951 1.04.918.596-.021.684-.104.276-.26-.33-.125-.702-.384-.827-.574s-.345-.228-.489-.084m-1.655 2.252c.055.386-.066.599-.271.472-.204-.126-.251-.423-.105-.66.174-.281-.096-.361-.781-.23-.58.111-.947.037-.822-.165.376-.608 1.871-.168 1.979.583m2.171.022c0 1.356 1.1 2.13 1.876 1.32.398-.416.505-.634.237-.485-.276.154-.708-.081-.996-.543-.579-.928-1.117-1.068-1.117-.292m4.018 3.654c-.641.772-.376 2.327.415 2.441.349.05.634-.142.634-.426s-.24-.425-.534-.312c-.313.12-.533-.071-.533-.462 0-.366.168-.563.372-.436.205.126.503.019.662-.238.181-.293.116-.361-.172-.183-.254.157-.462.11-.462-.105s.225-.481.5-.592c.314-.127.332-.214.049-.233-.248-.018-.667.228-.931.546M100.8 55.6c-1.193.933-.967.996.851.236.742-.31 1.871-.464 2.509-.342s1.059.061.938-.136c-.238-.384 99.776-.339 101.978.046l1.276.223.124 37.687c.068 20.727.079 37.761.024 37.853-.32.533-.496-.831-.82-6.38l-.362-6.187-.119 6.6c-.082 4.539-.211 6.038-.413 4.8l-.294-1.8.054 1.8c.043 1.444.186 1.778.724 1.689.368-.06.784.075.923.3.14.226-.026.411-.369.411s-.624.174-.624.387.24.296.533.183c.299-.114.534.06.534.395 0 .33-.114.53-.253.444s-.514.029-.833.255c-.477.338-.458.372.106.191.378-.121.789-.056.913.145s.535.269.913.152c.626-.193.624-.172-.016.239-.387.249-.91.325-1.162.169-.292-.181-.349-.106-.156.205a.73.73 0 0 0 .849.28c.3-.116.642-.056.758.133.117.188-.316.306-.962.261s-1.084.063-.975.24c.109.176.593.329 1.075.339.758.016.715.094-.324.584l-1.2.565 1.2-.216c.91-.163 1.055-.115.6.202-.33.23-.604.649-.609.932-.005.289-.357.457-.8.384-.561-.092-.39.169.587.9 1.548 1.159 1.695 1.198 2.275.618.285-.285.414-.22.414.209 0 .616-.647.878-2.752 1.117-1.734.197-1.626.515.171.5 1.034-.008 1.713.187 1.826.526.146.436.012.448-.709.063-.693-.371-.989-.367-1.346.02-.348.377-.333.425.061.202.284-.161.797-.061 1.138.223.771.639-.531 1.313-1.32.684-.291-.232-.564-.209-.73.059-.146.237-.117.382.064.323.182-.059.775.207 1.319.59.549.387.742.697.433.697-.305 0-.46.095-.344.211.429.429 2.323-.615 2.362-1.301.021-.391.288.082.592 1.051s.445 2.191.313 2.716c-.261 1.041.761 2.523 1.739 2.523.331 0 .118-.381-.521-.93-.902-.776-1.007-1.058-.634-1.7.25-.432.452-.54.459-.246.007.288.162.431.345.317.184-.113.334.053.334.37 0 .435-.131.468-.534.134-.327-.272-.533-.288-.533-.043 0 .621 1.116 1.397 1.589 1.105.233-.144.339-.4.235-.568s.074-.306.395-.306c.473 0 .451.152-.117.796-.68.772-.672.789.256.556.673-.169.832-.115.534.183-.232.232-1.248.515-2.257.629l-1.835.207-.005-1.552c-.01-2.837-.316-3.357-1.942-3.306-.855.028-1.124.127-.653.242 2.119.516 2.912 2.768 1.358 3.856l-.841.589.941.134c.635.089.986.44 1.075 1.075l.134.941.589-.841c.754-1.077 2.677-1.109 3.724-.062.772.772.781.772 1.026 0 .151-.476.589-.768 1.121-.748.48.017.646.123.368.234-.81.327-1.361 1.601-.691 1.601.308 0 .467-.152.353-.336-.41-.664 1.088-.814 1.789-.18.83.752 2.66.906 2.216.187-.186-.3-.109-.352.22-.149.366.226.191.562-.639 1.223-.797.637-1.229.772-1.428.45-.157-.254-.647-.482-1.09-.507-.442-.025-.706.113-.587.307.12.193.373.255.562.138s.605.158.923.611c.534.764.598.772.849.118.233-.608.329-.624.687-.118.344.486.377.467.191-.111-.283-.88.376-.93.712-.055.2.522.361.551.843.151.474-.394.595-.389.595.022 0 .283.108.407.24.275.522-.521-.298-1.143-.876-.663-.446.37-.564.332-.564-.181 0-.764.527-.823 1.707-.192.641.344.893.344 1.007 0 .227-.679 1.115-.554 1.718.243.45.596.446.625-.031.2-.686-.611-1.201-.644-1.201-.076 0 .233.181.311.403.174.221-.137.519.054.661.424.222.578.331.54.783-.275.479-.865.526-.877.545-.147.017.664.086.698.408.2.367-.568.586-.26.418.589-.043.214.305.043.772-.38.92-.832 2.177-1.203 1.753-.516-.254.41 2.771.265 7.457-.357.99-.131 1.698-.129 1.574.005-.124.135-1.189.383-2.366.552-1.176.169 13.575.247 32.782.173s35.526-.021 36.265.118l1.345.252-.001 79.882c-.001 95.431-.038 97.094-2.093 95.824-.25-.154-.314-.078-.154.181.329.531 2.248-.198 2.248-.854 0-.221.119-.283.264-.138s-.062.625-.462 1.067c-.399.441-.58.802-.402.802s-.019.391-.438.868c-.752.856-.751.864.038.598.626-.211.562-.057-.297.71-.607.543-.92 1.09-.7 1.226.218.135.397.055.397-.178s.202-.424.449-.424c.33 0 .331.142.003.537-.245.295-.312.679-.149.854.164.175-.104.109-.594-.146-.749-.39-.854-.366-.657.146.128.335.394.609.591.609s.357.18.357.4c0 .739-.66.409-1.2-.599-.694-1.298-.974-1.021-.351.347.264.579.731 1.052 1.039 1.052s.45.176.317.392c-.418.677-1.762-.488-2.053-1.781-.149-.666-.35-.988-.444-.714-.364 1.05.73 3.249 1.814 3.646l1.078.394-1.31.031c-1.57.038-2.063-.905-2.14-4.094l-.05-2.074-.296 2.014c-.422 2.871-.751 3.72-1.524 3.928-.374.101-1.22.319-1.88.485-1.148.289-1.116.315.739.61 2.216.352 2.229.36 2.451 1.509.21 1.092.066 1.074-1.154-.146-.612-.612-1.433-.99-2.118-.975l-1.118.026.992.395c1.227.49 2.41 1.532 2.402 2.116-.003.241-.17.18-.37-.136-.29-.459-.482-.476-.955-.084-.469.39-.627.385-.765-.025-.139-.414-.308-.407-.848.039-.88.727-3.476.922-4.221.318-.469-.381-.541-.356-.361.126.199.532-10.378.588-93.947.498-66.951-.073-94.404.022-94.979.33-.741.396-.77.361-.348-.428.426-.797.398-.827-.385-.408-.899.481-2.571.184-2.214-.393.116-.189.001-.474-.256-.633-.293-.181-.361-.116-.183.172.167.271.037.462-.315.462-.33 0-.711-.18-.847-.4a.94.94 0 0 0-.724-.397c-.262.001.064.36.724.797s1.02.795.8.795-.933-.352-1.585-.781l-1.185-.781 1.385-.629 1.385-.629-1.377.261c-.758.144-1.634.518-1.948.832s-.684.456-.823.317c-1.18-1.186 3.472-2.21 6.324-1.392 1.049.301 1.26.283.9-.077-.259-.259-2.08-.546-4.073-.642-3.976-.19-5.02.195-4.561 1.682.225.729.12.694-.772-.256-.567-.605-1.21-1.1-1.427-1.1s-.506-.178-.64-.395c-.14-.227.02-.294.377-.157 1.656.635 2.466-.126 2.487-2.336l.02-2.112-.585 1.4c-.626 1.5-1.147 1.991-2.102 1.982-.47-.005-.448-.095.1-.414.957-.557.886-1.31-.1-1.052-.439.115-.903.041-1.029-.163-.127-.205-.082-.347.099-.316.836.146 1.237-.114 1.681-1.089.263-.578.382-1.148.264-1.266s-.218.04-.221.351c-.005.471-.065.475-.35.024-.24-.378-.427-.408-.618-.1-.15.244-.083.443.15.443.646 0 .505.683-.197.953-.37.142-.518.071-.365-.175.14-.227.014-.71-.28-1.072s-.329-.537-.079-.387c.262.157.542-.064.662-.523.114-.437.046-.895-.152-1.018-.823-.508-1.221-1.773-.474-1.506.395.141.222-.142-.391-.639-.605-.49-1.1-1.071-1.1-1.291s.283-.116.629.229c.345.346.808.629 1.028.629s.146-.254-.164-.564c-.996-.997-1.091-12.327-1.091-131.036 0-117.253.102-130.047 1.043-130.988.284-.284.409-.625.277-.757-.133-.132-.574.144-.981.613-.408.47-.741.675-.741.455 0-.604 1.498-1.833 1.918-1.574.205.127.32-.39.258-1.164-.06-.765.041-1.298.225-1.185.184.114.54-.415.791-1.177.475-1.437.039-3.023-.83-3.023-.225 0-.29-.194-.143-.43.36-.583 1.658.841 1.892 2.076.153.813.187.776.229-.246.075-1.831-.322-2.866-1.275-3.327-.85-.412-.848-.419.135-.44 1.432-.03 2.131.526 1.834 1.459-.138.436-.079 1.223.132 1.75.363.907.385.912.409.102.036-1.24 1.217-2.446 2.825-2.888 1.39-.381 1.385-.384-.651-.42-2.333-.041-3.277-.738-2.593-1.915.381-.654.421-.658.432-.039.013.714 2.278 1.396 3.291.99.286-.115.116-.223-.379-.24-.495-.018-.9-.2-.9-.405s-.363-.488-.806-.629-.691-.442-.55-.67c.169-.273.356-.251.552.066.221.356.697.269 1.85-.339 1.959-1.033 2.224-1.049.954-.055m.586.823c-.15.242-.803.321-1.524.183q-1.262-.241-.662.123c.33.2 1.14.47 1.8.601s.965.137.679.014c-.393-.17-.344-.359.2-.772.396-.3.507-.552.245-.559s-.595.178-.738.41m193.595 2.744c.186 1.293 3.079.793 2.987-.516-.019-.283-.106-.265-.233.049-.111.275-.377.5-.592.5s-.262-.208-.105-.462c.178-.288.11-.353-.183-.172-.257.159-.364.457-.238.662.127.204-.07.372-.436.372-.391 0-.582-.22-.462-.533.113-.294-.028-.534-.312-.534s-.476.285-.426.634M99.082 60.238c-.616.334-1.296 1.072-1.512 1.64-.553 1.455-.183 1.601.413.163.313-.755 1.021-1.405 1.954-1.792.805-.334 1.193-.61.863-.612s-1.103.268-1.718.601m.421 1.062c-.518.495-.663.7-.323.456.341-.244.98-.644 1.42-.888s.585-.449.322-.456-.901.393-1.419.888m200.061.543c-.571.689.349 1.757 1.512 1.757.776 0 .636-.538-.292-1.117-.448-.28-.707-.683-.576-.896.385-.623-.062-.445-.644.256m-205.408.787c.352.916-.397 2.566-.758 1.672-.155-.383-.471-.581-.702-.438-.239.148-.301.069-.145-.185.151-.244.539-.343.862-.219s.587.026.587-.217c0-.244-.161-.443-.357-.443-.197 0-.457-.261-.58-.58-.144-.376-.03-.505.326-.369.302.116.647.467.767.779m208.29.446c-.051.971.557 1.566.95.931.138-.224.074-.407-.143-.407s-.477-.315-.577-.7c-.142-.541-.194-.5-.23.176m-201.806.059c-.127.206.021.583.329.839.331.275.654.312.791.091.127-.206-.021-.583-.329-.839-.331-.275-.654-.312-.791-.091m-7.44 1.652c0 .139-.216.469-.48.733-.373.373-.373.48 0 .48.671 0 .6.668-.1.937-.407.156-.506.03-.332-.423.184-.48.102-.557-.32-.303-.48.29-.485.241-.034-.317.294-.362.437-.817.318-1.01s.045-.351.366-.351c.32 0 .582.114.582.254m208.738 1.793c.075.388-.038.88-.251 1.093-.25.25-.314.002-.179-.702.137-.718.061-.999-.222-.824-.237.146-.534.099-.66-.105-.127-.205.086-.326.472-.269s.764.42.84.807m6.702 3.755c-.483.781.823 1.315 1.394.57.297-.388.382-.572.19-.408-.193.163-.576.109-.852-.12-.303-.252-.592-.268-.732-.042m-1.028.341c-.007.262.187.6.431.75.308.191.278.378-.1.618q-.54.343.857.325c1.2-.017 1.276-.07.534-.369-.476-.192-1.056-.675-1.288-1.074-.232-.4-.427-.512-.434-.25M91.076 73.5c-.101.385-.183.07-.183-.7s.082-1.085.183-.7.1 1.015 0 1.4m224.116-.2c-.37.763-.357.804.086.265.287-.349.792-.74 1.122-.869.486-.189.47-.239-.086-.264-.377-.018-.882.373-1.122.868m-5.123.562c.789.714.951 1.555.368 1.915-.199.123-.27-.13-.157-.562.164-.625.036-.753-.629-.625-.901.174-1.45-.344-1.051-.99.342-.554.622-.504 1.469.262m5.211 2.618c-.559.559-.654 1.675-.114 1.341.201-.124.457 0 .568.277.161.399.209.399.234.002.018-.275.223-.5.456-.5s.32.168.193.372a.44.44 0 0 0 .141.602c.205.127.321-.086.26-.472-.062-.386-.412-.676-.779-.644-.481.042-.599-.153-.426-.7.279-.878.139-.95-.533-.278m-.658 4.355c.147.239.069.601-.174.803s-.354.249-.248.102c.106-.146-.007-.508-.252-.803-.305-.367-.311-.537-.021-.537.234 0 .547.196.695.435m2.278 1.134c.165.017.255.256.2.531s.125.455.4.4.514.035.531.2c.016.165.09.614.164.998.074.385-.058.817-.292.962-.252.156-.31.074-.141-.198.255-.413-.223-.642-1.062-.509-.165.026-.255-.178-.2-.453s-.125-.455-.4-.4-.479-.035-.453-.2c.133-.839-.096-1.317-.509-1.062-.272.169-.354.111-.198-.141.145-.234.577-.366.962-.292.384.074.833.148.998.164m-.9.383c0 .39 1.555 1.846 1.723 1.612.064-.09-.297-.563-.803-1.05s-.92-.74-.92-.562m5.426.89a.44.44 0 0 0 .602.141c.204-.127.372-.055.372.16s-.225.481-.5.592c-.385.155-.379.209.024.233.288.018.412.212.276.432-.415.672.865.444 1.448-.258.483-.582.448-.626-.309-.386-.649.206-.841.111-.797-.395.032-.367-.258-.717-.644-.779-.386-.061-.599.055-.472.26m5.774.414c0 .251-.315.711-.7 1.022-.632.511-.612.524.2.13.766-.371 1.304-1.608.7-1.608-.11 0-.2.205-.2.456m-7.66 2.369c.155.468.078.483-.412.078-.331-.273-.749-.363-.929-.2-.18.164-.192.062-.026-.224.364-.631 1.106-.443 1.367.346m6.669 3.984c.528.584.611.931.296 1.246-.623.623-1.284.076-1.095-.906.128-.665 0-.793-.625-.629-.432.113-.685.042-.562-.157.371-.6 1.209-.412 1.986.446m2.635.138c-.344.414-.316.661.115 1.019.358.297.66.327.812.081a.475.475 0 0 0-.171-.647c-.227-.14-.309-.423-.183-.628.352-.568-.06-.443-.573.175m-1.213 1.053q-.018 1.397.325.857c.24-.378.427-.408.618-.1.15.244.488.438.75.431s.15-.202-.25-.434c-.399-.232-.882-.812-1.074-1.288-.299-.742-.352-.666-.369.534m-69.428-.47c-.282.282.631 1.296.976 1.083.158-.098.288.089.288.416 0 .408-.353.255-1.134-.493-1.327-1.271-1.296-1.203-.533-1.203.33 0 .512.089.403.197m-1.403.737c0 .366.118.548.263.403.362-.362 1.381.535 1.109.975-.121.195.061.355.404.355.746 0 .829.642.124.955-.275.122-.147.182.285.133 1.031-.116 1.239.981.477 2.509-.572 1.146-.565 1.179.181.78.429-.23.681-.576.562-.769a.423.423 0 0 1 .147-.578c.2-.124.472.055.603.398.134.348.444.496.704.336.303-.188.356-.112.152.219-.183.295-.083.655.238.863.391.253.26.327-.449.255-.855-.086-1.009.073-1.063 1.099q-.065 1.208.127.3c.106-.495.471-.9.813-.9.507 0 .529.11.123.6-.617.744.142 1.874 1.029 1.533.314-.12.571-.019.571.224 0 .599-1.307.562-2.001-.057-.477-.425-.481-.396-.031.2.292.385.938.7 1.438.7 1.236 0 1.709-1.789.751-2.847-.644-.712-.64-.753.081-.752.574 0 .785.321.854 1.299.05.714.41 1.532.799 1.816.855.625 2.747.479 2.614-.202-.055-.28.156-.389.5-.257.327.126.595.654.595 1.173 0 .554.207.894.5.823.275-.067.365-.046.2.046s-.3.433-.3.758.16.492.355.371.577.049.849.376c.272.328.337.599.145.602-.428.008.722.779 1.175.788.178.003.222-.157.099-.357s.177-.258.666-.13c.833.218.813.257-.299.595-2.474.752-2.41.715-1.836 1.07.372.229.399.41.089.602-.244.15-.443.072-.443-.174s-.178-.337-.395-.203c-.227.14-.294-.02-.158-.376.131-.342.052-.621-.175-.621-.228 0-.353.584-.278 1.3.075.715.044 1.067-.068.783-.156-.395-1.721-.506-6.665-.47-5.635.041-6.454-.033-6.406-.579.03-.344-.097-.532-.282-.417-.186.114-.39-2.965-.455-6.843-.107-6.42.058-8.262.616-6.876.112.276.217-.173.234-.998.03-1.427.832-2.23.832-.833m72.343 2.889c.396.251.418.421.08.63-.348.215-.345.425.011.855.345.415.612.453.992.137.564-.468-.37-1.984-1.215-1.972-.226.003-.167.161.132.35m4.324.615c-.278.723.742 1.662 1.127 1.039.146-.237.027-.38-.264-.32-.311.065-.481-.179-.412-.59.141-.843-.146-.925-.451-.129m1.633 3.28c.495.312.9.755.9.985 0 .697-.802 1.964-1.243 1.964-.228 0-.131-.283.214-.629.716-.715.838-1.771.205-1.771-.233 0-.334.144-.225.32.108.176-.222.32-.734.32-.599 0-.859-.185-.731-.52.11-.286.371-.52.58-.52.21 0 .253.208.096.462-.178.288-.11.353.183.172.637-.394.179-1.034-.741-1.034-.458 0-.816.349-.922.9-.122.637-.189.512-.228-.427-.059-1.449.611-1.505 2.646-.222m2.18.229c-.948.948.763 3.115 1.788 2.264.732-.608.666-1.299-.199-2.082-.874-.79-.97-.801-1.589-.182M340 99c0 .55.069 1 .153 1 .085 0 .24-.45.345-1s.036-1-.153-1c-.19 0-.345.45-.345 1m-1.186.017c.377.454.394.735.066 1.063-.587.587-1.723-.304-1.413-1.109.283-.738.709-.723 1.347.046m-.975.121c-.139.223-.057.527.181.674.615.381 1.012-.14.498-.654q-.429-.43-.679-.02m-74.245 1.411c-.004.266-.147.228-.35-.092-.244-.384-.425-.411-.622-.093-.152.247-.454.34-.669.207-.246-.152-.216-.454.081-.812.514-.619 1.572-.084 1.56.79m3.272-.455c-.222.222-.308.652-.192.955s.002.551-.255.551c-.256 0-.363-.168-.236-.372.126-.205.047-.486-.176-.624-.224-.138-.412-.016-.419.272-.007.31-.186.226-.437-.206-.233-.402-.318-.837-.188-.967.131-.13.237-.042.237.195s.315.378.7.313c.385-.064.651-.332.59-.594-.06-.262.09-.353.335-.202.299.185.313.407.041.679m-7.266.211c0 .241-.283.721-.629 1.066-.345.346-.442.629-.214.629.507 0 1.399-1.577 1.075-1.901-.127-.128-.232-.035-.232.206m2.8 2.391c.33.129.828.52 1.106.869.426.535.489.54.4.035-.131-.743-.717-1.196-1.506-1.162-.533.022-.533.051 0 .258m2.976.305c-.752.583-.753.593-.01.332.571-.201.682-.135.438.261q-.33.532.141.24c.257-.159.364-.457.238-.662-.127-.204.031-.372.351-.372s.699.31.845.689c.26.677.997.105 1.015-.789.011-.538-2.221-.315-3.018.301m76.02-.194c-.138.223-.419.302-.624.176-.204-.127-.372-.05-.372.17s.18.511.4.647.4.046.4-.2.183-.334.407-.196.282.464.131.724c-.152.259.115.129.593-.29.971-.851 1.21-1.419.269-.638-.548.455-.771.283-.647-.5.068-.432-.263-.369-.557.107m3.829 3.793c.001.73 1.115 1.885 1.555 1.612.238-.147.328-.438.199-.646s-.391-.282-.582-.164-.533-.104-.76-.494c-.227-.389-.412-.528-.412-.308m5.499 3.678c.085.59.502.952 1.3 1.127.647.142 1.176.412 1.176.599s-.584.173-1.297-.032c-.714-.205-1.331-.372-1.373-.372-.041 0-.132-.391-.202-.869-.07-.477-.398-.957-.728-1.065-.502-.164-.515-.093-.081.433.401.485.409.698.039.927-.295.182-.377.129-.213-.137a.5.5 0 0 0-.145-.689c-.6-.371-.041-1.066.737-.918.365.069.719.517.787.996M132.9 119.076c.385.1 1.015.1 1.4 0 .385-.101.07-.183-.7-.183s-1.085.082-.7.183m32.8 0c.385.1 1.015.1 1.4 0 .385-.101.07-.183-.7-.183s-1.085.082-.7.183m-26.4 1.2c.385.1 1.015.1 1.4 0 .385-.101.07-.183-.7-.183s-1.085.082-.7.183m20 0c.385.1 1.015.1 1.4 0 .385-.101.07-.183-.7-.183s-1.085.082-.7.183m-24 .4c.385.1 1.015.1 1.4 0 .385-.101.07-.183-.7-.183s-1.085.082-.7.183m11 .022c2.035.073 5.365.073 7.4 0s.37-.132-3.7-.132-5.735.059-3.7.132m17-.022c.385.1 1.015.1 1.4 0 .385-.101.07-.183-.7-.183s-1.085.082-.7.183m-37.1.524c-.14.227-.468.289-.728.138-.259-.152-.112.146.328.661l.8.937-.8-.269c-.788-.265-.788-.26-.024.332.428.331.968.598 1.2.595.233-.003.154-.195-.176-.426-.47-.329-.405-.365.3-.167.868.244 2.12-1.515 1.511-2.123-.116-.116-.211-.017-.211.22 0 .466-.714.459-1.472-.016-.26-.162-.588-.109-.728.118m4.244-.2c-.048 1.028 1.051 1.813 2.005 1.431l.951-.38-1-.068c-.832-.056-.731-.156.6-.594 1.059-.349 1.305-.538.726-.558-.481-.017-1.324.14-1.873.349-.71.27-1.056.241-1.195-.1-.107-.264-.203-.3-.214-.08m36.556.389c1.331.438 1.432.538.6.594l-1 .068.951.38c.954.382 2.053-.403 2.005-1.431-.011-.22-.107-.184-.214.08-.139.341-.485.37-1.195.1-.549-.209-1.392-.366-1.873-.349-.579.02-.333.209.726.558m4.206-.515c-.028 1.237.867 2.359 1.694 2.127.705-.198.77-.162.3.167-.33.231-.409.423-.176.426s.772-.264 1.2-.595c.764-.592.764-.597-.024-.332l-.8.269.8-.937c.44-.515.587-.813.328-.661-.26.151-.588.089-.728-.138s-.468-.278-.728-.113c-.674.429-1.227.403-1.566-.074-.162-.227-.297-.29-.3-.139M127.6 122.01c0-.299.108-.435.24-.303.557.556-.296 1.091-1.075.674-.433-.232-.665-.619-.515-.862.179-.29.456-.189.811.297q.539.735.539.194m7.4-.41c-.853.217-.969.327-.4.381.441.041-.089.347-1.18.682-1.839.565-2.016.558-2.495-.098-.7-.958-1.106-.451-.519.647.378.706.367.846-.056.705-.29-.097-.632-.613-.76-1.147-.217-.911-.258-.924-.658-.213-.235.416-1.396 1.226-2.58 1.8-2.436 1.181-2.882 2.298-1.79 4.488.524 1.05.528 1.162.027.746-.476-.395-.589-.37-.589.131 0 .681-1.039 1.878-1.629 1.878-.204 0-.326-.225-.271-.5.063-.316-.415-.521-1.3-.556-1.046-.042-1.122-.01-.3.126 1.121.187 1.425.682.693 1.134-.223.138-.325.382-.226.543.099.16-.005.553-.231.872-.335.474-.37.452-.186-.119.124-.385.064-.7-.133-.7s-.432-.315-.522-.7c-.098-.419-.288-.099-.474.8-.385 1.862-3.421 2.213-3.421.395 0-.543.09-.538.731.043.927.839 1.515.84 1.835.005.208-.541.148-.57-.339-.165-.671.557-1.581.194-1.172-.467.16-.26.082-.32-.193-.149-.258.159-.469.054-.478-.238-.009-.288-.293-.013-.631.611-.504.93-.809 1.096-1.684.917l-1.069-.219 1 .486c.55.267 1.038.688 1.084.936.102.542-1.168.507-1.562-.044-.499-.695-.864 1.07-.382 1.842.257.411.32.747.14.747-.179 0-.644-.72-1.032-1.6-.544-1.233-.928-1.6-1.677-1.6-.731 0-.979-.222-1.003-.9q-.031-.901-.26-.3c-.125.33-.426.732-.668.894-.304.203-.286.296.06.3.64.008.655 2.091.02 2.726-.373.373-.373.48 0 .48.695 0 .589 1.833-.149 2.571-.571.572-.571.629 0 .629a.63.63 0 0 1 .629.626c0 .897-.75 2.174-1.276 2.174-.246 0-.138-.342.24-.76.462-.511.545-.849.252-1.03-.243-.15-.387-.035-.326.26.061.292-.098.491-.353.442-.254-.048-.418.222-.364.6.055.379.488.746.963.816 1.355.2 1.355 12.744 0 12.944-.475.07-.908.437-.963.816s.11.648.364.6c.255-.049.414.15.353.442-.061.295.083.41.326.26.293-.181.21-.519-.252-1.03-.378-.418-.486-.76-.24-.76.526 0 1.276 1.277 1.276 2.174a.63.63 0 0 1-.629.626c-.571 0-.571.057 0 .629.738.738.844 2.571.149 2.571-.373 0-.373.107 0 .48.635.635.62 2.718-.02 2.726-.346.004-.364.097-.06.3.242.162.543.564.668.894q.229.601.26-.3c.024-.678.272-.9 1.003-.9.749 0 1.133-.367 1.677-1.6.388-.88.853-1.6 1.032-1.6s.117.336-.14.747c-.482.772-.117 2.537.382 1.842.394-.551 1.664-.586 1.562-.044-.046.248-.534.669-1.084.936l-1 .486 1.069-.219c.875-.179 1.18-.013 1.684.917.338.624.622.899.631.611.009-.292.22-.397.478-.238.275.171.353.111.193-.149-.409-.661.501-1.024 1.172-.467.487.405.547.376.339-.165-.32-.835-.908-.834-1.835.005-.641.581-.731.586-.731.043 0-1.818 3.036-1.467 3.421.395.186.899.376 1.219.474.8.09-.385.325-.7.522-.7s.257-.315.133-.7c-.184-.571-.149-.593.186-.119.226.319.33.712.231.872s.003.405.226.543c.732.452.428.947-.693 1.134-.822.136-.746.168.3.126.885-.035 1.363-.24 1.3-.556-.055-.275.067-.5.271-.5.59 0 1.629 1.197 1.629 1.878 0 .501.113.526.589.131.501-.416.497-.304-.027.746-1.092 2.19-.646 3.307 1.79 4.488 1.184.574 2.345 1.384 2.58 1.8.4.711.441.698.658-.213.128-.534.47-1.05.76-1.147.423-.141.434-.001.056.705-.587 1.098-.181 1.605.519.647.479-.656.656-.663 2.495-.098 1.089.334 1.635.62 1.213.635s-.655.14-.518.276c.136.136.931.115 1.766-.048 1.315-.256 1.412-.344.719-.656-.682-.307-.652-.33.2-.158.55.112 1.36.208 1.8.215.664.009.698.077.2.399-.961.621 1.115.49 3-.188 2.246-.81 14.154-.81 16.4 0 1.885.678 3.961.809 3 .188-.498-.322-.464-.39.2-.399.44-.007 1.25-.103 1.8-.215.852-.172.882-.149.2.158-.693.312-.596.4.719.656.835.163 1.63.184 1.766.048s-.097-.261-.518-.276.124-.301 1.213-.635c1.839-.565 2.016-.558 2.495.098.7.958 1.106.451.519-.647-.378-.706-.367-.846.056-.705.29.097.632.613.76 1.147.217.911.258.924.658.213.235-.416 1.396-1.226 2.58-1.8 2.436-1.181 2.882-2.298 1.79-4.488-.524-1.05-.528-1.162-.027-.746.476.395.589.37.589-.131 0-.681 1.039-1.878 1.629-1.878.204 0 .326.225.271.5-.063.316.415.521 1.3.556 1.046.042 1.122.01.3-.126-1.121-.187-1.425-.682-.693-1.134.223-.138.325-.382.226-.543-.099-.16.005-.553.231-.872.335-.474.37-.452.186.119-.124.385-.064.7.133.7s.432.315.522.7c.098.419.288.099.474-.8.385-1.862 3.421-2.213 3.421-.395 0 .543-.09.538-.731-.043-.927-.839-1.515-.84-1.835-.005-.208.541-.148.57.339.165.671-.557 1.581-.194 1.172.467-.16.26-.082.32.193.149.258-.159.469-.054.478.238.009.288.293.013.631-.611.504-.93.809-1.096 1.684-.917l1.069.219-1-.486c-.55-.267-1.038-.688-1.084-.936-.102-.542 1.168-.507 1.562.044.499.695.864-1.07.382-1.842-.257-.411-.32-.747-.14-.747.179 0 .644.72 1.032 1.6.544 1.233.928 1.6 1.677 1.6.731 0 .979.222 1.003.9q.031.901.26.3c.125-.33.426-.732.668-.894.304-.203.286-.296-.06-.3-.64-.008-.655-2.091-.02-2.726.373-.373.373-.48 0-.48-.695 0-.589-1.833.149-2.571.571-.572.571-.629 0-.629a.63.63 0 0 1-.629-.626c0-.897.75-2.174 1.276-2.174.246 0 .138.342-.24.76-.462.511-.545.849-.252 1.03.243.15.387.035.326-.26-.061-.292.098-.491.353-.442.254.048.418-.222.364-.6-.055-.379-.488-.746-.963-.816-1.355-.2-1.355-12.744 0-12.944.475-.07.908-.437.963-.816s-.11-.648-.364-.6c-.255.049-.414-.15-.353-.442.061-.295-.083-.41-.326-.26-.293.181-.21.519.252 1.03.378.418.486.76.24.76-.526 0-1.276-1.277-1.276-2.174a.63.63 0 0 1 .629-.626c.571 0 .571-.057 0-.629-.738-.738-.844-2.571-.149-2.571.373 0 .373-.107 0-.48-.635-.635-.62-2.718.02-2.726.346-.004.364-.097.06-.3-.242-.162-.543-.564-.668-.894q-.229-.601-.26.3c-.024.678-.272.9-1.003.9-.749 0-1.133.367-1.677 1.6-.388.88-.853 1.6-1.032 1.6s-.117-.336.14-.747c.482-.772.117-2.537-.382-1.842-.394.551-1.664.586-1.562.044.046-.248.534-.669 1.084-.936l1-.486-1.069.219c-.875.179-1.18.013-1.684-.917-.338-.624-.622-.899-.631-.611-.009.292-.22.397-.478.238-.275-.171-.353-.111-.193.149.409.661-.501 1.024-1.172.467-.487-.405-.547-.376-.339.165.32.835.908.834 1.835-.005.641-.581.731-.586.731-.043 0 1.818-3.036 1.467-3.421-.395-.186-.899-.376-1.219-.474-.8-.09.385-.325.7-.522.7s-.257.315-.133.7c.184.571.149.593-.186.119-.226-.319-.33-.712-.231-.872s-.003-.405-.226-.543c-.732-.452-.428-.947.693-1.134.822-.136.746-.168-.3-.126-.885.035-1.363.24-1.3.556.055.275-.067.5-.271.5-.59 0-1.629-1.197-1.629-1.878 0-.501-.113-.526-.589-.131-.501.416-.497.304.027-.746 1.092-2.19.646-3.307-1.79-4.488-1.184-.574-2.345-1.384-2.58-1.8-.4-.711-.441-.698-.658.213-.128.534-.47 1.05-.76 1.147-.423.141-.434.001-.056-.705.587-1.098.181-1.605-.519-.647-.479.656-.656.663-2.495.098-1.091-.335-1.621-.641-1.18-.682 1.044-.099-1.184-.686-2.6-.686-.892 0-.87.033.2.305.854.217.969.327.4.381l-.8.075.8.38c.697.332.672.354-.2.178-.55-.112-1.36-.208-1.8-.215-.664-.009-.698-.077-.2-.399.961-.621-1.115-.49-3 .188-1.149.414-3.46.577-8.2.577s-7.051-.163-8.2-.577c-1.885-.678-3.961-.809-3-.188.498.322.464.39-.2.399-.44.007-1.25.103-1.8.215-.872.176-.897.154-.2-.178l.8-.38-.8-.075c-.569-.054-.454-.164.4-.381 1.07-.272 1.092-.305.2-.305-.55 0-1.54.137-2.2.305m7.1-.073c.605.069 1.1.294 1.1.5 0 .216 2.856.373 6.8.373s6.8-.157 6.8-.373c0-.206.495-.431 1.1-.5.605-.07-2.95-.127-7.9-.127s-8.505.057-7.9.127m31.302.721c-.774.566-1.406.398-1.396-.372.004-.325.114-.306.344.058.271.426.389.401.592-.126.142-.372.454-.534.716-.372.324.2.247.444-.256.812m-49.206.552c.371 1.225.451 1.32.949 1.142.217-.078.024-.592-.429-1.142l-.823-1zm50.885.239c-.572.765-.602.961-.146.961.314 0 .676-.397.802-.883.313-1.194.19-1.208-.656-.078m-52.963 2.261c1.632 1.216 1.244 3.498-.718 4.224l-1.2.444 1.6-.084 1.6-.084.047-2.114c.037-1.659-.108-2.197-.673-2.5-1.029-.551-1.45-.477-.656.114m55.005 0c-.438.348-.613 1.109-.576 2.5l.053 2 1.6.084 1.6.084-1.2-.444c-1.962-.726-2.35-3.008-.718-4.224.369-.275.491-.5.271-.5s-.684.225-1.03.5m-50.883.833c0 .514-.231.934-.514.934-.382 0-.4-.136-.071-.534.326-.392.321-.533-.019-.533-.254 0-.625.405-.824.9-.262.654-.368.715-.387.223-.018-.49 1.311-1.923 1.784-1.923.017 0 .031.42.031.933m49.26.915c.075.569.005.533-.288-.148-.212-.495-.594-.9-.848-.9-.34 0-.345.141-.019.533.329.398.311.534-.071.534-.283 0-.514-.418-.514-.929 0-1.169 1.573-.345 1.74.91M111.6 135c.383.462.39.731.027 1.168-.372.448-.32.652.247.97.396.221.607.514.47.651s-.495.005-.796-.292a4.3 4.3 0 0 0-1.248-.807c-.99-.375-.947-2.29.051-2.29.413 0 .975.27 1.249.6m78.8.413c0 .596-.287 1.121-.7 1.277a4.3 4.3 0 0 0-1.248.807c-.301.297-.659.429-.796.292s.074-.43.47-.651c.567-.318.619-.522.247-.97-.595-.717.163-1.768 1.276-1.768.537 0 .751.289.751 1.013m-80.222-.178c-.496.803.464 1.24 1.059.482.524-.667.509-.675-.212-.117-.704.545-.751.536-.512-.1.291-.777.083-.942-.335-.265m79.273.165c.276.739.24.754-.476.2-.721-.558-.736-.55-.212.117.391.497.691.589.98.3s.263-.57-.087-.917c-.404-.401-.444-.342-.205.3m-78.784 2.782c0 .321-.15.49-.334.377-.512-.317-.395.411.167 1.042.425.477.396.481-.2.031-.822-.622-.938-2.032-.167-2.032.294 0 .534.262.534.582m79.733.169c0 .413-.315.989-.7 1.281-.596.45-.625.446-.2-.031.562-.631.679-1.359.167-1.042-.184.113-.334-.056-.334-.377 0-.32.24-.582.534-.582.293 0 .533.338.533.751m18.734.499c-.495.313-.174.521.596.387.181-.031.225.112.098.317-.195.317-.537.331-1.777.077-.082-.017.052-.273.297-.568s.317-.665.161-.821c-.157-.156.04-.16.437-.007.567.217.607.348.188.615M106.963 150c0 3.63.06 5.115.135 3.3a98 98 0 0 0 0-6.6c-.075-1.815-.135-.33-.135 3.3m86 0c0 3.63.06 5.115.135 3.3a98 98 0 0 0 0-6.6c-.075-1.815-.135-.33-.135 3.3m17.013-5.405c-.394.394-.765.456-1.176.197-.482-.305-.423-.381.3-.386.495-.003.9-.216.9-.473 0-.256.124-.342.276-.19s.017.535-.3.852m-.375 3.484c.706.852.424 1.268-.371.548-.746-.675-.908-.295-.413.973.043.11.059.329.035.486s.212.188.522.069c.879-.338 1.12-1.442.442-2.027-.337-.292-.434-.314-.215-.049m2.961 4.821c-.761.899-.761.899.069.2.458-.385 1.034-.7 1.281-.7s.632.315.856.7.413.511.42.28c.041-1.412-1.585-1.709-2.626-.48m19.338 2.982a5.7 5.7 0 0 0 1.8 0c.495-.095.09-.173-.9-.173s-1.395.078-.9.173m-121.42 4.598c-.544.544-.655 1.276-.147.961.184-.113.334.056.334.377 0 .32-.24.582-.534.582-.664 0-.699-1.274-.053-1.92.264-.264.57-.48.68-.48s-.016.216-.28.48m79.92 1.169c0 .413-.24.751-.533.751s-.534-.262-.534-.582c0-.321.15-.49.334-.377.512.317.395-.411-.167-1.042-.425-.477-.396-.481.2-.031.385.292.7.868.7 1.281m-78.526 1.213c-.567.318-.619.522-.247.97.595.717-.163 1.768-1.276 1.768-.998 0-1.041-1.915-.051-2.29a4.3 4.3 0 0 0 1.248-.807c.301-.297.659-.429.796-.292s-.074.43-.47.651m76.926-.066c0 .171.36.405.8.52 1.09.285 1.133 2.284.049 2.284-1.139 0-1.872-1.05-1.253-1.795.4-.482.371-.643-.151-.843-.355-.136-.645-.403-.645-.592 0-.19.27-.241.6-.115.33.127.6.37.6.541m-78.622 1.239c-.147.239-.057.644.201.9.357.355.398.275.17-.335-.276-.739-.24-.754.476-.2.717.555.734.548.226-.1-.644-.821-.718-.84-1.073-.265m78.585.248c-.524.667-.509.675.212.117.716-.554.752-.539.476.2-.239.642-.199.701.205.3.35-.347.376-.628.087-.917s-.589-.197-.98.3m-67.256 6.202c1.817.604 2.192 4.315.436 4.315-.262 0-.372.105-.244.232.815.816 1.793-.705 1.748-2.718l-.047-2.114-1.6-.075-1.6-.074zm55.098-.093c-.915 1.48.63 5.706 1.696 4.64.128-.127.018-.232-.244-.232-1.758 0-1.382-3.717.436-4.299l1.307-.419-1.476-.041c-.812-.023-1.586.136-1.719.351M125.636 174c.34 0 .345-.141.019-.533-.329-.398-.311-.534.071-.534.283 0 .514.418.514.929 0 1.169-1.573.345-1.74-.91-.075-.569-.005-.533.288.148.212.495.594.9.848.9m49.836-.643c-.438 1.141-1.712 1.499-1.712.481 0-.498.231-.905.514-.905.382 0 .4.136.071.534-.328.394-.317.533.043.533.268 0 .583-.367.7-.816.118-.449.303-.726.412-.617s.097.464-.028.79m-51.209 3.526c-.313 1.194-.19 1.208.656.078.572-.765.602-.961.146-.961-.314 0-.676.397-.802.883m50.818.078c.846 1.13.969 1.116.656-.078-.126-.486-.488-.883-.802-.883-.456 0-.426.196.146.961m-49.305.04c-.764.592-.764.597.024.332l.8-.269-.8.937c-.44.515-.587.813-.328.661.26-.151.591-.083.736.151.18.291.461.262.889-.094.723-.599.878-.583 1.384.147q.372.536.105-.466c-.476-1.786-1.592-2.342-2.81-1.399m46.541-.101c-.35.275-.756.95-.903 1.5q-.267 1.002.105.466c.506-.73.661-.746 1.384-.147.428.356.709.385.889.094.145-.234.476-.302.736-.151.259.152.112-.146-.328-.661l-.8-.937.8.269c.788.265.788.26.024-.332-.943-.729-1.097-.738-1.907-.101m-44.709.51c.278.335.39.725.249.866s-.257.013-.257-.286q0-.541-.539.194c-.376.514-.626.597-.825.274-.162-.262 0-.574.372-.716.527-.203.552-.321.126-.592-.322-.203-.355-.34-.083-.344.248-.003.679.268.957.604m45.658-.26c-.426.271-.401.389.126.592.372.142.534.454.372.716-.199.323-.449.24-.825-.274q-.539-.735-.539-.194c0 .299-.116.428-.257.286-.33-.329.613-1.478 1.206-1.47.272.004.239.141-.083.344m-42.397.889c-.289.461-.422.941-.297 1.067.126.125.228.022.228-.229 0-.325.296-.345 1.026-.067.564.214 1.419.376 1.9.359.579-.02.333-.209-.726-.558-1.334-.44-1.434-.539-.6-.597.924-.065.939-.096.2-.414-1.141-.49-1.153-.487-1.731.439m36.531-.439c-.739.318-.724.349.2.414.834.058.734.157-.6.597-1.059.349-1.305.538-.726.558.481.017 1.336-.145 1.9-.359.73-.278 1.026-.258 1.026.067 0 .251.102.354.228.229.241-.242-.677-1.926-1.024-1.878-.112.016-.564.183-1.004.372m-24.2.373c0 .206-.495.431-1.1.5-.605.07 2.95.127 7.9.127s8.505-.057 7.9-.127c-.605-.069-1.1-.294-1.1-.5 0-.216-2.856-.373-6.8-.373s-6.8.157-6.8.373m-7.9 1.503c.385.1 1.015.1 1.4 0 .385-.101.07-.183-.7-.183s-1.085.082-.7.183m11 .022c2.035.073 5.365.073 7.4 0s.37-.132-3.7-.132-5.735.059-3.7.132m17-.022c.385.1 1.015.1 1.4 0 .385-.101.07-.183-.7-.183s-1.085.082-.7.183m-24 .4c.385.1 1.015.1 1.4 0 .385-.101.07-.183-.7-.183s-1.085.082-.7.183m20 0c.385.1 1.015.1 1.4 0 .385-.101.07-.183-.7-.183s-1.085.082-.7.183m-26.4 1.2c.385.1 1.015.1 1.4 0 .385-.101.07-.183-.7-.183s-1.085.082-.7.183m32.8 0c.385.1 1.015.1 1.4 0 .385-.101.07-.183-.7-.183s-1.085.082-.7.183m-46.023 13.75c-.277.443-.665.705-.862.583a.42.42 0 0 0-.577.129c-.119.194.145.332.587.307.443-.025.933-.253 1.09-.507.199-.322.631-.187 1.428.45.83.661 1.005.997.639 1.223-.329.203-.406.151-.22-.149.444-.719-1.386-.565-2.216.187-.701.634-2.199.484-1.789-.18.114-.184-.045-.336-.353-.336-.67 0-.119 1.274.691 1.601.278.111.112.217-.368.234-.532.02-.97-.272-1.121-.748-.245-.772-.254-.772-1.026 0-1.047 1.047-2.97 1.015-3.724-.062l-.589-.841-.134.941c-.089.635-.44.986-1.075 1.075l-.941.134.841.589c1.554 1.088.761 3.34-1.358 3.856-.471.115-.202.214.653.242 1.626.051 1.932-.469 1.942-3.306l.005-1.552 1.835.207c1.009.114 2.025.397 2.257.629.298.298.139.352-.534.183-.928-.233-.936-.216-.256.556.568.644.59.796.117.796-.321 0-.499-.138-.395-.306s-.002-.424-.235-.568c-.473-.292-1.589.484-1.589 1.105 0 .245.206.229.533-.043.403-.334.534-.301.534.134 0 .317-.15.483-.334.37-.183-.114-.338.029-.345.317-.007.294-.209.186-.459-.246-.373-.642-.268-.924.634-1.7.639-.549.852-.93.521-.93-.978 0-2 1.482-1.739 2.523.132.525-.009 1.747-.313 2.716s-.571 1.442-.592 1.051c-.039-.686-1.933-1.73-2.362-1.301-.116.116.039.211.344.211.309 0 .116.31-.433.697-.544.383-1.137.649-1.319.59s-.21.086-.064.323c.166.268.439.291.73.059.255-.204.734-.257 1.064-.12.841.352.993 1.651.194 1.651-.353 0-.549-.15-.435-.333.113-.184-.053-.334-.37-.334-.435 0-.468.131-.134.534.623.75 1.83.663 2.313-.167.224-.385.413-.497.42-.249.024.899-1.165 1.426-2.792 1.238-1.651-.19-1.908.172-.281.397 1.827.252 3.391.841 2.336.88-.812.029-.875.124-.432.657.419.505.42.599.002.5-.283-.068-.57.206-.637.608-.089.532.06.668.547.499.596-.207.593-.173-.025.309-.381.297-.561.682-.4.855s-.156.081-.706-.205c-.944-.491-.967-.479-.4.211.529.644.53.707.004.533-.686-.227-1.851.764-1.397 1.186.166.155.383.056.481-.218.114-.321.545-.408 1.205-.242.713.179.941.119.746-.196-.184-.297-.054-.367.374-.203.777.298.047.924-1.089.934-.372.003-.8.205-.95.449-.188.303.026.353.676.158.827-.247.869-.213.33.258-1.309 1.143-1.644 1.831-1.011 2.074.374.143.518.037.392-.289-.108-.284.126-.77.521-1.08.655-.514.67-.502.169.136-.465.593-.465.803 0 1.377.468.576.466.626-.014.337-.435-.262-.512-.143-.338.523.124.474.035.98-.198 1.124-.268.166-.305.069-.101-.261q.324-.523-.145-.234c-.629.389-.122 1.145.585.874.308-.118.56-.121.56-.007 0 .115-.552.401-1.226.636l-1.227.428 1.313.798 1.312.798-.93.754c-.587.475-.722.753-.366.753.31 0 .78-.216 1.044-.48.373-.373.48-.329.48.2 0 .429-.332.692-.9.712-.495.017-.674.122-.398.234.277.111.398.371.271.578-.128.207.002.326.288.266.286-.061.582.295.657.79s-.055.9-.29.9-.428.18-.428.4.27.4.6.4.6.348.6.773c0 1.221 2.03 2.377 4.646 2.646 2.994.307 3.628.941 3.936 3.938.272 2.656.48 3.176 1.114 2.784.277-.172.351-.041.2.354-.254.662.619.749 1.192.119.172-.188.117-.231-.121-.096-.239.136-.434-.012-.434-.329 0-.414.14-.46.498-.163.321.266.584.274.74.021.31-.501-.225-.827-1.535-.936-.57-.047-1.036-.318-1.036-.602 0-.367.202-.408.7-.142 1.062.568 2.26.969 2.639.883.574-.129-1.362 2.132-2.072 2.422-.526.214-.474.278.246.3.501.015 1.023-.262 1.159-.616.227-.591.276-.591.607 0 .459.82 1.68.828 2.492.015.542-.541.629-.546.629-.033 0 .327.225.686.5.797.314.127.253.214-.163.233-.449.022-.598.278-.463.795.197.751.212.751.963 0 1.095-1.095 1.952-.891 2.502.594.154.417.394.643.534.504.139-.14.465-.078.724.136.323.268.47.21.47-.186 0-.317-.178-.466-.395-.332-.223.138-.27.041-.106-.224.159-.257.457-.364.662-.238.204.127.372.055.372-.16s-.185-.482-.41-.594-.18-.152.1-.089.468.494.417.958c-.101.909 1.246.613 2.711-.597.51-.422.954-.339 2.567.478l1.951.987-1.968.047c-2.795.068-.431.658 2.632.658 1.793 0 1.978-.056 1-.305-1.015-.258-.861-.315 1-.37l2.2-.065-1.55-.553c-1.809-.644-3.085-1.697-1.45-1.195.55.168 1.63.454 2.4.635s26.69.329 57.6.329 56.83-.148 57.6-.329 1.85-.467 2.4-.635c1.635-.502.359.551-1.45 1.195l-1.55.553 2.2.065c1.861.055 2.015.112 1 .37-.978.249-.793.305 1 .305 3.063 0 5.427-.59 2.632-.658l-1.968-.047 1.951-.987c1.613-.817 2.057-.9 2.567-.478 1.465 1.21 2.812 1.506 2.711.597-.051-.464.137-.895.417-.958.281-.063.326-.022.1.089-.225.112-.41.379-.41.594s.168.287.372.16c.205-.126.503-.019.662.238.164.265.117.362-.106.224-.217-.134-.395.015-.395.332 0 .396.147.454.47.186.259-.214.585-.276.724-.136.14.139.38-.087.534-.504.55-1.485 1.407-1.689 2.502-.594.751.751.766.751.963 0 .135-.517-.014-.773-.463-.795-.416-.019-.477-.106-.163-.233.275-.111.5-.47.5-.797 0-.513.087-.508.629.033.812.813 2.033.805 2.492-.015.331-.591.38-.591.607 0 .136.354.658.631 1.159.616.72-.022.772-.086.246-.3-.71-.29-2.646-2.551-2.072-2.422.379.086 1.577-.315 2.639-.883.498-.266.7-.225.7.142 0 .284-.466.555-1.036.602-1.31.109-1.845.435-1.535.936.156.253.419.245.74-.021.358-.297.498-.251.498.163 0 .317-.195.465-.434.329-.238-.135-.293-.092-.121.096.573.63 1.446.543 1.192-.119-.151-.395-.077-.526.2-.354.634.392.842-.128 1.114-2.784.308-2.997.942-3.631 3.936-3.938 2.616-.269 4.646-1.425 4.646-2.646 0-.425.27-.773.6-.773s.6-.18.6-.4-.193-.4-.428-.4-.366-.405-.29-.9c.075-.495.371-.851.657-.79s.416-.059.288-.266c-.127-.207-.006-.467.271-.578.276-.112.097-.217-.398-.234-.568-.02-.9-.283-.9-.712 0-.529.107-.573.48-.2.264.264.734.48 1.044.48.356 0 .221-.278-.366-.753l-.93-.754 1.312-.798 1.313-.798-1.227-.428c-.674-.235-1.226-.521-1.226-.636s.252-.111.56.007c.707.271 1.214-.485.585-.874q-.469-.29-.145.234c.204.33.167.427-.101.261-.233-.144-.322-.65-.198-1.124.174-.666.097-.785-.338-.523-.48.289-.482.239-.014-.337.465-.574.465-.784 0-1.377-.501-.638-.486-.65.169-.136.395.31.629.796.521 1.08-.126.326.018.432.392.289.633-.243.298-.931-1.011-2.074-.539-.471-.497-.505.33-.258.65.195.864.145.676-.158-.15-.244-.578-.446-.95-.449-1.136-.01-1.866-.636-1.089-.934.428-.164.558-.094.374.203-.195.315.033.375.746.196.66-.166 1.091-.079 1.205.242.098.274.315.373.481.218.454-.422-.711-1.413-1.397-1.186-.526.174-.525.111.004-.533.567-.69.544-.702-.4-.211-.55.286-.868.378-.706.205.161-.173-.019-.558-.4-.855-.618-.482-.621-.516-.025-.309.487.169.636.033.547-.499-.067-.402-.354-.676-.637-.608-.418.099-.417.005.002-.5.443-.533.38-.628-.432-.657-1.055-.039.509-.628 2.336-.88 1.627-.225 1.37-.587-.281-.397-1.627.188-2.816-.339-2.792-1.238.007-.248.196-.136.42.249.483.83 1.69.917 2.313.167.334-.403.301-.534-.134-.534-.317 0-.483.15-.37.334.114.183-.082.333-.435.333-.799 0-.647-1.299.194-1.651.33-.137.809-.084 1.064.12.291.232.564.209.73-.059.146-.237.117-.382-.064-.323-.182.059-.775-.207-1.319-.59-.549-.387-.742-.697-.433-.697.305 0 .46-.095.344-.211-.429-.429-2.323.615-2.362 1.301-.021.391-.288-.082-.592-1.051s-.445-2.191-.313-2.716c.261-1.041-.761-2.523-1.739-2.523-.331 0-.118.381.521.93.902.776 1.007 1.058.634 1.7-.25.432-.452.54-.459.246-.007-.288-.162-.431-.345-.317-.184.113-.334-.053-.334-.37 0-.435.131-.468.534-.134.327.272.533.288.533.043 0-.621-1.116-1.397-1.589-1.105-.233.144-.339.4-.235.568s-.074.306-.395.306c-.473 0-.451-.152.117-.796.68-.772.672-.789-.256-.556-.673.169-.832.115-.534-.183.232-.232 1.248-.515 2.257-.629l1.835-.207.005 1.552c.01 2.837.316 3.357 1.942 3.306.855-.028 1.124-.127.653-.242-2.119-.516-2.912-2.768-1.358-3.856l.841-.589-.941-.134c-.635-.089-.986-.44-1.075-1.075l-.134-.941-.589.841c-.754 1.077-2.677 1.109-3.724.062-.772-.772-.781-.772-1.026 0-.151.476-.589.768-1.121.748-.48-.017-.646-.123-.368-.234.81-.327 1.361-1.601.691-1.601-.308 0-.467.152-.353.336.41.664-1.088.814-1.789.18-.83-.752-2.66-.906-2.216-.187.186.3.109.352-.22.149-.366-.226-.191-.562.639-1.223.797-.637 1.229-.772 1.428-.45.157.254.647.482 1.09.507.442.025.706-.113.587-.307a.41.41 0 0 0-.562-.138c-.19.117-.605-.158-.923-.611-.534-.764-.598-.772-.849-.118-.233.608-.329.624-.687.118-.344-.486-.377-.467-.191.111.283.88-.376.93-.712.055-.2-.522-.361-.551-.843-.151-.474.394-.595.389-.595-.022 0-.283-.108-.407-.24-.275-.522.521.298 1.143.876.663.446-.37.564-.332.564.181 0 .764-.527.823-1.707.192-.641-.344-.893-.344-1.007 0-.227.679-1.115.554-1.718-.243-.45-.596-.446-.625.031-.2.686.611 1.201.644 1.201.076 0-.233-.181-.311-.403-.174-.221.137-.519-.054-.661-.424-.222-.578-.331-.54-.783.275-.479.865-.526.877-.545.147-.017-.664-.086-.698-.408-.2-.367.568-.586.26-.418-.589.043-.214-.305-.043-.772.38-.92.832-2.177 1.203-1.753.516.254-.41-2.771-.265-7.457.357-.99.131-1.698.129-1.574-.005.124-.135 1.187-.383 2.362-.552 1.174-.169-26.72-.307-61.988-.307s-63.162.138-61.988.307c1.175.169 2.238.417 2.362.552.124.134-.584.136-1.574.005-4.686-.622-7.711-.767-7.457-.357.424.687-.833.316-1.753-.516-.467-.423-.815-.594-.772-.38.168.849-.051 1.157-.418.589-.322-.498-.391-.464-.408.2-.019.73-.066.718-.545-.147-.452-.815-.561-.853-.783-.275-.142.37-.44.561-.661.424s-.403-.059-.403.174c0 .568.515.535 1.201-.076.477-.425.481-.396.031.2-.603.797-1.491.922-1.718.243-.114-.344-.366-.344-1.007 0-1.18.631-1.707.572-1.707-.192 0-.513.118-.551.564-.181.578.48 1.398-.142.876-.663-.132-.132-.24-.008-.24.275 0 .411-.121.416-.595.022-.482-.4-.643-.371-.843.151-.336.875-.995.825-.712-.055.174-.539.135-.574-.166-.152-.325.456-.451.44-.747-.09-.316-.563-.416-.543-.86.168m12.223-.544a5.7 5.7 0 0 0 1.8 0c.495-.095.09-.173-.9-.173s-1.395.078-.9.173m134.4 0a5.7 5.7 0 0 0 1.8 0c.495-.095.09-.173-.9-.173s-1.395.078-.9.173m-153.594 2.927c.95 1.029 2.069.824 2.393-.438.086-.331-.039-.277-.296.129-.557.881-1.116.884-2.172.015-.687-.567-.674-.516.075.294m172.195-.438c.324 1.262 1.443 1.467 2.393.438.749-.81.762-.861.075-.294-1.056.869-1.615.866-2.172-.015-.257-.406-.382-.46-.296-.129m-176.049 3.143c.024.157.008.376-.035.486-.495 1.268-.333 1.648.413.973.85-.77 1.06-.272.273.647-.314.366-.235.348.215-.049.766-.677.59-1.767-.344-2.126-.31-.119-.545-.088-.522.069m181.377.315c-.806.805-.792 1.15.071 1.803.596.45.625.446.2-.031-.795-.892-.579-1.396.27-.628.746.675.908.295.413-.973-.043-.11-.056-.335-.03-.5.073-.468-.239-.357-.924.329m-180.17 6.268c-.408.405-.454.366-.24-.197.207-.543.056-.701-.676-.706-.751-.005-.821-.084-.343-.386.871-.551 1.975.579 1.259 1.289m180.81-.969c-.681.099-.862.315-.676.804.199.523.149.563-.232.185-.678-.673.242-1.773 1.168-1.397.548.223.5.298-.26.408M107.6 209.6c-.533.345-.533.388 0 .388.33 0 .87-.175 1.2-.388.533-.345.533-.388 0-.388-.33 0-.87.175-1.2.388m183.6 0c.33.213.87.388 1.2.388.533 0 .533-.043 0-.388-.33-.213-.87-.388-1.2-.388-.533 0-.533.043 0 .388m-182 11.945c0 .189-.45.258-1 .153s-1-.26-1-.345.45-.153 1-.153 1 .155 1 .345m183.6-.192c0 .085-.45.24-1 .345s-1 .036-1-.153c0-.19.45-.345 1-.345s1 .069 1 .153m-182.396 4.442c-.703.847-.182 1.945.801 1.688.438-.115.695-.045.572.154-.535.866-2.511.401-2.282-.537.226-.921.845-1.9 1.203-1.9.11 0-.022.268-.294.595m180.096 1.217c.194 1.016-1.712 1.54-2.277.625-.123-.199.134-.269.572-.154 1.021.267 1.488-.846.75-1.788-.485-.619-.473-.639.111-.183.36.282.74.957.844 1.5M110.762 229.1c-.295.385-.378.567-.186.403.379-.32 1.424.373 1.424.946 0 .193-.191.351-.424.351s-.32-.168-.193-.372c.126-.205.047-.486-.176-.624-.224-.138-.407-.025-.407.252 0 .375-.116.388-.453.051-.526-.526-.188-1.707.489-1.707.321 0 .298.214-.074.7m179.104-.073c.132.345.036.831-.213 1.08-.337.337-.453.324-.453-.051 0-.277-.183-.39-.407-.252s-.302.419-.176.624c.127.204.04.372-.193.372s-.424-.158-.424-.351c0-.573 1.045-1.266 1.424-.946.192.164.109-.018-.186-.403-.372-.486-.395-.7-.074-.7.253 0 .569.282.702.627m-175.999 1.64c0 .293-.24.533-.534.533a.535.535 0 0 1-.533-.533c0-.294.24-.534.533-.534s.534.24.534.534m173.333 0c0 .293-.24.533-.533.533a.535.535 0 0 1-.534-.533c0-.294.24-.534.534-.534.293 0 .533.24.533.534m-175.683 1.71c4.405.707 5.4 1.677 6.081 5.933.356 2.226.362 2.203.195-.816-.264-4.787-.511-5.03-5.372-5.293-2.748-.148-2.83-.132-.904.176m174.283-.147c-.22.055-.89.208-1.488.34-1.491.328-1.906 1.298-2.104 4.924-.151 2.759-.132 2.87.169.989.708-4.411 1.693-5.418 5.933-6.062l2.29-.348-2.2.029c-1.21.016-2.38.074-2.6.128m-175.6 1.17c-.786.633-.785.637.074.222.48-.232 1.2-.411 1.6-.397.588.021.555.095-.174.387-.495.199-.9.441-.9.538 0 .096.405.086.9-.022.723-.159.782-.113.3.231-.33.236-.408.432-.173.435.487.007.513 2.347.034 3.113-.174.278-.484.402-.689.276-.629-.389-.412.087.305.668.385.313.555.346.393.077-.156-.26-.055-.615.223-.789.766-.479 3.106-.453 3.113.034.003.235.199.157.435-.173.344-.482.39-.423.231.3-.108.495-.118.9-.022.9.097 0 .339-.405.538-.9.292-.729.366-.762.387-.174.014.4-.165 1.12-.397 1.6-.415.859-.411.86.222.074 2.369-2.94-3.46-8.769-6.4-6.4m176.448-.186c-1.627.487-2.982 1.886-3.446 3.556-.527 1.897-.509 2.143.22 3.054.601.75.608.746.2-.098-.232-.48-.411-1.2-.397-1.6.021-.588.095-.555.387.174.199.495.441.9.538.9.096 0 .086-.405-.022-.9-.159-.723-.113-.782.231-.3.236.33.432.408.435.173.007-.487 2.347-.513 3.113-.034.278.174.379.529.223.789-.162.269.008.236.393-.077.717-.581.934-1.057.305-.668-.205.126-.515.002-.689-.276-.479-.766-.453-3.106.034-3.113.235-.003.157-.199-.173-.435-.482-.344-.423-.39.3-.231.495.108.9.118.9.022 0-.097-.405-.339-.9-.538-.729-.292-.762-.366-.174-.387.4-.014 1.12.165 1.6.397.844.408.848.401.098-.2-.856-.685-1.453-.724-3.176-.208M115.04 234.96c.748.748 1.359 1.693 1.359 2.1-.002.532-.226.373-.797-.564-.437-.717-1.381-1.661-2.098-2.098-.937-.571-1.096-.795-.564-.797.407 0 1.352.611 2.1 1.359m171.456-.562c-.717.437-1.661 1.381-2.098 2.098-.571.937-.795 1.096-.797.564 0-.407.611-1.352 1.359-2.1s1.693-1.359 2.1-1.359c.532.002.373.226-.564.797m-172.065 1.171c1.536 1.537 1.475 1.894-.317 1.845-1.433-.04-1.488-.095-1.528-1.528-.049-1.792.308-1.853 1.845-.317m172.983.317c-.04 1.433-.095 1.488-1.528 1.528-1.792.049-1.853-.308-.317-1.845s1.894-1.475 1.845.317M122 241.667c0 .476.051.791.113.7s.354-.482.649-.867c.459-.599.442-.7-.113-.7-.399 0-.649.334-.649.867m155.238-.167c.295.385.587.775.649.867s.113-.224.113-.7c0-.533-.25-.867-.649-.867-.555 0-.572.101-.113.7m-150.766.213c-.234.283-.282.748-.105 1.034.246.397.389.347.606-.213.258-.666.337-.641.842.266.679 1.219.761.824.121-.581-.521-1.143-.843-1.254-1.464-.506m145.592.506c-.64 1.405-.558 1.8.121.581.505-.907.584-.932.842-.266.217.56.36.61.606.213.312-.505-.239-1.547-.818-1.547-.158 0-.495.458-.751 1.019m-144.278 15.026c-.277.871-.308.877-.837.153-.483-.66-.643-.502-.509.502.022.165.215.251.43.19.214-.06.275.075.136.3-.139.226-.091.41.106.41.409 0 1.412-2.009 1.139-2.282-.098-.098-.307.229-.465.727m7.614-.445c-1.055.268-.962.311.768.353l1.968.047-1.951.987c-1.613.817-2.057.9-2.567.478-1.465-1.21-2.812-1.506-2.711-.597.051.464-.137.895-.417.958s-.325.023-.1-.089.41-.379.41-.594-.168-.287-.372-.16c-.205.126-.503.019-.662-.238-.164-.265-.117-.362.106-.224.217.134.395-.015.395-.332 0-.396-.147-.454-.47-.186-.259.214-.585.276-.724.136-.14-.139-.38.087-.534.504-.55 1.485-1.407 1.689-2.502.594-.751-.751-.766-.751-.963 0-.135.517.014.773.463.795.416.019.477.106.163.233-.275.111-.5.47-.5.797 0 .513-.087.508-.629-.033-.812-.813-2.033-.805-2.492.015-.331.591-.38.591-.607 0-.136-.354-.658-.631-1.159-.616-.72.022-.772.086-.246.3.71.29 2.646 2.551 2.072 2.422-.379-.086-1.577.315-2.639.883-.498.266-.7.225-.7-.142 0-.284.466-.555 1.036-.602 1.31-.109 1.845-.435 1.535-.936-.156-.253-.419-.245-.74.021-.358.297-.498.251-.498-.163 0-.317.195-.465.434-.329.238.135.293.092.121-.096-.573-.63-1.446-.543-1.192.119.151.395.077.526-.2.354-.634-.392-.842.128-1.114 2.784-.308 2.997-.942 3.631-3.936 3.938-2.616.269-4.646 1.425-4.646 2.646 0 .425-.27.773-.6.773s-.6.18-.6.4.193.4.428.4.366.405.29.9c-.075.495-.371.851-.657.79s-.416.059-.288.266c.127.207.006.467-.271.578-.276.112-.097.217.398.234.568.02.9.283.9.712 0 .529-.107.573-.48.2-.264-.264-.734-.48-1.044-.48-.356 0-.221.278.366.753l.93.754-1.312.798-1.313.798 1.227.428c.674.235 1.226.521 1.226.636s-.252.111-.56-.007c-.707-.271-1.214.485-.585.874q.469.29.145-.234c-.204-.33-.167-.427.101-.261.233.144.322.65.198 1.124-.174.666-.097.785.338.523.48-.289.482-.239.014.337-.465.574-.465.784 0 1.377.501.638.486.65-.169.136-.395-.31-.629-.796-.521-1.08.126-.326-.018-.432-.392-.289-.633.243-.298.931 1.011 2.074.539.471.497.505-.33.258-.65-.195-.864-.145-.676.158.15.244.578.446.95.449 1.136.01 1.866.636 1.089.934-.428.164-.558.094-.374-.203.195-.315-.033-.375-.746-.196-.66.166-1.091.079-1.205-.242-.098-.274-.315-.373-.481-.218-.454.422.711 1.413 1.397 1.186.526-.174.525-.111-.004.533-.567.69-.544.702.4.211.55-.286.868-.378.706-.205-.161.173.019.558.4.855.618.482.621.516.025.309-.487-.169-.636-.033-.547.499.067.402.354.676.637.608.418-.099.417-.005-.002.5-.443.533-.38.628.432.657 1.055.039-.509.628-2.336.88-1.627.225-1.37.587.281.397 1.627-.188 2.816.339 2.792 1.238-.007.248-.196.136-.42-.249-.483-.83-1.69-.917-2.313-.167-.334.403-.301.534.134.534.317 0 .483-.15.37-.334-.114-.183.082-.333.435-.333.799 0 .647 1.299-.194 1.651-.33.137-.809.084-1.064-.12-.291-.232-.564-.209-.73.059-.146.237-.117.382.064.323.182-.059.775.207 1.319.59.549.387.742.697.433.697-.305 0-.46.095-.344.211.429.429 2.323-.615 2.362-1.301.021-.391.288.082.592 1.051s.445 2.191.313 2.716c-.261 1.041.761 2.523 1.739 2.523.331 0 .118-.381-.521-.93-.902-.776-1.007-1.058-.634-1.7.25-.432.452-.54.459-.246.007.288.162.431.345.317.184-.113.334.053.334.37 0 .435-.131.468-.534.134-.327-.272-.533-.288-.533-.043 0 .621 1.116 1.397 1.589 1.105.233-.144.339-.4.235-.568s.074-.306.395-.306c.473 0 .451.152-.117.796-.68.772-.672.789.256.556.673-.169.832-.115.534.183-.232.232-1.248.515-2.257.629l-1.835.207-.005-1.552c-.01-2.837-.316-3.357-1.942-3.306-.855.028-1.124.127-.653.242 2.119.516 2.912 2.768 1.358 3.856l-.841.589.941.134c.635.089.986.44 1.075 1.075l.134.941.589-.841c.754-1.077 2.677-1.109 3.724-.062.772.772.781.772 1.026 0 .151-.476.589-.768 1.121-.748.48.017.646.123.368.234-.81.327-1.361 1.601-.691 1.601.308 0 .467-.152.353-.336-.41-.664 1.088-.814 1.789-.18.83.752 2.66.906 2.216.187-.186-.3-.109-.352.22-.149.366.226.191.562-.639 1.223-.797.637-1.229.772-1.428.45-.157-.254-.647-.482-1.09-.507-.442-.025-.706.113-.587.307.12.193.373.255.562.138s.605.158.923.611c.534.764.598.772.849.118.233-.608.329-.624.687-.118.344.486.377.467.191-.111-.283-.88.376-.93.712-.055.2.522.361.551.843.151.474-.394.595-.389.595.022 0 .283.108.407.24.275.522-.521-.298-1.143-.876-.663-.446.37-.564.332-.564-.181 0-.764.527-.823 1.707-.192.641.344.893.344 1.007 0 .227-.679 1.115-.554 1.718.243.45.596.446.625-.031.2-.686-.611-1.201-.644-1.201-.076 0 .233.181.311.403.174.221-.137.519.054.661.424.222.578.331.54.783-.275.479-.865.526-.877.545-.147.017.664.086.698.408.2.367-.568.586-.26.418.589-.043.214.305.043.772-.38.92-.832 2.177-1.203 1.753-.516-.254.41 2.771.265 7.457-.357.99-.131 1.698-.129 1.574.005-.124.135-1.187.383-2.362.552-1.174.169 26.72.307 61.988.307s63.162-.138 61.988-.307c-1.175-.169-2.238-.417-2.362-.552-.124-.134.584-.136 1.574-.005 4.686.622 7.711.767 7.457.357-.424-.687.833-.316 1.753.516.467.423.815.594.772.38-.168-.849.051-1.157.418-.589.322.498.391.464.408-.2.019-.73.066-.718.545.147.452.815.561.853.783.275.142-.37.44-.561.661-.424s.403.059.403-.174c0-.568-.515-.535-1.201.076-.477.425-.481.396-.031-.2.603-.797 1.491-.922 1.718-.243.114.344.366.344 1.007 0 1.18-.631 1.707-.572 1.707.192 0 .513-.118.551-.564.181-.578-.48-1.398.142-.876.663.132.132.24.008.24-.275 0-.411.121-.416.595-.022.482.4.643.371.843-.151.336-.875.995-.825.712.055-.186.578-.153.597.191.111.358-.506.454-.49.687.118.251.654.315.646.849-.118.318-.453.733-.728.923-.611a.41.41 0 0 0 .562-.138c.119-.194-.145-.332-.587-.307-.443.025-.933.253-1.09.507-.199.322-.631.187-1.428-.45-.83-.661-1.005-.997-.639-1.223.329-.203.406-.151.22.149-.444.719 1.386.565 2.216-.187.701-.634 2.199-.484 1.789.18-.114.184.045.336.353.336.67 0 .119-1.274-.691-1.601-.278-.111-.112-.217.368-.234.532-.02.97.272 1.121.748.245.772.254.772 1.026 0 1.047-1.047 2.97-1.015 3.724.062l.589.841.134-.941c.089-.635.44-.986 1.075-1.075l.941-.134-.841-.589c-1.554-1.088-.761-3.34 1.358-3.856.471-.115.202-.214-.653-.242-1.626-.051-1.932.469-1.942 3.306l-.005 1.552-1.835-.207c-1.009-.114-2.025-.397-2.257-.629-.298-.298-.139-.352.534-.183.928.233.936.216.256-.556-.568-.644-.59-.796-.117-.796.321 0 .499.138.395.306s.002.424.235.568c.473.292 1.589-.484 1.589-1.105 0-.245-.206-.229-.533.043-.403.334-.534.301-.534-.134 0-.317.15-.483.334-.37.183.114.338-.029.345-.317.007-.294.209-.186.459.246.373.642.268.924-.634 1.7-.639.549-.852.93-.521.93.978 0 2-1.482 1.739-2.523-.132-.525.009-1.747.313-2.716s.571-1.442.592-1.051c.039.686 1.933 1.73 2.362 1.301.116-.116-.039-.211-.344-.211-.309 0-.116-.31.433-.697.544-.383 1.137-.649 1.319-.59s.21-.086.064-.323c-.166-.268-.439-.291-.73-.059-.255.204-.734.257-1.064.12-.841-.352-.993-1.651-.194-1.651.353 0 .549.15.435.333-.113.184.053.334.37.334.435 0 .468-.131.134-.534-.623-.75-1.83-.663-2.313.167-.224.385-.413.497-.42.249-.024-.899 1.165-1.426 2.792-1.238 1.651.19 1.908-.172.281-.397-1.827-.252-3.391-.841-2.336-.88.812-.029.875-.124.432-.657-.419-.505-.42-.599-.002-.5.283.068.57-.206.637-.608.089-.532-.06-.668-.547-.499-.596.207-.593.173.025-.309.381-.297.561-.682.4-.855s.156-.081.706.205c.944.491.967.479.4-.211-.529-.644-.53-.707-.004-.533.686.227 1.851-.764 1.397-1.186-.166-.155-.383-.056-.481.218-.114.321-.545.408-1.205.242-.713-.179-.941-.119-.746.196.184.297.054.367-.374.203-.777-.298-.047-.924 1.089-.934.372-.003.8-.205.95-.449.188-.303-.026-.353-.676-.158-.827.247-.869.213-.33-.258 1.309-1.143 1.644-1.831 1.011-2.074-.374-.143-.518-.037-.392.289.108.284-.126.77-.521 1.08-.655.514-.67.502-.169-.136.465-.593.465-.803 0-1.377-.468-.576-.466-.626.014-.337.435.262.512.143.338-.523-.124-.474-.035-.98.198-1.124.268-.166.305-.069.101.261q-.323.524.145.234c.629-.389.122-1.145-.585-.874-.308.118-.56.121-.56.007 0-.115.552-.401 1.226-.636l1.227-.428-1.313-.798-1.312-.798.93-.754c.587-.475.722-.753.366-.753-.31 0-.78.216-1.044.48-.373.373-.48.329-.48-.2 0-.429.332-.692.9-.712.495-.017.674-.122.398-.234-.277-.111-.398-.371-.271-.578.128-.207-.002-.326-.288-.266-.286.061-.582-.295-.657-.79s.055-.9.29-.9.428-.18.428-.4-.27-.4-.6-.4-.6-.348-.6-.773c0-1.221-2.03-2.377-4.646-2.646-2.994-.307-3.628-.941-3.936-3.938-.272-2.656-.48-3.176-1.114-2.784-.277.172-.351.041-.2-.354.254-.662-.619-.749-1.192-.119-.172.188-.117.231.121.096.239-.136.434.012.434.329 0 .414-.14.46-.498.163-.321-.266-.584-.274-.74-.021-.31.501.225.827 1.535.936.57.047 1.036.318 1.036.602 0 .367-.202.408-.7.142-1.062-.568-2.26-.969-2.639-.883-.574.129 1.362-2.132 2.072-2.422.536-.218.494-.277-.213-.3-.484-.015-1.042.262-1.241.616-.331.591-.38.591-.607 0-.315-.822-1.629-.83-2.443-.015-.542.541-.629.546-.629.033 0-.327-.225-.686-.5-.797-.314-.127-.253-.214.163-.233.449-.022.598-.278.463-.795-.197-.751-.212-.751-.963 0-1.095 1.095-1.952.891-2.502-.594-.154-.417-.394-.643-.534-.504-.139.14-.465.078-.724-.136-.323-.268-.47-.21-.47.186 0 .317.178.466.395.332.223-.138.27-.041.106.224-.159.257-.457.364-.662.238-.204-.127-.372-.055-.372.16s.185.482.41.594c.226.112.181.152-.1.089-.28-.063-.468-.494-.417-.958.101-.909-1.246-.613-2.711.597-.51.422-.954.339-2.567-.478l-1.951-.987 1.968-.047c2.795-.068.431-.658-2.632-.658-1.793 0-1.978.056-1 .305 1.015.258.861.315-1 .37l-2.2.065 1.55.553c1.809.644 3.085 1.697 1.45 1.195-.55-.168-1.63-.454-2.4-.635s-26.69-.329-57.6-.329-56.83.148-57.6.329-1.85.467-2.4.635c-1.635.502-.359-.551 1.45-1.195l1.55-.553-2.2-.065c-1.861-.055-2.015-.112-1-.37.978-.249.793-.305-1-.305-1.21 0-2.74.137-3.4.305m136.214-.319c-.026.513.91 2.319 1.201 2.319.579 0 1.13-1.042.818-1.547-.246-.397-.389-.347-.606.213-.258.666-.337.641-.842-.266-.306-.55-.563-.873-.571-.719M122 258.333c0 .533.25.867.649.867.555 0 .572-.101.113-.7a33 33 0 0 1-.649-.867c-.062-.091-.113.224-.113.7m155.293.067c-.417.667-.4.8.104.8.336 0 .603-.354.603-.8 0-.44-.047-.8-.104-.8s-.328.36-.603.8m-160.915 1.874c.232.48.411 1.2.397 1.6-.021.588-.095.555-.387-.174-.199-.495-.441-.9-.538-.9-.096 0-.086.405.022.9.159.723.113.782-.231.3-.236-.33-.432-.408-.435-.173-.007.487-2.347.513-3.113.034-.278-.174-.402-.484-.276-.689.389-.629-.087-.412-.668.305-.313.385-.346.555-.077.393.26-.156.615-.055.789.223.479.766.453 3.106-.034 3.113-.235.003-.157.199.173.435.482.344.423.39-.3.231-.495-.108-.9-.118-.9-.022 0 .097.405.339.9.538.729.292.762.366.174.387-.4.014-1.12-.165-1.6-.397-.859-.415-.86-.411-.074.222 2.94 2.369 8.769-3.46 6.4-6.4-.633-.786-.637-.785-.222.074m1.112 1.481c-.417 4.037-1.56 5.16-5.973 5.868-1.881.301-1.77.32.989.169 4.748-.26 4.979-.487 5.366-5.271.271-3.36-.049-4.001-.382-.766m164.711.666c.263 4.861.506 5.108 5.293 5.372 3.019.167 3.042.161.816-.195-4.256-.681-5.226-1.676-5.933-6.081-.308-1.926-.324-1.844-.176.904m.996-2.015c-1.09 2.036.91 5.653 3.529 6.38 1.944.54 2.184.524 3.098-.208.75-.601.746-.608-.098-.2-.48.232-1.2.411-1.6.397-.588-.021-.555-.095.174-.387.495-.199.9-.441.9-.538 0-.096-.405-.086-.9.022-.723.159-.782.113-.3-.231.33-.236.408-.432.173-.435-.487-.007-.513-2.347-.034-3.113.174-.278.529-.379.789-.223.269.162.236-.008-.077-.393-.581-.717-1.057-.934-.668-.305.126.205.002.515-.276.689-.766.479-3.106.453-3.113-.034-.003-.235-.199-.157-.435.173-.344.482-.39.423-.231-.3.108-.495.118-.9.022-.9-.097 0-.339.405-.538.9-.292.729-.366.762-.387.174-.014-.4.161-1.075.389-1.5s.324-.774.214-.774-.394.363-.631.806m-167.597 2.51c0 .457-2.238 2.684-2.697 2.684-.263 0-.405-2.928-.146-3.014.551-.184 2.843.083 2.843.33m.8.124c0 .882-2.553 3.36-3.46 3.359-.528-.002-.361-.233.583-.809.728-.444 1.628-1.342 2-1.996.78-1.369.877-1.431.877-.554m170.096 2.562c.937.571 1.096.795.564.797-.407 0-1.352-.611-2.1-1.359s-1.359-1.693-1.359-2.1c.002-.532.226-.373.797.564.437.717 1.381 1.661 2.098 2.098m.918-1.488c.049 1.792-.308 1.853-1.845.317s-1.475-1.894.317-1.845c1.433.04 1.488.095 1.528 1.528m-173.547 5.219c0 .294-.24.534-.534.534a.535.535 0 0 1-.533-.534c0-.293.24-.533.533-.533s.534.24.534.533m173.333 0c0 .294-.24.534-.533.534a.535.535 0 0 1-.534-.534c0-.293.24-.533.534-.533.293 0 .533.24.533.533m-175.2.218c0 .573-1.045 1.266-1.424.946-.192-.164-.109.018.186.403.372.486.395.7.074.7-.677 0-1.015-1.181-.489-1.707.337-.337.453-.324.453.051 0 .277.183.39.407.252s.302-.419.176-.624c-.127-.204-.04-.372.193-.372s.424.158.424.351m176.617.021c-.126.205-.047.486.176.624.224.138.407.025.407-.252 0-.375.116-.388.453-.051.526.526.188 1.707-.489 1.707-.321 0-.298-.214.074-.7.295-.385.378-.567.186-.403-.379.32-1.424-.373-1.424-.946 0-.193.191-.351.424-.351s.32.168.193.372m-176.84 2.791c.123.199-.134.269-.572.154-1.021-.267-1.488.846-.75 1.788.485.619.473.639-.111.183-1.247-.975-1.194-2.488.088-2.488.616 0 1.222.163 1.345.363m178.723.625c-.104.543-.484 1.218-.844 1.5-.584.456-.596.436-.111-.183.738-.942.271-2.055-.75-1.788-.438.115-.695.045-.572-.154.565-.915 2.471-.391 2.277.625M109.2 278.4c0 .22-.495.382-1.1.36l-1.1-.04 1-.32c.55-.176 1.045-.338 1.1-.36s.1.14.1.36m183.6.247c0 .084-.45.153-1 .153s-1-.155-1-.345.45-.258 1-.153 1 .26 1 .345M107.6 290.4c.33.213.87.388 1.2.388.533 0 .533-.043 0-.388-.33-.213-.87-.388-1.2-.388-.533 0-.533.043 0 .388m183.6 0c-.533.345-.533.388 0 .388.33 0 .87-.175 1.2-.388.533-.345.533-.388 0-.388-.33 0-.87.175-1.2.388m-181.217 4.188c-.4.4-.772.464-1.183.204-.478-.302-.408-.381.343-.386.732-.005.883-.163.676-.706-.214-.563-.168-.602.24-.197s.394.615-.076 1.085m180.162-.788c-.165.428.04.602.712.606.751.005.821.084.343.386-.713.451-1.847-.468-1.424-1.154.396-.64.636-.535.369.162m-180.544 4.279c.706.852.424 1.268-.371.548-.746-.675-.908-.295-.413.973.043.11.059.329.035.486s.212.188.522.069c.879-.338 1.12-1.442.442-2.027-.337-.292-.434-.314-.215-.049m180.441.07c-.532.642-.225 1.695.584 2.006.31.119.545.088.522-.069a1.1 1.1 0 0 1 .035-.486c.495-1.268.333-1.648-.413-.973-.827.749-1.089.252-.29-.547.264-.264.376-.48.249-.48s-.436.247-.687.549m-177.48 4.751c-.761.899-.761.899.069.2.458-.385 1.034-.7 1.281-.7s.632.315.856.7.413.511.42.28c.041-1.412-1.585-1.709-2.626-.48m172.718-.42c-.264.264-.475.669-.468.9s.196.105.42-.28.61-.7.856-.7c.247 0 .823.315 1.281.7.83.699.83.699.069-.2-.855-1.01-1.452-1.126-2.158-.42m-153.38 3.402a5.7 5.7 0 0 0 1.8 0c.495-.095.09-.173-.9-.173s-1.395.078-.9.173m134.4 0a5.7 5.7 0 0 0 1.8 0c.495-.095.09-.173-.9-.173s-1.395.078-.9.173M91.076 327.9c-.101.385-.183.07-.183-.7s.082-1.085.183-.7.1 1.015 0 1.4m218 0c-.101.385-.183.07-.183-.7s.082-1.085.183-.7.1 1.015 0 1.4m-213.602 4.11c.261.336.544 1.506.628 2.6l.154 1.99.072-2.051c.054-1.538-.103-2.188-.628-2.6-.612-.48-.64-.472-.226.061m209.481 1.802c-.365.557-.591 1.086-.502 1.175s.465-.367.836-1.013c.825-1.438.58-1.557-.334-.162m-208.112 2.391c-.124 2.328 1.006 4.18 2.557 4.189.635.004.538-.155-.472-.771-.951-.58-1.369-1.21-1.657-2.498-.212-.948-.405-1.362-.428-.92m-2.164 1.154c-.164.417-.204.852-.088.967.364.365.685-.233.533-.993-.141-.696-.162-.695-.445.026m205.497.669c-.646.674-.905 1.116-.575.983.537-.218 2.244-2.209 1.893-2.209-.08 0-.673.552-1.318 1.226m1.677-.295c-.144.574-.739 1.173-1.461 1.472-.67.278-1.139.584-1.042.68s.72-.105 1.384-.449c1.103-.57 2.01-2.023 1.551-2.483-.104-.103-.298.247-.432.78M98 337.505c0 .458 1.087 1.695 1.491 1.695.128 0-.108-.405-.525-.9-.416-.495-.804-.975-.862-1.067s-.104.031-.104.272m4.659 5.292c1.01.408 1.604 1.203.898 1.203-.27 0-.382.108-.25.24s.443.114.692-.04c.595-.367-.674-1.81-1.561-1.775-.435.018-.365.136.221.372m196.329-.017c.129.209-.119.569-.551.8-1.144.612-1.563.49-.661-.193.428-.323.585-.587.349-.587-.235 0-.638.254-.895.564-.731.88.236 1.216 1.367.475.528-.346 1.286-.527 1.682-.402.644.204.638.161-.055-.404-.856-.697-1.606-.851-1.236-.253m55.172 10.267c0 1.098.1 1.15.827.423.44-.44.414-.602-.149-.953-.566-.354-.678-.267-.678.53m-307.938 4.918c-.148.239-.461.435-.695.435-.29 0-.284-.17.021-.537.245-.295.385-.633.311-.75s.038-.071.249.102c.21.173.261.511.114.75m1.681 2.053c-.438.713-.375.918.497 1.604l1 .787-1-.35c-1.342-.469-1.684-2.859-.409-2.859.259 0 .226.308-.088.818m305.711.356c-.519.97-.53 1.626-.027 1.626.214 0 .273-.3.132-.666q-.255-.666.208-.379c.313.193.378.062.199-.404-.205-.535-.11-.63.425-.425.411.158.592.105.446-.131-.382-.617-.93-.467-1.383.379m-2.57 2.354c-.129.21.123.475.56.589.884.231 1.098 1.694.296 2.018-.299.121-.218.215.2.233.477.022.7-.267.7-.906 0-1.03-1.377-2.546-1.756-1.934m-302.597.772c.125.79-.098 1.04-.447.5-.213-.33-.388-.42-.388-.2 0 1.122.745 1.614 1.421.938.364-.364.54-.859.391-1.1-.306-.494-1.049-.599-.977-.138m2.853 2.765c-.275.111-.5.389-.5.617 0 .257.222.232.581-.066.708-.588 2.055-.219 2.39.654.222.577.32.571 1.012-.055.43-.389.98-.561 1.254-.392.31.192.383.133.201-.161-.409-.663-1.068-.57-1.681.238-.492.648-.532.633-.544-.2-.013-.895-1.313-1.2-2.713-.635M342.2 370c-.319.516.11 1.209.724 1.168.343-.022.337-.087-.024-.233-.275-.111-.5-.377-.5-.592s.208-.262.462-.105c.286.177.353.11.176-.176-.35-.566-.519-.579-.838-.062m-284.789.418c.142.229.017.724-.277 1.1-.481.614-.464.627.166.133.77-.604.945-1.651.276-1.651-.233 0-.307.188-.165.418m284.53 1.806c.077.068-.129.509-.458.98-.332.473-.709.678-.844.46-.134-.218-.031-.467.229-.553.27-.09.34-.375.162-.662-.171-.277-.572-.403-.891-.281-.337.129-.474.05-.326-.189.213-.345 1.648-.18 2.128.245m-284.497.742c.22.575.16.684-.238.438-.337-.209-.434-.172-.265.1.145.235.038.519-.239.63-.313.126-.332.215-.051.234.833.059 1.536-1.141.988-1.685-.381-.379-.423-.317-.195.283m284.084 2.33c-.07.493-.464.96-.874 1.038-.491.094-.679-.042-.55-.396.108-.296.412-.489.676-.428.264.06.358-.087.209-.327-.148-.241-.522-.341-.829-.223-.308.118-.56.041-.56-.173 0-.213.463-.387 1.028-.387.836 0 1.004.167.9.896m.072 2.504c0 .8-.2 1-1 1s-1-.2-1-1 .2-1 1-1 1 .2 1 1m-279.271.333c.088.45-.14.667-.7.667-.914 0-.94-.045-.58-.984.305-.794 1.103-.596 1.28.317m276.871-.376c0 .307-.285.667-.633.8-.924.355-1.367.298-1.367-.175 0-.229.315-.364.7-.3.391.066.656-.103.6-.382-.055-.275.08-.5.3-.5s.4.251.4.557m-8.274 2.338c-.024.498.049.66.163.36.176-.461.266-.461.581 0 .283.414.344.36.252-.222-.175-1.103-.943-1.21-.996-.138m-260.87.292c.519.432.787.792.595.8-.192.007-.127.281.145.609s.669.487.882.356c.411-.254-1.568-2.552-2.197-2.552-.203 0 .055.354.575.787m256.587 4.246c-.43 1.119-.26 2.455.379 2.985.553.459.569.4.148-.525-.586-1.285-.272-2.198.921-2.677.893-.359.89-.366-.148-.391-.613-.014-1.159.241-1.3.608m-1.624.74c.675 1.031.253 2.627-.695 2.627-.253 0-.159-.319.214-.731 1.005-1.111.791-1.53-.271-.532-.686.645-.934.722-.934.292 0-.321.195-.55.434-.507.238.043.384-.16.323-.452-.06-.291.075-.415.3-.276.568.351.516-.328-.07-.914-.264-.264-.358-.48-.209-.48s.558.438.908.973m2.752.004c-.618.456-.672.67-.271 1.076.275.279.5.359.5.178s.242-.128.538.118c.427.354.527.245.486-.532-.071-1.328-.344-1.511-1.253-.84m-251.975 1.03a.49.49 0 0 1-.676.144c-.239-.148-.347-.031-.247.268.097.292.436.612.752.711s.442.036.278-.138-.096-.56.149-.855.345-.537.221-.537-.339.183-.477.407m-3.682 1.093c-.982.998-.725 1.186.428.313.408-.309.678-.709.6-.888s-.541.08-1.028.575m7.589.4c.282.357.209.5-.254.5-.449 0-.639-.339-.617-1.1.018-.627.127-.842.253-.5.122.33.4.825.618 1.1m-5.08 2.189c-.343.489-.616 1.164-.607 1.5.008.336.27.026.58-.689.672-1.544 1.864-1.72 2.781-.411.5.713.623.756.623.214 0-1.506-2.442-1.95-3.377-.614m247.857-.009c-.662.662-.601 1.322.184 1.971.609.503.618.472.1-.375-.505-.828-.483-.985.212-1.5.428-.317.599-.576.38-.576s-.612.216-.876.48m-239.516.618c.131.13-.076.612-.46 1.07-.509.606-.4.569.399-.138 1.18-1.043 1.372-.893.632.496-.425.797-.406.825.217.311.85-.702.692-1.726-.289-1.869-.405-.059-.629-.001-.499.13m7.11 1.1c-.251.551-.293 1.002-.092 1.002.393 0 1.002-1.549.719-1.832-.094-.094-.376.279-.627.83m1.126-.654c0 .682.474 1.656.805 1.656.402 0 .021-1.537-.453-1.83-.194-.119-.352-.041-.352.174m216.948.299c-.149.416-.344.892-.433 1.057s.016.3.234.3c.461 0 1.033-1.551.697-1.887-.125-.125-.349.113-.498.53m1.072-.243c-.009.714.656 1.857.926 1.588.103-.104-.06-.639-.365-1.189-.32-.579-.556-.747-.561-.399M94.2 392.8c.136.22.607.4 1.047.4s.689-.18.553-.4-.607-.4-1.047-.4-.689.18-.553.4m210 0c-.136.22.113.4.553.4s.911-.18 1.047-.4-.113-.4-.553-.4-.911.18-1.047.4m-201.4.4c.33.213 1.05.378 1.6.366.916-.02.933-.051.2-.366-1.184-.509-2.587-.509-1.8 0m192.6 0c-.733.315-.716.346.2.366.55.012 1.27-.153 1.6-.366.787-.509-.616-.509-1.8 0"/></svg>