<svg width="800" height="800" viewBox="0 0 800 800" fill="none" xmlns="http://www.w3.org/2000/svg">
<path d="M356.139 359.628C351.656 355.081 346.338 351.444 340.476 348.916C334.465 346.335 327.988 345.018 321.448 345.048C315.3 345.037 309.204 346.179 303.477 348.416C297.808 350.621 292.592 353.848 288.088 357.938L280.179 348.749C279.757 348.264 279.236 347.873 278.652 347.605C278.068 347.336 277.433 347.194 276.79 347.19H276.54C275.95 347.19 275.366 347.307 274.821 347.533C274.276 347.759 273.782 348.091 273.365 348.509C272.949 348.927 272.619 349.423 272.394 349.968C272.169 350.514 272.055 351.099 272.056 351.689V453.334C272.053 454.529 272.523 455.675 273.364 456.523C274.204 457.371 275.346 457.851 276.54 457.857H295.664C296.256 457.856 296.841 457.737 297.388 457.509C297.934 457.281 298.43 456.948 298.847 456.528C299.265 456.108 299.596 455.609 299.821 455.061C300.046 454.514 300.161 453.927 300.159 453.334V394.692C300.143 391.871 300.701 389.077 301.8 386.479C302.853 383.953 304.389 381.657 306.32 379.719C308.311 377.739 310.673 376.173 313.272 375.111C315.87 374.048 318.653 373.511 321.459 373.53C324.251 373.513 327.016 374.072 329.582 375.172C334.641 377.342 338.661 381.391 340.797 386.468C341.89 389.067 342.448 391.86 342.439 394.68V453.406C342.439 454.601 342.911 455.748 343.754 456.595C344.596 457.443 345.74 457.922 346.934 457.929H366.034C367.228 457.922 368.37 457.443 369.21 456.595C370.051 455.747 370.521 454.6 370.518 453.406V394.692C370.554 388.07 369.243 381.509 366.665 375.41C364.184 369.531 360.613 364.176 356.139 359.628V359.628ZM573.078 347.476H497.725C496.535 347.482 495.395 347.961 494.557 348.806C493.719 349.652 493.25 350.796 493.253 351.987V371.03C493.251 371.62 493.366 372.203 493.59 372.748C493.814 373.293 494.143 373.789 494.558 374.207C494.973 374.625 495.466 374.956 496.01 375.183C496.553 375.41 497.136 375.528 497.725 375.529H502.482C503.675 375.533 504.819 376.009 505.661 376.855C506.504 377.7 506.977 378.846 506.977 380.04V408.392C506.943 414.993 508.25 421.533 510.819 427.614C515.878 439.477 525.307 448.935 537.15 454.025C543.195 456.63 549.715 457.951 556.297 457.905H573.126C573.718 457.903 574.304 457.785 574.85 457.557C575.396 457.329 575.892 456.995 576.31 456.575C576.727 456.155 577.058 455.657 577.283 455.109C577.508 454.561 577.623 453.974 577.621 453.382V434.338C577.623 433.747 577.508 433.16 577.283 432.613C577.057 432.066 576.727 431.568 576.309 431.149C575.891 430.73 575.395 430.398 574.849 430.171C574.303 429.944 573.717 429.827 573.126 429.827H556.25C553.388 429.835 550.555 429.256 547.925 428.125C545.397 427.039 543.097 425.484 541.146 423.543C539.211 421.601 537.673 419.3 536.615 416.771C535.509 414.134 534.955 411.298 534.985 408.439V380.088C534.985 378.896 535.457 377.752 536.297 376.907C537.137 376.061 538.278 375.583 539.469 375.577H573.114C574.306 375.577 575.45 375.103 576.293 374.259C577.136 373.416 577.61 372.271 577.61 371.078V352.034C577.616 351.436 577.503 350.842 577.278 350.288C577.053 349.734 576.72 349.23 576.298 348.805C575.876 348.381 575.374 348.045 574.822 347.817C574.269 347.589 573.676 347.473 573.078 347.476V347.476ZM695.576 345.429H695.385C694.718 345.426 694.058 345.573 693.455 345.859C692.852 346.146 692.321 346.564 691.901 347.083L685.3 354.998C684.924 355.454 684.461 355.83 683.938 356.106C683.416 356.381 682.844 356.55 682.256 356.604C681.667 356.657 681.074 356.593 680.511 356.415C679.948 356.238 679.425 355.95 678.973 355.569C677.368 354.201 675.679 352.903 673.931 351.654C670.958 349.524 667.807 347.656 664.511 346.071C661.247 344.5 657.838 343.252 654.331 342.346C650.864 341.459 647.301 341.007 643.722 341.001C636.214 340.955 628.774 342.416 621.839 345.298C615.119 348.061 609.017 352.14 603.893 357.295C598.688 362.625 594.579 368.925 591.798 375.839C588.789 383.381 587.29 391.44 587.386 399.56C587.238 408.001 588.737 416.39 591.798 424.257C594.526 431.139 598.643 437.383 603.893 442.599C609.013 447.598 615.111 451.484 621.804 454.013C628.793 456.667 636.212 458.002 643.687 457.952C647.246 457.949 650.791 457.493 654.236 456.596C657.725 455.694 661.121 454.467 664.38 452.93C667.675 451.381 670.827 449.545 673.8 447.443C675.489 446.253 677.106 445.062 678.688 443.765C679.16 443.38 679.707 443.096 680.294 442.93C680.88 442.765 681.495 442.722 682.099 442.803C682.703 442.884 683.284 443.089 683.806 443.404C684.328 443.719 684.78 444.137 685.134 444.634L691.865 454.001C692.419 454.778 693.205 455.358 694.111 455.658C695.016 455.957 695.994 455.959 696.901 455.665C697.808 455.37 698.597 454.794 699.155 454.019C699.712 453.245 700.008 452.313 700 451.359V349.928C700.003 348.739 699.536 347.597 698.7 346.751C697.864 345.906 696.728 345.426 695.54 345.417L695.576 345.429ZM669.554 410.772C668.129 414.303 666.092 417.555 663.536 420.377C661.011 423.151 657.99 425.427 654.628 427.09C651.249 428.761 647.528 429.624 643.758 429.613C640.053 429.634 636.375 428.968 632.912 427.649C629.574 426.388 626.554 424.41 624.063 421.853C621.449 419.153 619.424 415.939 618.117 412.414C615.233 404.076 615.233 395.009 618.117 386.67C619.435 383.151 621.458 379.938 624.063 377.231C626.56 374.685 629.579 372.711 632.912 371.447C636.376 370.131 640.053 369.465 643.758 369.483C647.528 369.467 651.25 370.331 654.628 372.006C657.996 373.659 661.019 375.937 663.536 378.719C666.091 381.542 668.128 384.793 669.554 388.324C672.489 395.527 672.489 403.593 669.554 410.796V410.772ZM124.857 347.274H105.507C104.916 347.272 104.33 347.387 103.783 347.613C103.237 347.838 102.74 348.169 102.321 348.587C101.902 349.005 101.57 349.501 101.343 350.048C101.117 350.595 101 351.181 101 351.773V453.418C101 454.615 101.475 455.764 102.319 456.612C103.164 457.459 104.311 457.937 105.507 457.941H124.822C125.413 457.939 125.999 457.821 126.546 457.593C127.092 457.364 127.588 457.031 128.005 456.611C128.423 456.191 128.753 455.693 128.979 455.145C129.204 454.597 129.319 454.01 129.317 453.418V351.773C129.317 350.581 128.845 349.439 128.005 348.595C127.164 347.752 126.024 347.277 124.833 347.274H124.857ZM203.945 354.939C204.505 354.284 204.866 353.482 204.986 352.629C205.106 351.776 204.98 350.906 204.623 350.122C204.265 349.338 203.692 348.672 202.969 348.203C202.246 347.734 201.405 347.482 200.544 347.476H178.851C178.203 347.477 177.564 347.619 176.976 347.892C176.389 348.165 175.868 348.564 175.45 349.059L131.862 399.774C131.136 400.595 130.735 401.653 130.735 402.75C130.735 403.846 131.136 404.905 131.862 405.725L175.45 456.429C175.869 456.922 176.39 457.318 176.978 457.589C177.565 457.86 178.204 458.001 178.851 458H200.52C201.383 457.996 202.227 457.744 202.952 457.275C203.677 456.805 204.252 456.138 204.61 455.352C204.968 454.565 205.093 453.693 204.971 452.838C204.849 451.982 204.485 451.18 203.922 450.525L165.21 405.713C164.488 404.891 164.09 403.833 164.09 402.738C164.09 401.643 164.488 400.585 165.21 399.762L203.945 354.939ZM246.058 347.262H245.82C245.174 347.262 244.535 347.402 243.947 347.674C243.36 347.945 242.839 348.34 242.419 348.833L241.515 349.892L223.545 370.733C222.834 371.551 222.445 372.6 222.451 373.685V453.43C222.449 454.02 222.564 454.606 222.788 455.152C223.013 455.699 223.343 456.195 223.759 456.614C224.175 457.033 224.67 457.366 225.215 457.593C225.76 457.821 226.344 457.939 226.934 457.941H246.034C247.226 457.934 248.366 457.456 249.206 456.611C250.046 455.766 250.518 454.622 250.518 453.43V351.773C250.518 350.58 250.046 349.437 249.206 348.591C248.366 347.746 247.226 347.268 246.034 347.262H246.058ZM475.782 399.036C472.539 396.093 468.765 393.795 464.662 392.264C460.318 390.649 455.715 389.843 451.081 389.884H421.812C420.885 389.895 419.967 389.712 419.115 389.348C418.263 388.983 417.496 388.444 416.865 387.765C416.196 387.093 415.67 386.294 415.317 385.415C414.963 384.536 414.79 383.595 414.807 382.647C414.813 380.789 415.553 379.008 416.865 377.693C418.177 376.377 419.955 375.634 421.812 375.625H474.26C475.45 375.622 476.591 375.146 477.431 374.303C478.272 373.459 478.744 372.317 478.744 371.126V351.987C478.745 351.396 478.63 350.811 478.406 350.264C478.181 349.718 477.852 349.221 477.435 348.802C477.019 348.383 476.524 348.05 475.979 347.823C475.435 347.595 474.85 347.477 474.26 347.476H421.8C417.095 347.443 412.432 348.375 408.1 350.213C399.708 353.75 393.041 360.443 389.535 368.852C387.729 373.21 386.799 377.882 386.799 382.599C386.799 387.317 387.729 391.989 389.535 396.346C393.063 404.78 399.716 411.519 408.1 415.152C412.423 417.024 417.089 417.972 421.8 417.937H451.984C453.479 417.926 454.924 418.472 456.039 419.468C457.154 420.465 457.858 421.841 458.014 423.329C458.089 424.154 457.99 424.986 457.725 425.771C457.46 426.556 457.033 427.277 456.474 427.888C455.914 428.498 455.233 428.985 454.474 429.317C453.715 429.649 452.896 429.819 452.068 429.816H391.271C390.682 429.817 390.099 429.935 389.556 430.162C389.013 430.389 388.519 430.72 388.104 431.138C387.689 431.556 387.36 432.051 387.136 432.596C386.912 433.142 386.798 433.725 386.799 434.315V453.358C386.798 453.947 386.912 454.531 387.136 455.076C387.36 455.621 387.689 456.117 388.104 456.535C388.519 456.952 389.013 457.284 389.556 457.511C390.099 457.738 390.682 457.856 391.271 457.857H451.021C455.613 457.866 460.16 456.962 464.401 455.199C468.641 453.436 472.489 450.848 475.723 447.586C478.898 444.362 481.446 440.577 483.239 436.421C485.101 432.1 486.049 427.44 486.022 422.734C486.071 418.145 485.121 413.6 483.239 409.415C481.456 405.498 478.914 401.974 475.758 399.048L475.782 399.036Z" fill="white"/>
</svg>
