<svg xmlns="http://www.w3.org/2000/svg" width="800" height="600" viewBox="0 0 800 600">
  <title>kinsta-logo2</title>
  <g id="b1d9802a-b808-43ff-a7d7-43f15b4634d1" data-name="Layer 2">
    <g id="6f7c9d94-fa87-409e-8541-befd9f1e8612" data-name="Layer 1">
      <rect width="800" height="600" style="fill: #5333ed"/>
      <path d="M362.68,266.54a41.67,41.67,0,0,0-13.17-9,40.11,40.11,0,0,0-16-3.25,41.35,41.35,0,0,0-15.11,2.83,41.78,41.78,0,0,0-12.94,8l-6.65-7.72a3.81,3.81,0,0,0-2.85-1.31h-.21a3.77,3.77,0,0,0-3.77,3.78v85.4a3.79,3.79,0,0,0,3.77,3.8h16.08a3.79,3.79,0,0,0,3.78-3.8V296a17.44,17.44,0,0,1,1.38-6.9,17.69,17.69,0,0,1,3.8-5.68,17.89,17.89,0,0,1,12.73-5.2,17.07,17.07,0,0,1,6.83,1.38,17.87,17.87,0,0,1,9.43,9.49,17.64,17.64,0,0,1,1.38,6.9v49.34a3.8,3.8,0,0,0,3.78,3.8H371a3.79,3.79,0,0,0,3.77-3.8V296a41,41,0,0,0-3.24-16.2A42.43,42.43,0,0,0,362.68,266.54Zm182.41-10.21H481.73a3.78,3.78,0,0,0-3.76,3.79v16a3.77,3.77,0,0,0,3.76,3.78h4a3.79,3.79,0,0,1,3.78,3.79v23.82a40.93,40.93,0,0,0,3.23,16.15,42.16,42.16,0,0,0,22.14,22.19,40,40,0,0,0,16.1,3.26h14.15a3.79,3.79,0,0,0,3.78-3.8v-16a3.78,3.78,0,0,0-3.78-3.79H530.94a17.62,17.62,0,0,1-7-1.43,18.36,18.36,0,0,1-5.7-3.85,17.79,17.79,0,0,1-3.81-5.69,17.6,17.6,0,0,1-1.37-7V283.73a3.79,3.79,0,0,1,3.77-3.79h28.29a3.78,3.78,0,0,0,3.78-3.78v-16A3.79,3.79,0,0,0,545.09,256.33Zm103-1.72h-.16A3.75,3.75,0,0,0,645,256l-5.55,6.65a3.76,3.76,0,0,1-5.32.48c-1.35-1.15-2.77-2.24-4.24-3.29a53.12,53.12,0,0,0-7.92-4.69,46.67,46.67,0,0,0-8.56-3.13,36.23,36.23,0,0,0-8.92-1.13,47.22,47.22,0,0,0-18.4,3.61A45.88,45.88,0,0,0,571,264.58a47.87,47.87,0,0,0-10.18,15.58,52.1,52.1,0,0,0-3.71,19.93,54.56,54.56,0,0,0,3.71,20.75A45.2,45.2,0,0,0,571,336.25a43.64,43.64,0,0,0,15.06,9.59,50.91,50.91,0,0,0,18.4,3.31,35.34,35.34,0,0,0,8.87-1.14,48.38,48.38,0,0,0,8.53-3.08,52.18,52.18,0,0,0,7.92-4.61c1.42-1,2.78-2,4.11-3.09a3.75,3.75,0,0,1,5.42.73l5.66,7.87a3.77,3.77,0,0,0,6.84-2.22V258.39A3.78,3.78,0,0,0,648.06,254.6Zm-21.88,54.9a27.16,27.16,0,0,1-5.06,8.07,25.29,25.29,0,0,1-7.49,5.64,20.5,20.5,0,0,1-9.14,2.12,25.26,25.26,0,0,1-9.12-1.65,20.5,20.5,0,0,1-7.44-4.87,22.79,22.79,0,0,1-5-7.93,33.06,33.06,0,0,1,0-21.63,23.13,23.13,0,0,1,5-7.93,20.7,20.7,0,0,1,7.44-4.86,25.34,25.34,0,0,1,9.12-1.65,20.38,20.38,0,0,1,9.14,2.12,24.87,24.87,0,0,1,7.49,5.64,27.2,27.2,0,0,1,5.06,8.07,25,25,0,0,1,0,18.88Zm-458-53.35H151.94a3.78,3.78,0,0,0-3.79,3.78v85.4a3.8,3.8,0,0,0,3.79,3.8h16.24a3.79,3.79,0,0,0,3.78-3.8v-85.4A3.78,3.78,0,0,0,168.19,256.16Zm66.5,6.44a3.8,3.8,0,0,0-2.86-6.27H213.61a3.75,3.75,0,0,0-2.86,1.33l-36.65,42.61a3.77,3.77,0,0,0,0,5l36.65,42.6a3.75,3.75,0,0,0,2.86,1.32h18.22a3.8,3.8,0,0,0,2.86-6.28l-32.55-37.65a3.79,3.79,0,0,1,0-5Zm35.41-6.45h-.2a3.76,3.76,0,0,0-2.86,1.32l-.76.89-15.11,17.51a3.75,3.75,0,0,0-.92,2.48v67a3.78,3.78,0,0,0,3.77,3.79H270.1a3.79,3.79,0,0,0,3.77-3.79V259.94A3.79,3.79,0,0,0,270.1,256.15Zm193.16,43.5a29,29,0,0,0-9.35-5.69,32,32,0,0,0-11.42-2H417.9a5.59,5.59,0,0,1-4.16-1.78,5.94,5.94,0,0,1-1.73-4.3,5.92,5.92,0,0,1,5.89-5.9H462a3.78,3.78,0,0,0,3.77-3.78V260.12a3.78,3.78,0,0,0-3.77-3.79H417.89a29,29,0,0,0-11.52,2.3,29.19,29.19,0,0,0-15.61,15.66,30.15,30.15,0,0,0,0,23.1,29.73,29.73,0,0,0,15.61,15.8,28.48,28.48,0,0,0,11.52,2.34h25.38a5.06,5.06,0,0,1,5.07,4.53,5,5,0,0,1-5,5.45H392.22a3.77,3.77,0,0,0-3.76,3.78v16a3.77,3.77,0,0,0,3.76,3.78h50.24a29.18,29.18,0,0,0,20.77-8.63,30.68,30.68,0,0,0,6.32-9.38,28.63,28.63,0,0,0,2.34-11.5,26.58,26.58,0,0,0-2.34-11.19A27.3,27.3,0,0,0,463.26,299.66Z" style="fill: #fff"/>
    </g>
  </g>
</svg>
