<?xml version="1.0" encoding="UTF-8"?>
<svg id="Layer_1"
    xmlns="http://www.w3.org/2000/svg" viewBox="0 0 200 200">
    <defs>
        <style>.cls-1{fill:#fff;}.cls-2{fill:#3dcca8;}</style>
    </defs>
    <path id="Path_4548" class="cls-2" d="M100,0C155.23,0,200,44.77,200,100s-44.77,100-100,100S0,155.23,0,100C0,44.77,44.77,0,100,0h0Z"/>
    <g>
        <path id="Path_4549" class="cls-1" d="M71.53,54.94v44.55c.01,.84-.59,1.57-1.42,1.71-5.69,1.14-27.04,3.99-27.04-14.23v-31.74c0-7.86,6.37-14.23,14.23-14.23s14.23,6.37,14.23,14.23"/>
        <path id="Path_4550" class="cls-1" d="M114.23,83.41v44.7c-.06,.79-.64,1.44-1.42,1.57-5.69,1.13-27.04,3.98-27.04-14.24v-31.74c0-7.86,6.37-14.23,14.23-14.23s14.23,6.37,14.23,14.23"/>
        <path id="Path_4551" class="cls-1" d="M156.94,111.88v44.7c-.06,.79-.64,1.44-1.42,1.57-5.69,1.13-27.04,3.98-27.04-14.24v-31.74c0-7.86,6.37-14.23,14.23-14.23s14.23,6.37,14.23,14.23"/>
    </g>
</svg>