<svg xmlns="http://www.w3.org/2000/svg" xml:space="preserve" viewBox="0 0 68.8 68.8">
  <path d="m35.1 16.9 23.2 11.4 5.7-2.8L34.4 11 4.9 25.5l5.7 2.8 23.1-11.4c.5-.2 1-.2 1.4 0zM10.6 31.6l-5.7 2.8 5.7 2.8 5.7-2.8zm47.6 5.6 5.7-2.8-5.7-2.8-5.7 2.8z" class="st0"/>
  <path d="M33.7 25.9c.4-.2.9-.2 1.3 0l14.1 6.9 5.7-2.8-20.4-10L14 29.9l5.7 2.8 14-6.8z" class="st0"/>
  <path fill="#f6bdd6" d="M23.1 34.4 34.4 40l11.3-5.6-11.3-5.5z"/>
  <path fill="#e95495" d="M34.4 52.1c-.2 0-.5-.1-.7-.2L10.6 40.6l-5.7 2.8 29.5 14.5 29.5-14.5-5.7-2.8-23.1 11.3c-.2.1-.4.2-.7.2z"/>
  <path fill="#f195bd" d="M34.4 43.1c-.2 0-.5-.1-.7-.2l-14-6.9-5.7 2.9 20.4 10 20.4-10-5.7-2.8-14 6.9c-.2.1-.4.2-.7.1z"/>
  <path d="m18 35.3-1.7-.9-5.7 2.8 1.7.9 1.7.8 5.7-2.8z" class="st4"/>
  <path fill="#aba9a9" d="M35.1 25.9c-.4-.2-.9-.2-1.3 0l-14 6.9 1.7.8 1.7.8 11.3-5.5 11.3 5.5 1.7-.8 1.7-.8-14.1-6.9z"/>
  <path d="m52.5 34.4-1.7.9-1.7.8 5.7 2.8 1.7-.8 1.7-.9zm2.3-4.5 3.4-1.7-23.1-11.3c-.4-.2-.9-.2-1.3 0L10.6 28.3l3.4 1.6 20.4-10 20.4 10z" class="st4"/>
  <path fill="#fff" d="M68.8 34.4c0-.6-.3-1.1-.8-1.3l-6.4-3.2 6.4-3.1c.7-.4 1-1.3.7-2-.1-.3-.4-.5-.7-.7L35.1 8c-.4-.2-.9-.2-1.3 0L.8 24.1c-.7.4-1 1.3-.7 2 .1.3.4.5.7.7l6.4 3.1L.8 33c-.7.4-1.1 1.3-.7 2 .1.3.4.5.7.7l6.4 3.2L.8 42c-.7.4-1 1.3-.7 2 .1.3.4.5.7.7l32.9 16.1c.4.2.9.2 1.3 0l33-16.2c.7-.4 1-1.3.7-2-.1-.3-.4-.5-.7-.7l-6.4-3.1 6.4-3.1c.5-.2.9-.7.8-1.3zM4.9 25.5 34.4 11l29.5 14.5-5.7 2.8-3.4 1.6-5.7 2.8-1.7.8-1.7.9L34.4 40l-11.3-5.5-1.7-.8-1.7-.8-5.7-3-3.4-1.7-5.7-2.7zm0 17.9 5.7-2.8L33.7 52c.4.2.9.2 1.3 0l23.2-11.4 5.7 2.8-29.5 14.5L4.9 43.4zm53.3-6.2-1.7.8-1.7.9-20.4 10-20.4-10-1.7-.8-1.7-.8-5.7-2.8 5.7-2.8 5.7 2.8 1.7.8 1.7.8 14 6.9c.4.2.9.2 1.3 0l14.1-6.9 1.7-.8 1.7-.8 5.7-2.8 5.7 2.8-5.7 2.7z"/>
</svg>
