<svg xmlns="http://www.w3.org/2000/svg" fill="none" viewBox="0 0 127 37">
  <path fill="#F9F036" d="M110.1 4.7H60.7a1.9 1.9 0 0 0-1.9 1.8v24.3c0 1 .8 1.9 1.9 1.9H110a1.9 1.9 0 0 0 1.9-1.9V6.5c0-1-.8-1.8-1.9-1.8Z"/>
  <path fill="#18181B" d="M66.7 11v15h4.7c3.8 0 6.2-3.1 6.2-7.6 0-4.4-2.2-7.3-6.1-7.3h-4.8Zm4.5 13h-2V13h2c2.5 0 3.8 2.2 3.8 5.3 0 3.2-1.3 5.5-3.8 5.5Zm14.2 2.4c3.8 0 5.6-2.7 5.6-7.1v-1.5c0-4.4-1.8-7.1-5.6-7.1s-5.5 2.7-5.5 7v1.6c0 4.4 1.8 7 5.5 7Zm0-2.2c-2 0-2.9-1.5-2.9-4.9v-1.6c0-3.4 1-4.9 3-4.9s2.9 1.5 2.9 4.9v1.6c0 3.4-1 5-3 5ZM99 26.4c3.4 0 5.3-2.2 5.5-5.4l-2.5-.5c-.2 2.4-1.1 3.7-2.9 3.7-2 0-3-1.7-3-5v-1.5c0-3.3 1-4.9 3-4.9 1.7 0 2.7 1.3 2.9 3.7l2.6-.4c-.3-3.7-2.3-5.4-5.5-5.4-3.7 0-5.6 2.7-5.6 7v1.6c0 4.4 1.8 7 5.5 7Z"/>
  <path fill="#fff" d="M7.5 22.4 8.6 17l.6-3.4h.1a96.2 96.2 0 0 0 0 4.2V26h2.2V11H8.3l-1.4 6.8a34.3 34.3 0 0 0-.3 1.9h-.1a34.3 34.3 0 0 0-.3-1.9L4.8 11H1.5v15h2.3V13.7l.6 3.4 1.1 5.3h2Zm14.9-.2 1 3.8H26l-4.5-15h-3L14 26h2.6l1-3.8h4.8Zm-2.4-9 1.8 6.9h-3.6c.9-2.8 1.4-5 1.8-6.9Zm13.4 6.7 3 6.1h2.9L36 19.4a4 4 0 0 0 2.8-3.9c0-2.8-1.9-4.5-5.1-4.5h-5.1v15H31v-6.1h2.3ZM31.1 18v-5h2.3c1.8 0 2.7 1 2.7 2.5 0 1.6-1 2.5-2.7 2.5h-2.3Zm15.6.8 3.6 7.2h3l-4.7-9 4.2-6h-3L45 18v-7h-2.6v15H45v-5l1.7-2.2Z"/>
</svg>
