<svg xmlns="http://www.w3.org/2000/svg" width="127" height="37" fill="none">
	<path fill="#F9F036"
		d="M110.133 4.667H60.667A1.867 1.867 0 0 0 58.8 6.533V30.8c0 1.031.836 1.867 1.867 1.867h49.466A1.867 1.867 0 0 0 112 30.8V6.533c0-1.03-.836-1.866-1.867-1.866Z" />
	<path fill="#18181B"
		d="M66.673 11.05V26h4.738c3.79 0 6.211-3.116 6.211-7.58 0-4.38-2.232-7.37-6.17-7.37h-4.779Zm4.57 12.886h-1.98V13.114h2.021c2.464 0 3.685 2.19 3.685 5.306 0 3.18-1.305 5.516-3.727 5.516Zm14.194 2.422c3.748 0 5.58-2.674 5.58-7.075v-1.516c0-4.4-1.832-7.075-5.58-7.075s-5.58 2.674-5.58 7.075v1.516c0 4.4 1.832 7.075 5.58 7.075Zm0-2.127c-2.022 0-2.927-1.516-2.927-4.885v-1.642c0-3.369.905-4.885 2.927-4.885 2.02 0 2.926 1.516 2.926 4.885v1.642c0 3.37-.905 4.885-2.926 4.885Zm13.457 2.127c3.453 0 5.327-2.19 5.538-5.348l-2.569-.485c-.127 2.4-1.095 3.685-2.864 3.685-1.98 0-2.948-1.747-2.948-5.011v-1.495c0-3.285.927-4.864 2.948-4.864 1.748 0 2.737 1.306 2.864 3.664l2.59-.4c-.274-3.685-2.232-5.412-5.433-5.412-3.748 0-5.622 2.695-5.622 7.054v1.558c0 4.359 1.811 7.054 5.496 7.054Z" />
	<path fill="#fff"
		d="m7.538 22.357 1.074-5.306c.19-.863.463-2.421.568-3.369h.148a96.212 96.212 0 0 0-.105 4.232V26h2.316V11.05H8.275l-1.41 6.76a34.295 34.295 0 0 0-.274 1.894h-.127a34.286 34.286 0 0 0-.274-1.895L4.78 11.05H1.516V26h2.316v-8.085c0-1.18-.042-3.011-.105-4.233h.147c.127.948.38 2.506.569 3.37l1.074 5.305h2.021Zm14.826-.168L23.459 26h2.548L21.5 11.05h-2.99L14.005 26h2.547l1.074-3.811h4.738Zm-2.4-8.991h.084c.337 1.832.884 4.064 1.726 6.906h-3.558c.842-2.842 1.41-5.074 1.748-6.906Zm13.478 6.675L36.452 26h2.843l-3.326-6.57c1.81-.61 2.842-2.02 2.842-3.916 0-2.842-1.874-4.464-5.159-4.464h-5.095V26h2.59v-6.127h2.295Zm-2.295-1.853v-4.97h2.274c1.748 0 2.674.885 2.674 2.485 0 1.6-.926 2.485-2.674 2.485h-2.274Zm15.52.737L50.268 26h2.99l-4.674-9.033 4.232-5.917h-2.99l-4.822 7.033V11.05h-2.59V26h2.59v-4.927l1.663-2.316Z" />
</svg>
