<svg width="147" height="138" viewBox="0 0 147 138" fill="none" xmlns="http://www.w3.org/2000/svg">
<path fill-rule="evenodd" clip-rule="evenodd" d="M111.137 40.426L118.209 47.4971L104.066 61.6392L96.9953 54.5682L111.137 40.426ZM72.2464 1.53609C70.2938 -0.416529 67.128 -0.416528 65.1753 1.53609L1.53572 65.1757C-0.416895 67.1283 -0.416897 70.2941 1.53572 72.2468L12.1419 82.853L12.1418 82.8531L19.2129 89.9242L33.355 75.782L26.2843 68.7113L68.7102 26.2855L75.7803 33.3556L89.9224 19.2134L82.8523 12.1434L82.853 12.1427L72.2464 1.53609ZM100.53 29.8197C98.5773 27.8671 95.4115 27.8671 93.4589 29.8197L26.2837 96.9949L40.4259 111.137L111.137 40.4263L100.53 29.8197ZM146.492 75.782L139.421 68.711L125.279 82.8531L132.35 89.9242L146.492 75.782ZM54.568 125.278L54.5674 125.279L65.174 135.885C67.1266 137.838 70.2925 137.838 72.2451 135.885L139.42 68.71L128.814 58.1034C126.861 56.1508 123.695 56.1508 121.743 58.1034L68.7101 111.136L61.6404 104.066L47.4983 118.208L54.568 125.278Z" fill="white"/>
</svg>
