<svg xmlns="http://www.w3.org/2000/svg" viewBox="0 0 47 47">
	<g fill="none">
		<path fill="#C9FA4B" d="M10.74 26.73c0 .02-.02.04-.05.08l-5.37 2.28H5.3l-.04-.02-4.32-4.3c-.02-.01-.03-.05-.02-.07l.06-.04H1l9.69 2c.03 0 .05.03.05.07Zm.52-1.35c-.02 0-.02 0 0 0L.1 23.04c-.04 0-.06-.02-.06-.04s0-.04.02-.06l6.23-6.17c0-.02.02-.02.04-.02l.06.04c0 .02 5.34 7.75 5.4 7.83.02.02.02.06 0 .08a3 3 0 0 0-.47.64c-.02.02-.04.04-.06.04Zm2.32-15.72c-.02-.02-.04-.02-.02-.06 0-.02 0-.03.02-.05L22.97.2c0-.02.02-.02.04-.02l.04.02 4.04 4c.02.02.02.06 0 .08l-4.87 7.56c-.02.02-.04.04-.06.04h-.02a2.4 2.4 0 0 0-2.25.41l-.04.02h-.02c-.25-.12-6.25-2.66-6.25-2.66Zm-.57 14.3-5.6-8.19c-.02-.01-.02-.05 0-.07l5.03-5c0-.02.02-.02.04-.02h.02c0 .02 5.93 2.52 6.6 2.81.02.02.04.04.04.08a2.3 2.3 0 0 0 .6 2.13c.02.02.02.06 0 .07l-5.29 8.2c-.02.02-.04.04-.06.04h-.02c-.21-.06-.45-.1-.67-.1-.2 0-.41.04-.6.08h-.03c-.02 0-.04-.02-.06-.04Zm1.84 5.09 10.45 15.2c.02.01.02.05 0 .07L23 46.6c0 .02-.01.02-.03.02l-.04-.02L9.88 33.66a.06.06 0 0 1 0-.08l.02-.02 2.84-4.41c.02-.02.04-.04.06-.04h.01a2.69 2.69 0 0 0 1.96-.1h.02c.02 0 .04.02.06.04Zm-3.24-.76.02.04-2.7 4.2-.06.03-.04-.01-2.38-2.37c-.02-.02-.02-.04-.02-.06 0-.02.02-.03.04-.03l4.89-2.1h.02l.05.05.18.25Zm4.75-1.9c0-.15-.04-.29-.06-.44 0-.04 0-.06.04-.08l14.02-6h.02l.04.02c.1.1.18.16.26.22.04 0 .04.04.04.06l-1.22 7.51c0 .04-.02.06-.06.06-.67.04-1.27.43-1.6 1.02-.02.02-.04.04-.06.04h-.02l-11.34-2.35c-.04 0-.06-.02-.06-.05Zm12.45 5.18c.04.02.04.06 0 .06l-1.78 10.93-.02.04-.63.63-.04.01-.04-.01-10.4-15.08a.05.05 0 0 1 0-.08l.15-.25c.02-.02.04-.04.06-.04h.02l11.43 2.36c.04.02.06.04.06.06.16.6.6 1.14 1.19 1.37Zm8.61.62c.02 0 .04.02.04.08 0 .02 0 .04-.02.06l-8.56 8.5-.03.01h-.04c-.02-.02-.04-.04-.04-.08l1.48-9.1c0-.01.01-.05.03-.05.36-.14.66-.37.9-.67l.05-.01h.02l6.17 1.26Zm-7.65-14.17c.02.02.04.04.04.08-.02.1-.04.21-.04.33v.18l-.04.05-13.94 5.96h-.02c-.02 0-.04 0-.06-.02a.06.06 0 0 1 0-.08l5.23-8.1c.02-.02.04-.04.06-.04h.02c.14.02.25.04.37.04.8 0 1.52-.4 1.95-1.06l.06-.03h.02l6.35 2.69Zm15.38 6.52c.02.02.02.04.02.06 0 .02 0 .04-.02.06l-6.43 6.38c0 .02-.02.02-.04.02h-.02l-7.02-1.46c-.03 0-.05-.02-.05-.06a1.96 1.96 0 0 0-.75-1.37c-.02-.02-.02-.04-.02-.06l1.24-7.63c0-.04.04-.06.06-.06a1.98 1.98 0 0 0 1.34-.78c.02-.02.04-.02.06-.02h.02l11.61 4.92Zm1.2-1.17c.04.02.04.08 0 .08l-.04.04c0 .02-.02.02-.03.02h-.02l-12.11-5.14c-.02 0-.04-.04-.04-.06 0-.02.02-.04.04-.06l4.9-2.09h.03l.04.02 7.23 7.19ZM23.32 12.8c-.02-.02-.02-.06 0-.1l4.76-7.38c0-.02.02-.04.04-.04l.04.02 4.21 4.2c.02.02.02.04.02.06l-1.1 6.85c0 .04-.02.06-.04.06-.26.08-.5.2-.69.35 0 .02-.02.02-.04.02h-.02l-6.74-2.87c-.02-.02-.04-.04-.04-.06a2.52 2.52 0 0 0-.4-1.11Zm9.4 3.8-.05-.05.93-5.69c0-.04.02-.06.04-.06h.02l.04.02 4.24 4.2.01.06-.03.06-4.54 1.93h-.02l-.04-.02a1.96 1.96 0 0 0-.6-.45Zm69.68-2.23h3.15v-2.81h-3.16v2.8Zm9.34-1.5c-.87.85-1.3 2.08-1.3 3.68v1.31h-2.15v2.39h2.15v11.94h3.15V20.25h2.86v-2.39h-2.86V16.6c0-1.58.75-2.36 2.27-2.36.45 0 .87.04 1.2.1l.08-2.52a7.32 7.32 0 0 0-1.77-.23 4.88 4.88 0 0 0-3.63 1.29Zm11.7 14.72-2.97-9.73h-3.4L122 32.12l-.45 1.23c-.24.7-.56 1.19-.97 1.48-.4.3-1 .45-1.8.45l-.59-.04v2.5c.56.16 1.07.23 1.52.23 2.05 0 3.51-1.2 4.38-3.6l5.6-16.5h-3.37l-2.88 9.72Zm-21.05 4.6h3.16V17.86h-3.16V32.2Zm-13.56-2.77c-.22-.23-.32-.64-.32-1.19v-8h2.48v-2.39h-2.48v-3.47h-3.15v3.47h-2.31v2.39h2.3v8.12c0 2.73 1.23 4.1 3.65 4.1.67 0 1.36-.1 2.1-.31v-2.5c-.38.1-.76.13-1.11.13-.57.02-.95-.1-1.16-.35Zm-10.26-5.74h-6.01a4.7 4.7 0 0 1 1.02-2.58 2.63 2.63 0 0 1 2.11-.91c.87 0 1.56.27 2.05.82a4 4 0 0 1 .85 2.44v.23h-.02ZM75.7 17.6c-1.2 0-2.28.31-3.27.94a6.27 6.27 0 0 0-2.29 2.63 8.87 8.87 0 0 0-.8 3.83v.39a7.1 7.1 0 0 0 1.87 5.14 6.45 6.45 0 0 0 4.87 1.93c1.16 0 2.23-.24 3.17-.7a5.53 5.53 0 0 0 2.25-2l-1.7-1.66a4.26 4.26 0 0 1-3.52 1.8c-1.03 0-1.9-.35-2.57-1.03a4.29 4.29 0 0 1-1.16-2.82h9.19v-1.28c0-2.29-.53-4.05-1.56-5.3a5.6 5.6 0 0 0-4.48-1.87Zm-13.62 0c-1.7 0-3.06.64-4.1 1.91l-.1-1.66H54.9v14.33h3.16v-10.2a3.05 3.05 0 0 1 2.84-1.75c.86 0 1.5.21 1.89.66.4.43.57 1.11.57 2.01v9.27h3.16v-9.46c-.04-3.4-1.52-5.12-4.46-5.12Zm32.28 14.6h3.15V11.85h-3.15v20.34Z"/>
	</g>
</svg>
