<svg xmlns="http://www.w3.org/2000/svg" fill="none" viewBox="0 0 128 113"><g clip-path="url(#a)"><path fill="#32E6E2" d="M34.6 94h-1.2l-6-6v-1.2l9.2-9.2H43l.8.8v6.4l-9.2 9.3Zm-7.2-68.2v-1.2l6-6h1.2l9.2 9.2v6.4l-.8.8h-6.4l-9.2-9.2Z"/><path fill="#fff" d="M80.5 74.6h-8.8l-.8-.7V53.3c0-3.6-1.4-6.5-5.8-6.6l-7.6.1-.4.5v26.6l-.8.7h-8.8l-.7-.7V38.8l.7-.8h19.8a14 14 0 0 1 13.9 14v21.9l-.7.7Z"/><path fill="#32E6E2" d="M35.8 61.5H.8l-.8-.8V52l.7-.7h35.1l.8.7v8.8l-.8.7Zm91.5 0H92.2l-.8-.8V52l.8-.7h35l.8.7v8.8l-.7.7ZM58.9 27V.7l.8-.7h8.8l.7.7v26.4l-.7.7h-8.8l-.8-.7Zm0 84.8V85.6l.8-.8h8.8l.7.8v26.3l-.7.7h-8.8l-.8-.7Z"/></g><defs><clipPath id="a"><path fill="#fff" d="M0 0h128v112.6H0z"/></clipPath></defs></svg>