<svg xmlns="http://www.w3.org/2000/svg" aria-hidden="true" class="iconify iconify--logos" viewBox="0 0 256 289">
  <path fill="#539E43" d="M128 289c-4 0-8-2-11-3l-35-21c-6-3-3-4-1-5l16-7h2l27 16h3l106-61c1 0 2-1 2-3V83l-2-3-106-61h-3L20 80l-1 3v122l1 3 29 17c16 8 26-1 26-11V94c0-2 1-3 3-3h13c2 0 4 1 4 3v120c0 21-12 33-32 33-6 0-11 0-24-6l-28-16a22 22 0 0 1-11-19V83c0-8 4-15 11-19L117 3a24 24 0 0 1 22 0l106 61c7 4 11 11 11 19v123c0 8-4 15-11 19l-106 61a27 27 0 0 1-11 2Zm33-84c-47 0-56-22-56-40 0-1 1-3 3-3h14c1 0 3 1 3 3 2 14 8 21 36 21 22 0 32-5 32-17 0-7-3-12-38-16-29-3-47-9-47-32 0-22 18-34 49-34 34 0 50 11 52 37v2l-3 1h-13c-2 0-3-1-3-2-3-15-12-19-33-19-25 0-28 8-28 14 0 8 4 10 37 15 32 4 48 10 48 33-1 23-20 36-53 36Z"/>
</svg>
