<svg xmlns="http://www.w3.org/2000/svg" fill="none" viewBox="0 0 96 96"><path fill="#3be081" d="M32.305 52.438v10.938c8.346-.01 16.347-3.228 22.249-8.948 5.901-5.721 9.22-13.477 9.231-21.567H52.501c-.007 5.19-2.137 10.166-5.923 13.836s-8.92 5.734-14.273 5.74Z"/><path fill="#0037ff" d="M32.302 82.568c-5.316 0-10.414-2.047-14.173-5.69-3.758-3.644-5.87-8.585-5.87-13.738 0-5.153 2.112-10.094 5.87-13.738 3.759-3.643 8.857-5.69 14.173-5.69V32.854a32.12 32.12 0 0 0-11.965 2.29 31.343 31.343 0 0 0-10.15 6.554 30.257 30.257 0 0 0-6.79 9.82A29.497 29.497 0 0 0 1 63.108a29.494 29.494 0 0 0 2.362 11.599 30.253 30.253 0 0 0 6.761 9.839 31.337 31.337 0 0 0 10.131 6.581 32.114 32.114 0 0 0 11.958 2.323h.09V82.568Z"/><path fill="#0CF" d="M32.305 82.568v10.858c8.29 0 16.24-3.193 22.102-8.875 5.862-5.681 9.155-13.388 9.155-21.424H52.348c-.004 5.153-2.116 10.094-5.874 13.739-3.757 3.644-8.853 5.695-14.17 5.702Z"/><path fill="#861dff" d="M32.305 21.99v10.857c8.29 0 16.24-3.192 22.102-8.874 5.862-5.682 9.155-13.388 9.155-21.424H52.348c-.004 5.153-2.116 10.094-5.874 13.739-3.757 3.644-8.853 5.695-14.17 5.702Z"/><path fill="#ff8110" d="M63.743 21.99v10.857c8.29 0 16.24-3.192 22.102-8.874C91.707 18.291 95 10.585 95 2.55H83.792c-.003 5.154-2.117 10.096-5.876 13.74-3.758 3.646-8.856 5.696-14.173 5.7Z"/></svg>