<svg xmlns="http://www.w3.org/2000/svg" viewBox="0 0 1518 1590">
  <circle cx="133.9" cy="339.9" r="70.5" fill="#ff37ad"/>
  <circle cx="1213.1" cy="280.1" r="70.5" fill="#ff37ad"/>
  <circle cx="1270.3" cy="1185.5" r="70.5" fill="#fcc954"/>
  <circle cx="421.7" cy="70.5" r="70.5" fill="#fcc954"/>
  <path fill="#2890e9" d="M839 630a55 55 0 0 1-54-68l6-27a151 151 0 0 1-52 12c-32 1-61-4-85-16a132 132 0 0 1-58-53c-26-46-24-105 6-153 28-45 76-69 128-65 41 3 76 18 104 44l15-47c28-101 38-203 38-204a55 55 0 0 1 109 10c0 5-10 113-42 225-16 56-34 103-56 141l4 26c5 43 1 89-10 134a55 55 0 0 1-53 41ZM719 370c-6 0-16 1-24 14-8 12-9 29-3 39 7 13 30 14 42 14 15-1 30-10 44-26a97 97 0 0 0-8-15 61 61 0 0 0-48-26h-3Z"/>
  <path fill="#f0a420" d="M680 781C452 601 214 523 148 607a76 76 0 0 0-14 27 23 23 0 0 0-1 3v1a100 100 0 0 0-1 11L2 1405a158 158 0 0 0 214 173l701-279c12-5 43-23 51-34a72 72 0 0 0 6-7c66-83-65-297-294-477Z"/>
  <ellipse cx="560.8" cy="932.7" fill="#fcc954" rx="193.2" ry="526" transform="rotate(-52 561 933)"/>
  <ellipse cx="569.3" cy="922" fill="#f0a420" rx="158.5" ry="464.5" transform="rotate(-52 569 922)"/>
  <path fill="#2e6ac9" d="M453 1484c-86 1-155-42-239-108-98-78-163-170-169-223l-27 163c12 46 56 105 120 155 53 42 106 70 161 74Zm-86-295C204 1060 98 913 101 828L74 987c2 75 90 197 216 296 112 89 229 151 319 139l152-61c-123 9-252-60-394-172Z"/>
  <circle cx="705.3" cy="792.6" r="70.5" fill="#2890e9"/>
  <path fill="none" stroke="#ff37ad" stroke-linecap="round" stroke-miterlimit="10" stroke-width="120" d="M1036 683s151-177 421-114"/>
  <path fill="#ff37ad" d="M435 257a70 70 0 1 0-119 75c3 4 55 88 65 204 11 117-23 225-102 322 26 34 58 69 95 104a561 561 0 0 0 146-446 642 642 0 0 0-85-259Z"/>
  <path fill="#2890e9" d="M1310 932c36 9 61 19 72 24a70 70 0 1 0 60-127 744 744 0 0 0-650 37 952 952 0 0 0-265 222 1181 1181 0 0 0 120 75 672 672 0 0 1 468-250 630 630 0 0 1 195 19Z"/>
</svg>
