<svg xmlns="http://www.w3.org/2000/svg" xml:space="preserve" fill-rule="evenodd" stroke-linejoin="round" stroke-miterlimit="1.4" clip-rule="evenodd" viewBox="0 0 579 626">
	<path fill="url(#a)" fill-rule="nonzero" d="m210.4 607.2-1.5-6.6a29 29 0 0 0-9.5-13.8 56.8 56.8 0 0 0-22.4-10.1c-4.6-1-9.4-1.6-14.2-1.7-34.6-.7-56.2.4-90.4-.9a105.3 105.3 0 0 0 16 10.9 116.2 116.2 0 0 0 25.7 10.6c5.6.6 10.7 1.2 14.7 3 1 .5 2 1 2.8 1.7a47 47 0 0 1 8.2 9c4.5 6 3.5 10.9 8.8 13.8l2 1c1.6.5 4 1.4 5.2-1l.3-1.3c-.4-1.4-2-2.6-2.9-3.3a17 17 0 0 1-3.4-2.9c-2.2-2.2-2.4-6-3.9-8.7 2-.8 12.1-2.2 14.3-1.9 4.6.2 8.2.6 11 3.4 1 .9 1.6 1.6 2.6 2.3l.2.2c4.3 3.1 8.3 4.3 11.9 5.4l2.7.8c1.3.5 2.5 1 3.7 1.8 1.4 1 3.8 3.4 3.9 5.5-3.5-1.2-1.2.3-6.4-.1l-7.7-.7a103 103 0 0 1-15-2v.5c-.2 4 2.6 6-3.7 13.4l-.2.3a45 45 0 0 1-13.2 6.4c-11.6 2.3-20.5-5.2-34.5-1.4-5 1.8-8.6 9.8-10.8 15.8-3 8-5.4 17.6-8.2 27a115.4 115.4 0 0 0 46.8-17.8 15.2 15.2 0 0 1 3.8-3.7c.3-.2 1-.3 2.2-.5 10.8-2 58.5-8.4 61.6-43 .3-3.5.1-7.3-.5-11.4Zm-107 18.6c-6.4-2-8-2.2-12-5.4 0 .4.1.7.3 1.1 10.7 6 22.6 10.5 35.1 12.8-3.9-9-8.5-7.4-23.4-8.5Zm29.5-4c-2.7-6.8-10.3-10.7-16.8-12.6-8.7-3-15 0-33.4-8.8l.4.7a115 115 0 0 0 34 17c4.2.4 8.2 1.1 11.9 3a21 21 0 0 1 4.7 3l-.8-2.4Z" transform="translate(-301.3 -2392.2) scale(4.16667)"/>
	<path fill="#90d4d1" d="M174.3 89.5c-4-1-8-2.3-12-3.5A484 484 0 0 1 .7.3C9.6 27.8 49 56.8 76 68.3c34.2 14.5 68.2 17.9 98.3 21.2Zm-82.8 52.7c-16.1-9-31.6-19-46.5-29.7 41.7 66 94 65 141.7 70.5a483.8 483.8 0 0 1-95.2-40.8ZM227.1 251a481.3 481.3 0 0 1-146.4-53.6c5.7 16.6 26.4 42.7 54 48.6 11.8 4.2 8.6 3.2 29 2.5 29.7-1.5 44-2.4 65 6.2l-1.6-3.8Zm68.6 130.8-1 1.4A488.8 488.8 0 0 1 83.9 509.8a837.3 837.3 0 0 0 17-53.5 480.7 480.7 0 0 0 194.8-74.5Z"/>
	<path fill="#14a0c4" d="M294.7 383.2c-25.2 34.5-38 100.5-52.7 138.6-21.5 55.6-51.3 95.6-116.5 101.3-16.4 1.5-115 5.2-125.5-.1.7-5.6 17-12.4 21.3-15.6C50 587.2 69 551 84 509.8a488.8 488.8 0 0 0 210.8-126.6Z"/>
	<defs>
		<linearGradient id="a" x1="0" x2="1" y1="0" y2="0" gradientTransform="translate(72.4 628.9) scale(138.584)" gradientUnits="userSpaceOnUse">
			<stop offset="0%" stop-color="#54c4c6"/>
			<stop offset="100%" stop-color="#12bad5"/>
		</linearGradient>
	</defs>
</svg>
