<svg xmlns="http://www.w3.org/2000/svg" viewBox="0 0 256 296">
  <path fill="#673AB8" d="m128 0 128 74v148l-128 74L0 222V74z"/>
  <path fill="#FFF" d="M35 220c17 22 71 6 122-34s80-89 63-110c-17-22-71-6-122 34s-80 89-63 110Zm7-5c-6-7-3-22 8-39 11-19 30-40 54-58 23-19 48-32 69-39 20-6 34-5 40 2 6 8 3 22-8 40s-30 39-54 58c-23 18-48 32-69 38-20 6-34 5-40-2Z"/>
  <path fill="#FFF" d="M220 220c17-21-12-70-63-110S52 54 35 76c-17 21 12 70 63 110s105 56 122 34Zm-7-5c-6 7-20 8-40 2-21-6-46-20-69-38-24-19-43-40-54-58s-14-32-8-40c6-7 20-8 40-2 21 7 46 20 69 39 24 18 43 39 54 58 11 17 14 32 8 39Z"/>
  <path fill="#FFF" d="M128 168a20 20 0 1 0 0-40 20 20 0 0 0 0 40Z"/>
</svg>
