<svg xmlns="http://www.w3.org/2000/svg" xml:space="preserve" viewBox="0 0 36 36">
  <path fill="#fff" fill-rule="evenodd" d="M35.5 18.7 32.8 16c-.2-.2-.3-.5-.3-.8V12c0-3-.3-4.1-.9-5.2-.6-1.1-1.5-2-2.5-2.6-1.1-.6-2.2-.9-5.2-.9h-4.3c-.1 0-.2-.1-.2-.2s0-.1.1-.2L22.2.2c.1-.1.4-.2.7-.2h1.5c4 0 5.5.4 6.9 1.2 1.4.8 2.6 2 3.4 3.4.8 1.5 1.2 2.9 1.2 6.9v7c0 .1-.1.2-.2.3 0 .1-.1 0-.2-.1zM17.2 35.6l2.7-2.7c.2-.2.5-.3.8-.3h3.2c3 0 4.1-.3 5.2-.9 1.1-.6 2-1.5 2.5-2.5.6-1.1.9-2.2.9-5.2v-4.3c0-.1.1-.2.2-.2s.1 0 .2.1l2.7 2.7c.2.2.3.5.3.8v1.5c0 4-.4 5.5-1.2 6.9-.8 1.4-2 2.6-3.4 3.4-1.5.8-2.9 1.2-6.9 1.2h-7c-.1 0-.2-.1-.2-.2-.1-.2 0-.2 0-.3zM.4 17.3 3 19.9c.2.2.3.5.3.8V24c0 3 .3 4.1.9 5.2.6 1.1 1.5 2 2.5 2.5 1.1.6 2.2.9 5.2.9h4.3c.1 0 .2.1.2.2s0 .1-.1.2l-2.7 2.7c0 .2-.3.3-.6.3h-1.5c-4 0-5.4-.4-6.9-1.2-1.4-.8-2.6-2-3.4-3.4C.4 29.9 0 28.5 0 24.5v-7c0-.1.1-.2.2-.2.1-.1.1-.1.2 0zM16 3c-.2.2-.5.3-.8.3H12c-3 0-4.1.3-5.2.9-1.1.6-2 1.5-2.5 2.6-.6 1.1-.9 2.2-.9 5.2v4.3c0 .1-.1.2-.2.2s-.1 0-.2-.1L.3 13.7c-.2-.1-.3-.4-.3-.7v-1.5C0 7.5.4 6 1.2 4.6 2 3.2 3.2 2 4.6 1.2 6.1.4 7.5 0 11.5 0h7c.1 0 .2.1.2.2s0 .1-.1.2L16 3zm13.9 10.1-3.6-3.5c-.4-.4-1-.7-1.6-.7H14c-.1 0-.2-.1-.2-.2s0-.1.1-.2l2.7-2.7c.2-.2.5-.3.8-.3h8.5c2.5 0 4.5 2 4.5 4.5v3c0 .1-.1.2-.2.2-.2 0-.2 0-.3-.1zM22.8 30l3.5-3.6c.4-.4.7-1 .7-1.6V14c0-.1.1-.2.2-.3.1 0 .2 0 .2.1l2.6 2.7c.2.2.3.5.3.8v8.5c0 2.5-2 4.5-4.5 4.5H23c-.1 0-.2-.1-.2-.2-.1 0 0-.1 0-.1zM6 22.9l3.6 3.5c.4.4 1 .7 1.6.7h10.7c.1 0 .2.1.2.2s0 .1-.1.2L19.4 30c-.2.2-.5.3-.8.3h-8.5c-2.5 0-4.5-2-4.5-4.5V23c0-.1.1-.2.2-.2s.1 0 .2.1zM13.1 6 9.6 9.6c-.4.4-.7 1-.7 1.6V22c0 .1-.1.2-.2.2s-.1 0-.2-.1l-2.7-2.7c-.2-.2-.3-.5-.3-.8v-8.5c0-2.5 2-4.5 4.5-4.5h2.8c.1 0 .2.1.2.2.2.1.2.2.1.2z" clip-rule="evenodd"/>
</svg>
