<svg xmlns="http://www.w3.org/2000/svg" width="32" height="32" style="shape-rendering:geometricPrecision;text-rendering:geometricPrecision;image-rendering:optimizeQuality;fill-rule:evenodd;clip-rule:evenodd"><path fill="black" d="M-.5-.5h32v32h-32v-32Z" style="opacity:1"/><path fill="#e5f4ea" d="M5.5 2.5c3-.2 6 0 9 .5 3 4.1 2 7-3 8.5l2 3c-2.5 1.3-4.2.5-5-2.5a5 5 0 0 0-3-.5c.4 2.2-.3 3.8-2 5-1-5-.4-9.6 2-14Z" style="opacity:1"/><path fill="#2ea956" d="M6.5 4.5h7c.2 1.6-.1 3.1-1 4.5-2 .5-4 .7-6 .5v-5Z" style="opacity:1"/><path fill="#e3f4e9" d="M17.5 14.5c3-.2 6 0 9 .5 2.5 2.6 2.5 5.3 0 8a17.6 17.6 0 0 1-9 1.5c-.5 4.5-1.5 4.8-3 1 .3-4 1.3-7.6 3-11Z" style="opacity:1"/><path fill="#24a651" d="M23.5 21.5h-5v-3c1.8-1.8 4.1-2.5 7-2 .4 2.2-.3 3.9-2 5Z" style="opacity:1"/><path fill="#73c791" d="M18.5 18.5v3h5a9.6 9.6 0 0 1-6 1c-.3-1.6 0-3 1-4Z" style="opacity:1"/></svg>