<svg xmlns="http://www.w3.org/2000/svg" viewBox="0 0 128 128">
  <circle cx="64" cy="64" r="64" fill="#F03E2F"/>
  <path fill="#fff" d="M39.42 33.16c0 11 6.92 17.55 20.76 21l14.66 3.34c13.1 2.95 21.08 10.3 21.08 22.26.1 5.2-1.62 10.3-4.89 14.4 0-11.93-6.28-18.38-21.44-22.25l-14.4-3.22c-11.53-2.59-20.43-8.62-20.43-21.61a22.35 22.35 0 0 1 4.66-13.92"/>
  <path fill="#F9B1AB" d="M82.02 76.83c6.26 3.93 9 9.43 9 17.32-5.18 6.52-14.27 10.17-24.97 10.17-18 0-30.59-8.7-33.39-23.82h17.29c2.22 6.94 8.11 10.16 15.98 10.16 9.6 0 15.98-5.03 16.1-13.86M48.4 49.47a18.23 18.23 0 0 1-6.77-6.94 17.82 17.82 0 0 1-2.2-9.37c4.99-6.46 13.68-10.4 24.27-10.4 18.34 0 28.94 9.5 31.56 22.9H78.64c-1.84-5.28-6.43-9.39-14.8-9.39-8.94 0-15.04 5.11-15.4 13.2"/>
</svg>