<svg xmlns="http://www.w3.org/2000/svg" fill="#fff" viewBox="0 0 105 22">
  <path d="M78.18 8v13H73.9V10.21L78.18 8ZM20.95 21.33l10-5.22-1.24-3.2-6.58 3.07-2.18 5.35Z" opacity=".7"/>
  <path d="m73.9 10.2 10.84-5.55-1.83-3.1-9 4.41v4.24Z" opacity=".5"/>
  <path d="M43.37 6.96V21H39.3V1l4.08 5.96Z" opacity=".7"/>
  <path d="m27.13 6.19-6.18 15.14-3.18-2.74 7.37-17.58 1.99 5.18Z" opacity=".5"/>
  <path d="M25.14 1h4.2l7.8 20h-4.31l-7.7-20ZM44 1l8.98 13.67V21L39.3 1H44Zm20.92 0h-4.25v20h4.25V1Zm8.98 3.65h-6.53V1.01h15.22l2.15 3.64H73.9Z"/>
  <path d="M97.28 13.42V21h-4.22v-7.58" opacity=".5"/>
  <path d="M93.06 13.42 100.2 1h4.48l-7.4 12.4h-4.2Z"/>
  <path d="M93.06 13.42 85.74 1h4.6l4.97 8.5-2.25 3.9Z" opacity=".7"/>
  <path d="M1.96 3.31c0 2.79 1.75 4.45 5.26 5.32l3.7.85c3.32.74 5.34 2.6 5.34 5.63a5.69 5.69 0 0 1-1.23 3.65c0-3.02-1.6-4.66-5.43-5.64l-3.65-.81C3.03 11.65.78 10.13.78 6.84a5.73 5.73 0 0 1 1.18-3.53"/>
  <path d="M52.98 13.64V1.01h4.08v20h-4.08v-7.37Zm-40.23.73c1.58 1 2.27 2.39 2.27 4.38-1.3 1.65-3.61 2.58-6.32 2.58-4.55 0-7.74-2.2-8.45-6.03h4.38c.56 1.76 2.05 2.57 4.04 2.57 2.43 0 4.05-1.27 4.08-3.5M4.24 7.44a4.61 4.61 0 0 1-2.28-4.13C3.23 1.68 5.43.68 8.11.68c4.64 0 7.32 2.4 7.99 5.8h-4.21c-.47-1.34-1.63-2.38-3.75-2.38-2.26 0-3.8 1.3-3.9 3.34" opacity=".7"/>
</svg>
