<svg width="64" height="64" viewBox="0 0 64 64" fill="none" xmlns="http://www.w3.org/2000/svg">
<rect width="64" height="64" rx="16" fill="#FDFDFE"/>
<path d="M36.0773 28.1338C30.7061 26.4248 25.8395 25.5784 25.8395 22.1604C25.8395 18.2378 29.8435 17.1311 33.2615 17.2938C36.6795 17.3752 40.5207 19.0842 42.2134 22.3232L48.4472 17.1148C45.6314 12.2482 38.8931 9.43237 31.8129 9.43237C22.7633 9.51375 15.6017 13.9572 15.6017 22.2255C15.6017 31.0147 23.1051 33.6515 29.5831 35.7836C34.7101 37.4113 39.3 38.518 39.3 41.9198C39.3 45.3215 36.061 46.8678 31.1944 46.705C26.751 46.4446 22.2425 44.231 20.6148 40.5689L14.2183 46.1191C17.2945 51.1484 24.1956 54.5665 32.3826 54.5665C41.9367 54.6478 49.7819 50.4648 49.7819 41.9361C49.7819 32.9841 42.5227 30.2497 36.0447 28.1175L36.0773 28.1338Z" fill="#12131A"/>
</svg>
