<?xml version="1.0" encoding="UTF-8"?>
<svg xmlns="http://www.w3.org/2000/svg" width="1600" height="1600">
  <path fill="#151827" d="M374 0h836a385 385 0 0 1 340 193l1 2a362 362 0 0 1 49 196v819c1 89-26 174-82 244l-2 3a343 343 0 0 1-47 49l-3 2q-27 24-59 42l-2 1a362 362 0 0 1-196 49H390c-89 1-174-26-244-82l-3-2a343 343 0 0 1-49-47l-2-3q-24-27-42-59l-1-2a362 362 0 0 1-49-196V390A385 385 0 0 1 131 94l3-2q27-24 59-42l2-1C249 18 312 0 374 0"/>
  <path fill="#fefefe" d="M794 404h3q25 0 50 3h3q76 12 136 58l3 2 3 3 2 1 2 2v2l2 1 5 4 2 2 2 1 2 2 14 17 2 3c30 37 49 86 51 134q-3 2-6 1H889v-2l-2-7v-3q-4-25-21-44v-2h-2v-2h-2v-2l-2-1-7-4c-24-17-56-18-85-13q-28 5-46 28-10 17-6 38 3 11 11 21l2 4h2v2l2 1 8 5c33 23 76 33 114 45 80 24 166 53 209 130q14 26 18 57v2c8 56-4 117-37 162l-15 18-4 4-1 2h-2v2l-3 3-2 2-3 2-3 3c-57 49-136 65-209 65h-3q-82 1-154-33l-2-1q-25-12-46-29l-9-8-2-1v-2l-2-1-5-4-2-2-2-2-2-2-15-17-1-2c-31-39-50-89-50-139h185l4 20q11 37 44 55c31 16 71 19 104 8q30-8 44-36 9-20 2-42-4-10-11-18v-2h-2v-2h-2v-2l-2-1-6-5c-34-27-83-38-124-51q-47-14-90-34l-3-2q-31-13-57-34l-3-2a178 178 0 0 1-66-136q-3-73 40-132l2-3 5-6h2l1-2 8-9 2-2 20-17 2-1c54-40 121-53 187-53"/>
</svg>
