<?xml version="1.0" encoding="UTF-8"?>
<svg version="1.1" xmlns="http://www.w3.org/2000/svg" width="1600" height="1600">
<path d="M0 0 C1.51226884 -0.00165346 3.02453726 -0.00374147 4.53680497 -0.0062201 C8.67527175 -0.0117473 12.81371769 -0.01112164 16.95218696 -0.00944251 C21.46137933 -0.00870785 25.97056599 -0.01374269 30.47975588 -0.01801753 C39.41567174 -0.02557822 48.35158163 -0.02778961 57.28750036 -0.02834659 C67.9945908 -0.02926215 78.70167575 -0.03593545 89.40876383 -0.04269341 C115.28600157 -0.05873678 141.16323871 -0.06465501 167.04048054 -0.06944216 C179.28922065 -0.07177999 191.53796029 -0.07538287 203.78670004 -0.07913754 C245.73883686 -0.09197219 287.69097343 -0.10269096 329.64311218 -0.10614014 C332.27558578 -0.10636177 334.90805938 -0.10658355 337.54053298 -0.10680549 C340.17926576 -0.10702613 342.81799854 -0.10724661 345.45673132 -0.10746694 C350.75023492 -0.10790948 356.04373852 -0.1083566 361.33724213 -0.10880661 C362.64971869 -0.108916 363.96219525 -0.10902539 365.31444383 -0.1091381 C407.85196618 -0.11276708 450.38947146 -0.12868156 492.92698727 -0.15199697 C537.92975733 -0.17661839 582.93251764 -0.19031407 627.93529463 -0.19150805 C632.87996133 -0.1916795 637.82462804 -0.19189493 642.76929474 -0.19214249 C643.98675684 -0.19219826 645.20421894 -0.19225402 646.45857384 -0.19231148 C666.01303945 -0.19345998 685.5674875 -0.20446487 705.1219472 -0.21902954 C724.79507209 -0.23342866 744.46817458 -0.2366123 764.1413033 -0.22858956 C775.81300123 -0.22414924 787.48462658 -0.22792964 799.1563149 -0.24382807 C806.97289372 -0.25363659 814.78942216 -0.2523443 822.60600062 -0.24239184 C827.04649972 -0.23704177 831.48686031 -0.23615176 835.92734748 -0.24890056 C924.46882819 -0.48668354 1010.10018191 26.5144729 1079.69124603 82.13142776 C1081.12017181 83.27031448 1081.12017181 83.27031448 1082.57796478 84.43220901 C1087.9443853 88.76576199 1093.14176352 93.24943113 1098.23812103 97.89705276 C1099.8414561 99.35741528 1101.45568344 100.80593136 1103.08187103 102.24080276 C1112.89978638 110.9185731 1122.22675407 120.12467667 1130.69124603 130.13142776 C1131.97515228 131.58162308 1131.97515228 131.58162308 1133.28499603 133.06111526 C1149.52799581 151.48715236 1163.40972231 171.8881195 1175.69124603 193.13142776 C1176.10986908 193.84830765 1176.52849213 194.56518753 1176.95980072 195.30379105 C1208.02515711 248.81035559 1225.9062567 312.50543121 1225.8226738 374.44018173 C1225.82432726 375.95245057 1225.82641527 377.46471899 1225.8288939 378.97698671 C1225.8344211 383.11545349 1225.83379543 387.25389942 1225.83211631 391.3923687 C1225.83138165 395.90156106 1225.83641648 400.41074772 1225.84069133 404.91993761 C1225.84825202 413.85585348 1225.85046341 422.79176336 1225.85102038 431.72768209 C1225.85193595 442.43477254 1225.85860925 453.14185749 1225.86536721 463.84894556 C1225.88141058 489.7261833 1225.88732881 515.60342045 1225.89211596 541.48066227 C1225.89445379 553.72940238 1225.89805667 565.97814202 1225.90181133 578.22688177 C1225.91464599 620.1790186 1225.92536475 662.13115517 1225.92881393 704.08329391 C1225.92903556 706.71576751 1225.92925735 709.34824111 1225.92947929 711.98071471 C1225.92969992 714.61944749 1225.92992041 717.25818027 1225.93014073 719.89691305 C1225.93058328 725.19041665 1225.9310304 730.48392026 1225.93148041 735.77742386 C1225.9315898 737.08990042 1225.93169919 738.40237699 1225.9318119 739.75462557 C1225.93544087 782.29214791 1225.95135536 824.82965319 1225.97467077 867.367169 C1225.99929219 912.36993906 1226.01298787 957.37269937 1226.01418185 1002.37547636 C1226.0143533 1007.32014307 1226.01456872 1012.26480977 1226.01481628 1017.20947647 C1226.01487205 1018.42693857 1226.01492782 1019.64440068 1226.01498528 1020.89875557 C1226.01613377 1040.45322119 1226.02713867 1060.00766924 1226.04170334 1079.56212893 C1226.05610246 1099.23525383 1226.0592861 1118.90835631 1226.05126336 1138.58148503 C1226.04682304 1150.25318296 1226.05060343 1161.92480831 1226.06650187 1173.59649663 C1226.07631038 1181.41307546 1226.0750181 1189.22960389 1226.06506564 1197.04618235 C1226.05971557 1201.48668145 1226.05882556 1205.92704204 1226.07157436 1210.36752921 C1226.30935734 1298.90900992 1199.3082009 1384.54036364 1143.69124603 1454.13142776 C1142.93198822 1455.08404495 1142.17273041 1456.03666214 1141.39046478 1457.01814651 C1137.05575059 1462.38600502 1132.57097082 1467.58483191 1127.92171478 1472.68220901 C1126.47385708 1474.27206327 1125.03813961 1475.87309099 1123.61702728 1477.48689651 C1114.64449858 1487.65355104 1105.0879576 1497.41538762 1094.69124603 1506.13142776 C1093.79921478 1506.91259964 1092.90718353 1507.69377151 1091.98812103 1508.49861526 C1073.7527587 1524.38283116 1053.60652183 1538.03955145 1032.69124603 1550.13142776 C1031.97436615 1550.55005081 1031.25748627 1550.96867386 1030.51888275 1551.39998245 C977.0123182 1582.46533884 913.31724259 1600.34643843 851.38249207 1600.26285553 C849.87022322 1600.26450899 848.35795481 1600.266597 846.84568709 1600.26907563 C842.70722031 1600.27460283 838.56877438 1600.27397717 834.4303051 1600.27229804 C829.92111274 1600.27156338 825.41192608 1600.27659822 820.90273619 1600.28087306 C811.96682032 1600.28843375 803.03091044 1600.29064514 794.0949917 1600.29120212 C783.38790126 1600.29211768 772.68081631 1600.29879098 761.97372824 1600.30554894 C736.09649049 1600.32159231 710.21925335 1600.32751054 684.34201153 1600.33229769 C672.09327142 1600.33463552 659.84453177 1600.3382384 647.59579203 1600.34199307 C605.6436552 1600.35482772 563.69151863 1600.36554649 521.73937988 1600.36899567 C519.10690628 1600.3692173 516.47443269 1600.36943908 513.84195909 1600.36966102 C511.20322631 1600.36988166 508.56449353 1600.37010214 505.92576075 1600.37032247 C500.63225714 1600.37076501 495.33875354 1600.37121213 490.04524994 1600.37166214 C488.73277338 1600.37177153 487.42029681 1600.37188092 486.06804823 1600.37199363 C443.53052589 1600.37562261 400.99302061 1600.39153709 358.4555048 1600.4148525 C313.45273474 1600.43947392 268.44997443 1600.4531696 223.44719744 1600.45436358 C218.50253073 1600.45453503 213.55786403 1600.45475045 208.61319733 1600.45499802 C207.39573522 1600.45505379 206.17827312 1600.45510955 204.92391823 1600.45516701 C185.36945261 1600.45631551 165.81500456 1600.4673204 146.26054487 1600.48188507 C126.58741997 1600.49628419 106.91431749 1600.49946783 87.24118876 1600.49144509 C75.56949084 1600.48700477 63.89786549 1600.49078517 52.22617717 1600.5066836 C44.40959834 1600.51649212 36.5930699 1600.51519983 28.77649145 1600.50524737 C24.33599235 1600.4998973 19.89563175 1600.49900729 15.45514458 1600.51175609 C-73.08633612 1600.74953907 -158.71768984 1573.74838263 -228.30875397 1518.13142776 C-229.26137115 1517.37216995 -230.21398834 1516.61291214 -231.19547272 1515.83064651 C-236.56333123 1511.49593232 -241.76215811 1507.01115255 -246.85953522 1502.36189651 C-248.44938947 1500.91403881 -250.0504172 1499.47832134 -251.66422272 1498.05720901 C-261.83087724 1489.08468031 -271.59271382 1479.52813933 -280.30875397 1469.13142776 C-281.08992584 1468.23939651 -281.87109772 1467.34736526 -282.67594147 1466.42830276 C-298.56015736 1448.19294043 -312.21687766 1428.04670357 -324.30875397 1407.13142776 C-324.72737701 1406.41454788 -325.14600006 1405.697668 -325.57730865 1404.95906448 C-356.64266505 1351.45249994 -374.52376463 1287.75742432 -374.44018173 1225.8226738 C-374.4418352 1224.31040496 -374.4439232 1222.79813654 -374.44640183 1221.28586882 C-374.45192904 1217.14740204 -374.45130337 1213.00895611 -374.44962424 1208.87048683 C-374.44888958 1204.36129447 -374.45392442 1199.85210781 -374.45819926 1195.34291792 C-374.46575995 1186.40700205 -374.46797134 1177.47109217 -374.46852832 1168.53517344 C-374.46944388 1157.82808299 -374.47611718 1147.12099804 -374.48287514 1136.41390997 C-374.49891851 1110.53667223 -374.50483674 1084.65943508 -374.50962389 1058.78219326 C-374.51196172 1046.53345315 -374.5155646 1034.28471351 -374.51931927 1022.03597376 C-374.53215393 980.08383693 -374.54287269 938.13170036 -374.54632187 896.17956161 C-374.5465435 893.54708802 -374.54676528 890.91461442 -374.54698722 888.28214082 C-374.54720786 885.64340804 -374.54742834 883.00467526 -374.54764867 880.36594248 C-374.54809121 875.07243888 -374.54853833 869.77893527 -374.54898834 864.48543167 C-374.54909773 863.17295511 -374.54920712 861.86047854 -374.54931983 860.50822996 C-374.55294881 817.97070762 -374.56886329 775.43320234 -374.59217871 732.89568653 C-374.61680013 687.89291647 -374.6304958 642.89015616 -374.63168979 597.88737917 C-374.63186123 592.94271246 -374.63207666 587.99804576 -374.63232422 583.05337906 C-374.63237999 581.83591696 -374.63243576 580.61845485 -374.63249321 579.36409996 C-374.63364171 559.80963434 -374.6446466 540.25518629 -374.65921127 520.7007266 C-374.6736104 501.0276017 -374.67679404 481.35449922 -374.6687713 461.6813705 C-374.66433097 450.00967257 -374.66811137 438.33804722 -374.6840098 426.6663589 C-374.69381832 418.84978007 -374.69252603 411.03325164 -374.68257357 403.21667318 C-374.6772235 398.77617408 -374.67633349 394.33581349 -374.68908229 389.89532632 C-374.92686528 301.35384561 -347.92570883 215.72249189 -292.30875397 146.13142776 C-291.54949615 145.17881058 -290.79023834 144.22619339 -290.00797272 143.24470901 C-285.67325852 137.87685051 -281.18847876 132.67802362 -276.53922272 127.58064651 C-275.09136501 125.99079226 -273.65564754 124.38976454 -272.23453522 122.77595901 C-263.26200651 112.60930449 -253.70546554 102.84746791 -243.30875397 94.13142776 C-241.97070709 92.95966995 -241.97070709 92.95966995 -240.60562897 91.76424026 C-222.37026663 75.88002437 -202.22402977 62.22330408 -181.30875397 50.13142776 C-180.59187408 49.71280472 -179.8749942 49.29418167 -179.13639069 48.86287308 C-125.62982614 17.79751669 -61.93475052 -0.0835829 0 0 Z " fill="#151827" transform="translate(374.30875396728516,-0.13142776489257813)"/>
<path d="M0 0 C0.96360443 -0.00100708 1.92720886 -0.00201416 2.92001343 -0.00305176 C19.76940115 0.00878593 36.2345248 0.88929927 52.9375 3.25 C53.94393555 3.38921875 54.95037109 3.5284375 55.98730469 3.671875 C105.67636656 10.79622772 152.57868134 30.10784194 191.9375 61.25 C192.9378125 62.02085937 193.938125 62.79171875 194.96875 63.5859375 C195.8865625 64.30007813 196.804375 65.01421875 197.75 65.75 C198.56082031 66.3790625 199.37164063 67.008125 200.20703125 67.65625 C200.77808594 68.1821875 201.34914063 68.708125 201.9375 69.25 C201.9375 69.91 201.9375 70.57 201.9375 71.25 C202.53280518 71.52078369 203.12811035 71.79156738 203.74145508 72.07055664 C205.91153559 73.23605513 207.33734624 74.39192966 209.07421875 76.12109375 C209.64688477 76.68965088 210.21955078 77.25820801 210.80957031 77.84399414 C211.40866211 78.45235107 212.00775391 79.06070801 212.625 79.6875 C213.56037598 80.6319397 213.56037598 80.6319397 214.51464844 81.59545898 C219.68643681 86.87761273 224.40501677 92.40942878 228.9375 98.25 C229.700625 99.18457031 230.46375 100.11914062 231.25 101.08203125 C260.99213936 138.21204176 280.03874164 187.60842658 281.9375 235.25 C280.25555992 236.93194008 278.1852417 236.37220343 275.94021934 236.37908131 C274.85901403 236.37471205 274.85901403 236.37471205 273.75596619 236.37025452 C272.61537344 236.37153615 272.61537344 236.37153615 271.45173842 236.37284368 C268.8843875 236.37450078 266.31710083 236.36897339 263.74975586 236.36352539 C261.91711936 236.36324354 260.08448275 236.36340121 258.25184631 236.3639679 C253.26031938 236.36425596 248.26881625 236.35835777 243.27729487 236.35139394 C238.06690894 236.34516191 232.85652251 236.34455672 227.64613342 236.34336853 C217.77218975 236.34025477 207.89825709 236.33204078 198.02431828 236.32201904 C186.78629999 236.31085929 175.54828119 236.3053478 164.31025875 236.30032361 C141.18599971 236.2898582 118.06175047 236.27225789 94.9375 236.25 C94.83105667 235.68832626 94.72461334 235.12665253 94.61494446 234.54795837 C94.12033035 231.95657982 93.61685929 229.36699467 93.11328125 226.77734375 C92.94606567 225.89413452 92.7788501 225.01092529 92.60656738 224.10095215 C89.46891719 208.08086979 83.00772452 192.40024642 71.9375 180.25 C71.9375 179.59 71.9375 178.93 71.9375 178.25 C71.2775 178.25 70.6175 178.25 69.9375 178.25 C69.9375 177.59 69.9375 176.93 69.9375 176.25 C69.2775 176.25 68.6175 176.25 67.9375 176.25 C67.9375 175.59 67.9375 174.93 67.9375 174.25 C67.41027344 174.00894531 66.88304687 173.76789063 66.33984375 173.51953125 C63.86351703 172.21090331 61.58544008 170.69866109 59.26953125 169.12744141 C34.8916192 152.7342373 2.51914427 150.75210624 -25.80078125 156.27734375 C-43.94141272 160.23805511 -61.37877025 167.87358976 -72 183.75 C-78.88666921 195.31960427 -80.94915158 208.5364396 -78.37890625 221.76953125 C-76.10724059 229.71564808 -72.84633869 237.526973 -66.875 243.40234375 C-65.0625 245.25 -65.0625 245.25 -65.0625 247.25 C-64.4025 247.25 -63.7425 247.25 -63.0625 247.25 C-63.0625 247.91 -63.0625 248.57 -63.0625 249.25 C-62.51980469 249.49621094 -61.97710938 249.74242187 -61.41796875 249.99609375 C-58.53552687 251.53052798 -56.01795139 253.3937376 -53.375 255.3125 C-20.19357752 278.54842179 22.5530839 288.50749197 60.88375854 299.95031738 C140.71983727 323.78372029 226.958402 353.34164578 270.015625 430.17382812 C279.37522133 447.64635324 285.00582617 467.72281562 287.9375 487.25 C288.05319336 488.01070801 288.16888672 488.77141602 288.28808594 489.55517578 C296.23197243 544.89129905 284.29002277 605.89084461 250.97265625 651.40625 C246.2519641 657.60629385 241.11288251 663.45445928 235.8125 669.1640625 C233.89797712 671.21607927 233.89797712 671.21607927 232.3125 673.5234375 C231.85875 674.09320312 231.405 674.66296875 230.9375 675.25 C230.2775 675.25 229.6175 675.25 228.9375 675.25 C228.9375 675.91 228.9375 676.57 228.9375 677.25 C227.64453125 678.58984375 227.64453125 678.58984375 225.75 680.1875 C225.01394531 680.81011719 224.27789063 681.43273438 223.51953125 682.07421875 C222.66746094 682.79222656 221.81539062 683.51023437 220.9375 684.25 C219.99261719 685.08144531 219.04773438 685.91289063 218.07421875 686.76953125 C161.00872064 736.7301979 82.40164307 752.53547281 8.5 752.4375 C7.57930725 752.43656342 6.6586145 752.43562683 5.71002197 752.43466187 C-47.66875114 752.31751457 -99.81828533 742.69057945 -148.0625 719.25 C-148.84254395 718.87294922 -149.62258789 718.49589844 -150.42626953 718.10742188 C-166.58523958 710.20019662 -182.17540041 700.58010164 -195.9765625 688.99609375 C-199.03581361 686.43525996 -202.24497192 684.07618871 -205.4453125 681.6953125 C-205.97898437 681.21835938 -206.51265625 680.74140625 -207.0625 680.25 C-207.0625 679.59 -207.0625 678.93 -207.0625 678.25 C-207.65329346 677.98372803 -208.24408691 677.71745605 -208.8527832 677.44311523 C-211.11191613 676.22331824 -212.60495566 674.9657357 -214.41796875 673.16015625 C-215.03575195 672.5465625 -215.65353516 671.93296875 -216.29003906 671.30078125 C-217.26021973 670.31658203 -217.26021973 670.31658203 -218.25 669.3125 C-218.9212793 668.63445313 -219.59255859 667.95640625 -220.28417969 667.2578125 C-225.57756252 661.85462963 -230.48333345 656.27565418 -235.0625 650.25 C-235.47918945 649.70972168 -235.89587891 649.16944336 -236.32519531 648.61279297 C-266.68130493 609.12328057 -286.0625 559.41514488 -286.0625 509.25 C-225.0125 509.25 -163.9625 509.25 -101.0625 509.25 C-99.0825 519.15 -99.0825 519.15 -97.0625 529.25 C-89.37541284 553.02633936 -75.765167 572.45081068 -53.36279297 584.48681641 C-21.70114693 600.62484527 17.45587851 603.53233567 51.3125 592.5625 C70.66055415 585.7942868 85.92787356 575.59772336 95.17578125 556.72265625 C101.15558061 542.95824537 101.47519169 528.47261575 96.9375 514.25 C94.1204786 507.45029317 90.83314964 501.72160842 85.9375 496.25 C85.9375 495.59 85.9375 494.93 85.9375 494.25 C85.2775 494.25 84.6175 494.25 83.9375 494.25 C83.9375 493.59 83.9375 492.93 83.9375 492.25 C83.2775 492.25 82.6175 492.25 81.9375 492.25 C81.9375 491.59 81.9375 490.93 81.9375 490.25 C81.36515625 489.99347656 80.7928125 489.73695313 80.203125 489.47265625 C77.7095838 488.12700384 75.8294996 486.5411535 73.6875 484.6875 C39.70081833 457.23101044 -9.48716826 446.12605906 -50.34692383 432.98828125 C-80.79049803 423.19937274 -111.11721419 412.94617789 -140.0625 399.25 C-141.1232373 398.75177734 -142.18397461 398.25355469 -143.27685547 397.74023438 C-163.3883621 388.21950346 -182.71163279 377.27090279 -200.0625 363.25 C-201.60357422 362.0125 -201.60357422 362.0125 -203.17578125 360.75 C-241.47404302 329.46645224 -263.52135593 287.74034954 -268.8520813 238.61528015 C-269.17841158 234.947058 -269.24363821 231.29430748 -269.265625 227.61328125 C-269.27268463 226.81979782 -269.27974426 226.02631439 -269.28701782 225.20878601 C-269.62128315 176.57496223 -258.73430948 132.63357885 -229.0625 93.25 C-227.95261719 91.73986328 -227.95261719 91.73986328 -226.8203125 90.19921875 C-223.46760092 85.72661803 -223.46760092 85.72661803 -222.0625 84.25 C-221.4025 84.25 -220.7425 84.25 -220.0625 84.25 C-219.79405273 83.65775635 -219.52560547 83.0655127 -219.24902344 82.45532227 C-217.2686133 78.77444886 -214.26150314 76.11143034 -211.3125 73.1875 C-210.6436377 72.52282715 -209.97477539 71.8581543 -209.28564453 71.17333984 C-202.94416822 64.97215508 -196.22715742 59.46595379 -189.0625 54.25 C-188.52415527 53.85619141 -187.98581055 53.46238281 -187.43115234 53.05664062 C-133.24901402 13.74125128 -65.91654499 0.04816235 0 0 Z " fill="#FEFEFE" transform="translate(794.0625,403.75)"/>
</svg>
