<svg width="562" height="545" viewBox="0 0 562 545" fill="none" xmlns="http://www.w3.org/2000/svg">
<g clip-path="url(#clip0_882_36)">
<rect x="116" y="55" width="330" height="434" fill="white"/>
<path fill-rule="evenodd" clip-rule="evenodd" d="M98.6797 0C45.6295 0 2.62378 43.215 2.62378 96.5233V447.517C2.62378 500.824 45.6295 544.041 98.6797 544.041H465.437C518.489 544.041 561.493 500.824 561.493 447.517V96.5233C561.493 43.215 518.489 0 465.437 0H98.6797ZM337.651 119.923H212.487V187.197H148.45V239.03C148.45 247.023 151.705 254.668 157.459 260.188L212.487 312.97H148.45V377.318H212.487V444.592H337.651V377.318H401.688V325.485C401.688 317.492 398.434 309.846 392.679 304.326L337.651 251.546H401.688V187.197H337.651V119.923ZM337.651 187.197V251.546H241.595C225.519 251.546 212.487 238.45 212.487 222.296V187.197H337.651ZM337.651 377.318H212.487V312.97H308.543C324.619 312.97 337.651 326.065 337.651 342.219V377.318Z" fill="#FA7216"/>
</g>
<defs>
<clipPath id="clip0_882_36">
<rect width="561.781" height="544.041" fill="white"/>
</clipPath>
</defs>
</svg>
