<svg height="543" width="537" xmlns="http://www.w3.org/2000/svg" viewBox="0 0 47.82 47.29">
  <g fill="none" fill-rule="evenodd">
    <g fill="#ee3524">
      <path d="M22.614 34.884c1.857-.242 3.65-.81 5.275-1.72 4.014-2.251 6.332-6.12 6.529-10.895l.017-.413h5.555a16.513 16.513 0 0 0-3.005-7.645l-5.683 3.676c1.73 2.731 1.952 5.758.64 8.782-1.556 3.582-5.221 6.72-9.328 8.215"/>
      <path d="M40.074 22.718H35.25c-.325 4.83-2.84 8.897-6.945 11.199-2.343 1.313-5.01 1.967-7.733 1.967a17.77 17.77 0 0 1-6.307-1.175c2.468 1.552 5.242 2.401 8.116 2.41h.044c5.189 0 9.847-2.767 12.467-7.407l.222-.392 3.228 2.062a16.516 16.516 0 0 0 1.779-7.471c0-.402-.02-.799-.047-1.193"/>
      <path d="M22.425 37.98h-.046c-5.17-.015-10.028-2.594-13.485-7.035 2.627 5.602 8.286 9.489 14.832 9.489 6.068 0 11.372-3.342 14.207-8.293l-2.524-1.612c-2.812 4.677-7.63 7.452-12.984 7.452"/>
      <path d="M23.726 0C10.622 0 0 10.705 0 23.91s10.622 23.91 23.726 23.91c13.103 0 23.725-10.704 23.725-23.91S36.83 0 23.726 0m0 41.296c-9.528 0-17.252-7.784-17.252-17.386 0-9.601 7.724-17.385 17.252-17.385 9.527 0 17.25 7.784 17.25 17.385 0 9.602-7.723 17.386-17.25 17.386"/>
    </g>
  </g>
</svg>