<svg width="100" height="100" viewBox="0 0 100 100" fill="none" xmlns="http://www.w3.org/2000/svg">
  <path d="M47.6997 72.3999C51.5997 71.8999 55.2997 70.6999 58.6997 68.7999C67.0997 64.0999 71.8997 56.0999 72.2997 46.1999V45.2999H83.9997C83.2997 39.3999 80.9997 33.9999 77.6997 29.3999L65.7997 36.9999C69.3997 42.6999 69.8997 48.8999 67.0997 55.1999C63.8997 62.7999 56.2997 69.2999 47.6997 72.3999Z" fill="#EB1F1F"/>
  <path d="M84.1997 47.1001H74.0997C73.3997 57.1001 68.1997 65.6001 59.5997 70.3001C54.6997 73.0001 49.0997 74.4001 43.3997 74.4001C38.9997 74.4001 34.4997 73.6001 30.1997 72.0001C35.3997 75.2001 41.1997 77.0001 47.1997 77.0001H47.2997C58.0997 77.0001 67.8997 71.3001 73.3997 61.6001L73.8997 60.8001L80.5997 65.1001C82.9997 60.4001 84.2997 55.2001 84.2997 49.6001C84.2997 48.8001 84.1997 48.0001 84.1997 47.1001Z" fill="#EB1F1F"/>
  <path d="M47.3 78.7999C36.4 78.7999 26.2 73.3999 19 64.1999C24.5 75.7999 36.3 83.8999 50 83.8999C62.7 83.8999 73.8 76.9999 79.7 66.6999L74.4 63.3999C68.5 72.9999 58.5 78.7999 47.3 78.7999Z" fill="#EB1F1F"/>
  <path d="M49.9999 85.7C30.0999 85.7 13.8999 69.6 13.8999 49.6C13.8999 29.7 29.9999 13.5 49.9999 13.5C69.9999 13.5 86.0999 29.6 86.0999 49.6C86.0999 69.5 69.8999 85.7 49.9999 85.7ZM49.9999 0C22.5999 0 0.399902 22.2 0.399902 49.6C0.399902 77 22.5999 99.2 49.9999 99.2C77.3999 99.2 99.5999 77 99.5999 49.6C99.5999 22.2 77.3999 0 49.9999 0Z" fill="#EB1F1F"/>
</svg>
