<svg width="149" height="149" viewBox="0 0 149 149" fill="none" xmlns="http://www.w3.org/2000/svg">
<g clip-path="url(#clip0_1378_647)">
<path d="M107.803 33.5158C95.4224 13.2127 68.7928 7.34192 50.339 22.5081C36.557 34.005 34.9219 51.3728 34.9219 68.4959C34.9219 90.7559 34.9219 112.771 34.9219 135.031L58.2812 118.153C58.2812 98.5835 56.4124 78.0359 58.5148 58.7112C59.4491 50.8835 62.7194 41.3435 70.4279 38.4081C79.7716 34.7389 89.1154 42.8112 90.7505 52.3512C92.8529 65.0712 81.874 70.6974 75.3334 79.0143C68.3256 87.8205 66.9241 99.8066 68.5592 110.814C81.1732 101.519 96.1232 94.6697 105.934 81.7051C116.212 67.5174 116.679 48.4373 107.803 33.5158C115.044 45.502 100.094 21.0404 107.803 33.5158ZM109.204 72.4096C109.438 71.9204 110.139 70.2081 109.204 72.4096C109.204 72.4096 109.438 72.165 109.204 72.4096Z" fill="url(#paint0_linear_1378_647)"/>
</g>
<defs>
<linearGradient id="paint0_linear_1378_647" x1="118.487" y1="30.5618" x2="7.496" y2="115.075" gradientUnits="userSpaceOnUse">
<stop stop-color="#5D5FE5"/>
<stop offset="1" stop-color="#5ECFF9"/>
</linearGradient>
<clipPath id="clip0_1378_647">
<rect width="149" height="149" rx="9.3125" fill="white"/>
</clipPath>
</defs>
</svg>
