<svg xmlns="http://www.w3.org/2000/svg" viewBox="0 0 256 239">
  <defs>
    <linearGradient id="a" x1="-5.9%" x2="91.4%" y1="38.3%" y2="60.9%">
      <stop offset="10%" stop-color="#76B3E1"/>
      <stop offset="30%" stop-color="#DCF2FD"/>
      <stop offset="100%" stop-color="#76B3E1"/>
    </linearGradient>
    <linearGradient id="b" x1="57%" x2="37.9%" y1="38.4%" y2="68.4%">
      <stop offset="0%" stop-color="#76B3E1"/>
      <stop offset="50%" stop-color="#4377BB"/>
      <stop offset="100%" stop-color="#1F3B77"/>
    </linearGradient>
    <linearGradient id="c" x1="10.7%" x2="104.3%" y1="34.5%" y2="70.5%">
      <stop offset="0%" stop-color="#315AA9"/>
      <stop offset="50%" stop-color="#518AC8"/>
      <stop offset="100%" stop-color="#315AA9"/>
    </linearGradient>
    <linearGradient id="d" x1="62%" x2="17.8%" y1="29.6%" y2="105.1%">
      <stop offset="0%" stop-color="#4377BB"/>
      <stop offset="50%" stop-color="#1A336B"/>
      <stop offset="100%" stop-color="#1A336B"/>
    </linearGradient>
  </defs>
  <path fill="#76B3E1" d="M256 50S171-12 105 2l-5 2c-10 3-18 8-23 14l-3 5-24 42 42 8c17 11 40 16 61 11l74 15 29-49Z"/>
  <path fill="url(#a)" d="M256 50S171-12 105 2l-5 2c-10 3-18 8-23 14l-3 5-24 42 42 8c17 11 40 16 61 11l74 15 29-49Z" opacity=".3"/>
  <path fill="#518AC8" d="m77 50-6 2c-28 8-36 34-21 56 16 21 50 33 77 25l100-34S142 36 77 50Z"/>
  <path fill="url(#b)" d="m77 50-6 2c-28 8-36 34-21 56 16 21 50 33 77 25l100-34S142 36 77 50Z" opacity=".3"/>
  <path fill="url(#c)" d="M209 123a72 72 0 0 0-77-24L32 131 0 187l180 31 33-58c6-11 4-24-4-37Z"/>
  <path fill="url(#d)" d="M177 179a72 72 0 0 0-77-24L0 187s85 65 151 49l5-2c28-8 37-34 21-55Z"/>
</svg>
