<svg xmlns="http://www.w3.org/2000/svg" fill="none" viewBox="0 0 14 14">
  <path fill="#F73B95" d="M7 0c3.866 0 7 3.134 7 7s-3.134 7-7 7-7-3.134-7-7 3.134-7 7-7Z"/>
  <path fill="#BD399C" d="M7.0168 1.3672c3.1296 0 5.6666 2.537 5.6666 5.6667 0 3.1296-2.537 5.6666-5.6666 5.6666S1.35 10.1635 1.35 7.0339c0-3.1297 2.537-5.6667 5.6667-5.6667Z"/>
  <path fill="#93388E" d="M7.0167 2.8672c2.3012 0 4.1667 1.8654 4.1667 4.1667 0 2.3012-1.8655 4.1666-4.1667 4.1666-2.3012 0-4.1666-1.8654-4.1666-4.1666 0-2.3013 1.8654-4.1667 4.1666-4.1667Z"/>
  <path fill="#6030A2" d="M6.9832 4.1328c1.5648 0 2.8333 1.2685 2.8333 2.8333S8.548 9.7995 6.9832 9.7995C5.4185 9.7995 4.15 8.5309 4.15 6.966c0-1.5648 1.2686-2.8333 2.8333-2.8333Z"/>
</svg>
