<svg viewBox="0 0 14 14" fill="none" xmlns="http://www.w3.org/2000/svg">
  <path d="M7.00004 0C10.866 0 14 3.13401 14 7C14 10.866 10.866 14 7.00004 14C3.13401 14 0 10.866 0 7C0 3.13401 3.13401 0 7.00004 0Z" fill="#F73B95"></path>
  <path d="M7.01678 1.36719C10.1464 1.36719 12.6834 3.90424 12.6834 7.03387C12.6834 10.1635 10.1464 12.7005 7.01678 12.7005C3.88717 12.7005 1.3501 10.1635 1.3501 7.03387C1.3501 3.90424 3.88717 1.36719 7.01678 1.36719Z" fill="#BD399C"></path>
  <path d="M7.01674 2.86719C9.3179 2.86719 11.1834 4.73263 11.1834 7.03387C11.1834 9.33507 9.3179 11.2005 7.01674 11.2005C4.71554 11.2005 2.8501 9.33507 2.8501 7.03387C2.8501 4.73263 4.71554 2.86719 7.01674 2.86719V2.86719Z" fill="#93388E"></path>
  <path d="M6.98322 4.13281C8.54798 4.13281 9.81654 5.40133 9.81654 6.96613C9.81654 8.53089 8.54798 9.79945 6.98322 9.79945C5.41846 9.79945 4.1499 8.53089 4.1499 6.96613C4.1499 5.40133 5.41846 4.13281 6.98322 4.13281V4.13281Z" fill="#6030A2"></path>
</svg>