<svg width="180" height="180" fill="none" xmlns="http://www.w3.org/2000/svg"><g filter="url(#filter0_d_224_2)"><path d="M24.242 89.411c0 6.418-5.203 11.621-11.621 11.621S1 95.829 1 89.412c0-6.42 5.203-11.622 11.621-11.622s11.621 5.203 11.621 11.621z" fill="#63B3ED"/><path fill-rule="evenodd" clip-rule="evenodd" d="M12.621 99.331c5.479 0 9.92-4.441 9.92-9.92s-4.441-9.92-9.92-9.92-9.92 4.441-9.92 9.92 4.441 9.92 9.92 9.92zm0 1.701c6.418 0 11.621-5.203 11.621-11.62 0-6.42-5.203-11.622-11.621-11.622S1 82.993 1 89.411s5.203 11.621 11.621 11.621z" fill="#0F172A"/><path d="M179 89.411c0 6.418-5.203 11.621-11.621 11.621s-11.621-5.203-11.621-11.62c0-6.42 5.203-11.622 11.621-11.622S179 82.993 179 89.411z" fill="#63B3ED"/><path fill-rule="evenodd" clip-rule="evenodd" d="M167.379 99.331c5.479 0 9.92-4.441 9.92-9.92s-4.441-9.92-9.92-9.92-9.921 4.441-9.921 9.92 4.442 9.92 9.921 9.92zm0 1.701c6.418 0 11.621-5.203 11.621-11.62 0-6.42-5.203-11.622-11.621-11.622s-11.621 5.203-11.621 11.621 5.203 11.621 11.621 11.621z" fill="#0F172A"/><path d="M62.223 89.695c0 15.653-12.69 28.343-28.344 28.343-15.654 0-28.344-12.69-28.344-28.343 0-15.654 12.69-28.344 28.344-28.344 15.654 0 28.344 12.69 28.344 28.344z" fill="#F1F5F9"/><path fill-rule="evenodd" clip-rule="evenodd" d="M33.879 114.637c13.775 0 24.943-11.167 24.943-24.942 0-13.776-11.168-24.943-24.943-24.943-13.776 0-24.943 11.167-24.943 24.943 0 13.775 11.167 24.942 24.943 24.942zm0 3.401c15.654 0 28.344-12.69 28.344-28.343 0-15.654-12.69-28.344-28.344-28.344-15.654 0-28.344 12.69-28.344 28.344 0 15.653 12.69 28.343 28.344 28.343z" fill="#0F172A"/><path d="M174.465 89.695c0 15.653-12.69 28.343-28.344 28.343-15.654 0-28.344-12.69-28.344-28.343 0-15.654 12.69-28.344 28.344-28.344 15.654 0 28.344 12.69 28.344 28.344z" fill="#F1F5F9"/><path fill-rule="evenodd" clip-rule="evenodd" d="M146.121 114.637c13.776 0 24.943-11.167 24.943-24.942 0-13.776-11.167-24.943-24.943-24.943-13.775 0-24.943 11.167-24.943 24.943 0 13.775 11.168 24.942 24.943 24.942zm0 3.401c15.654 0 28.344-12.69 28.344-28.343 0-15.654-12.69-28.344-28.344-28.344-15.654 0-28.344 12.69-28.344 28.344 0 15.653 12.69 28.343 28.344 28.343z" fill="#0F172A"/><path d="M167.662 89.978c0 40.856-36.522 73.977-77.379 73.977-40.857 0-77.379-33.121-77.379-73.977C12.904 49.12 49.426 16 90.284 16c40.856 0 77.378 33.12 77.378 73.978z" fill="#F1F5F9"/><path fill-rule="evenodd" clip-rule="evenodd" d="M90.283 160.554c39.179 0 73.978-31.792 73.978-70.576 0-38.784-34.799-70.577-73.978-70.577-39.178 0-73.977 31.793-73.977 70.577s34.799 70.576 73.977 70.576zm0 3.401c40.857 0 77.379-33.121 77.379-73.977C167.662 49.12 131.14 16 90.283 16c-40.857 0-77.379 33.12-77.379 73.978 0 40.856 36.522 73.977 77.38 73.977z" fill="#0F172A"/><path fill-rule="evenodd" clip-rule="evenodd" d="M68.005 60.236c.133.302.244.552.326.75l-3.145 1.296a38.802 38.802 0 00-.33-.762c-1.736-3.95-7.304-16.616-4.89-38.338l3.38.376c-2.317 20.855 2.983 32.875 4.66 36.678zm.727-38.417c-1.119 8.39-.835 16.48.553 23.144a1.134 1.134 0 01-2.22.462c-1.446-6.942-1.73-15.291-.58-23.906l2.247.3zm43.526 38.417c-.133.302-.243.552-.325.75l3.145 1.296c.083-.202.195-.456.329-.762 1.737-3.95 7.304-16.616 4.891-38.338l-3.381.376c2.317 20.855-2.982 32.875-4.659 36.678zm-.727-38.417c1.119 8.39.836 16.48-.553 23.144a1.135 1.135 0 002.22.462c1.446-6.942 1.73-15.291.581-23.906l-2.248.3z" fill="#0F172A"/><path d="M156.892 96.78c0 25.83-29.695 46.768-66.325 46.768S24.242 122.61 24.242 96.781c0-25.83 29.695-46.768 66.325-46.768s66.325 20.939 66.325 46.768z" fill="#94A3B8"/><path fill-rule="evenodd" clip-rule="evenodd" d="M136.159 127.997c11.583-8.167 18.465-19.237 18.465-31.216 0-11.98-6.882-23.05-18.465-31.217-11.577-8.163-27.689-13.283-45.592-13.283S56.552 57.4 44.975 65.564C33.392 73.732 26.51 84.802 26.51 96.781s6.882 23.049 18.465 31.216c11.577 8.163 27.689 13.284 45.592 13.284s34.015-5.121 45.592-13.284zm-45.592 15.551c36.63 0 66.325-20.938 66.325-46.767 0-25.83-29.695-46.768-66.325-46.768S24.242 70.952 24.242 96.781s29.695 46.767 66.325 46.767z" fill="#0F172A"/><path d="M150.656 96.78c0 21.446-29.72 38.832-60.089 38.832S31.612 118.226 31.612 96.78c0-21.445 28.586-38.83 58.955-38.83s60.089 17.385 60.089 38.83z" fill="#64748B"/><path d="M125.185 73.65c1.099.766.087 2.149-1.13 1.59-9.369-4.304-21.2-7.087-33.488-7.087-11.947 0-26.243 3.834-36.628 9.667-1.169.656-2.396-.689-1.377-1.559 9.046-7.723 22.713-12.643 38.005-12.643 13.49 0 25.714 3.829 34.618 10.032z" fill="#E2E8F0"/><path d="M86.599 153.751c0 1.879-.508 3.402-1.134 3.402-.626 0-1.134-1.523-1.134-3.402 0-1.878.508-3.401 1.134-3.401.626 0 1.134 1.523 1.134 3.401zm4.535 0c0 1.879-.508 3.402-1.134 3.402-.626 0-1.134-1.523-1.134-3.402 0-1.878.508-3.401 1.134-3.401.626 0 1.134 1.523 1.134 3.401zm4.535 0c0 1.879-.508 3.402-1.134 3.402-.626 0-1.134-1.523-1.134-3.402 0-1.878.508-3.401 1.134-3.401.626 0 1.134 1.523 1.134 3.401z" fill="#0F172A"/></g><defs><filter id="filter0_d_224_2" x="1" y="16" width="178" height="152.956" filterUnits="userSpaceOnUse" color-interpolation-filters="sRGB"><feFlood flood-opacity="0" result="BackgroundImageFix"/><feColorMatrix in="SourceAlpha" values="0 0 0 0 0 0 0 0 0 0 0 0 0 0 0 0 0 0 127 0" result="hardAlpha"/><feOffset dy="5"/><feColorMatrix values="0 0 0 0 0 0 0 0 0 0 0 0 0 0 0 0 0 0 0.16 0"/><feBlend in2="BackgroundImageFix" result="effect1_dropShadow_224_2"/><feBlend in="SourceGraphic" in2="effect1_dropShadow_224_2" result="shape"/></filter></defs></svg>