<svg width="153" height="75" viewBox="0 0 153 75" fill="none" xmlns="http://www.w3.org/2000/svg">
<path fill-rule="evenodd" clip-rule="evenodd" d="M115.399 20.7061C115.399 20.7061 123.244 3.70391 123.488 3.33275C124.07 2.43536 124.99 1.51254 126.714 0.866821C128 0.388885 130.075 0 133.448 0C137.493 0 139.852 0.597343 141.22 1.26086C144.222 2.71499 144.774 4.78946 144.781 6.62492L144.784 8.44769L145.788 8.43241C147.346 8.43241 148.622 8.69682 149.705 9.56371C150.41 10.1281 151.154 10.9924 151.615 12.6016C151.902 13.6159 152.12 15.248 152.12 17.8792C152.12 20.4646 151.902 22.1348 151.604 23.2229C151.47 23.716 151.312 24.1406 151.137 24.5118C151.119 24.8652 151.009 25.216 150.804 25.5312L144.794 34.6703V39.9759C146.299 39.9886 147.537 40.2606 148.592 41.1072C149.299 41.6715 150.044 42.5359 150.501 44.1451C150.791 45.162 151.01 46.7915 151.01 49.4227C151.01 52.5928 150.659 54.441 150.244 55.5366C149.815 56.6679 140.808 71.7024 140.617 71.8651C140.617 71.8651 138.032 74.0438 134.762 74.0438H122.357C120.569 74.0438 118.375 73.4591 116.883 71.8092C115.892 70.711 115.162 69.1323 115.162 66.8494V21.6594C115.162 21.3264 115.244 21.001 115.399 20.7061Z" fill="#E27152"/>
<path fill-rule="evenodd" clip-rule="evenodd" d="M61.2397 28.2106C62.6531 29.7334 63.5276 31.818 63.5276 34.5407C63.5276 37.271 63.3472 48.1262 63.2582 53.3376C63.2277 55.1833 62.6532 56.978 61.6032 58.4957C58.6721 62.7717 52.7437 72.0075 52.7208 72.0405C52.7208 72.0405 51.6378 74.0972 45.7552 74.0972H6.81642C4.75216 74.0972 3.10234 73.3803 1.94818 72.2083C0.806738 71.0491 0.120361 69.4043 0.120361 67.3858C0.120361 59.9448 0.120361 35.7228 0.120361 35.7685C0.120361 35.7685 0.127933 33.534 1.52614 31.2663C2.72097 29.3266 11.9974 13.26 12.7168 12.1999C14.1735 10.0568 17.697 8.93317 20.8264 8.93317C23.9558 8.93317 45.923 9.03745 50.7786 9.03745C55.8248 9.03745 58.7636 10.6975 60.5762 12.6219C63.3116 15.5277 63.5276 19.4884 63.5276 21.4916C63.5276 23.4237 63.3598 25.4396 62.2743 27.0285C61.9972 27.4327 61.6617 27.8344 61.2397 28.2106Z" fill="#E27152"/>
<path fill-rule="evenodd" clip-rule="evenodd" d="M115.782 28.2106C117.196 29.7334 118.07 31.818 118.07 34.5407C118.07 37.271 117.89 48.1262 117.801 53.3376C117.77 55.1833 117.196 56.978 116.146 58.4957C113.215 62.7717 107.286 72.0075 107.264 72.0405C107.264 72.0405 106.181 74.0972 100.298 74.0972H61.3592C59.2949 74.0972 57.6449 73.3803 56.4908 72.2083C55.3493 71.0491 54.663 69.4043 54.663 67.3858C54.663 59.9448 54.663 35.7228 54.663 35.7685C54.663 35.7685 54.6707 33.534 56.0689 31.2663C57.2637 29.3266 66.5401 13.26 67.2596 12.1999C68.7162 10.0568 72.2397 8.93317 75.3692 8.93317C78.4986 8.93317 100.466 9.03745 105.321 9.03745C110.367 9.03745 113.306 10.6975 115.119 12.6219C117.854 15.5277 118.07 19.4884 118.07 21.4916C118.07 23.4237 117.903 25.4396 116.817 27.0285C116.54 27.4327 116.204 27.8344 115.782 28.2106Z" fill="#E27152"/>
<path d="M127.525 12.4008L127.446 6.65542C127.446 5.23687 127.542 3.88956 133.926 3.88956C140.22 3.88956 140.841 5.30044 140.846 6.60204L140.858 12.4008L145.78 12.3194C147.199 12.3194 148.188 12.0271 148.188 17.841C148.188 23.05 147.321 23.678 146.187 23.7542V23.7593H140.858V41.5953C140.858 43.924 142.18 43.9392 142.18 43.9392L144.667 43.863C146.088 43.863 147.077 43.5705 147.077 49.3871C147.077 55.2011 145.994 55.3079 144.667 55.3079C144.667 55.3079 133.316 55.3079 130.814 55.3079C127.123 55.3079 127.525 52.5318 127.525 50.8463V23.7593L125.618 23.7669C124.199 23.7669 123.211 24.0593 123.211 18.2428C123.211 12.4288 124.291 12.322 125.618 12.322L127.525 12.4008Z" fill="#FFFBF9"/>
<path fill-rule="evenodd" clip-rule="evenodd" d="M46.9601 40.0268C46.9601 39.7472 46.8507 39.4827 46.6524 39.2844C46.4567 39.0887 46.1899 38.9794 45.9128 38.9794C41.1233 38.9921 21.5737 39.0404 21.5737 39.0404C17.9181 39.0404 14.1633 37.2406 14.1633 33.6027C14.1633 32.3672 14.0667 21.4739 14.0667 21.0951C14.0667 15.0345 17.6232 12.5 21.6805 12.5H51.5259C60.3677 12.5 60.3498 20.2181 60.3498 22.5493C60.3498 24.0619 60.6421 26.0956 54.8281 26.0956C49.0116 26.0956 48.4244 25.2261 48.4244 24.5372C48.4244 23.8483 47.9617 23.4644 47.4838 23.4644C47.0059 23.4644 32.9322 23.4847 28.4859 23.4847C28.1555 23.4847 27.8402 23.6144 27.6063 23.8483C27.375 24.0796 27.2429 24.3949 27.2429 24.7253C27.2429 25.3711 27.2429 26.6473 27.2429 27.293C27.2429 27.6209 27.375 27.9362 27.6063 28.17C27.8402 28.4039 28.1555 28.5336 28.4859 28.5336C33.7966 28.5336 54.3477 28.5336 54.3477 28.5336C58.0034 28.5336 60.3498 30.3309 60.3498 33.9713V50.4142C60.3498 53.6453 57.8457 55.557 53.7884 55.557H22.3187C16.3979 55.557 14.1633 52.092 14.1633 47.7627V44.0536C14.1633 43.2604 14.8472 41.4987 20.6637 41.4987C26.4777 41.4987 26.7523 42.2868 27.0726 42.9249C27.3878 43.5579 27.8809 44.0536 28.4859 44.0536C29.0884 44.0536 41.8148 44.0587 45.9128 44.0612C46.1924 44.0612 46.4568 43.9494 46.6551 43.7537C46.8508 43.5579 46.9601 43.291 46.9601 43.0139C46.9601 42.1393 46.9601 40.9013 46.9601 40.0268Z" fill="#FFFBF9"/>
<path fill-rule="evenodd" clip-rule="evenodd" d="M101.503 40.0268C101.503 39.7472 101.394 39.4827 101.195 39.2844C100.999 39.0887 100.732 38.9794 100.455 38.9794C95.6659 38.9921 76.1165 39.0404 76.1165 39.0404C72.4609 39.0404 68.7061 37.2406 68.7061 33.6027C68.7061 32.3672 68.6094 21.4739 68.6094 21.0951C68.6094 15.0345 72.1659 12.5 76.2233 12.5H106.069C114.91 12.5 114.893 20.2181 114.893 22.5493C114.893 24.0619 115.185 26.0956 109.371 26.0956C103.554 26.0956 102.967 25.2261 102.967 24.5372C102.967 23.8483 102.505 23.4644 102.027 23.4644C101.549 23.4644 87.4751 23.4847 83.0263 23.4847C82.6983 23.4847 82.383 23.6144 82.1491 23.8483C81.9178 24.0796 81.7856 24.3949 81.7856 24.7253C81.7856 25.3711 81.7856 26.6473 81.7856 27.293C81.7856 27.6209 81.9178 27.9362 82.1491 28.17C82.383 28.4039 82.6983 28.5336 83.0263 28.5336C88.3394 28.5336 108.89 28.5336 108.89 28.5336C112.546 28.5336 114.893 30.3309 114.893 33.9713V50.4142C114.893 53.6453 112.389 55.557 108.331 55.557H76.8613C70.9406 55.557 68.7061 52.092 68.7061 47.7627V44.0536C68.7061 43.2604 69.3898 41.4987 75.2063 41.4987C81.0203 41.4987 81.295 42.2868 81.6154 42.9249C81.9306 43.5579 82.4238 44.0536 83.0263 44.0536C83.6313 44.0536 96.3574 44.0587 100.455 44.0612C100.735 44.0612 100.999 43.9494 101.198 43.7537C101.393 43.5579 101.503 43.291 101.503 43.0139C101.503 42.1393 101.503 40.9013 101.503 40.0268Z" fill="#FFFBF9"/>
</svg>
