<svg xmlns="http://www.w3.org/2000/svg" width="124" height="207" style="shape-rendering:geometricPrecision;text-rendering:geometricPrecision;image-rendering:optimizeQuality;fill-rule:evenodd;clip-rule:evenodd"><path fill="white" d="M109.5 5.5h3a3 3 0 0 0 1 3c2.5-1.6 5.1-2.6 8-3a36.4 36.4 0 0 1-10 20c1.3 1.1 2.6 1.1 4 0a3 3 0 0 1 2 2 39.1 39.1 0 0 1-17 22.5c3.2.6 6.2.1 9-1.5a42.6 42.6 0 0 1-22 30.5c2.6.5 5.3.7 8 .5a51.6 51.6 0 0 1-21 30.5c2-.2 4 0 6 .5a35.9 35.9 0 0 1-22 18.5c2 .2 4 .7 6 1.5a35.8 35.8 0 0 1-20 10 602 602 0 0 1 42-89l-.5-1a523 523 0 0 0-49.5 103c3.4-.7 5.7.5 7 3.5-2.6 3-3.5 6.5-2.5 10.5 4 1.1 7.8 2.6 11.5 4.5 1.5 1.6 2.7 3.4 3.5 5.5a94 94 0 0 1 2 24 7 7 0 0 1-4.5 2.5c-16.3.7-32.7.7-49 0-1.8-.5-3-1.7-3.5-3.5-.5-7.4-.2-14.7 1-22 .5-2.5 1.7-4.7 3.5-6.5 4.2-1.7 8.4-3.5 12.5-5.5.7-2 .7-4 0-6-2.5-1.8-3-4-1.5-6.5 5-.2 10-.7 15-1.5l5-13.5c-1.7-4.9-3-9.9-4-15a6.2 6.2 0 0 1 3-5c-1.7-7-1-14 2-20.5a9 9 0 0 1 3 4c.5-8.8 2-17.5 4.5-26 4-8.2 6.4-7.5 7 2 1.3-14.7 7-27.4 17-38a38 38 0 0 1 2.5 7c2-12.8 8.5-22.4 19.5-29a23 23 0 0 0 2 5c1.6-3.5 3.4-6.8 5.5-10 3.2-3.4 6.9-6.1 11-8Zm-18 36c-.6 2.8-2 5.2-4 7 .6-2.8 2-5.2 4-7Zm-65 138c2.2 2.5 4.3 2.5 6.5 0 .5 1.2 1.3 2 2.5 2.5a5 5 0 0 1-3 .5 9 9 0 0 0 1 5.5 5 5 0 0 0-2.5 3.5 5 5 0 0 1-.5-3c-2-.3-3.5.4-4.5 2l-2.5-2.5c2.2-1.7 2.5-3.7 1-6 1.3-.4 2-1.3 2-2.5Z" style="opacity:.9"/><path fill="#050505" d="M26.5 182.5h5c.7 4-1 5.7-5 5v-5Z" style="opacity:.793"/></svg>