<svg xmlns="http://www.w3.org/2000/svg" width="587" height="587" style="shape-rendering:geometricPrecision;text-rendering:geometricPrecision;image-rendering:optimizeQuality;fill-rule:evenodd;clip-rule:evenodd"><path fill="#fefefc" d="M-.5-.5h448v1c-107-.2-214 0-321 .5-16.3 2.2-31.6 7-46 14.5-4.5 2-8.8 4.4-13 7a49 49 0 0 0-13 10c-3.6 2.3-7 5-10 8l-10 11a32.7 32.7 0 0 0-8 11 90 90 0 0 0-9 13 166.7 166.7 0 0 0-18 55V-.5Z" style="opacity:1"/><path fill="#fefefd" d="M447.5.5v-1h139v587H-.5v-138a146 146 0 0 0 18 60c.9 2.9 2.2 5.6 4 8a61 61 0 0 0 9 12c.6 2.3 2 4 4 5 1.8 2.6 3.8 4.9 6 7 1 1.7 2.3 3 4 4 1 2 2.7 3.4 5 4 1.3 2 3 3.7 5 5a41 41 0 0 0 7 5 19 19 0 0 0 6 4c1.7 1.5 3.7 2.5 6 3 1.6 1.8 3.6 3.1 6 4a154 154 0 0 0 47 14.5c109 .7 218 .7 327 0 16.4-1.6 32-5.8 47-12.5a59 59 0 0 0 9-5c1.9-.8 3.5-1.8 5-3a19 19 0 0 0 5-3l3-2c1.9-1.1 3.6-2.4 5-4l3-2c2-1.3 3.7-3 5-5a11 11 0 0 0 6-5l3-4a6.5 6.5 0 0 0 3-3 6.5 6.5 0 0 0 3-3 308.6 308.6 0 0 0 10-13c1.5-1.7 2.5-3.7 3-6a7 7 0 0 0 3-4 19 19 0 0 1 3-5c7.2-16 12-32.6 14.5-50 .7-108.3.7-216.7 0-325-2-16.1-6.5-31.4-13.5-46-.8-1.9-1.8-3.5-3-5-.4-1.8-1-3.5-2-5l-4-6a7 7 0 0 0-3-4 4.7 4.7 0 0 0-3-4 4.7 4.7 0 0 0-3-4 7 7 0 0 0-3-4c-1-1.7-2.3-3-4-4a797 797 0 0 1-4-5c-1.3-2-3-3.7-5-5l-6-5-2-1a4.7 4.7 0 0 0-4-3 21.6 21.6 0 0 0-5-4l-6-4a139.6 139.6 0 0 0-66-20Z" style="opacity:1"/><path fill="#fed701" d="M447.5.5c18.6.9 36.2 5.2 53 13a470.6 470.6 0 0 1-36 37 137 137 0 0 0-26-4.5c-99.3-.7-198.7-.7-298 0-8.1 1.4-16.1 3.2-24 5.5-12.2-10.7-24-22-35.5-34-.5-.6-.6-1.3-.5-2a137.4 137.4 0 0 1 46-14.5c107-.5 214-.7 321-.5Z" style="opacity:1"/><path fill="#eed21e" d="M500.5 13.5c4.5 2 8.8 4.4 13 7a1698.5 1698.5 0 0 0-35 34.5c-.6.5-1.3.6-2 .5a65 65 0 0 1-12-5c12.7-11.7 24.7-24 36-37Z" style="opacity:1"/><path fill="#f2d403" d="M80.5 15.5c-.1.7 0 1.4.5 2 11.4 12 23.3 23.3 35.5 34-4.1 2.2-8.5 4.2-13 6a445.1 445.1 0 0 1-36-35c4.2-2.6 8.5-5 13-7Z" style="opacity:1"/><path fill="#e2cf30" d="m513.5 20.5 6 4a445.3 445.3 0 0 1-36 35 35.7 35.7 0 0 1-7-4c.7.1 1.4 0 2-.5 11.6-11.7 23.2-23.2 35-34.5Z" style="opacity:1"/><path fill="#d8cc41" d="M519.5 24.5c1.9 1.1 3.6 2.4 5 4-.7-.1-1.4 0-2 .5a1607.5 1607.5 0 0 1-34 33.5c-2-.6-3.6-1.6-5-3 12.6-11 24.6-22.6 36-35Z" style="opacity:1"/><path fill="#e6d204" d="M67.5 22.5c11.4 12.4 23.4 24 36 35-4.1 3.2-8.5 6.2-13 9-11.5-11-22.8-22.1-34-33.5-.6-.5-1.3-.6-2-.5 3.8-4 8-7.4 13-10Z" style="opacity:1"/><path fill="#d1cb4c" d="M524.5 28.5c1.9.2 3.2 1.2 4 3a518 518 0 0 0-34 32.5 5 5 0 0 1-3 .5c-1.5 0-2.5-.6-3-2 11.5-11 22.8-22.1 34-33.5.6-.5 1.3-.6 2-.5Z" style="opacity:1"/><path fill="#c2c665" d="m530.5 32.5 6 5-36 35a814 814 0 0 0-5-4c1 .1 2 0 3-.5l33-33c-.8-.7-1-1.5-1-2.5Z" style="opacity:1"/><path fill="#d9d001" d="M54.5 32.5c.7-.1 1.4 0 2 .5 11.2 11.4 22.5 22.5 34 33.5l-11 10-35-36c3-3 6.4-5.7 10-8Z" style="opacity:1"/><path fill="#b7c477" d="M536.5 37.5c2 1.3 3.7 3 5 5l-36 35c-2-1.3-3.7-3-5-5l36-35Z" style="opacity:1"/><path fill="#afc185" d="M541.5 42.5a797 797 0 0 0 4 5 445.2 445.2 0 0 1-35 36 16.6 16.6 0 0 1-5-6l36-35Z" style="opacity:1"/><path fill="#cdce03" d="m44.5 40.5 35 36-8 11a470.6 470.6 0 0 1-37-36l10-11Z" style="opacity:1"/><path fill="#fefefe" d="M464.5 50.5a65 65 0 0 0 12 5c2.1 1.6 4.5 2.9 7 4 1.4 1.4 3 2.4 5 3 .5 1.4 1.5 2 3 2 1 1.7 2.3 3 4 4a814 814 0 0 1 5 4c1.3 2 3 3.7 5 5 1.2 2.4 2.9 4.4 5 6a4.7 4.7 0 0 0 3 4c.6 2 1.6 3.6 3 5 .6 2 1.6 3.6 3 5 .3 1.9 1 3.6 2 5 .2 1.7.8 3 2 4a6 6 0 0 0 2 5c.2 2.6.9 4.9 2 7-.1 1.8.2 3.5 1 5 1.1 104 1.3 208 .5 312-1.2 8.2-3 16.2-5.5 24-1 1.4-1.7 3.1-2 5a5.8 5.8 0 0 0-2 4 18.6 18.6 0 0 0-3 5 18.6 18.6 0 0 0-3 5l-3 4-4 5c-1.7 1-3 2.3-4 4a6.5 6.5 0 0 0-3 3c-1.7 1-3 2.3-4 4a16.6 16.6 0 0 0-6 5c-2 .6-3.6 1.6-5 3a7 7 0 0 0-3 2c-2.3.5-4.3 1.5-6 3-1.7.2-3 .8-4 2-2.3.1-4.3.8-6 2-2.3.1-4.3.8-6 2l-9 2a12823 12823 0 0 1-320 0 71.3 71.3 0 0 0-9-3c-2-.9-4-1.5-6-2a33.5 33.5 0 0 0-7-3 35.7 35.7 0 0 0-7-4l-6-4a797 797 0 0 1-11-9c-1.3-2-3-3.7-5-5l-5-6-8-12c-.8-3-2.2-5.7-4-8-3.7-9.7-6.2-19.7-7.5-30a23103 23103 0 0 1 0-304l2.5-13c2.2-5.2 4.2-10.5 6-16l8-13 8-11 11-10c4.5-2.8 8.9-5.8 13-9 4.5-1.8 8.9-3.8 13-6 7.9-2.3 15.9-4.1 24-5.5 99.3-.7 198.7-.7 298 0a137 137 0 0 1 26 4.5Z" style="opacity:1"/><path fill="#c8c85a" d="m528.5 31.5 2 1c0 1 .2 1.8 1 2.5l-33 33a5 5 0 0 1-3 .5c-1.7-1-3-2.3-4-4 1 .1 2 0 3-.5a518 518 0 0 1 34-32.5Z" style="opacity:1"/><path fill="#a4be96" d="M545.5 47.5c1.7 1 3 2.3 4 4a917 917 0 0 1-36 36 4.7 4.7 0 0 1-3-4c12.4-11.4 24-23.4 35-36Z" style="opacity:1"/><path fill="#9bbca4" d="M549.5 51.5a7 7 0 0 1 3 4 470.6 470.6 0 0 1-36 37c-1.4-1.4-2.4-3-3-5a917 917 0 0 0 36-36Z" style="opacity:1"/><path fill="#c0cc03" d="M34.5 51.5c11.7 12.7 24 24.7 37 36l-8 13c-13-12-25.4-24.7-37-38 1.9-4.2 4.6-7.9 8-11Z" style="opacity:1"/><path fill="#94bab0" d="M552.5 55.5c1.8.8 2.8 2.1 3 4 .1.7 0 1.4-.5 2-12 11.9-23.9 23.9-35.5 36-1.4-1.4-2.4-3-3-5 12.7-11.7 24.7-24 36-37Z" style="opacity:1"/><path fill="#8db8bc" d="M555.5 59.5c1.8.8 2.8 2.1 3 4 .1.7 0 1.4-.5 2a1904.8 1904.8 0 0 0-36.5 37c-1-1.4-1.7-3.1-2-5 11.6-12.1 23.5-24.1 35.5-36 .5-.6.6-1.3.5-2Z" style="opacity:1"/><path fill="#85b6c8" d="M558.5 63.5a7 7 0 0 1 3 4 523.6 523.6 0 0 1-38 39 5.8 5.8 0 0 1-2-4c12-12.5 24.1-24.8 36.5-37 .5-.6.6-1.3.5-2Z" style="opacity:1"/><path fill="#b4c903" d="M26.5 62.5c11.6 13.3 24 26 37 38-1.8 5.5-3.8 10.8-6 16l-40-41a90 90 0 0 1 9-13Z" style="opacity:1"/><path fill="#7eb4d5" d="m561.5 67.5 4 6c-.7-.1-1.4 0-2 .5a2011.7 2011.7 0 0 1-38 37.5 6 6 0 0 1-2-5c13.4-12.4 26-25.4 38-39Z" style="opacity:1"/><path fill="#76b2e2" d="M565.5 73.5c1 1.5 1.6 3.2 2 5a1131 1131 0 0 0-40 40 18.1 18.1 0 0 1-2-7c12.8-12.3 25.5-24.8 38-37.5.6-.5 1.3-.6 2-.5Z" style="opacity:1"/><path fill="#6eb0ee" d="M567.5 78.5c1.2 1.5 2.2 3.1 3 5-.7-.1-1.4 0-2 .5a2228.7 2228.7 0 0 1-40 39.5 9.2 9.2 0 0 1-1-5c13-13.7 26.3-27 40-40Z" style="opacity:1"/><path fill="#a5c701" d="m17.5 75.5 40 41-2.5 13a23103 23103 0 0 0 0 304c1.3 10.3 3.8 20.3 7.5 30a1432.9 1432.9 0 0 1-45 45 146 146 0 0 1-18-60v-318c2.8-19.3 8.8-37.6 18-55Z" style="opacity:1"/><path fill="#67aefc" d="M570.5 83.5c7 14.6 11.5 29.9 13.5 46 .7 108.3.7 216.7 0 325-2.5 17.4-7.3 34-14.5 50a731.2 731.2 0 0 1-46-45c2.5-7.8 4.3-15.8 5.5-24 .8-104 .6-208-.5-312 13.5-13 26.8-26.1 40-39.5.6-.5 1.3-.6 2-.5Z" style="opacity:1"/><path fill="#acacac" d="M179.5 102.5h-33c.3 14.8 0 29.5-1 44v-45c11.5-.3 22.8 0 34 1Z" style="opacity:1"/><path fill="#737373" d="M179.5 102.5v44h42v-44h34v44h33v41h-33v47h33v41h-33v44h-34v-44h-42v44h-33c.3-14.8 0-29.5-1-44h-33v-41h34c.3-15.8 0-31.5-1-47h-33v-41h33c1-14.5 1.3-29.2 1-44h33Z" style="opacity:1"/><path fill="#fdfdfd" d="M180.5 187.5h41v46h-41v-46Z" style="opacity:1"/><path fill="#b1b1b1" d="M145.5 187.5c1 15.5 1.3 31.2 1 47h-34c10.8-1 21.8-1.3 33-1v-46Z" style="opacity:1"/><path fill="#b8b8b8" d="M180.5 187.5v46h41c-13.8 1-27.8 1.3-42 1-.3-15.8 0-31.5 1-47Z" style="opacity:1"/><path fill="#b2b2b2" d="M145.5 275.5c1 14.5 1.3 29.2 1 44h33c-11.2 1-22.5 1.3-34 1v-45Z" style="opacity:1"/><path fill="#73aae6" d="M523.5 459.5c14.7 15.7 30 30.7 46 45a19 19 0 0 0-3 5 1433.5 1433.5 0 0 1-45-45c.3-1.9 1-3.6 2-5Z" style="opacity:1"/><path fill="#b2be02" d="M62.5 463.5c1.8 2.3 3.2 5 4 8a1432.9 1432.9 0 0 1-45 45 27.4 27.4 0 0 1-4-8c15.3-14.7 30.3-29.7 45-45Z" style="opacity:1"/><path fill="#7ba9da" d="M521.5 464.5c14.7 15.3 29.7 30.3 45 45a7 7 0 0 1-3 4 700.2 700.2 0 0 1-44-45c.2-1.7.8-3 2-4Z" style="opacity:1"/><path fill="#83a7cd" d="M519.5 468.5c14 15.6 28.6 30.6 44 45-.5 2.3-1.5 4.3-3 6a2696 2696 0 0 0-43.5-44c-.5-.6-.6-1.3-.5-2 .8-1.9 1.8-3.5 3-5Z" style="opacity:1"/><path fill="#8aa5c0" d="M516.5 473.5c-.1.7 0 1.4.5 2a2696 2696 0 0 1 43.5 44l-3 4-44-45c.8-1.9 1.8-3.5 3-5Z" style="opacity:1"/><path fill="#bcb702" d="m66.5 471.5 8 12a699.7 699.7 0 0 0-44 45 61 61 0 0 1-9-12c15.3-14.7 30.3-29.7 45-45Z" style="opacity:1"/><path fill="#92a3b4" d="m513.5 478.5 44 45-3 4-44-45 3-4Z" style="opacity:1"/><path fill="#c4b202" d="m74.5 483.5 5 6a699.4 699.4 0 0 0-45 44c-2-1-3.4-2.7-4-5 14-15.6 28.6-30.6 44-45Z" style="opacity:1"/><path fill="#9aa2a8" d="m510.5 482.5 44 45a21.6 21.6 0 0 1-4 5c.1-1 0-2-.5-3a857.8 857.8 0 0 0-43.5-42l4-5Z" style="opacity:1"/><path fill="#cbad03" d="M79.5 489.5c2 1.3 3.7 3 5 5a2637.9 2637.9 0 0 0-43.5 43 5 5 0 0 0-.5 3 44.5 44.5 0 0 1-6-7c14.4-15.4 29.4-30 45-44Z" style="opacity:1"/><path fill="#a1a09a" d="M506.5 487.5c15 13.4 29.4 27.4 43.5 42 .5 1 .6 2 .5 3a6.5 6.5 0 0 1-3 3 699.6 699.6 0 0 0-45-44c1-1.7 2.3-3 4-4Z" style="opacity:1"/><path fill="#a99e8e" d="M502.5 491.5c15.6 14 30.6 28.6 45 44a6.5 6.5 0 0 1-3 3l-45-44a6.5 6.5 0 0 1 3-3Z" style="opacity:1"/><path fill="#d1a903" d="m84.5 494.5 6 5a731.2 731.2 0 0 0-46 45c-1.7-1-3-2.3-4-4-.1-1 0-2 .5-3 14.4-14.5 28.9-28.9 43.5-43Z" style="opacity:1"/><path fill="#af9c83" d="m499.5 494.5 45 44-3 4a2698.5 2698.5 0 0 1-44-43.5c-.6-.5-1.3-.6-2-.5 1-1.7 2.3-3 4-4Z" style="opacity:1"/><path fill="#d7a503" d="M90.5 499.5a797 797 0 0 0 5 4l-46 45c-2.3-.6-4-2-5-4 14.7-15.7 30-30.7 46-45Z" style="opacity:1"/><path fill="#bb9a71" d="M495.5 498.5c.7-.1 1.4 0 2 .5 14.5 14.7 29.2 29.2 44 43.5a11 11 0 0 1-6 5 2698.5 2698.5 0 0 1-44-43.5c-.6-.5-1.3-.6-2-.5 1.6-2.1 3.6-3.8 6-5Z" style="opacity:1"/><path fill="#dda002" d="m95.5 503.5 6 4-47 46c-2-1.3-3.7-3-5-5l46-45Z" style="opacity:1"/><path fill="#c49862" d="M489.5 503.5c.7-.1 1.4 0 2 .5 14.5 14.7 29.2 29.2 44 43.5-1.3 2-3 3.7-5 5a939.6 939.6 0 0 0-44-45.5c-.6-.5-1.3-.6-2-.5 1.4-1.4 3-2.4 5-3Z" style="opacity:1"/><path fill="#cb9655" d="M484.5 506.5c.7-.1 1.4 0 2 .5 15.3 14.8 30 30 44 45.5l-3 2c-15.7-15-31-30.3-46-46a7 7 0 0 1 3-2Z" style="opacity:1"/><path fill="#e49c00" d="M101.5 507.5c2.5 1.1 4.9 2.4 7 4-16 15.3-31.7 31-47 47a41 41 0 0 1-7-5l47-46Z" style="opacity:1"/><path fill="#d29449" d="M481.5 508.5c15 15.7 30.3 31 46 46a21.6 21.6 0 0 1-5 4 981.6 981.6 0 0 0-45-46.5c-.6-.5-1.3-.6-2-.5 1.7-1.5 3.7-2.5 6-3Z" style="opacity:1"/><path fill="#ea9801" d="M108.5 511.5c2.5.8 4.9 1.8 7 3a1630.2 1630.2 0 0 0-48 48 19 19 0 0 1-6-4c15.3-16 31-31.7 47-47Z" style="opacity:1"/><path fill="#da933e" d="M475.5 511.5c.7-.1 1.4 0 2 .5 15.6 15 30.6 30.6 45 46.5l-3 2a796.8 796.8 0 0 0-48-47c1-1.2 2.3-1.8 4-2Z" style="opacity:1"/><path fill="#f09400" d="M115.5 514.5c2 .5 4 1.1 6 2l-48 49c-2.3-.5-4.3-1.5-6-3 15.7-16.3 31.7-32.3 48-48Z" style="opacity:1"/><path fill="#e19131" d="M471.5 513.5c16.6 15 32.6 30.6 48 47a19 19 0 0 1-5 3 830.7 830.7 0 0 0-49-48c1.7-1.2 3.7-1.9 6-2Z" style="opacity:1"/><path fill="#f69001" d="M121.5 516.5c3.2.8 6.2 1.8 9 3a900.8 900.8 0 0 0-51 50c-2.4-.9-4.4-2.2-6-4l48-49Z" style="opacity:1"/><path fill="#e88f26" d="M465.5 515.5c17 15.3 33.3 31.3 49 48a18.6 18.6 0 0 1-5 3c-15-16.6-30.7-32.7-47-48.5a5 5 0 0 0-3-.5c1.7-1.2 3.7-1.9 6-2Z" style="opacity:1"/><path fill="#ff8a04" d="M130.5 519.5a12823 12823 0 0 0 320 0c16.3 16.8 32.8 33.5 49.5 50 .5.6.6 1.3.5 2-15 6.7-30.6 10.9-47 12.5-109 .7-218 .7-327 0a154 154 0 0 1-47-14.5c16.4-17.4 33.4-34 51-50Z" style="opacity:1"/><path fill="#f58c12" d="M459.5 517.5c1-.1 2 0 3 .5 16.3 15.8 32 32 47 48.5a59 59 0 0 1-9 5c.1-.7 0-1.4-.5-2a3489.8 3489.8 0 0 1-49.5-50l9-2Z" style="opacity:1"/></svg>