<svg xmlns="http://www.w3.org/2000/svg" xmlns:xlink="http://www.w3.org/1999/xlink" viewBox="0 0 149.15 119.7"><defs><linearGradient id="linear-gradient" x1="-47.32" y1="117.14" x2="-47.32" y2="-2.56" gradientTransform="matrix(0.92, -0.39, -0.43, -1, 144.72, 102.97)" gradientUnits="userSpaceOnUse"><stop offset="0" stop-color="#da2fb6"/><stop offset="1" stop-color="#fe1876"/></linearGradient></defs><g><g ><path style="fill:url(#linear-gradient);" d="M122.92,119.7c10.91,0,14.91-4.7,14.91-16.2V81.1c0-10.7,5.2-16.8,10.2-19.7a2.34,2.34,0,0,0,0-4A23,23,0,0,1,137.83,38V16c0-12.4-3.41-16-14.3-16H25.62C14.73,0,11.33,3.6,11.33,16V38A23,23,0,0,1,1.12,57.4a2.34,2.34,0,0,0,0,4c5,2.8,10.21,8.9,10.21,19.7v22.4c0,11.5,4,16.2,14.9,16.2ZM74.33,99.2c-11.7,0-20.2-3.5-28.11-10.4a5.54,5.54,0,0,1-1.8-4.2,5.11,5.11,0,0,1,1.21-3.5L48,78a5,5,0,0,1,4-2.2,9.29,9.29,0,0,1,5,1.8,33.08,33.08,0,0,0,18.6,5.5c5.5,0,9.9-2.3,9.9-7,0-12.2-40.61-5.5-40.61-32.9,0-14.7,12-22.9,27.61-22.9a45.66,45.66,0,0,1,25.1,7,6.15,6.15,0,0,1,2.5,5,5.58,5.58,0,0,1-1,3.3l-1.8,2.7a5.6,5.6,0,0,1-4.7,2.7,10.4,10.4,0,0,1-4.21-1.2,31.5,31.5,0,0,0-14.89-3.5c-5.9,0-9.4,3.2-9.4,6.5,0,12.5,40.59,5.7,40.59,32.3C104.72,90,92.72,99.2,74.33,99.2Z"/></g></g></svg>
