<svg width="69" height="69" viewBox="0 0 69 69" fill="none" xmlns="http://www.w3.org/2000/svg">
    <circle cx="34.5048" cy="34.5048" r="34.5" fill="#1F1C3B" />
    <path
        d="M44.1015 39.5598C45.0196 37.9701 44.4752 35.9371 42.8855 35.019C41.2957 34.1009 39.2627 34.6453 38.3446 36.235L29.2024 52.0647C28.2843 53.6544 28.8287 55.6874 30.4184 56.6055C32.0081 57.5237 34.0412 56.9792 34.9593 55.3895L44.1015 39.5598Z"
        fill="#F6005B" />
    <path
        d="M36.717 35.8458C37.6351 34.2561 37.0907 32.2231 35.501 31.305C33.9113 30.3869 31.8783 30.9313 30.9601 32.521L30.1294 33.9594C29.2113 35.5491 29.7557 37.5821 31.3455 38.5002C32.9352 39.4183 34.9682 38.8739 35.8863 37.2842L36.717 35.8458Z"
        fill="#F6005B" />
    <path
        d="M38.5667 16.2081C39.4849 14.6183 38.9404 12.5853 37.3507 11.6672C35.761 10.7491 33.728 11.2935 32.8099 12.8833L23.6677 28.7129C22.7495 30.3026 23.294 32.3356 24.8837 33.2538C26.4734 34.1719 28.5064 33.6274 29.4245 32.0377L38.5667 16.2081Z"
        fill="#F6005B" />
</svg>