<svg xmlns="http://www.w3.org/2000/svg" fill="#fff" viewBox="0 0 24 24">
	<path d="M13.95 11.46H9.1v2.34h4.75c.28 0 .53-.12.74-.3.2-.19.3-.47.3-.82a1.4 1.4 0 0 0-.25-.84c-.19-.24-.4-.38-.68-.38zm.17-2.83c.2-.14.3-.44.3-.84 0-.35-.1-.6-.26-.77a.94.94 0 0 0-.6-.24H9.09v2.1h4.37c.24 0 .47-.1.66-.25zM21.25 0H2.9c-.58 0-1.05.47-1.05 1.03v18.39c0 .56.47.9 1.03.9h2.71V24l3.37-3.65h12.3c.56 0 .92-.35.92-.94V1.06c0-.56-.36-1.03-.94-1.03zm-3.09 14.9a2.83 2.83 0 0 1-1 1.03c-.45.28-.94.54-1.5.66-.56.14-1.17.25-1.8.25H5.58V3.74h9.4c.47 0 .87.1 1.24.3.35.2.68.45.94.76a3.6 3.6 0 0 1 .32 4.02 2.92 2.92 0 0 1-1.4 1.26c.75.21 1.34.59 1.78 1.13.42.56.63 1.28.63 2.2a3.1 3.1 0 0 1-.35 1.5z"/>
</svg>
