<svg xmlns="http://www.w3.org/2000/svg" viewBox="0 0 256 308">
  <path fill="#FF3E00" d="M240 41a94 94 0 0 0-126-27L42 59a82 82 0 0 0-37 55 87 87 0 0 0 9 56 82 82 0 0 0-13 31 88 88 0 0 0 15 66c29 41 85 53 126 27l72-46a82 82 0 0 0 37-55 87 87 0 0 0-9-55 82 82 0 0 0 13-31 88 88 0 0 0-15-66"/>
  <path fill="#FFF" d="M107 271c-23 6-48-3-61-23a53 53 0 0 1-9-40 50 50 0 0 1 1-6l2-4 4 2a92 92 0 0 0 28 14l2 1v3a16 16 0 0 0 3 10 17 17 0 0 0 18 7 16 16 0 0 0 5-2l71-45a15 15 0 0 0 7-10 16 16 0 0 0-3-12 17 17 0 0 0-18-7 16 16 0 0 0-4 2l-28 17a52 52 0 0 1-14 7c-23 6-48-4-61-23a53 53 0 0 1-9-40 49 49 0 0 1 22-33l72-46a52 52 0 0 1 14-6c23-6 48 3 61 22a53 53 0 0 1 9 40 51 51 0 0 1-1 7l-2 4-4-3a92 92 0 0 0-28-14h-2v-3a16 16 0 0 0-3-11 17 17 0 0 0-18-7 16 16 0 0 0-5 2l-71 46a15 15 0 0 0-7 10 16 16 0 0 0 3 12 17 17 0 0 0 18 7 16 16 0 0 0 4-2l28-17a52 52 0 0 1 14-7c23-6 48 3 61 23a53 53 0 0 1 9 40 49 49 0 0 1-22 33l-72 45a52 52 0 0 1-14 7"/>
</svg>
