<svg width="40" height="47" viewBox="0 0 40 47" fill="none" xmlns="http://www.w3.org/2000/svg"><g clip-path="url(#clip0)"><path d="M36.8 6.09C32.5-.03 24.03-1.84 17.91 2.05L7.18 8.88a12.3 12.3 0 00-5.57 8.24 12.92 12.92 0 001.28 8.31 12.31 12.31 0 00-1.85 4.6c-.62 3.47.2 7.04 2.25 9.9 4.28 6.13 12.75 7.94 18.87 4.05l10.74-6.83a12.3 12.3 0 005.57-8.24c.52-2.83.07-5.76-1.28-8.31.92-1.4 1.55-2.96 1.85-4.6.62-3.47-.2-7.04-2.25-9.91" fill="#FF3E00"/><path d="M16.87 40.52a8.55 8.55 0 01-9.16-3.39 7.87 7.87 0 01-1.1-6.96l.2-.62.56.4c1.27.94 2.7 1.65 4.2 2.1l.4.12-.03.4c-.05.57.1 1.13.43 1.6.61.88 1.72 1.29 2.76 1.02.23-.07.46-.16.66-.3l10.75-6.83c.53-.33.9-.87 1.01-1.49a2.38 2.38 0 00-.4-1.8 2.58 2.58 0 00-2.77-1.02c-.23.06-.45.16-.66.3l-4.1 2.6c-.67.43-1.41.75-2.18.96a8.55 8.55 0 01-9.17-3.4 7.87 7.87 0 01-1.35-5.95 7.4 7.4 0 013.35-4.96l10.75-6.83a7.84 7.84 0 012.19-.96c3.46-.9 7.12.45 9.16 3.39a7.87 7.87 0 011.1 6.96l-.2.62-.56-.4a13.87 13.87 0 00-4.2-2.1l-.4-.12.03-.4a2.4 2.4 0 00-.43-1.6 2.58 2.58 0 00-2.76-1.02c-.23.07-.46.16-.66.3l-10.75 6.83c-.53.33-.9.87-1 1.49-.12.63.03 1.28.4 1.8.61.88 1.71 1.29 2.76 1.02.23-.06.45-.16.66-.3l4.1-2.6a7.83 7.83 0 012.18-.96c3.47-.9 7.13.46 9.17 3.4a7.87 7.87 0 011.35 5.96 7.4 7.4 0 01-3.35 4.95l-10.75 6.83c-.68.43-1.41.75-2.19.96" fill="#fff"/></g><defs><clipPath id="clip0"><path fill="#fff" transform="translate(.84)" d="M0 0h38.4v46.08H0z"/></clipPath></defs></svg>