<svg xmlns="http://www.w3.org/2000/svg" viewBox="0 0 256 154">
  <defs>
    <linearGradient id="a" x1="-2.8%" x2="100%" y1="32%" y2="67.6%">
      <stop offset="0%" stop-color="#2298BD"/>
      <stop offset="100%" stop-color="#0ED7B5"/>
    </linearGradient>
  </defs>
  <path fill="url(#a)" d="M128 0C94 0 73 17 64 51c13-17 28-23 45-19 10 2 16 9 24 17 13 13 27 28 59 28 34 0 55-17 64-51-13 17-28 23-45 19-10-3-16-10-24-18-13-12-27-27-59-27ZM64 77C30 77 9 94 0 128c13-17 28-23 45-19 10 2 16 9 24 17 13 13 27 28 59 28 34 0 55-17 64-52-13 17-28 24-45 20-10-3-16-10-24-18-13-12-27-27-59-27Z"/>
</svg>
