<svg xmlns="http://www.w3.org/2000/svg" fill="none" viewBox="0 0 79 32">
	<path fill="url(#a)" d="M36.3 2V.2h4.1v16.2c0 1.4-.2 2.8-.9 4a6.7 6.7 0 0 1-2.7 3 9 9 0 0 1-4.3 1c-2 0-4.1-.5-5.8-1.7a7 7 0 0 1-2.6-4.6h4c.3.8.8 1.4 1.4 2 .8.4 1.8.7 2.7.6a4.1 4.1 0 0 0 3-1 4.3 4.3 0 0 0 1-3.4v-3.2c-.3 1-1 2-2 2.7a7.1 7.1 0 0 1-7.3 0c-1.2-.8-2-1.8-2.6-3a11.2 11.2 0 0 1 0-9A6.8 6.8 0 0 1 30.6 0c1.4 0 4.6 0 5.7 2Zm-7.5 3a5.7 5.7 0 0 0 0 7 4.5 4.5 0 0 0 6.2 0 5.5 5.5 0 0 0 0-7 4.1 4.1 0 0 0-3-1.3A4.1 4.1 0 0 0 28.7 5Z"/>
	<path fill="url(#b)" d="M33 32c-1 0-2 0-3-.2-7-1-12.4-5.3-13.9-11-.3-2-.4-3.9-.3-5.9V7.2h4.1V15c0 1.6 0 3.2.3 4.8 1 4 5.1 7.1 10.4 7.9 4 .6 9.3-.3 11.8-4.4l.7-1.3c2-4.3 6.6-4.3 9-4.3h1.6c.5 0 .9-.2 1.3-.4a4.4 4.4 0 0 0 2.5-4V7.2h4.1v6.1a8.6 8.6 0 0 1-7.5 8.5h-1.9c-3.3 0-4.7.5-5.4 2l-.7 1.5A14.9 14.9 0 0 1 33 32Z"/>
	<path fill="url(#c)" d="M48 2.4V.2h-4.2v15.6a.4.4 0 0 0 .4.4h.1c1.1-.6 2.3-1 3.4-1.2a.4.4 0 0 0 .3-.3v-6c0-2.8 1.6-4.2 4.7-4.2h1.2V0c-1.3 0-4.7.2-5.9 2.4Z"/>
	<path fill="#EFB700" d="m18 5.4-.5-1c-.3-.5-.7-1-1.2-1.2l-1-.4 1-.4c.5-.2 1-.7 1.2-1.2l.4-1 .4 1c.2.5.7 1 1.2 1.2l1 .4-1 .4c-.5.2-1 .7-1.2 1.2l-.4 1Z"/>
	<path fill="url(#d)" d="M7.8 8V3.7h4.1V.2H0v3.5h3.6v4.2c0 4.5 1.8 9.6 8.3 9.6v-3.4c-3.3 0-4-2.5-4-6Z"/>
	<path fill="#EFB700" d="m59.6 5.4-.5-1c-.2-.5-.7-1-1.2-1.2l-1-.4 1-.4c.5-.2 1-.7 1.2-1.2l.4-1 .4 1c.3.5.7 1 1.3 1.2l1 .4-1 .4A2 2 0 0 0 60 4.4l-.4 1Z"/>
	<path fill="url(#e)" d="M77.7 9.6a5.2 5.2 0 0 0-2.2-1.4c-1.1-.4-2.2-.6-3.3-.8-1-.1-2-.4-3-.7a1.4 1.4 0 0 1-1-1.3A1.6 1.6 0 0 1 69 4c.8-.4 1.7-.6 2.6-.5 1.7 0 3.4.4 4.9 1.2l1.5-3A15.8 15.8 0 0 0 71.7.2c-1.8 0-3.8.5-5.4 1.5a4.5 4.5 0 0 0-2 3.9c0 1 .3 2 1 2.8.6.7 1.3 1.2 2.2 1.5l3.4.7c1 .1 2 .3 3 .7a1.3 1.3 0 0 1 .8 1.2c0 1.2-1.1 1.9-3.5 1.9a19 19 0 0 1-6.3-1.1v3.3c2 .7 4 1 6 1 2.4 0 4.3-.5 5.7-1.5a4.4 4.4 0 0 0 2-3.8c0-1-.2-2-.9-2.7Z"/>
	<defs>
		<linearGradient id="a" x1="19.5" x2="75.3" y1="-7.4" y2="1.5" gradientUnits="userSpaceOnUse">
			<stop offset=".1" stop-color="#4EC8AB"/>
			<stop offset=".6" stop-color="#81F4D8"/>
		</linearGradient>
		<linearGradient id="b" x1="5.4" x2="135.9" y1="-.4" y2="54.5" gradientUnits="userSpaceOnUse">
			<stop offset=".1" stop-color="#4EC8AB"/>
			<stop offset=".6" stop-color="#81F4D8"/>
		</linearGradient>
		<linearGradient id="c" x1="41.6" x2="74.5" y1="-4.9" y2="-.3" gradientUnits="userSpaceOnUse">
			<stop offset=".1" stop-color="#4EC8AB"/>
			<stop offset=".6" stop-color="#81F4D8"/>
		</linearGradient>
		<linearGradient id="d" x1="-2.7" x2="36.2" y1="-5.1" y2="1" gradientUnits="userSpaceOnUse">
			<stop offset=".1" stop-color="#4EC8AB"/>
			<stop offset=".6" stop-color="#81F4D8"/>
		</linearGradient>
		<linearGradient id="e" x1="61.1" x2="107.3" y1="-5" y2="3.7" gradientUnits="userSpaceOnUse">
			<stop offset=".1" stop-color="#4EC8AB"/>
			<stop offset=".6" stop-color="#81F4D8"/>
		</linearGradient>
	</defs>
</svg>
