<svg xmlns="http://www.w3.org/2000/svg" viewBox="0 0 49 68"><path fill="#f97316" d="M31.5 30.2c3.3-2.8 4.7-18.9 6.2-24.7C39-.3 45 0 45 0s-1.5 2.7-1 4.7c.7 2 5 3.7 5 3.7L48 11s-1.9-.3-3 2c-1.2 2.3.7 25 .7 25s-6.9 13.7-6.9 19.5c0 5.7 2.8 10.5 2.8 10.5h-3.9s-5.6-6.6-6.7-10c-1.2-3.3-.7-6.6-.7-6.6s-6.1-.4-11.5 0c-5.4.3-9 5-9.7 7.6-.6 2.5-.9 9-.9 9h-3c-1.8-5.6-3.3-7.7-2.5-10.5C4.9 49.5 4.5 45 3.9 43 3.4 41 0 39.3 0 39.3c1.7-3.5 3.4-5.1 10.8-5.3 7.4-.2 17.4-1 20.7-3.7z"/><path fill="#f97316" d="M12.3 57s.7 7.3 4.9 11h3.5c-3.5-4-4-14.6-4-14.6-1.7.6-4.2 2.7-4.5 3.6z"/></svg>
