<svg width="100%" height="100%" viewBox="0 0 52 52" version="1.1" xmlns="http://www.w3.org/2000/svg"
    xmlns:xlink="http://www.w3.org/1999/xlink" xml:space="preserve"
    xmlns:serif="http://www.serif.com/"
    style="fill-rule:evenodd;clip-rule:evenodd;stroke-linejoin:round;stroke-miterlimit:2;">
    <g id="umbraco_logo_blue.svg" transform="matrix(0.103163,0,0,0.103163,25.7837,32.8688)">
        <g transform="matrix(1,0,0,1,-540,-540)">
            <path d="M298.86,469.57C299,334.92 408.33,225.91 543,226.08C677.67,226.25 786.64,335.55 786.46,470.2C786.28,604.85 677.19,713.68 542.66,713.68C407.94,713.61 298.79,604.33 298.86,469.61L298.86,469.57ZM537.72,553.05C518.806,553.603 499.894,551.908 481.38,548C467.731,545.219 456.246,535.984 450.6,523.25C445.087,510.537 442.42,490.93 442.6,464.43C442.701,450.583 443.569,436.751 445.2,423C446.787,409.607 448.373,398.57 449.96,389.89L451.63,381.26C451.65,381.007 451.65,380.753 451.63,380.5C451.622,378.105 449.895,376.036 447.54,375.6L416.09,370.7L415.41,370.7C413.129,370.722 411.138,372.303 410.6,374.52C410.06,376.52 409.75,378.03 408.81,382.83C407.01,392.09 405.35,401.12 403.5,414.29C401.561,428.594 400.379,442.991 399.96,457.42C399.27,467.472 399.27,477.558 399.96,487.61C400.7,514.277 405.28,535.59 413.7,551.55C422.12,567.51 436.38,578.983 456.48,585.97C476.58,592.977 504.58,596.407 540.48,596.26L545,596.26C580.94,596.407 608.94,592.977 629,585.97C649.06,578.963 663.32,567.49 671.78,551.55C680.2,535.59 684.783,514.277 685.53,487.61C686.21,477.558 686.21,467.472 685.53,457.42C685.108,442.991 683.923,428.594 681.98,414.29C680.14,401.29 678.47,392.29 676.68,382.83C675.68,378.03 675.42,376.54 674.88,374.52C674.361,372.291 672.358,370.701 670.07,370.7L669.26,370.7L637.81,375.6C635.427,375.996 633.667,378.085 633.68,380.5C633.66,380.753 633.66,381.007 633.68,381.26L635.34,389.89C636.927,398.597 638.53,409.633 640.15,423C641.758,436.753 642.613,450.584 642.71,464.43C642.977,490.883 640.31,510.473 634.71,523.2C629.11,535.914 617.69,545.163 604.09,548C585.591,551.917 566.692,553.623 547.79,553.08L537.72,553.05Z" style="fill:rgb(53,68,177);fill-rule:nonzero;"/>
        </g>
    </g>
</svg>