<svg xmlns="http://www.w3.org/2000/svg" viewBox="0 0 24 24">
  <defs>
    <linearGradient id="a" x1="0%" x2="100%" y1="0%" y2="100%">
      <stop offset="0%" stop-color="#e15dcd"/>
      <stop offset="100%" stop-color="#814df7"/>
    </linearGradient>
  </defs>
  <path fill="none" stroke="url(#a)" stroke-linecap="round" stroke-linejoin="round" stroke-width="2" d="M10 21H4.5C3.395 21 3 20.526 3 19.2V4.8C3 3.475 3.395 3 4.5 3H10m11 15.91V5.094s0-1.152-1.5-1.727l-8-2.303S10 .488 10 2.791v18.302c0 2.423 1.5 1.847 1.5 1.847l8-2.303C21 20.063 21 18.91 21 18.91M16 14v3m1.5-6c0 1.657-.672 3-1.5 3s-1.5-1.343-1.5-3 .672-3 1.5-3 1.5 1.343 1.5 3"/>
</svg>
