<svg xmlns="http://www.w3.org/2000/svg" fill="#fff" viewBox="0 0 52 52">
  <path d="M4.3 26c0 8.3 4.7 15.9 12.2 19.5L6.2 17.2C5 20 4.3 23 4.3 26zm22.1 1.9-6.5 18.9a21.76 21.76 0 0 0 13.3-.3c-.1-.1-.1-.2-.2-.3 0-.1-6.6-18.3-6.6-18.3z" class="st0"/>
  <path d="M26 0C11.6 0 0 11.6 0 26s11.6 26 26 26 26-11.6 26-26S40.4 0 26 0zm20.3 39.7c-6.5 9.7-19 13.4-29.8 8.9-5.9-2.5-10.5-7.1-13-13-3.9-9.2-1.8-19.8 5.2-26.8S26.3-.3 35.5 3.6a24.41 24.41 0 0 1 10.8 36.1z" class="st0"/>
  <path d="M45 15.6c.1.7.2 1.5.2 2.2 0 2.7-.6 5.3-1.7 7.8l-6.6 19.1A21.71 21.71 0 0 0 45 15.6zm-4.4 9.3c0-2.1-.6-4.2-1.8-6-1.1-1.8-2.1-3.3-2.1-5.1 0-2.1 1.6-3.8 3.6-3.8h.3C31.8 1.9 18.1 2.5 10 11.3c-.8.9-1.5 1.8-2.1 2.8h1.4c2.3 0 5.8-.3 5.8-.3.5 0 .9.4.9.9 0 .4-.3.8-.8.9l-2.5.2 7.9 23.5 4.8-14.2-3.4-9.3-2.3-.2c-.5-.1-.8-.5-.8-1 .1-.4.4-.8.9-.8 0 0 3.6.3 5.7.3s5.8-.3 5.8-.3c.5 0 .9.4.9.9 0 .4-.3.8-.8.9l-2.5.2 7.8 23.3 2.2-7.1c1-2.2 1.6-4.6 1.7-7.1z" class="st0"/>
</svg>
