<svg xmlns="http://www.w3.org/2000/svg" width="30" height="30" fill="none" viewBox="0 0 30 30"><g clip-path="url(#a)"><path fill="#fff" fill-rule="evenodd" d="M23.402 15.002a8.403 8.403 0 0 1-13.168 6.923l-2.46 2.46c4.644 3.585 11.338 3.248 15.596-1.01a11.84 11.84 0 0 0 2.963-11.804c-.196-.651.04-1.373.63-1.713.696-.402 1.592-.114 1.84.65.46 1.416.71 2.925.71 4.494A14.47 14.47 0 0 1 25.2 25.325a14.47 14.47 0 0 1-10.204 4.192c-1.74 0-3.408-.306-4.954-.868a36 36 0 0 0-4.93-1.602 36 36 0 0 0-2.058-.447c-.64-.12-.903-.914-.442-1.375l5.46-5.46A8.404 8.404 0 0 1 19.76 8.077l2.46-2.461C17.578 2.033 10.883 2.37 6.625 6.628a11.84 11.84 0 0 0-2.962 11.805c.196.65-.04 1.372-.63 1.712-.695.401-1.59.113-1.839-.651A14.5 14.5 0 0 1 .483 15 14.47 14.47 0 0 1 4.743 4.728 14.47 14.47 0 0 1 14.999.484c1.74 0 3.408.306 4.954.868A36 36 0 0 0 26.941 3.4c.64.12.903.914.442 1.375l-5.461 5.462a8.37 8.37 0 0 1 1.48 4.764m-8.555 5.729a5.73 5.73 0 0 0 5.04-8.458l-7.768 7.768c.81.44 1.74.69 2.728.69m0-11.46a5.73 5.73 0 0 0-4.93 8.65l7.85-7.85a5.7 5.7 0 0 0-2.92-.8" clip-rule="evenodd"/></g><defs><clipPath id="a"><path fill="#fff" d="M0 0h30v30H0z"/></clipPath></defs></svg>