<svg xmlns="http://www.w3.org/2000/svg" fill="#fff" viewBox="0 0 1024 1024" style="fill-rule:evenodd;clip-rule:evenodd;stroke-linejoin:round;stroke-miterlimit:2"><path d="M732.338,656.269c46.542,-50.134 55.552,-105.654 57.464,-114.033c2.54,-11.131 1.614,-11.199 1.893,-12.141c3.085,-10.403 4.238,-9.7 4.564,-9.745c0.876,-0.122 110.671,-0.123 114.177,-0.065c3.035,0.05 21.928,0.362 36.315,11.168c33.385,25.075 33.966,49.049 33.897,68.872c-0.552,157.814 0.322,246.973 -0.616,262.775c-0.191,3.223 -1.205,2.91 -1.587,6.12c-2.967,24.938 -29.174,49.89 -54.67,55.363c-11.794,2.532 -11.904,2.52 -150.671,2.301c-116.516,-0.184 -116.609,1.23 -131.336,-1.539c-3.956,-0.744 -27.789,-5.225 -43.729,-25.222c-1.474,-1.85 -11.323,-14.205 -14.136,-26.048c-2.528,-10.643 -3.359,-14.14 -2.63,-136.822c0.025,-4.239 13.202,-3.807 15.72,-4.502c12.95,-3.572 22.737,-4.458 40.092,-11.291c41.589,-16.374 66.769,-34.092 95.253,-65.19Z"/><path d="M177.464,462.36c-31.318,-12.006 -38.926,-32.508 -43.232,-42.256c-1.242,-4.432 -1.621,-4.709 -2.503,-7.418c-0.487,-1.084 -2.262,-5.038 -2.538,-14.666c-0.588,-20.517 -0.871,-30.389 -0.376,-256.573c0.002,-0.801 -4.456,-49.846 40.57,-72.261c29.124,-12.005 30.208,-6.979 81.151,-7.971c36.587,-0.712 119.635,-0.166 130.038,-0.098c70.427,0.463 83.732,-4.427 110.353,7.987c25.291,14.53 29.924,31.914 32.688,37.981c5.389,11.83 5.578,12.217 5.339,76.31c-0.243,64.944 2.466,67.761 -2.632,68.479c-12.228,1.721 -12.206,1.768 -13.27,1.9c-13.439,1.673 -43.524,12.492 -47.231,13.825c-0.293,0.099 -3.298,1.111 -3.643,1.292c-8.98,4.707 -69.993,27.995 -112.762,98.515c-12.577,20.738 -20.237,40.641 -25.081,57.104c-50.121,-22.811 -111.175,-8.915 -145.99,36.698l-0.879,1.152Z"/><path d="M635.717,63.522c13.45,-3.291 14.301,-2.533 136.18,-2.142c144.821,0.464 151.1,-5.771 180.717,15.235c12.749,9.043 27.601,32.347 27.972,54.979c0.07,4.274 -0.337,207.077 -0.078,246.676c0.096,14.706 5.439,60.303 -44.406,83.002c-13.844,6.304 -14.328,5.621 -92.5,5.648c-47.995,0.017 -48.984,0.23 -49.88,-2.268c-0.235,-0.656 -5.773,-58.453 -43.215,-111.46c-8.532,-11.729 -23.925,-34.156 -58.37,-59.387c-27.141,-19.881 -71.2,-36.647 -84.271,-37.905c-1.007,-0.097 -0.874,-0.595 -12.195,-3.391c-2.678,-0.661 -14.282,0.426 -14.286,-6.21c-0.083,-126.252 0.746,-126.197 1.043,-127.014c4.453,-12.265 8.755,-43.537 53.289,-55.763Z"/><path d="M533.37,730.039l-155.266,203.421c-25.547,33.471 -73.463,39.904 -106.934,14.356l-197.894,-151.048c-33.471,-25.547 -39.904,-73.463 -14.356,-106.934l155.266,-203.421c25.547,-33.471 73.463,-39.904 106.934,-14.356l197.894,151.048c33.471,25.547 39.904,73.463 14.356,106.934Z"/></svg>
