<?xml version="1.0" encoding="UTF-8" standalone="no"?>
<svg
   id="Layer_1"
   data-name="Layer 1"
   viewBox="0 0 1200.0001 468.66999"
   version="1.1"
   sodipodi:docname="404.svg"
   width="1200"
   height="468.67001"
   inkscape:version="1.1.2 (0a00cf5339, 2022-02-04)"
   xmlns:inkscape="http://www.inkscape.org/namespaces/inkscape"
   xmlns:sodipodi="http://sodipodi.sourceforge.net/DTD/sodipodi-0.dtd"
   xmlns="http://www.w3.org/2000/svg"
   xmlns:svg="http://www.w3.org/2000/svg"
   xmlns:rdf="http://www.w3.org/1999/02/22-rdf-syntax-ns#"
   xmlns:cc="http://creativecommons.org/ns#"
   xmlns:dc="http://purl.org/dc/elements/1.1/">
  <sodipodi:namedview
     id="namedview31"
     pagecolor="#ffffff"
     bordercolor="#666666"
     borderopacity="1.0"
     inkscape:pageshadow="2"
     inkscape:pageopacity="0.0"
     inkscape:pagecheckerboard="0"
     showgrid="false"
     width="668.67001px"
     inkscape:zoom="0.64868642"
     inkscape:cx="575.77897"
     inkscape:cy="424.70443"
     inkscape:window-width="1850"
     inkscape:window-height="1016"
     inkscape:window-x="70"
     inkscape:window-y="27"
     inkscape:window-maximized="1"
     inkscape:current-layer="g7518" />
  <defs
     id="defs4">
    <style
       id="style2">.cls-1{fill:#1d1d1b;}</style>
  </defs>
  <title
     id="title6">Prosopo Logo Black</title>
  <g
     id="g2919"
     transform="translate(361.48066)">
    <g
       id="g7518"
       transform="translate(-50.953258,-2.9489778)">
      <path
         id="path12"
         class="cls-1"
         d="M 600.05664 36.095703 C 490.56664 36.095703 401.81836 124.84594 401.81836 234.33594 C 401.81836 343.82595 490.56664 432.57422 600.05664 432.57422 C 709.54664 432.57422 798.29688 343.82594 798.29688 234.33594 C 798.29688 124.84594 709.54664 36.095703 600.05664 36.095703 z M 798.29688 234.33594 L 798.29688 284.42578 L 976.30078 284.42578 L 976.30078 421.10547 L 1026.4121 421.10547 L 1026.4121 284.42578 L 1085.3965 284.42578 L 1085.3965 234.33594 L 1026.4121 234.33594 L 1026.4121 56.332031 L 976.30078 56.332031 L 798.29688 234.33594 z M 401.81836 234.33594 L 342.83398 234.33594 L 342.83398 56.332031 L 292.72266 56.332031 L 114.71875 234.33594 L 114.71875 284.42578 L 292.72266 284.42578 L 292.72266 421.10547 L 342.83398 421.10547 L 342.83398 284.42578 L 401.81836 284.42578 L 401.81836 234.33594 z M 600.05664 86.595703 A 147.75 147.75 0 0 1 747.79688 234.33594 A 147.75 147.75 0 0 1 600.05664 382.07422 C 518.46438 382.06822 452.32388 315.92821 452.31836 234.33594 A 147.75 147.75 0 0 1 600.05664 86.595703 z M 292.72266 127.17188 L 292.72266 234.33594 L 185.55664 234.33594 L 292.72266 127.17188 z M 976.30078 127.17188 L 976.30078 234.33594 L 869.13477 234.33594 L 976.30078 127.17188 z M 535.90625 169.44922 A 28.055494 28.055494 0 0 0 507.85156 197.50586 A 28.055494 28.055494 0 0 0 535.90625 225.56055 A 28.055494 28.055494 0 0 0 563.96289 197.50586 A 28.055494 28.055494 0 0 0 535.90625 169.44922 z M 658.59375 169.44922 A 28.055494 28.055494 0 0 0 630.53711 197.50586 A 28.055494 28.055494 0 0 0 658.59375 225.56055 A 28.055494 28.055494 0 0 0 686.64844 197.50586 A 28.055494 28.055494 0 0 0 658.59375 169.44922 z M 597.25 256.82812 C 566.53987 256.82812 535.82902 268.54402 512.39648 291.97656 L 534.01172 313.5918 A 89.437048 89.437048 0 0 1 660.48633 313.5918 L 682.10352 291.97656 C 658.67097 268.54402 627.96013 256.82812 597.25 256.82812 z "
         transform="translate(-310.5274,2.9489778)" />
    </g>
  </g>
  <metadata
     id="metadata848">
    <rdf:RDF>
      <cc:Work
         rdf:about="">
        <dc:title>Prosopo Logo Black</dc:title>
      </cc:Work>
    </rdf:RDF>
  </metadata>
</svg>
