<svg xmlns="http://www.w3.org/2000/svg" fill="#fff" viewBox="0 -11 99 40">
	<path d="M6.7 22.11c-1.18-1.07-1.52-3.32-1.03-4.95.85 1.03 2.02 1.36 3.24 1.54 1.87.28 3.72.18 5.46-.68.2-.1.38-.23.6-.36.17.47.2.95.15 1.44a3.94 3.94 0 0 1-1.67 2.8c-.38.27-.77.52-1.16.78-1.2.8-1.52 1.75-1.07 3.12l.05.15a3.13 3.13 0 0 1-1.4-1.19 3.34 3.34 0 0 1-.54-1.81c0-.32 0-.65-.04-.96-.1-.77-.47-1.12-1.15-1.14-.7-.02-1.26.42-1.4 1.1l-.05.16ZM0 16.9s3.47-1.7 6.96-1.7l2.62-8.1c.1-.4.39-.66.71-.66.33 0 .61.27.71.66l2.63 8.1c4.12 0 6.95 1.7 6.95 1.7S14.68.85 14.68.82c-.18-.47-.46-.78-.85-.78H6.75c-.38 0-.66.3-.84.78L0 16.89Zm36.62-5.16c0 1.42-1.77 2.27-4.23 2.27-1.6 0-2.16-.4-2.16-1.23 0-.87.7-1.28 2.3-1.28 1.44 0 2.67.02 4.09.2v.04Zm.02-1.76c-.88-.2-2.2-.31-3.78-.31-4.6 0-6.75 1.08-6.75 3.6 0 2.63 1.48 3.64 4.9 3.64 2.9 0 4.87-.73 5.59-2.53h.12c-.02.43-.04.87-.04 1.2 0 .93.15 1.01.91 1.01h3.58c-.2-.55-.3-2.11-.3-3.45 0-1.44.05-2.53.05-3.99 0-2.98-1.79-4.87-7.4-4.87-2.41 0-5.1.41-7.14 1.02.2.81.47 2.45.6 3.52a15.98 15.98 0 0 1 6.23-1.19c2.69 0 3.43.61 3.43 1.86v.5Zm9.83 2.59c-.49.05-1.15.05-1.83.05-.72 0-1.39-.02-1.83-.07l-.02.49c0 2.47 1.61 3.9 7.3 3.9 5.35 0 7.08-1.42 7.08-3.92 0-2.37-1.15-3.53-6.23-3.79-3.95-.18-4.3-.61-4.3-1.1 0-.58.5-.87 3.16-.87 2.74 0 3.48.37 3.48 1.16v.18a39.82 39.82 0 0 1 3.66.02l.02-.47c0-2.9-2.41-3.85-7.09-3.85-5.25 0-7.02 1.28-7.02 3.79 0 2.25 1.42 3.65 6.46 3.86 3.72.12 4.13.54 4.13 1.1 0 .62-.6.9-3.22.9-3 0-3.75-.42-3.75-1.27v-.11ZM63.6 2.17a15.13 15.13 0 0 1-5.4 3c.03.73.03 2.07.03 2.8l1.3.02c-.02 1.4-.04 3.1-.04 4.22 0 2.62 1.38 4.6 5.68 4.6 1.82 0 3.02-.2 4.52-.52a39.8 39.8 0 0 1-.39-3.57c-.9.3-2.02.46-3.27.46-1.73 0-2.43-.48-2.43-1.84 0-1.18 0-2.29.02-3.31 2.22.02 4.44.06 5.74.1-.02-1.03.02-2.51.08-3.5-1.89.04-4.01.06-5.76.06l.05-2.52h-.13Zm11.62 5.21.06-2.75h-3.91c.06 1.7.06 3.44.06 5.98 0 2.55-.02 4.3-.06 5.98h4.48c-.08-1.18-.1-3.18-.1-4.87 0-2.69 1.09-3.46 3.56-3.46 1.15 0 1.97.14 2.69.4.02-1 .21-2.96.33-3.83a8.85 8.85 0 0 0-2.55-.35c-2.12-.02-3.68.84-4.4 2.92l-.16-.02Zm19.5 3.15c0 2.15-1.56 3.16-4.01 3.16-2.44 0-4-.95-4-3.16 0-2.2 1.58-3.04 4-3.04 2.43 0 4 .9 4 3.04Zm4.06-.1c0-4.28-3.34-6.2-8.07-6.2-4.75 0-7.99 1.92-7.99 6.2 0 4.27 3.02 6.56 7.97 6.56 4.98 0 8.1-2.3 8.1-6.56Z"/>
</svg>
