<svg xmlns="http://www.w3.org/2000/svg" width="226" height="102" viewBox="0 0 226 102" fill="none" aria-hidden="true">
  <path class="docs-path astro-2w66rqv5" fill="currentColor" d="M25.805 68c14.688 0 24.883-8.41 24.883-21.14 0-12.786-9.62-19.756-24.653-19.756H0V68h25.805zm-14.17-33.005H24.25c8.352 0 14.17 4.09 14.17 12.039 0 8.236-5.3 13.075-14.113 13.075H11.635V34.995zM82.673 69.382c16.704 0 27.418-8.582 27.418-21.83 0-13.248-10.771-21.83-27.418-21.83-16.589 0-27.418 8.582-27.418 21.83 0 13.19 10.83 21.83 27.418 21.83zm0-8.64c-9.1 0-15.149-5.299-15.149-13.19 0-7.891 6.048-13.19 15.15-13.19 9.1 0 15.205 5.299 15.205 13.19 0 7.891-6.105 13.19-15.206 13.19zM141.497 69.382c13.306 0 22.637-5.299 25.978-14.572l-11.866-2.535c-1.67 5.415-6.393 8.295-13.709 8.295-9.216 0-15.033-5.127-15.033-13.018 0-8.006 5.702-13.018 14.918-13.018 7.43 0 12.154 3.053 13.709 8.64l12.038-2.13c-2.707-9.562-12.268-15.322-25.574-15.322-16.128 0-27.302 9.043-27.302 22.003 0 13.133 10.425 21.657 26.841 21.657zM194.94 69.382c14.745 0 23.212-5.01 23.212-14.054 0-7.603-4.665-10.944-15.955-12.096l-11.289-1.094c-5.242-.576-6.97-1.556-6.97-4.09 0-2.765 3.456-4.262 9.792-4.262 7.834 0 13.709 2.476 16.762 6.508l7.315-6.163c-5.069-5.702-13.133-8.41-23.501-8.41-13.997 0-21.888 4.781-21.888 12.903 0 7.546 4.781 11.232 14.803 12.326l12.557 1.383c4.896.518 6.624 1.555 6.624 4.09 0 3.225-3.456 4.723-10.886 4.723-8.352 0-14.688-3.226-18.087-8.007l-8.294 5.818c4.205 6.451 13.709 10.425 25.805 10.425z"></path>
</svg>
