<svg xmlns="http://www.w3.org/2000/svg" width="69" height="28" viewBox="0 -6 246 100">
	<path fill="currentColor" d="M29 63.8c16.6 0 28.1-9.5 28.1-23.8 0-14.4-10.8-22.3-27.8-22.3H0v46.1h29ZM13.2 26.6h14.2c9.5 0 16 4.6 16 13.6 0 9.3-6 14.7-15.9 14.7H13.1V26.6Zm80.1 38.8c18.8 0 31-9.7 31-24.6 0-15-12.2-24.6-31-24.6-18.7 0-31 9.6-31 24.6 0 14.8 12.3 24.6 31 24.6Zm0-9.8c-10.3 0-17-6-17-14.8 0-9 6.7-14.9 17-14.9s17.1 6 17.1 14.9-6.8 14.8-17.1 14.8Zm66.3 9.8c15 0 25.5-6 29.3-16.4l-13.5-3c-1.9 6.1-7.2 9.4-15.4 9.4-10.4 0-17-5.8-17-14.7 0-9 6.4-14.7 16.8-14.7 8.4 0 13.7 3.4 15.5 9.7l13.6-2.4c-3-10.7-13.9-17.2-28.9-17.2-18.1 0-30.7 10.2-30.7 24.8 0 14.8 11.7 24.4 30.2 24.4Zm60.3 0c16.6 0 26.1-5.7 26.1-15.9 0-8.5-5.2-12.3-18-13.6l-12.7-1.2c-5.9-.7-7.8-1.8-7.8-4.6 0-3.2 3.9-4.8 11-4.8 8.8 0 15.4 2.8 18.9 7.3l8.2-7c-5.7-6.4-14.8-9.4-26.5-9.4-15.7 0-24.6 5.4-24.6 14.5 0 8.5 5.4 12.7 16.7 14l14.1 1.5c5.5.6 7.5 1.7 7.5 4.6 0 3.6-4 5.3-12.3 5.3-9.4 0-16.5-3.6-20.4-9l-9.3 6.5c4.7 7.3 15.4 11.8 29 11.8Z"/>
</svg>
