<svg width="124" height="112" viewBox="0 0 124 112" fill="none" xmlns="http://www.w3.org/2000/svg">
  <path d="M3.87432 50.7926C1.84866 43.5953 6.0411 36.1186 13.2384 34.093L84.9135 13.9202C92.1108 11.8946 99.5875 16.087 101.613 23.2843L114.909 70.5247C116.934 77.722 112.742 85.1987 105.545 87.2243L33.8696 107.397C26.6723 109.423 19.1956 105.23 17.17 98.033L3.87432 50.7926Z" fill="url(#paint0_angular_454_34655)"/>
  <path d="M7.36141 50.6902C5.71557 44.8424 9.12192 38.7676 14.9697 37.1217L85.0159 17.4075C90.8637 15.7616 96.9385 19.168 98.5843 25.0158L111.422 70.6272C113.067 76.475 109.661 82.5498 103.813 84.1957L33.7671 103.91C27.9193 105.556 21.8445 102.149 20.1986 96.3016L7.36141 50.6902Z" fill="url(#paint1_radial_454_34655)"/>
  <path d="M43.9943 74.6613C45.2603 79.1596 42.64 83.8325 38.1417 85.0985C33.6434 86.3646 28.9705 83.7443 27.7045 79.246C26.4384 74.7477 29.0587 70.0748 33.557 68.8087C38.0553 67.5427 42.7282 70.163 43.9943 74.6613Z" fill="white"/>
  <path d="M63.2885 74.5049C65.9875 73.7452 67.5597 70.9415 66.8 68.2425L70.058 67.3256C71.324 71.8239 68.7038 76.4968 64.2054 77.7628C59.7071 79.0289 55.0342 76.4086 53.7682 71.9103L57.0261 70.9933C57.7858 73.6923 60.5895 75.2645 63.2885 74.5049Z" fill="white"/>
  <path d="M96.1217 59.9901C97.3877 64.4884 94.7675 69.1613 90.2692 70.4274C85.7709 71.6934 81.0979 69.0731 79.8319 64.5748C78.5659 60.0765 81.1861 55.4036 85.6845 54.1376C90.1828 52.8715 94.8557 55.4918 96.1217 59.9901Z" fill="white"/>
  <g opacity="0.6" filter="url(#filter0_i_454_34655)">
  <path d="M16.9373 67.5367C11.841 49.4292 24.1779 34.7038 50.2416 27.3682C76.3053 20.0327 94.1641 26.2596 99.2604 44.3671L106.146 68.8316C107.631 74.1089 104.557 79.591 99.2798 81.0763L36.0674 98.8672C30.7901 100.353 25.308 97.2785 23.8227 92.0012L16.9373 67.5367Z" fill="#D9D9D9" fill-opacity="0.1"/>
  </g>
  <mask id="mask0_454_34655" style="mask-type:alpha" maskUnits="userSpaceOnUse" x="3" y="9" width="110" height="98">
  <path d="M3.99829 34.0562L91.9632 9.29869L112.251 81.3811L24.2857 106.139L3.99829 34.0562Z" fill="#D9D9D9"/>
  </mask>
  <g mask="url(#mask0_454_34655)">
  <g filter="url(#filter1_f_454_34655)">
  <path d="M17.8857 115.411C22.2882 74.8367 25.2974 70.6935 48.3759 24.6428" stroke="url(#paint2_linear_454_34655)" stroke-opacity="0.15" stroke-width="16.2458"/>
  </g>
  <g filter="url(#filter2_f_454_34655)">
  <path d="M16.3323 111.454C20.0152 91.2253 19.669 53.8184 42.0124 24.6757" stroke="url(#paint3_linear_454_34655)" stroke-opacity="0.7" stroke-width="6.09217"/>
  </g>
  <g filter="url(#filter3_f_454_34655)">
  <path d="M68.3193 95.5036C72.0022 75.2754 78.0026 49.4871 93.9994 8.7258" stroke="url(#paint4_linear_454_34655)" stroke-opacity="0.2" stroke-width="2.03072"/>
  </g>
  <g filter="url(#filter4_f_454_34655)">
  <path d="M77.0171 81.121C82.3892 61.2744 82.9738 49.386 104.436 -3.64275" stroke="url(#paint5_linear_454_34655)" stroke-opacity="0.3" stroke-width="9.13825"/>
  </g>
  </g>
  <path fill-rule="evenodd" clip-rule="evenodd" d="M82.488 96.0039C114.572 87.3689 123.377 84.9991 113.976 51.5952L108.15 30.8937C99.7825 1.16476 69.5922 -4.18264 43.6374 3.12225C17.6826 10.4271 -5.40137 30.3289 3.08035 60.4651L8.90676 81.1667C18.3082 114.57 27.0571 112 58.935 102.633C62.5444 101.572 66.4503 100.425 70.6872 99.232C74.9242 98.0396 78.8553 96.9816 82.488 96.0039ZM50.2417 27.3681C24.178 34.7037 11.841 49.4291 16.9373 67.5366L23.8228 92.0011C25.3081 97.2784 30.7902 100.352 36.0675 98.8672L99.2799 81.0762C104.557 79.5909 107.631 74.1088 106.146 68.8315L99.2604 44.367C94.1641 26.2595 76.3054 20.0326 50.2417 27.3681Z" fill="url(#paint6_radial_454_34655)"/>
  <path d="M107.588 55.4444C110.373 65.3407 115.229 72.632 118.434 71.7299C121.639 70.8279 125.034 61.2145 122.249 51.3182C119.463 41.4219 111.553 34.9903 108.348 35.8924C105.143 36.7944 104.803 45.5482 107.588 55.4444Z" fill="url(#paint7_linear_454_34655)"/>
  <g filter="url(#filter5_i_454_34655)">
  <path d="M112.076 54.1814C114.291 62.0534 118.097 67.8694 120.576 67.1718C123.054 66.4742 124.464 59.1903 122.249 51.3183C120.033 43.4462 115.031 37.9671 112.552 38.6647C110.074 39.3623 109.86 46.3094 112.076 54.1814Z" fill="url(#paint8_angular_454_34655)"/>
  </g>
  <path d="M16.7721 81.0042C19.5574 90.9005 19.2171 99.6542 16.0121 100.556C12.807 101.458 4.89658 95.0267 2.1113 85.1305C-0.673973 75.2342 2.72065 65.6208 5.9257 64.7187C9.13074 63.8167 13.9869 71.1079 16.7721 81.0042Z" fill="url(#paint9_linear_454_34655)"/>
  <g filter="url(#filter6_i_454_34655)">
  <path d="M12.2841 82.2674C14.4996 90.1395 14.2863 97.0865 11.8077 97.7841C9.32901 98.4817 4.3268 93.0026 2.11124 85.1305C-0.104324 77.2585 1.30576 69.9746 3.78442 69.277C6.26308 68.5794 10.0685 74.3954 12.2841 82.2674Z" fill="url(#paint10_angular_454_34655)"/>
  </g>
  <defs>
  <filter id="filter0_i_454_34655" x="15.8081" y="24.3584" width="95.7882" height="81.4824" filterUnits="userSpaceOnUse" color-interpolation-filters="sRGB">
  <feFlood flood-opacity="0" result="BackgroundImageFix"/>
  <feBlend mode="normal" in="SourceGraphic" in2="BackgroundImageFix" result="shape"/>
  <feColorMatrix in="SourceAlpha" type="matrix" values="0 0 0 0 0 0 0 0 0 0 0 0 0 0 0 0 0 0 127 0" result="hardAlpha"/>
  <feOffset dx="5.07681" dy="6.59985"/>
  <feGaussianBlur stdDeviation="20.3072"/>
  <feComposite in2="hardAlpha" operator="arithmetic" k2="-1" k3="1"/>
  <feColorMatrix type="matrix" values="0 0 0 0 0 0 0 0 0 0 0 0 0 0 0 0 0 0 1 0"/>
  <feBlend mode="normal" in2="shape" result="effect1_innerShadow_454_34655"/>
  </filter>
  <filter id="filter1_f_454_34655" x="-2.37403" y="8.81908" width="70.1963" height="119.653" filterUnits="userSpaceOnUse" color-interpolation-filters="sRGB">
  <feFlood flood-opacity="0" result="BackgroundImageFix"/>
  <feBlend mode="normal" in="SourceGraphic" in2="BackgroundImageFix" result="shape"/>
  <feGaussianBlur stdDeviation="6.09217" result="effect1_foregroundBlur_454_34655"/>
  </filter>
  <filter id="filter2_f_454_34655" x="7.24328" y="16.7301" width="43.2786" height="101.361" filterUnits="userSpaceOnUse" color-interpolation-filters="sRGB">
  <feFlood flood-opacity="0" result="BackgroundImageFix"/>
  <feBlend mode="normal" in="SourceGraphic" in2="BackgroundImageFix" result="shape"/>
  <feGaussianBlur stdDeviation="3.04608" result="effect1_foregroundBlur_454_34655"/>
  </filter>
  <filter id="filter3_f_454_34655" x="64.2742" y="5.3089" width="33.7164" height="93.4227" filterUnits="userSpaceOnUse" color-interpolation-filters="sRGB">
  <feFlood flood-opacity="0" result="BackgroundImageFix"/>
  <feBlend mode="normal" in="SourceGraphic" in2="BackgroundImageFix" result="shape"/>
  <feGaussianBlur stdDeviation="1.52304" result="effect1_foregroundBlur_454_34655"/>
  </filter>
  <filter id="filter4_f_454_34655" x="65.4992" y="-12.4645" width="50.2795" height="101.887" filterUnits="userSpaceOnUse" color-interpolation-filters="sRGB">
  <feFlood flood-opacity="0" result="BackgroundImageFix"/>
  <feBlend mode="normal" in="SourceGraphic" in2="BackgroundImageFix" result="shape"/>
  <feGaussianBlur stdDeviation="3.55376" result="effect1_foregroundBlur_454_34655"/>
  </filter>
  <filter id="filter5_i_454_34655" x="110.544" y="38.605" width="14.3311" height="30.6543" filterUnits="userSpaceOnUse" color-interpolation-filters="sRGB">
  <feFlood flood-opacity="0" result="BackgroundImageFix"/>
  <feBlend mode="normal" in="SourceGraphic" in2="BackgroundImageFix" result="shape"/>
  <feColorMatrix in="SourceAlpha" type="matrix" values="0 0 0 0 0 0 0 0 0 0 0 0 0 0 0 0 0 0 127 0" result="hardAlpha"/>
  <feOffset dx="1.52304" dy="2.03072"/>
  <feGaussianBlur stdDeviation="1.01536"/>
  <feComposite in2="hardAlpha" operator="arithmetic" k2="-1" k3="1"/>
  <feColorMatrix type="matrix" values="0 0 0 0 0 0 0 0 0 0 0 0 0 0 0 0 0 0 0.25 0"/>
  <feBlend mode="normal" in2="shape" result="effect1_innerShadow_454_34655"/>
  </filter>
  <filter id="filter6_i_454_34655" x="1.00757" y="69.2202" width="14.3311" height="30.6545" filterUnits="userSpaceOnUse" color-interpolation-filters="sRGB">
  <feFlood flood-opacity="0" result="BackgroundImageFix"/>
  <feBlend mode="normal" in="SourceGraphic" in2="BackgroundImageFix" result="shape"/>
  <feColorMatrix in="SourceAlpha" type="matrix" values="0 0 0 0 0 0 0 0 0 0 0 0 0 0 0 0 0 0 127 0" result="hardAlpha"/>
  <feOffset dx="1.52304" dy="2.03072"/>
  <feGaussianBlur stdDeviation="1.01536"/>
  <feComposite in2="hardAlpha" operator="arithmetic" k2="-1" k3="1"/>
  <feColorMatrix type="matrix" values="0 0 0 0 0 0 0 0 0 0 0 0 0 0 0 0 0 0 0.25 0"/>
  <feBlend mode="normal" in2="shape" result="effect1_innerShadow_454_34655"/>
  </filter>
  <radialGradient id="paint0_angular_454_34655" cx="0" cy="0" r="1" gradientUnits="userSpaceOnUse" gradientTransform="translate(59.3916 60.6587) rotate(-105.719) scale(38.076 50.7681)">
  <stop stop-color="#3245FF"/>
  <stop offset="0.286458" stop-color="#BC52EE"/>
  <stop offset="0.708333" stop-color="#4AF2C8"/>
  <stop offset="1" stop-color="#3245FF"/>
  </radialGradient>
  <radialGradient id="paint1_radial_454_34655" cx="0" cy="0" r="1" gradientUnits="userSpaceOnUse" gradientTransform="translate(57.0418 52.3102) rotate(74.2809) scale(56.4701 77.1298)">
  <stop offset="0.366592" stop-color="#191C24"/>
  <stop offset="0.661446" stop-color="#111218"/>
  <stop offset="1" stop-color="#040506"/>
  </radialGradient>
  <linearGradient id="paint2_linear_454_34655" x1="24.5364" y1="50.0313" x2="31.5854" y2="75.0769" gradientUnits="userSpaceOnUse">
  <stop stop-color="white"/>
  <stop offset="1" stop-color="white" stop-opacity="0"/>
  </linearGradient>
  <linearGradient id="paint3_linear_454_34655" x1="18.7994" y1="31.209" x2="33.4132" y2="83.1327" gradientUnits="userSpaceOnUse">
  <stop stop-color="white"/>
  <stop offset="1" stop-color="white" stop-opacity="0"/>
  </linearGradient>
  <linearGradient id="paint4_linear_454_34655" x1="74.7981" y1="29.5126" x2="82.5348" y2="57.0016" gradientUnits="userSpaceOnUse">
  <stop stop-color="white"/>
  <stop offset="1" stop-color="white" stop-opacity="0"/>
  </linearGradient>
  <linearGradient id="paint5_linear_454_34655" x1="86.7894" y1="18.2784" x2="92.2253" y2="46.5287" gradientUnits="userSpaceOnUse">
  <stop stop-color="white"/>
  <stop offset="1" stop-color="white" stop-opacity="0"/>
  </linearGradient>
  <radialGradient id="paint6_radial_454_34655" cx="0" cy="0" r="1" gradientUnits="userSpaceOnUse" gradientTransform="translate(61.0628 49.4201) rotate(-148.38) scale(98.9527 214.836)">
  <stop offset="0.25" stop-color="white"/>
  <stop offset="1" stop-color="#B3BCDF"/>
  </radialGradient>
  <linearGradient id="paint7_linear_454_34655" x1="109.875" y1="35.4625" x2="119.962" y2="71.3001" gradientUnits="userSpaceOnUse">
  <stop stop-color="white"/>
  <stop offset="1" stop-color="#B0B9DD"/>
  </linearGradient>
  <radialGradient id="paint8_angular_454_34655" cx="0" cy="0" r="1" gradientUnits="userSpaceOnUse" gradientTransform="translate(112.368 59.1536) rotate(-99.3039) scale(56.8354 26.9591)">
  <stop stop-color="#3245FF"/>
  <stop offset="0.286458" stop-color="#BC52EE"/>
  <stop offset="0.708333" stop-color="#4AF2C8"/>
  <stop offset="1" stop-color="#3245FF"/>
  </radialGradient>
  <linearGradient id="paint9_linear_454_34655" x1="4.39853" y1="65.1485" x2="14.4849" y2="100.986" gradientUnits="userSpaceOnUse">
  <stop stop-color="white"/>
  <stop offset="1" stop-color="#B0B9DD"/>
  </linearGradient>
  <radialGradient id="paint10_angular_454_34655" cx="0" cy="0" r="1" gradientUnits="userSpaceOnUse" gradientTransform="translate(14.6286 86.6619) rotate(-112.134) scale(56.8354 26.9591)">
  <stop stop-color="#3245FF"/>
  <stop offset="0.286458" stop-color="#BC52EE"/>
  <stop offset="0.708333" stop-color="#4AF2C8"/>
  <stop offset="1" stop-color="#3245FF"/>
  </radialGradient>
  </defs>
  </svg>
  