<svg width="73" height="74" viewBox="0 0 73 74" fill="none" xmlns="http://www.w3.org/2000/svg">
<path d="M0 19.7333C0 14.3578 4.35776 10 9.73333 10H63.2667C68.6422 10 73 14.3578 73 19.7333V55.0167C73 60.3922 68.6422 64.75 63.2667 64.75H9.73333C4.35776 64.75 0 60.3922 0 55.0167V19.7333Z" fill="url(#paint0_angular_454_34393)"/>
<path d="M2.85156 20.6274C2.85156 16.333 6.34878 12.8517 10.6628 12.8517H62.3372C66.6512 12.8517 70.1484 16.333 70.1484 20.6274V54.1228C70.1484 58.4172 66.6512 61.8986 62.3372 61.8986H10.6628C6.34877 61.8986 2.85156 58.4172 2.85156 54.1228V20.6274Z" fill="url(#paint1_radial_454_34393)"/>
<path d="M24.179 40.5705C24.179 38.3543 22.3828 36.5587 20.1672 36.5587C18.8222 36.5587 17.6354 37.2223 16.9075 38.2369C16.1796 37.2223 14.9921 36.5587 13.6478 36.5587C11.4322 36.5587 9.63599 38.3543 9.63599 40.5705C9.63599 40.8837 9.67551 41.1893 9.74393 41.4819C10.3014 44.9427 14.1492 48.5953 16.9075 49.5975C19.6652 48.5953 23.5142 44.9427 24.0698 41.4831C24.1388 41.1893 24.179 40.8837 24.179 40.5705Z" fill="white"/>
<path d="M36.2981 46.7139C38.3061 46.7139 39.9338 45.0861 39.9338 43.0781H42.3577C42.3577 46.4247 39.6447 49.1377 36.2981 49.1377C32.9515 49.1377 30.2385 46.4247 30.2385 43.0781H32.6624C32.6624 45.0861 34.2901 46.7139 36.2981 46.7139Z" fill="white"/>
<path d="M62.9602 40.5705C62.9602 38.3543 61.164 36.5587 58.9484 36.5587C57.6035 36.5587 56.4166 37.2223 55.6887 38.2369C54.9608 37.2223 53.7734 36.5587 52.429 36.5587C50.2134 36.5587 48.4172 38.3543 48.4172 40.5705C48.4172 40.8837 48.4568 41.1893 48.5252 41.4819C49.0826 44.9427 52.9304 48.5953 55.6887 49.5975C58.4464 48.5953 62.2954 44.9427 62.8511 41.4831C62.9201 41.1893 62.9602 40.8837 62.9602 40.5705Z" fill="white"/>
<defs>
<radialGradient id="paint0_angular_454_34393" cx="0" cy="0" r="1" gradientUnits="userSpaceOnUse" gradientTransform="translate(36.5 37.375) rotate(-90) scale(27.375 36.5)">
<stop stop-color="#3245FF"/>
<stop offset="0.286458" stop-color="#BC52EE"/>
<stop offset="0.41434" stop-color="#4AF2C8"/>
<stop offset="0.554661" stop-color="#4AF2C8"/>
<stop offset="1" stop-color="#3245FF"/>
</radialGradient>
<radialGradient id="paint1_radial_454_34393" cx="0" cy="0" r="1" gradientUnits="userSpaceOnUse" gradientTransform="translate(36.5 31.2443) rotate(90) scale(39.9187 54.7722)">
<stop offset="0.366592" stop-color="#191C24"/>
<stop offset="0.661446" stop-color="#111218"/>
<stop offset="1" stop-color="#040506"/>
</radialGradient>
</defs>
</svg>
