<?xml version="1.0" encoding="UTF-8" standalone="no"?>
<svg
   height="2100"
   width="2900"
   version="1.1"
   viewBox="0 0 2900.0001 2099.9999"
   data-name="Layer 1"
   id="Layer_1"
   sodipodi:docname="waves-landscape-black-404.svg"
   inkscape:version="1.1.2 (0a00cf5339, 2022-02-04)"
   xmlns:inkscape="http://www.inkscape.org/namespaces/inkscape"
   xmlns:sodipodi="http://sodipodi.sourceforge.net/DTD/sodipodi-0.dtd"
   xmlns="http://www.w3.org/2000/svg"
   xmlns:svg="http://www.w3.org/2000/svg"
   xmlns:rdf="http://www.w3.org/1999/02/22-rdf-syntax-ns#"
   xmlns:cc="http://creativecommons.org/ns#"
   xmlns:dc="http://purl.org/dc/elements/1.1/">
  <sodipodi:namedview
     pagecolor="#ffffff"
     bordercolor="#666666"
     borderopacity="1"
     objecttolerance="10"
     gridtolerance="10"
     guidetolerance="10"
     inkscape:pageopacity="0"
     inkscape:pageshadow="2"
     inkscape:window-width="1850"
     inkscape:window-height="1016"
     id="namedview301"
     showgrid="false"
     inkscape:zoom="0.2247619"
     inkscape:cx="1368.1144"
     inkscape:cy="905.40256"
     inkscape:window-x="70"
     inkscape:window-y="27"
     inkscape:window-maximized="1"
     inkscape:current-layer="Layer_1"
     inkscape:pagecheckerboard="0" />
  <metadata
     id="metadata7372">
    <rdf:RDF>
      <cc:Work
         rdf:about="">
        <dc:format>image/svg+xml</dc:format>
        <dc:type
           rdf:resource="http://purl.org/dc/dcmitype/StillImage" />
        <dc:title>Prosopo Logo Black</dc:title>
      </cc:Work>
    </rdf:RDF>
  </metadata>
  <defs
     id="defs7343">
    <rect
       x="471.9043"
       y="393.89648"
       width="2003.0037"
       height="1202.552"
       id="rect2960" />
    <style
       id="style7341">.cls-1{fill:#1d1d1b;}</style>
  </defs>
  <title
     id="title7345">Prosopo Logo Black</title>
  <path
     style="fill:#000000;fill-opacity:1;stroke:none;stroke-opacity:1;opacity:0.2"
     d="M 1503.3027 -215.55273 L 1503.3027 -165.05273 A 147.75 147.75 0 0 1 1651.0527 -17.302734 L 1667.8379 -17.302734 A 147.75 147.75 0 0 1 1799.6992 129.53711 A 147.75 147.75 0 0 1 1947.4492 277.28711 A 147.75 147.75 0 0 1 2095.1992 425.03711 A 147.75 147.75 0 0 1 2242.9492 572.78711 A 147.75 147.75 0 0 1 2390.6992 720.53711 A 147.75 147.75 0 0 1 2538.4492 868.28711 A 147.75 147.75 0 0 1 2686.1992 1016.0371 A 147.75 147.75 0 0 1 2833.9492 1163.7871 A 147.75 147.75 0 0 1 2981.6992 1311.5371 A 147.75 147.75 0 0 1 3129.4492 1459.2871 L 3179.9492 1459.2871 C 3179.9492 1365.381 3114.6571 1286.7287 3026.9941 1266.2402 C 3009.9046 1193.1271 2952.3578 1135.5783 2879.2441 1118.4902 C 2862.1546 1045.3771 2804.6078 987.82826 2731.4941 970.74023 C 2714.4046 897.62713 2656.8578 840.07826 2583.7441 822.99023 C 2566.6546 749.87713 2509.1078 692.32826 2435.9941 675.24023 C 2418.9046 602.12713 2361.3578 544.57826 2288.2441 527.49023 C 2271.1546 454.37713 2213.6078 396.82826 2140.4941 379.74023 C 2123.4046 306.62713 2065.8578 249.07826 1992.7441 231.99023 C 1975.6546 158.87713 1918.1078 101.32826 1844.9941 84.240234 C 1827.8125 10.733212 1769.736 -47.040246 1696.0605 -63.78125 C 1675.1417 -150.84511 1596.7839 -215.55273 1503.3027 -215.55273 z M -169.55469 -197.06445 C -169.55469 -103.15969 -104.27028 -24.515064 -16.611328 -4.0273438 C 0.47607647 69.082981 58.018582 126.62549 131.12891 143.71289 C 148.21628 216.82308 205.75901 274.36365 278.86914 291.45117 C 295.95612 364.56286 353.49775 422.10428 426.60938 439.19141 C 443.6965 512.30304 501.23792 569.84466 574.34961 586.93164 C 591.43713 660.04177 648.9777 717.5845 722.08789 734.67188 C 739.1753 807.7822 796.7178 865.32471 869.82812 882.41211 C 886.91553 955.52243 944.45801 1013.0649 1017.5684 1030.1523 C 1034.6558 1103.2627 1092.1983 1160.8052 1165.3086 1177.8926 C 1182.396 1251.0029 1239.9385 1308.5454 1313.0488 1325.6328 C 1330.1362 1398.743 1387.6789 1456.2836 1460.7891 1473.3711 C 1477.876 1546.4828 1535.4176 1604.0242 1608.5293 1621.1113 C 1625.6164 1694.2228 1683.158 1751.7645 1756.2695 1768.8516 C 1773.3572 1841.9623 1830.8987 1899.505 1904.0098 1916.5918 C 1921.0973 1989.7019 1978.6379 2047.2447 2051.748 2064.332 C 2072.2358 2151.991 2150.8804 2217.2754 2244.7852 2217.2754 L 2244.7852 2166.7754 A 147.75 147.75 0 0 1 2097.0449 2019.0352 A 147.75 147.75 0 0 1 1949.3047 1871.2949 A 147.75 147.75 0 0 1 1801.5645 1723.5547 A 147.75 147.75 0 0 1 1653.8262 1575.8164 A 147.75 147.75 0 0 1 1506.0859 1428.0762 A 147.75 147.75 0 0 1 1358.3457 1280.3359 A 147.75 147.75 0 0 1 1210.6055 1132.5957 A 147.75 147.75 0 0 1 1062.8652 984.85547 A 147.75 147.75 0 0 1 915.125 837.11523 A 147.75 147.75 0 0 1 767.38477 689.375 A 147.75 147.75 0 0 1 619.64453 541.63477 A 147.75 147.75 0 0 1 471.9043 393.89648 A 147.75 147.75 0 0 1 324.16602 246.15625 A 147.75 147.75 0 0 1 176.42578 98.416016 A 147.75 147.75 0 0 1 28.685547 -49.324219 A 147.75 147.75 0 0 1 -119.05469 -197.06445 L -169.55469 -197.06445 z M 595.58594 -191.83203 L 595.58594 -141.33203 A 147.74 147.74 0 0 1 743.32617 6.4082031 L 743.33594 6.4082031 L 743.33594 6.4179688 A 147.74 147.74 0 0 1 891.07617 154.1582 L 891.27539 154.1582 L 891.27539 154.96875 A 147.75 147.75 0 0 1 1039.0273 302.71875 A 147.75 147.75 0 0 1 1186.7773 450.46875 L 1203.5605 450.46875 A 147.75 147.75 0 0 1 1335.4219 597.30859 A 147.75 147.75 0 0 1 1483.1719 745.05859 L 1483.1816 745.05859 L 1483.1816 745.06836 A 147.74 147.74 0 0 1 1607.502 812.98438 A 147.75 147.75 0 0 1 1614.8477 825.78906 A 147.74 147.74 0 0 1 1614.8496 825.79297 A 147.75 147.75 0 0 1 1620.8809 839.26953 A 147.74 147.74 0 0 1 1620.8828 839.27344 A 147.75 147.75 0 0 1 1625.5391 853.28516 A 147.74 147.74 0 0 1 1625.5391 853.28711 A 147.75 147.75 0 0 1 1628.7734 867.69531 A 147.74 147.74 0 0 1 1630.9219 892.80859 A 147.75 147.75 0 0 1 1778.6719 1040.5586 A 147.74 147.74 0 0 1 1793.4219 1041.2969 A 147.75 147.75 0 0 1 1793.4238 1041.2969 A 147.74 147.74 0 0 1 1808.0234 1043.5039 A 147.75 147.75 0 0 1 1808.0254 1043.5039 A 147.74 147.74 0 0 1 1862.0938 1066.3633 A 147.75 147.75 0 0 1 1862.0977 1066.3652 A 147.74 147.74 0 0 1 1926.4121 1188.2988 A 147.74 147.74 0 0 1 1926.4219 1188.2988 A 147.75 147.75 0 0 1 1926.4219 1188.3086 A 147.75 147.75 0 0 1 2009.8477 1214.1152 A 147.74 147.74 0 0 1 2074.1523 1336.0391 A 147.74 147.74 0 0 1 2074.1719 1336.0391 A 147.75 147.75 0 0 1 2074.1719 1336.0586 A 147.75 147.75 0 0 1 2169.3438 1370.793 A 147.74 147.74 0 0 1 2221.8926 1483.7773 A 147.74 147.74 0 0 1 2221.9199 1483.7793 A 147.75 147.75 0 0 1 2221.9219 1483.8086 A 147.75 147.75 0 0 1 2317.1055 1518.5527 A 147.74 147.74 0 0 1 2369.6328 1631.5176 A 147.74 147.74 0 0 1 2369.6699 1631.5195 A 147.75 147.75 0 0 1 2369.6719 1631.5586 A 147.75 147.75 0 0 1 2464.8555 1666.3027 A 147.74 147.74 0 0 1 2517.373 1779.2578 A 147.74 147.74 0 0 1 2517.4199 1779.2598 A 147.75 147.75 0 0 1 2517.4219 1779.3086 A 147.75 147.75 0 0 1 2612.6055 1814.0527 A 147.74 147.74 0 0 1 2665.1133 1926.998 A 147.74 147.74 0 0 1 2665.1699 1927 A 147.75 147.75 0 0 1 2665.1719 1927.0586 A 147.75 147.75 0 0 1 2764.1035 1965.2949 A 147.74 147.74 0 0 1 2812.8516 2074.7383 L 2812.9199 2074.7383 A 147.75 147.75 0 0 1 2812.9219 2074.8086 A 147.75 147.75 0 0 1 2960.6719 2222.5586 L 3011.1719 2222.5586 C 3011.1719 2128.6532 2945.8807 2050.0009 2858.2188 2029.5117 C 2849.6744 1992.9549 2831.0186 1960.2882 2805.3555 1934.625 C 2779.6957 1908.9414 2747.0242 1890.2689 2710.457 1881.7129 C 2702.275 1846.7468 2684.8425 1815.3417 2660.875 1790.2227 C 2659.7987 1789.0938 2658.7079 1787.9783 2657.6055 1786.875 C 2657.5872 1786.8568 2657.569 1786.8385 2657.5508 1786.8203 C 2631.899 1761.1686 2599.2483 1742.5186 2562.709 1733.9707 C 2554.5288 1699.0061 2537.0991 1667.6017 2513.1348 1642.4824 C 2512.0553 1641.3502 2510.9612 1640.2314 2509.8555 1639.125 C 2509.8405 1639.11 2509.8255 1639.095 2509.8105 1639.0801 C 2484.1571 1613.4266 2451.5032 1594.7776 2414.9609 1586.2305 C 2406.7828 1551.2667 2389.3562 1519.8621 2365.3945 1494.7422 C 2364.3119 1493.6067 2363.2145 1492.4846 2362.1055 1491.375 C 2362.0938 1491.3633 2362.082 1491.3516 2362.0703 1491.3398 C 2336.415 1465.6845 2303.7584 1447.0345 2267.2129 1438.4883 C 2259.4101 1405.1229 2243.1841 1374.9994 2220.8945 1350.4844 C 2219.836 1349.3197 2218.7653 1348.1664 2217.6797 1347.0273 C 2217.6714 1347.0187 2217.6626 1347.0106 2217.6543 1347.002 C 2217.3276 1346.6593 2216.9912 1346.3266 2216.6621 1345.9863 C 2215.897 1345.1955 2215.1335 1344.403 2214.3555 1343.625 C 2213.2346 1342.5037 2212.1005 1341.395 2210.9531 1340.3008 C 2210.9448 1340.2928 2210.9361 1340.2853 2210.9277 1340.2773 C 2185.8123 1316.332 2154.4166 1298.9181 2119.4648 1290.7461 C 2112.0373 1258.9792 2096.9748 1230.1504 2076.3125 1206.3027 C 2075.2788 1205.1094 2074.2314 1203.9279 2073.1699 1202.7598 C 2073.165 1202.7543 2073.1592 1202.7496 2073.1543 1202.7441 C 2072.0927 1201.5761 2071.0185 1200.4197 2069.9297 1199.2773 C 2069.9246 1199.272 2069.9191 1199.267 2069.9141 1199.2617 C 2069.7132 1199.0511 2069.5064 1198.8465 2069.3047 1198.6367 C 2068.4123 1197.7091 2067.5157 1196.7852 2066.6055 1195.875 C 2065.4845 1194.7538 2064.3505 1193.645 2063.2031 1192.5508 C 2063.1981 1192.546 2063.1925 1192.5419 2063.1875 1192.5371 C 2058.6024 1188.1656 2053.8073 1184.0117 2048.8203 1180.0918 C 2048.8149 1180.0875 2048.8101 1180.0824 2048.8047 1180.0781 C 2026.476 1162.5312 2000.2839 1149.6819 1971.7168 1143.0039 C 1965.7843 1117.6266 1954.9805 1094.1231 1940.3398 1073.5371 C 1939.4202 1072.2439 1938.4868 1070.9614 1937.5371 1069.6914 C 1937.5355 1069.6892 1937.5329 1069.6877 1937.5312 1069.6855 C 1936.6639 1068.5258 1935.7806 1067.3782 1934.8887 1066.2383 C 1934.8022 1066.1278 1934.7195 1066.0146 1934.6328 1065.9043 C 1933.6536 1064.6582 1932.6605 1063.4249 1931.6523 1062.2031 C 1931.6506 1062.201 1931.6482 1062.1994 1931.6465 1062.1973 C 1930.6383 1060.9756 1929.6148 1059.7652 1928.5781 1058.5684 C 1928.5763 1058.5663 1928.5741 1058.5646 1928.5723 1058.5625 C 1928.2219 1058.158 1927.8614 1057.763 1927.5078 1057.3613 C 1926.8135 1056.5728 1926.1226 1055.7812 1925.416 1055.0039 C 1924.3513 1053.8325 1923.2718 1052.6729 1922.1797 1051.5273 C 1922.1778 1051.5253 1922.1757 1051.5235 1922.1738 1051.5215 C 1922.0985 1051.4425 1922.0208 1051.366 1921.9453 1051.2871 C 1920.9266 1050.2222 1919.8975 1049.167 1918.8555 1048.125 C 1917.7341 1047.0036 1916.601 1045.8952 1915.4531 1044.8008 C 1915.4518 1044.7995 1915.4506 1044.7981 1915.4492 1044.7969 C 1913.1555 1042.61 1910.8085 1040.4783 1908.4121 1038.4023 C 1908.4107 1038.4011 1908.4096 1038.3996 1908.4082 1038.3984 C 1907.2107 1037.3611 1905.9997 1036.337 1904.7773 1035.3281 C 1904.7759 1035.327 1904.7748 1035.3254 1904.7734 1035.3242 C 1903.551 1034.3154 1902.3171 1033.3216 1901.0703 1032.3418 C 1901.0689 1032.3407 1901.0678 1032.339 1901.0664 1032.3379 C 1899.8196 1031.3581 1898.5597 1030.3936 1897.2891 1029.4434 C 1897.2876 1029.4423 1897.2866 1029.4405 1897.2852 1029.4395 C 1896.0145 1028.4892 1894.7314 1027.555 1893.4375 1026.6348 C 1893.436 1026.6337 1893.4351 1026.6319 1893.4336 1026.6309 C 1892.1396 1025.7107 1890.8324 1024.8056 1889.5156 1023.916 C 1889.5141 1023.915 1889.5132 1023.9131 1889.5117 1023.9121 C 1888.1949 1023.0225 1886.8664 1022.1495 1885.5273 1021.291 C 1885.5258 1021.29 1885.5249 1021.2881 1885.5234 1021.2871 C 1882.8434 1019.569 1880.1196 1017.9148 1877.3535 1016.3242 C 1877.3523 1016.3235 1877.3509 1016.323 1877.3496 1016.3223 C 1877.0582 1016.1547 1876.7611 1015.9962 1876.4688 1015.8301 C 1875.3741 1015.2081 1874.2755 1014.586 1873.168 1013.9844 C 1871.7643 1013.2219 1870.3497 1012.4754 1868.9258 1011.7461 C 1868.9258 1011.7461 1868.9238 1011.7441 1868.9238 1011.7441 C 1867.4999 1011.0148 1866.0647 1010.303 1864.6211 1009.6074 C 1864.6211 1009.6074 1864.6191 1009.6055 1864.6191 1009.6055 C 1863.1755 1008.9099 1861.7226 1008.2317 1860.2598 1007.5703 C 1860.2598 1007.5703 1860.2578 1007.5684 1860.2578 1007.5684 C 1858.7947 1006.9069 1857.3216 1006.2634 1855.8398 1005.6367 C 1855.8398 1005.6367 1855.8379 1005.6367 1855.8379 1005.6367 C 1854.3561 1005.01 1852.8652 1004.4 1851.3652 1003.8086 C 1851.3652 1003.8086 1851.3633 1003.8086 1851.3633 1003.8086 C 1850.793 1003.5837 1850.2154 1003.374 1849.6426 1003.1543 C 1848.7087 1002.7961 1847.7765 1002.4303 1846.8359 1002.0859 C 1840.7639 999.86279 1834.5524 997.92835 1828.2188 996.29883 C 1826.8087 995.93605 1825.3907 995.59407 1823.9688 995.26172 C 1806.88 922.14815 1749.3323 864.60048 1676.2188 847.51172 C 1675.8865 846.09037 1675.5443 844.67308 1675.1816 843.26367 C 1675.1816 843.26367 1675.1816 843.26172 1675.1816 843.26172 C 1674.7742 841.67811 1674.3477 840.10319 1673.9023 838.53516 C 1672.5665 833.83118 1671.0601 829.19704 1669.3926 824.64258 C 1669.0482 823.702 1668.6843 822.77173 1668.3262 821.83789 C 1668.1065 821.26507 1667.8967 820.68548 1667.6719 820.11523 C 1667.0804 818.61524 1666.4705 817.12442 1665.8438 815.64258 C 1665.8438 815.64258 1665.8438 815.64062 1665.8438 815.64062 C 1665.2171 814.15902 1664.5735 812.68559 1663.9121 811.22266 C 1663.9121 811.22266 1663.9102 811.2207 1663.9102 811.2207 C 1663.2487 809.75779 1662.5706 808.30506 1661.875 806.86133 C 1661.875 806.86133 1661.873 806.85938 1661.873 806.85938 C 1661.1774 805.41566 1660.4657 803.98065 1659.7363 802.55664 C 1659.7363 802.55664 1659.7344 802.55469 1659.7344 802.55469 C 1659.005 801.13069 1658.2586 799.71627 1657.4961 798.3125 C 1657.4961 798.3125 1657.4941 798.31055 1657.4941 798.31055 C 1656.7316 796.90679 1655.9534 795.51388 1655.1582 794.13086 C 1654.3617 792.7456 1653.5495 791.37174 1652.7207 790.00781 C 1651.8938 788.64686 1651.0519 787.29624 1650.1934 785.95703 C 1650.1924 785.95551 1650.1904 785.95464 1650.1895 785.95312 C 1649.3309 784.61395 1648.458 783.28565 1647.5684 781.96875 C 1647.5673 781.96725 1647.5655 781.96635 1647.5645 781.96484 C 1646.6748 780.64797 1645.7698 779.34096 1644.8496 778.04688 C 1644.8486 778.04539 1644.8468 778.04445 1644.8457 778.04297 C 1643.9255 776.74892 1642.9913 775.46606 1642.041 774.19531 C 1642.0399 774.19385 1642.0382 774.19287 1642.0371 774.19141 C 1641.0868 772.92069 1640.1224 771.66291 1639.1426 770.41602 C 1639.1414 770.41458 1639.1398 770.41355 1639.1387 770.41211 C 1638.1588 769.16525 1637.1651 767.92955 1636.1562 766.70703 C 1636.1551 766.70562 1636.1535 766.70454 1636.1523 766.70312 C 1635.1435 765.48064 1634.1194 764.2699 1633.082 763.07227 C 1631.0035 760.6727 1628.8695 758.32399 1626.6797 756.02734 C 1626.166 755.48853 1625.6388 754.9627 1625.1191 754.42969 C 1624.532 753.82751 1623.9502 753.21969 1623.3555 752.625 C 1622.3134 751.58297 1621.2583 750.55388 1620.1934 749.53516 C 1620.1125 749.45781 1620.0341 749.37799 1619.9531 749.30078 C 1618.8075 748.20854 1617.648 747.13123 1616.4766 746.06641 C 1616.4745 746.06455 1616.4727 746.0624 1616.4707 746.06055 C 1615.2992 744.99577 1614.1148 743.94505 1612.918 742.9082 C 1612.9159 742.9064 1612.9142 742.90415 1612.9121 742.90234 C 1611.7152 741.86554 1610.5049 740.84234 1609.2832 739.83398 C 1609.2811 739.83224 1609.2795 739.82987 1609.2773 739.82812 C 1608.0559 738.82014 1606.8219 737.8267 1605.5762 736.84766 C 1605.5736 736.84565 1605.5709 736.84381 1605.5684 736.8418 C 1605.4606 736.75715 1605.3501 736.67622 1605.2422 736.5918 C 1604.1001 735.69819 1602.951 734.81227 1601.7891 733.94336 C 1580.3015 717.87377 1555.4433 706.06646 1528.4688 699.76172 C 1511.38 626.64816 1453.8323 569.10047 1380.7188 552.01172 C 1363.5378 478.5036 1305.4595 420.73141 1231.7832 403.99023 C 1214.3523 331.44021 1157.0404 274.41821 1084.3223 257.42188 C 1067.2328 184.30507 1009.6807 126.75585 936.5625 109.66992 C 919.7112 36.172017 862.00738 -21.731194 788.62305 -38.878906 C 768.1387 -126.54251 689.49401 -191.83203 595.58594 -191.83203 z M 2061.9082 -187.14258 L 2061.9082 -136.64258 A 147.75 147.75 0 0 1 2209.6582 11.107422 A 147.75 147.75 0 0 1 2357.4082 158.85742 A 147.75 147.75 0 0 1 2505.1582 306.60742 A 147.75 147.75 0 0 1 2652.9082 454.35742 A 147.75 147.75 0 0 1 2800.6582 602.10742 A 147.75 147.75 0 0 1 2948.4082 749.85742 A 147.75 147.75 0 0 1 3096.1582 897.60742 L 3146.6582 897.60742 C 3146.6582 803.70199 3081.3651 725.04969 2993.7031 704.56055 C 2976.6144 631.44698 2919.0667 573.8993 2845.9531 556.81055 C 2828.8644 483.69698 2771.3167 426.1493 2698.2031 409.06055 C 2681.1144 335.94698 2623.5667 278.3993 2550.4531 261.31055 C 2533.3644 188.19698 2475.8167 130.6493 2402.7031 113.56055 C 2385.6144 40.446982 2328.0667 -17.100699 2254.9531 -34.189453 C 2234.464 -121.85143 2155.8136 -187.14258 2061.9082 -187.14258 z M 113.71094 -184.84961 C 113.71094 -90.944181 178.99442 -12.299546 266.6543 8.1875 C 283.74196 81.29825 341.28346 138.8409 414.39453 155.92773 C 431.48202 229.03773 489.02281 286.57853 562.13281 303.66602 C 579.21965 376.77709 636.7623 434.31858 709.87305 451.40625 C 726.95988 524.51732 784.50253 582.05882 857.61328 599.14648 C 874.70015 672.25769 932.24255 729.79917 1005.3535 746.88672 C 1022.4409 819.99705 1079.9834 877.53955 1153.0938 894.62695 C 1170.1812 967.73728 1227.7237 1025.2798 1300.834 1042.3672 C 1317.9215 1115.4781 1375.463 1173.0206 1448.5742 1190.1074 C 1465.6619 1263.2182 1523.2034 1320.7608 1596.3145 1337.8477 C 1613.4021 1410.9583 1670.9438 1468.499 1744.0547 1485.5859 C 1761.1416 1558.6968 1818.6824 1616.2385 1891.793 1633.3262 C 1908.8798 1706.4372 1966.4225 1763.9787 2039.5332 1781.0664 C 2056.6201 1854.1776 2114.1625 1911.7191 2187.2734 1928.8066 C 2204.3608 2001.917 2261.9033 2059.4595 2335.0137 2076.5469 C 2355.5014 2164.2058 2434.146 2229.4902 2528.0508 2229.4902 L 2528.0508 2178.9902 A 147.75 147.75 0 0 1 2380.3105 2031.25 A 147.75 147.75 0 0 1 2232.5703 1883.5098 A 147.75 147.75 0 0 1 2084.8301 1735.7715 A 147.75 147.75 0 0 1 1937.0898 1588.0312 A 147.75 147.75 0 0 1 1789.3496 1440.291 A 147.75 147.75 0 0 1 1641.6094 1292.5508 A 147.75 147.75 0 0 1 1493.8691 1144.8105 A 147.75 147.75 0 0 1 1346.1309 997.07031 A 147.75 147.75 0 0 1 1198.3906 849.33008 A 147.75 147.75 0 0 1 1050.6504 701.58984 A 147.75 147.75 0 0 1 902.91016 553.84961 A 147.75 147.75 0 0 1 755.16992 406.11133 A 147.75 147.75 0 0 1 607.42969 258.37109 A 147.75 147.75 0 0 1 459.68945 110.63086 A 147.75 147.75 0 0 1 311.94922 -37.109375 A 147.75 147.75 0 0 1 164.21094 -184.84961 L 113.71094 -184.84961 z M 875.52539 -177.28125 L 875.52539 -126.78125 A 147.75 147.75 0 0 1 1022.3809 6.1875 L 1022.3809 21.876953 A 147.75 147.75 0 0 1 1170.1309 169.62695 A 147.75 147.75 0 0 1 1317.8809 317.37695 L 1336.3145 317.37695 A 147.75 147.75 0 0 1 1466.7559 464.00195 A 147.75 147.75 0 0 1 1614.5059 611.75195 A 147.75 147.75 0 0 1 1762.2559 759.50195 A 147.75 147.75 0 0 1 1910.0059 907.25195 A 147.75 147.75 0 0 1 2057.7559 1055.002 A 147.75 147.75 0 0 1 2205.5059 1202.752 A 147.75 147.75 0 0 1 2353.2559 1350.502 A 147.75 147.75 0 0 1 2501.0059 1498.252 A 147.75 147.75 0 0 1 2648.7559 1646.002 A 147.75 147.75 0 0 1 2796.5059 1793.752 A 147.75 147.75 0 0 1 2944.2559 1941.502 A 147.75 147.75 0 0 1 3092.0059 2089.252 L 3142.5059 2089.252 C 3142.5059 1995.3465 3077.2147 1916.6942 2989.5527 1896.2051 C 2972.464 1823.0915 2914.9163 1765.5438 2841.8027 1748.4551 C 2824.714 1675.3415 2767.1663 1617.7938 2694.0527 1600.7051 C 2676.964 1527.5915 2619.4163 1470.0438 2546.3027 1452.9551 C 2529.214 1379.8416 2471.6663 1322.2938 2398.5527 1305.2051 C 2381.464 1232.0915 2323.9163 1174.5438 2250.8027 1157.4551 C 2233.714 1084.3415 2176.1663 1026.7938 2103.0527 1009.7051 C 2085.964 936.59151 2028.4163 879.04383 1955.3027 861.95508 C 1938.2141 788.84221 1880.6653 731.2964 1807.5527 714.20703 C 1790.4647 641.09327 1732.9159 583.54654 1659.8027 566.45703 C 1642.7147 493.34329 1585.1659 435.79654 1512.0527 418.70703 C 1494.8493 345.09952 1436.6358 287.27271 1362.8184 270.61914 C 1345.307 198.20315 1288.0499 141.30638 1215.4258 124.33203 C 1198.4285 51.609876 1141.4014 -5.7053414 1068.8457 -23.132812 C 1048.7948 -111.39562 969.85693 -177.28125 875.52539 -177.28125 z M 2341.6582 -173.39258 L 2341.6582 -122.89258 A 147.75 147.75 0 0 1 2489.4082 24.857422 A 147.75 147.75 0 0 1 2637.1582 172.60742 A 147.75 147.75 0 0 1 2784.9082 320.35742 A 147.75 147.75 0 0 1 2932.6582 468.10742 A 147.75 147.75 0 0 1 3080.4082 615.85742 L 3130.9082 615.85742 C 3130.9082 521.95199 3065.6151 443.29969 2977.9531 422.81055 C 2960.8644 349.69698 2903.3167 292.1493 2830.2031 275.06055 C 2813.1144 201.94698 2755.5667 144.3993 2682.4531 127.31055 C 2665.3644 54.196981 2607.8167 -3.3506981 2534.7031 -20.439453 C 2514.214 -108.10142 2435.5636 -173.39258 2341.6582 -173.39258 z M 395.38281 -171.05273 C 395.38281 -77.147967 460.66722 1.4966543 548.32617 21.984375 C 565.41358 95.0947 622.95608 152.6372 696.06641 169.72461 C 713.15395 242.83555 770.69544 300.37798 843.80664 317.46484 C 860.89431 390.57559 918.43581 448.11824 991.54688 465.20508 C 1008.6345 538.31583 1066.176 595.85848 1139.2871 612.94531 C 1156.3746 686.05531 1213.9154 743.5961 1287.0254 760.68359 C 1304.1122 833.79466 1361.6549 891.33617 1434.7656 908.42383 C 1451.8517 981.53166 1509.39 1039.0716 1582.4961 1056.1621 C 1599.5845 1129.2772 1657.133 1186.8257 1730.248 1203.9141 C 1747.3356 1277.0242 1804.8762 1334.5669 1877.9863 1351.6543 C 1895.0739 1424.7652 1952.6155 1482.3076 2025.7266 1499.3945 C 2042.8142 1572.5053 2100.3557 1630.0479 2173.4668 1647.1348 C 2190.5545 1720.2455 2248.096 1777.7882 2321.207 1794.875 C 2338.2946 1867.9851 2395.8351 1925.5279 2468.9453 1942.6152 C 2486.0327 2015.7254 2543.5754 2073.266 2616.6855 2090.3535 C 2637.1726 2178.0134 2715.8172 2243.2988 2809.7227 2243.2988 L 2809.7227 2192.7988 A 147.75 147.75 0 0 1 2661.9824 2045.0586 A 147.75 147.75 0 0 1 2514.2422 1897.3184 A 147.75 147.75 0 0 1 2366.502 1749.5781 A 147.75 147.75 0 0 1 2218.7617 1601.8379 A 147.75 147.75 0 0 1 2071.0234 1454.0977 A 147.75 147.75 0 0 1 1923.2832 1306.3574 A 147.75 147.75 0 0 1 1775.543 1158.6172 A 147.74 147.74 0 0 1 1627.8027 1010.8672 A 147.75 147.75 0 0 1 1480.0625 863.12891 A 147.75 147.75 0 0 1 1332.3223 715.38867 A 147.75 147.75 0 0 1 1184.582 567.64844 A 147.75 147.75 0 0 1 1036.8418 419.9082 A 147.75 147.75 0 0 1 889.10156 272.16797 A 147.75 147.75 0 0 1 741.36328 124.42773 A 147.75 147.75 0 0 1 593.62305 -23.3125 A 147.75 147.75 0 0 1 445.88281 -171.05273 L 395.38281 -171.05273 z M 1153.7148 -161.92969 L 1153.7148 -111.42969 A 147.75 147.75 0 0 1 1301.4648 36.320312 A 147.75 147.75 0 0 1 1449.2148 184.07031 L 1477.4688 184.07031 A 147.75 147.75 0 0 1 1601.5 329.72656 A 147.75 147.75 0 0 1 1749.25 477.47656 A 147.75 147.75 0 0 1 1897 625.22656 A 147.75 147.75 0 0 1 2044.75 772.97656 A 147.75 147.75 0 0 1 2192.5 920.72656 A 147.75 147.75 0 0 1 2340.25 1068.4766 A 147.75 147.75 0 0 1 2488 1216.2266 A 147.75 147.75 0 0 1 2635.75 1363.9766 A 147.75 147.75 0 0 1 2783.5 1511.7266 A 147.75 147.75 0 0 1 2931.25 1659.4766 A 147.75 147.75 0 0 1 3079 1807.2266 L 3129.5 1807.2266 C 3129.5 1713.322 3064.2077 1634.6736 2976.5469 1614.1836 C 2959.4589 1541.0699 2901.91 1483.5232 2828.7969 1466.4336 C 2811.7089 1393.3199 2754.16 1335.7732 2681.0469 1318.6836 C 2663.9589 1245.5699 2606.41 1188.0232 2533.2969 1170.9336 C 2516.2089 1097.8199 2458.66 1040.2732 2385.5469 1023.1836 C 2368.4589 950.06989 2310.91 892.52317 2237.7969 875.43359 C 2220.7089 802.31989 2163.16 744.77317 2090.0469 727.68359 C 2072.9589 654.56991 2015.41 597.02317 1942.2969 579.93359 C 1925.2089 506.8199 1867.66 449.27317 1794.5469 432.18359 C 1777.4589 359.0699 1719.91 301.52317 1646.7969 284.43359 C 1629.2952 209.55024 1569.3523 150.98996 1493.7129 135.50781 C 1475.6932 63.951389 1418.7801 7.8586282 1346.7598 -8.9746094 C 1326.2706 -96.636577 1247.6203 -161.92969 1153.7148 -161.92969 z M 2621.4082 -159.64258 L 2621.4082 -109.14258 A 147.75 147.75 0 0 1 2769.1582 38.607422 A 147.75 147.75 0 0 1 2916.9082 186.35742 A 147.75 147.75 0 0 1 3064.6582 334.10742 L 3115.1582 334.10742 C 3115.1582 240.20199 3049.8651 161.54969 2962.2031 141.06055 C 2945.1144 67.946981 2887.5667 10.399302 2814.4531 -6.6894531 C 2793.964 -94.351426 2715.3136 -159.64258 2621.4082 -159.64258 z M 1437.1133 -149.35352 L 1437.1133 -98.853516 A 147.74 147.74 0 0 1 1584.8535 48.886719 L 1587.9395 48.886719 A 147.75 147.75 0 0 1 1733.6992 196.53711 A 147.75 147.75 0 0 1 1881.4492 344.28711 A 147.75 147.75 0 0 1 2029.1992 492.03711 A 147.75 147.75 0 0 1 2176.9492 639.78711 A 147.75 147.75 0 0 1 2324.6992 787.53711 A 147.75 147.75 0 0 1 2472.4492 935.28711 A 147.75 147.75 0 0 1 2620.1992 1083.0371 A 147.75 147.75 0 0 1 2767.9492 1230.7871 A 147.75 147.75 0 0 1 2915.6992 1378.5371 A 147.75 147.75 0 0 1 3063.4492 1526.2871 L 3113.9492 1526.2871 C 3113.9492 1432.381 3048.6571 1353.7287 2960.9941 1333.2402 C 2943.9046 1260.1271 2886.3578 1202.5783 2813.2441 1185.4902 C 2796.1546 1112.3771 2738.6078 1054.8283 2665.4941 1037.7402 C 2648.4046 964.62713 2590.8578 907.07826 2517.7441 889.99023 C 2500.6546 816.87713 2443.1078 759.32826 2369.9941 742.24023 C 2352.9046 669.12713 2295.3578 611.57826 2222.2441 594.49023 C 2205.1546 521.37713 2147.6078 463.82826 2074.4941 446.74023 C 2057.4046 373.62713 1999.8578 316.07826 1926.7441 298.99023 C 1909.6546 225.87713 1852.1078 168.32826 1778.9941 151.24023 C 1761.8123 77.732589 1703.735 19.959205 1630.0586 3.21875 C 1609.4354 -84.252514 1530.8849 -149.35352 1437.1133 -149.35352 z M 1717.0527 -134.80273 L 1717.0527 -84.302734 A 147.75 147.75 0 0 1 1864.8027 63.447266 A 147.75 147.75 0 0 1 2012.5527 211.19727 A 147.75 147.75 0 0 1 2160.3027 358.94727 A 147.75 147.75 0 0 1 2308.0527 506.69727 A 147.75 147.75 0 0 1 2455.8027 654.44727 A 147.75 147.75 0 0 1 2603.5527 802.19727 A 147.75 147.75 0 0 1 2751.3027 949.94727 A 147.75 147.75 0 0 1 2899.0527 1097.6973 A 147.75 147.75 0 0 1 3046.8027 1245.4473 L 3097.3027 1245.4473 C 3097.3027 1151.5412 3032.0106 1072.8888 2944.3477 1052.4004 C 2927.2581 979.28729 2869.7114 921.73841 2796.5977 904.65039 C 2779.5081 831.53728 2721.9614 773.98842 2648.8477 756.90039 C 2631.7581 683.78729 2574.2114 626.23841 2501.0977 609.15039 C 2484.0081 536.03728 2426.4614 478.48842 2353.3477 461.40039 C 2336.2581 388.28729 2278.7114 330.73842 2205.5977 313.65039 C 2188.5081 240.53729 2130.9614 182.98841 2057.8477 165.90039 C 2040.7581 92.787286 1983.2114 35.238413 1910.0977 18.150391 C 1889.6077 -69.510418 1810.9573 -134.80273 1717.0527 -134.80273 z M 529.57617 -124.8418 L 529.57617 -74.341797 A 147.75 147.75 0 0 1 677.32617 73.408203 A 147.75 147.75 0 0 1 825.07617 221.1582 L 825.08594 221.1582 L 825.08594 221.16797 A 147.74 147.74 0 0 1 972.82617 368.9082 L 972.83594 368.9082 L 972.83594 368.91797 A 147.74 147.74 0 0 1 1120.5762 516.6582 L 1123.6621 516.6582 A 147.75 147.75 0 0 1 1269.4219 664.30859 A 147.75 147.75 0 0 1 1416.9922 806.9707 L 1416.9922 811.26758 A 147.74 147.74 0 0 1 1417.1445 811.27539 A 147.75 147.75 0 0 1 1417.1719 812.05859 A 147.75 147.75 0 0 1 1559.5 920.16992 A 147.74 147.74 0 0 1 1564.7324 959.00781 A 147.74 147.74 0 0 1 1564.8945 959.01562 A 147.75 147.75 0 0 1 1564.9219 959.80859 A 147.75 147.75 0 0 1 1707.2266 1067.8496 A 147.74 147.74 0 0 1 1712.4727 1106.748 A 147.74 147.74 0 0 1 1712.6426 1106.7559 A 147.75 147.75 0 0 1 1712.6719 1107.5586 L 1727.7012 1107.5586 A 147.74 147.74 0 0 1 1860.2129 1254.4883 A 147.74 147.74 0 0 1 1860.4219 1254.498 L 1860.4219 1255.3086 A 147.75 147.75 0 0 1 2002.6816 1363.2129 A 147.74 147.74 0 0 1 2007.9531 1402.2285 A 147.74 147.74 0 0 1 2008.1426 1402.2383 A 147.75 147.75 0 0 1 2008.1719 1403.0586 A 147.75 147.75 0 0 1 2150.4082 1510.8926 A 147.74 147.74 0 0 1 2155.6934 1549.9688 A 147.74 147.74 0 0 1 2155.8926 1549.9785 A 147.75 147.75 0 0 1 2155.9219 1550.8086 A 147.75 147.75 0 0 1 2298.1348 1658.5723 A 147.74 147.74 0 0 1 2303.4316 1697.709 A 147.74 147.74 0 0 1 2303.6426 1697.7188 A 147.75 147.75 0 0 1 2303.6719 1698.5586 A 147.75 147.75 0 0 1 2445.8613 1806.252 A 147.74 147.74 0 0 1 2451.1719 1845.4473 A 147.74 147.74 0 0 1 2451.3926 1845.459 A 147.75 147.75 0 0 1 2451.4219 1846.3086 A 147.75 147.75 0 0 1 2593.5879 1953.9316 A 147.74 147.74 0 0 1 2598.9121 1993.1875 A 147.74 147.74 0 0 1 2599.1406 1993.1992 A 147.75 147.75 0 0 1 2599.1719 1994.0586 A 147.75 147.75 0 0 1 2741.3145 2101.6113 A 147.74 147.74 0 0 1 2746.6523 2140.9277 A 147.75 147.75 0 0 1 2746.8906 2140.9395 A 147.75 147.75 0 0 1 2746.9219 2141.8086 L 2762.3457 2141.8086 A 147.75 147.75 0 0 1 2894.4023 2288.6777 L 2944.9023 2288.6777 C 2944.9023 2194.7941 2879.6391 2116.1578 2792.0078 2095.6465 C 2790.9534 2091.2257 2789.7591 2086.8609 2788.4141 2082.5605 C 2767.857 2015.735 2712.9302 1963.9733 2644.2598 1947.9043 C 2643.5387 1944.8805 2642.7504 1941.8843 2641.8926 1938.916 C 2641.53 1937.6393 2641.1471 1936.3715 2640.7598 1935.1055 C 2640.7555 1935.0917 2640.7504 1935.0782 2640.7461 1935.0645 C 2620.2468 1868.1187 2565.2691 1816.2485 2496.5117 1800.1621 C 2495.8083 1797.2117 2495.0446 1794.2863 2494.2109 1791.3887 C 2474.7249 1722.4792 2418.9108 1668.8306 2348.7637 1652.4219 C 2348.081 1649.558 2347.3445 1646.7165 2346.5391 1643.9023 C 2327.1171 1574.868 2271.2534 1521.1036 2201.0156 1504.6777 C 2200.3538 1501.901 2199.6444 1499.1441 2198.8672 1496.4141 C 2179.5094 1427.2564 2123.5942 1373.3791 2053.2676 1356.9355 C 2052.9388 1355.5559 2052.5996 1354.1808 2052.2422 1352.8125 C 2033.989 1281.6648 1977.2419 1225.9567 1905.5098 1209.1914 C 1888.4224 1136.0811 1830.8799 1078.5386 1757.7695 1061.4512 C 1757.4904 1060.2793 1757.2139 1059.107 1756.9141 1057.9434 C 1738.8293 986.50461 1681.9661 930.52405 1610.0293 913.71094 C 1592.9408 840.59613 1535.3921 783.05224 1462.2754 765.96875 C 1444.9564 693.23334 1387.567 636.03847 1314.7188 619.01172 C 1297.5376 545.50298 1239.4584 487.73086 1165.7812 470.99023 C 1148.5849 398.05397 1091.1135 340.67677 1018.123 323.62109 C 1001.0376 250.50314 943.49107 192.95444 870.37305 175.86914 C 853.28592 102.75292 795.73653 45.200521 722.62109 28.111328 C 702.13121 -59.549608 623.48087 -124.8418 529.57617 -124.8418 z M 1995.9082 -120.14258 L 1995.9082 -69.642578 A 147.75 147.75 0 0 1 2143.6582 78.107422 A 147.75 147.75 0 0 1 2291.4082 225.85742 A 147.75 147.75 0 0 1 2439.1582 373.60742 A 147.75 147.75 0 0 1 2586.9082 521.35742 A 147.75 147.75 0 0 1 2734.6582 669.10742 A 147.75 147.75 0 0 1 2882.4082 816.85742 A 147.75 147.75 0 0 1 3030.1582 964.60742 L 3080.6582 964.60742 C 3080.6582 870.70199 3015.3651 792.04969 2927.7031 771.56055 C 2910.6144 698.44698 2853.0667 640.8993 2779.9531 623.81055 C 2762.8644 550.69698 2705.3167 493.1493 2632.2031 476.06055 C 2615.1144 402.94698 2557.5667 345.3993 2484.4531 328.31055 C 2467.3644 255.19698 2409.8167 197.6493 2336.7031 180.56055 C 2319.6144 107.44698 2262.0667 49.899302 2188.9531 32.810547 C 2168.464 -54.851426 2089.8136 -120.14258 1995.9082 -120.14258 z M 47.541016 -118.67969 C 47.541016 -24.774259 112.8245 53.870375 200.48438 74.357422 C 217.57204 147.46817 275.11354 205.01082 348.22461 222.09766 C 365.31213 295.20779 422.8527 352.75052 495.96289 369.83789 C 513.05026 442.94808 570.59299 500.48865 643.70312 517.57617 C 660.78996 590.68724 718.33261 648.22874 791.44336 665.31641 C 808.53034 738.42809 866.07392 795.96951 939.18555 813.05664 C 956.27308 886.16673 1013.8136 943.70951 1086.9238 960.79688 C 1104.0112 1033.9072 1161.5537 1091.4497 1234.6641 1108.5371 C 1251.7516 1181.6481 1309.2931 1239.1905 1382.4043 1256.2773 C 1399.492 1329.3881 1457.0335 1386.9307 1530.1445 1404.0176 C 1547.2322 1477.1283 1604.7737 1534.671 1677.8848 1551.7578 C 1694.9723 1624.8678 1752.513 1682.4086 1825.623 1699.4961 C 1842.7099 1772.6072 1900.2525 1830.1487 1973.3633 1847.2363 C 1990.4503 1920.348 2047.9939 1977.8894 2121.1055 1994.9766 C 2138.193 2068.0867 2195.7335 2125.6294 2268.8438 2142.7168 C 2289.3315 2230.3757 2367.976 2295.6602 2461.8809 2295.6602 L 2461.8809 2245.1602 A 147.75 147.75 0 0 1 2314.1406 2097.4199 A 147.75 147.75 0 0 1 2166.4004 1949.6797 A 147.75 147.75 0 0 1 2018.6602 1801.9414 A 147.75 147.75 0 0 1 1870.9199 1654.2012 A 147.75 147.75 0 0 1 1723.1797 1506.4609 A 147.75 147.75 0 0 1 1575.4395 1358.7207 A 147.75 147.75 0 0 1 1427.6992 1210.9805 A 147.75 147.75 0 0 1 1279.9609 1063.2402 A 147.75 147.75 0 0 1 1132.2207 915.5 A 147.75 147.75 0 0 1 984.48047 767.75977 A 147.75 147.75 0 0 1 836.74023 620.02148 A 147.75 147.75 0 0 1 689 472.28125 A 147.75 147.75 0 0 1 541.25977 324.54102 A 147.75 147.75 0 0 1 393.51953 176.80078 A 147.75 147.75 0 0 1 245.7793 29.060547 A 147.75 147.75 0 0 1 98.041016 -118.67969 L 47.541016 -118.67969 z M 809.52539 -110.28125 L 809.52539 -59.78125 A 147.75 147.75 0 0 1 957.27539 87.96875 A 147.75 147.75 0 0 1 1105.0273 235.71875 A 147.75 147.75 0 0 1 1252.7773 383.46875 A 147.75 147.75 0 0 1 1400.5273 531.21875 A 147.75 147.75 0 0 1 1548.2773 678.96875 L 1548.3164 678.96875 A 147.75 147.75 0 0 1 1696.0254 826.66406 L 1696.0254 826.71875 A 147.75 147.75 0 0 1 1843.7754 974.46875 L 1843.7773 974.46875 A 147.75 147.75 0 0 1 1991.5273 1122.2188 A 147.75 147.75 0 0 1 2139.2773 1269.9688 A 147.75 147.75 0 0 1 2287.0273 1417.7188 A 147.75 147.75 0 0 1 2434.7773 1565.4668 A 147.75 147.75 0 0 1 2582.5273 1713.2168 A 147.75 147.75 0 0 1 2730.2773 1860.9668 A 147.75 147.75 0 0 1 2878.0273 2008.7168 A 147.75 147.75 0 0 1 3025.7773 2156.4668 L 3076.2773 2156.4668 C 3076.2773 2062.5614 3010.9842 1983.911 2923.3223 1963.4219 C 2906.2335 1890.3083 2848.6858 1832.7606 2775.5723 1815.6719 C 2758.4835 1742.5583 2700.9358 1685.0106 2627.8223 1667.9219 C 2610.7335 1594.8083 2553.1858 1537.2606 2480.0723 1520.1719 C 2462.9835 1447.0584 2405.4358 1389.5106 2332.3223 1372.4219 C 2315.2335 1299.3083 2257.6858 1241.7606 2184.5723 1224.6719 C 2167.4835 1151.5583 2109.9358 1094.0106 2036.8223 1076.9219 C 2019.7335 1003.8083 1962.1858 946.26063 1889.0723 929.17188 C 1871.9835 856.05831 1814.4358 798.51063 1741.3223 781.42188 C 1724.2335 708.3083 1666.6858 650.76064 1593.5723 633.67188 C 1576.4835 560.55832 1518.9358 503.01063 1445.8223 485.92188 C 1428.7335 412.80831 1371.1858 355.26063 1298.0723 338.17188 C 1280.9835 265.05831 1223.4358 207.51063 1150.3223 190.42188 C 1133.2335 117.30831 1075.6859 59.760632 1002.5723 42.671875 C 982.08312 -44.990099 903.43082 -110.28125 809.52539 -110.28125 z M 2275.6582 -106.39258 L 2275.6582 -55.892578 A 147.75 147.75 0 0 1 2423.4082 91.857422 A 147.75 147.75 0 0 1 2571.1582 239.60742 A 147.75 147.75 0 0 1 2718.9082 387.35742 A 147.75 147.75 0 0 1 2866.6582 535.10742 A 147.75 147.75 0 0 1 3014.4082 682.85742 L 3064.9082 682.85742 C 3064.9082 588.95199 2999.6151 510.29969 2911.9531 489.81055 C 2894.8644 416.69698 2837.3167 359.1493 2764.2031 342.06055 C 2747.1144 268.94698 2689.5667 211.3993 2616.4531 194.31055 C 2599.3644 121.19698 2541.8167 63.649302 2468.7031 46.560547 C 2448.214 -41.101425 2369.5636 -106.39258 2275.6582 -106.39258 z M 329.21289 -104.87109 C 329.21289 -10.96647 394.4975 67.676195 482.15625 88.164062 C 499.24323 161.27573 556.78681 218.81717 629.89844 235.9043 C 646.98612 309.015 704.52567 366.5577 777.63672 383.64453 C 794.72438 456.75526 852.26588 514.29793 925.37695 531.38477 C 942.46447 604.49488 1000.005 662.03763 1073.1152 679.125 C 1090.2026 752.2353 1147.7451 809.77783 1220.8555 826.86523 C 1237.9428 899.97541 1295.4856 957.51599 1368.5957 974.60352 C 1385.6825 1047.7146 1443.2252 1105.2561 1516.3359 1122.3438 C 1533.4228 1195.4548 1590.9654 1252.9963 1664.0762 1270.084 C 1681.163 1343.1952 1738.7055 1400.7367 1811.8164 1417.8242 C 1828.904 1490.9352 1886.4454 1548.4776 1959.5566 1565.5645 C 1976.6443 1638.6752 2034.1858 1696.2179 2107.2969 1713.3047 C 2124.3845 1786.4154 2181.926 1843.9581 2255.0371 1861.0449 C 2272.1246 1934.1551 2329.6652 1991.6978 2402.7754 2008.7852 C 2423.2631 2096.4441 2501.9077 2161.7285 2595.8125 2161.7285 L 2595.8125 2111.2285 A 147.75 147.75 0 0 1 2448.0723 1963.4883 A 147.75 147.75 0 0 1 2300.332 1815.748 A 147.75 147.75 0 0 1 2152.5918 1668.0078 A 147.75 147.75 0 0 1 2004.8516 1520.2676 A 147.75 147.75 0 0 1 1857.1133 1372.5273 A 147.75 147.75 0 0 1 1709.373 1224.7891 A 147.75 147.75 0 0 1 1561.6328 1077.0488 A 147.75 147.75 0 0 1 1413.8926 929.30859 A 147.75 147.75 0 0 1 1266.1523 781.56836 A 147.75 147.75 0 0 1 1118.4121 633.82812 A 147.75 147.75 0 0 1 970.67188 486.08789 A 147.75 147.75 0 0 1 822.93164 338.34766 A 147.75 147.75 0 0 1 675.19336 190.60742 A 147.75 147.75 0 0 1 527.45312 42.869141 A 147.75 147.75 0 0 1 379.71289 -104.87109 L 329.21289 -104.87109 z M 1088.6094 -95.837891 L 1088.6094 -45.337891 A 147.75 147.75 0 0 1 1236.3594 102.41211 A 147.75 147.75 0 0 1 1384.1094 250.16211 A 147.75 147.75 0 0 1 1531.8594 397.91211 A 147.75 147.75 0 0 1 1679.6094 545.66211 A 147.75 147.75 0 0 1 1827.3594 693.41211 A 147.75 147.75 0 0 1 1975.1094 841.16211 A 147.75 147.75 0 0 1 2122.8594 988.91211 A 147.75 147.75 0 0 1 2270.6094 1136.6621 A 147.75 147.75 0 0 1 2418.3594 1284.4121 A 147.75 147.75 0 0 1 2566.1094 1432.1602 A 147.75 147.75 0 0 1 2713.8594 1579.9102 A 147.75 147.75 0 0 1 2861.6094 1727.6602 A 147.75 147.75 0 0 1 3009.3594 1875.4102 L 3059.8594 1875.4102 C 3059.8594 1781.5047 2994.5682 1702.8544 2906.9062 1682.3652 C 2889.8175 1609.2517 2832.2698 1551.704 2759.1562 1534.6152 C 2742.0675 1461.5017 2684.5198 1403.954 2611.4062 1386.8652 C 2594.3175 1313.7517 2536.7698 1256.204 2463.6562 1239.1152 C 2446.5675 1166.0017 2389.0198 1108.454 2315.9062 1091.3652 C 2298.8175 1018.2517 2241.2698 960.70399 2168.1562 943.61523 C 2151.0675 870.50167 2093.5198 812.95399 2020.4062 795.86523 C 2003.3175 722.75167 1945.7698 665.20398 1872.6562 648.11523 C 1855.5675 575.00167 1798.0198 517.45399 1724.9062 500.36523 C 1707.8175 427.25167 1650.2698 369.70399 1577.1562 352.61523 C 1560.0675 279.50167 1502.5198 221.95399 1429.4062 204.86523 C 1412.3175 131.75167 1354.7698 74.203991 1281.6562 57.115234 C 1261.1671 -30.546733 1182.5148 -95.837891 1088.6094 -95.837891 z M 2555.4082 -92.642578 L 2555.4082 -42.142578 A 147.75 147.75 0 0 1 2703.1582 105.60742 A 147.75 147.75 0 0 1 2850.9082 253.35742 A 147.75 147.75 0 0 1 2998.6582 401.10742 L 3049.1582 401.10742 C 3049.1582 307.20199 2983.8651 228.54969 2896.2031 208.06055 C 2879.1144 134.94698 2821.5667 77.399302 2748.4531 60.310547 C 2727.964 -27.351425 2649.3136 -92.642578 2555.4082 -92.642578 z M 1371.1035 -82.363281 L 1371.1035 -31.863281 A 147.75 147.75 0 0 1 1518.8535 115.88672 L 1535.582 115.88672 A 147.74 147.74 0 0 1 1667.5 262.72656 L 1667.5098 262.72656 L 1667.5098 262.73828 A 147.74 147.74 0 0 1 1815.25 410.47656 L 1815.2598 410.47656 L 1815.2598 410.48828 A 147.74 147.74 0 0 1 1963 558.22656 L 1963.0098 558.22656 L 1963.0098 558.23828 A 147.74 147.74 0 0 1 2110.75 705.97656 L 2110.7598 705.97656 L 2110.7598 705.98828 A 147.74 147.74 0 0 1 2258.5 853.72656 L 2258.5098 853.72656 L 2258.5098 853.73828 A 147.74 147.74 0 0 1 2406.25 1001.4766 L 2406.2598 1001.4766 L 2406.2598 1001.4883 A 147.74 147.74 0 0 1 2554 1149.2266 L 2554.0098 1149.2266 L 2554.0098 1149.2383 A 147.74 147.74 0 0 1 2701.75 1296.9766 L 2701.7598 1296.9766 L 2701.7598 1296.9883 A 147.74 147.74 0 0 1 2849.5 1444.7266 A 147.75 147.75 0 0 1 2997.25 1592.4766 A 147.75 147.75 0 0 1 3145 1740.2266 L 3195.5 1740.2266 C 3195.5 1646.322 3130.2077 1567.6736 3042.5469 1547.1836 C 3025.4589 1474.0699 2967.91 1416.5232 2894.7969 1399.4336 C 2877.71 1326.319 2820.1639 1268.775 2747.0488 1251.6895 C 2729.9637 1178.572 2672.4159 1121.0254 2599.2988 1103.9395 C 2582.2137 1030.8221 2524.6659 973.27741 2451.5488 956.19141 C 2434.4642 883.07312 2376.9165 825.52756 2303.7988 808.44141 C 2286.7142 735.32312 2229.1665 677.77756 2156.0488 660.69141 C 2138.9642 587.57313 2081.4165 530.02756 2008.2988 512.94141 C 1991.2142 439.82312 1933.6665 382.27756 1860.5488 365.19141 C 1843.4642 292.07312 1785.9165 234.52756 1712.7988 217.44141 C 1695.622 143.92857 1637.5437 86.158474 1563.8633 69.419922 C 1542.9486 -17.649825 1464.5889 -82.363281 1371.1035 -82.363281 z M 1930.8027 -54.052734 L 1930.8027 -3.5527344 A 147.75 147.75 0 0 1 2078.5527 144.19727 A 147.75 147.75 0 0 1 2226.3027 291.94727 A 147.75 147.75 0 0 1 2374.0527 439.69727 A 147.75 147.75 0 0 1 2521.8027 587.44727 A 147.75 147.75 0 0 1 2669.5527 735.19727 A 147.75 147.75 0 0 1 2817.3027 882.94727 A 147.75 147.75 0 0 1 2965.0527 1030.6973 A 147.75 147.75 0 0 1 3112.8027 1178.4473 L 3163.3027 1178.4473 C 3163.3027 1084.5412 3098.0106 1005.8888 3010.3477 985.40039 C 2993.2581 912.2873 2935.7114 854.73841 2862.5977 837.65039 C 2845.5081 764.53729 2787.9614 706.98841 2714.8477 689.90039 C 2697.7581 616.78729 2640.2114 559.23841 2567.0977 542.15039 C 2550.0081 469.03729 2492.4614 411.48841 2419.3477 394.40039 C 2402.2581 321.28729 2344.7114 263.73841 2271.5977 246.65039 C 2254.5081 173.53729 2196.9614 115.98841 2123.8477 98.900391 C 2103.3577 11.239575 2024.7073 -54.052734 1930.8027 -54.052734 z M -87.984375 16.845703 C -87.984375 110.75047 -22.699964 189.39509 64.958984 209.88281 C 82.046502 282.99362 139.58821 340.53411 212.69922 357.62109 C 229.78631 430.73259 287.32796 488.27423 360.43945 505.36133 C 377.52655 578.47282 435.06819 636.01447 508.17969 653.10156 C 525.26721 726.2117 582.80778 783.75442 655.91797 800.8418 C 673.00537 873.95213 730.54788 931.49463 803.6582 948.58203 C 820.74561 1021.6924 878.28811 1079.2349 951.39844 1096.3223 C 968.48585 1169.4326 1026.0283 1226.9751 1099.1387 1244.0625 C 1116.2261 1317.1728 1173.7686 1374.7153 1246.8789 1391.8027 C 1263.9663 1464.9129 1321.509 1522.4535 1394.6191 1539.541 C 1411.7061 1612.6527 1469.2477 1670.1941 1542.3594 1687.2812 C 1559.4465 1760.3927 1616.9881 1817.9344 1690.0996 1835.0215 C 1707.1867 1908.1331 1764.7282 1965.6747 1837.8398 1982.7617 C 1854.9274 2055.8719 1912.4679 2113.4146 1985.5781 2130.502 C 2006.0658 2218.1609 2084.7105 2283.4453 2178.6152 2283.4453 L 2178.6152 2232.9453 A 147.75 147.75 0 0 1 2030.875 2085.2051 A 147.75 147.75 0 0 1 1883.1348 1937.4648 A 147.75 147.75 0 0 1 1735.3945 1789.7266 A 147.75 147.75 0 0 1 1587.6543 1641.9863 A 147.75 147.75 0 0 1 1439.916 1494.2461 A 147.75 147.75 0 0 1 1292.1758 1346.5059 A 147.75 147.75 0 0 1 1144.4355 1198.7656 A 147.75 147.75 0 0 1 996.69531 1051.0254 A 147.75 147.75 0 0 1 848.95508 903.28516 A 147.75 147.75 0 0 1 701.21484 755.54492 A 147.75 147.75 0 0 1 553.47461 607.80469 A 147.75 147.75 0 0 1 405.73438 460.06641 A 147.75 147.75 0 0 1 257.99609 312.32617 A 147.75 147.75 0 0 1 110.25586 164.58594 A 147.75 147.75 0 0 1 -37.484375 16.845703 L -87.984375 16.845703 z M -155.74805 84.607422 C -155.74805 178.51285 -90.462616 257.15748 -2.8027344 277.64453 C 14.284785 350.75466 71.825358 408.29739 144.93555 425.38477 C 162.02295 498.49509 219.56546 556.0376 292.67578 573.125 C 309.76319 646.23532 367.30569 703.77783 440.41602 720.86523 C 457.50339 793.97542 515.04612 851.51599 588.15625 868.60352 C 605.24308 941.71459 662.78573 999.25609 735.89648 1016.3438 C 752.98332 1089.4548 810.52597 1146.9963 883.63672 1164.084 C 900.72385 1237.1956 958.26527 1294.7372 1031.377 1311.8242 C 1048.4646 1384.935 1106.0061 1442.4776 1179.1172 1459.5645 C 1196.2047 1532.6746 1253.7453 1590.2173 1326.8555 1607.3047 C 1343.9429 1680.415 1401.4854 1737.9575 1474.5957 1755.0449 C 1491.6831 1828.1552 1549.2256 1885.6978 1622.3359 1902.7852 C 1639.4233 1975.8953 1696.966 2033.4359 1770.0762 2050.5234 C 1790.5632 2138.1833 1869.2079 2203.4688 1963.1133 2203.4688 L 1963.1133 2152.9688 A 147.75 147.75 0 0 1 1815.373 2005.2285 A 147.75 147.75 0 0 1 1667.6328 1857.4883 A 147.75 147.75 0 0 1 1519.8926 1709.748 A 147.75 147.75 0 0 1 1372.1523 1562.0078 A 147.75 147.75 0 0 1 1224.4121 1414.2676 A 147.75 147.75 0 0 1 1076.6719 1266.5273 A 147.75 147.75 0 0 1 928.93359 1118.7891 A 147.75 147.75 0 0 1 781.19336 971.04883 A 147.75 147.75 0 0 1 633.45312 823.30859 A 147.75 147.75 0 0 1 485.71289 675.56836 A 147.75 147.75 0 0 1 337.97266 527.82812 A 147.75 147.75 0 0 1 190.23242 380.08789 A 147.75 147.75 0 0 1 42.492188 232.34766 A 147.75 147.75 0 0 1 -105.24805 84.607422 L -155.74805 84.607422 z M -74.177734 298.51758 C -74.177734 392.42235 -8.893323 471.06696 78.765625 491.55469 C 95.85303 564.66502 153.39553 622.20751 226.50586 639.29492 C 243.59326 712.40525 301.13577 769.94775 374.24609 787.03516 C 391.33347 860.14535 448.87619 917.68591 521.98633 934.77344 C 539.07316 1007.8845 596.61581 1065.426 669.72656 1082.5137 C 686.81354 1155.6254 744.35517 1213.1668 817.4668 1230.2539 C 834.55392 1303.3655 892.09534 1360.9072 965.20703 1377.9941 C 982.2947 1451.1049 1039.8362 1508.6475 1112.9473 1525.7344 C 1130.0348 1598.8445 1187.5754 1656.3872 1260.6855 1673.4746 C 1277.773 1746.5849 1335.3155 1804.1274 1408.4258 1821.2148 C 1425.5132 1894.3252 1483.0557 1951.8677 1556.166 1968.9551 C 1573.2534 2042.0654 1630.7959 2099.6079 1703.9062 2116.6953 C 1724.394 2204.3543 1803.0386 2269.6387 1896.9434 2269.6387 L 1896.9434 2219.1387 A 147.75 147.75 0 0 1 1749.2031 2071.3984 A 147.75 147.75 0 0 1 1601.4629 1923.6582 A 147.75 147.75 0 0 1 1453.7227 1775.918 A 147.75 147.75 0 0 1 1305.9824 1628.1777 A 147.75 147.75 0 0 1 1158.2422 1480.4375 A 147.75 147.75 0 0 1 1010.502 1332.6973 A 147.75 147.75 0 0 1 862.76367 1184.959 A 147.75 147.75 0 0 1 715.02344 1037.2188 A 147.75 147.75 0 0 1 567.2832 889.47852 A 147.75 147.75 0 0 1 419.54297 741.73828 A 147.75 147.75 0 0 1 271.80273 593.99805 A 147.75 147.75 0 0 1 124.0625 446.25781 A 147.75 147.75 0 0 1 -23.677734 298.51758 L -74.177734 298.51758 z M -140.34766 364.6875 C -140.34766 458.59227 -75.063249 537.23689 12.595703 557.72461 C 29.683108 630.83493 87.225613 688.37744 160.33594 705.46484 C 177.42334 778.57516 234.96585 836.11767 308.07617 853.20508 C 325.16358 926.3154 382.70608 983.85791 455.81641 1000.9453 C 472.90378 1074.0555 530.44651 1131.5961 603.55664 1148.6836 C 620.64362 1221.7953 678.18525 1279.3367 751.29688 1296.4238 C 768.38397 1369.5353 825.92561 1427.077 899.03711 1444.1641 C 899.03711 1444.1641 899.03711 1444.166 899.03711 1444.166 C 916.12531 1517.2759 973.66689 1574.8176 1046.7773 1591.9043 C 1063.8649 1665.0144 1121.4054 1722.5572 1194.5156 1739.6445 C 1211.603 1812.7549 1269.1455 1870.2974 1342.2559 1887.3848 C 1359.3433 1960.4951 1416.8858 2018.0376 1489.9961 2035.125 C 1510.4838 2122.7839 1589.1284 2188.0684 1683.0332 2188.0684 L 1683.0332 2137.5684 A 147.75 147.75 0 0 1 1535.293 1989.8281 A 147.75 147.75 0 0 1 1387.5527 1842.0879 A 147.75 147.75 0 0 1 1239.8125 1694.3477 A 147.75 147.75 0 0 1 1092.0723 1546.6074 A 147.75 147.75 0 0 1 944.33203 1398.8672 A 147.75 147.75 0 0 1 796.5918 1251.1289 A 147.75 147.75 0 0 1 648.85352 1103.3887 A 147.75 147.75 0 0 1 501.11328 955.64844 A 147.75 147.75 0 0 1 353.37305 807.9082 A 147.75 147.75 0 0 1 205.63281 660.16797 A 147.75 147.75 0 0 1 57.892578 512.42773 A 147.75 147.75 0 0 1 -89.847656 364.6875 L -140.34766 364.6875 z M -58.777344 578.59766 C -58.777344 672.50242 6.5070676 751.14704 94.166016 771.63477 C 111.25342 844.74511 168.79593 902.28759 241.90625 919.375 C 258.99365 992.48531 316.53616 1050.0278 389.64648 1067.1152 C 406.73386 1140.2254 464.27659 1197.766 537.38672 1214.8535 C 554.47381 1287.965 612.01546 1345.5067 685.12695 1362.5938 C 702.21405 1435.7052 759.75569 1493.2469 832.86719 1510.334 C 849.95417 1583.445 907.49466 1640.9867 980.60547 1658.0742 C 997.69287 1731.1845 1055.2354 1788.727 1128.3457 1805.8145 C 1145.4331 1878.9248 1202.9756 1936.4673 1276.0859 1953.5547 C 1293.1733 2026.665 1350.7158 2084.2075 1423.8262 2101.2949 C 1444.3139 2188.9539 1522.9585 2254.2383 1616.8633 2254.2383 L 1616.8633 2203.7383 A 147.75 147.75 0 0 1 1469.123 2055.998 A 147.75 147.75 0 0 1 1321.3828 1908.2578 A 147.75 147.75 0 0 1 1173.6426 1760.5176 A 147.75 147.75 0 0 1 1025.9023 1612.7773 A 147.75 147.75 0 0 1 878.16211 1465.0391 A 147.75 147.75 0 0 1 730.42188 1317.2988 A 147.75 147.75 0 0 1 582.68359 1169.5586 A 147.75 147.75 0 0 1 434.94336 1021.8184 A 147.75 147.75 0 0 1 287.20312 874.07812 A 147.75 147.75 0 0 1 139.46289 726.33789 A 147.75 147.75 0 0 1 -8.2773438 578.59766 L -58.777344 578.59766 z M -126.53906 646.36133 C -126.53906 740.26595 -61.254449 818.90862 26.404297 839.39648 C 43.491424 912.50811 101.03284 970.04974 174.14453 987.13672 C 191.2322 1060.2475 248.7737 1117.7901 321.88477 1134.877 C 338.97229 1207.9871 396.51286 1265.5298 469.62305 1282.6172 C 486.71045 1355.7275 544.25296 1413.27 617.36328 1430.3574 C 634.45069 1503.4677 691.99319 1561.0103 765.10352 1578.0977 C 782.19089 1651.2078 839.73362 1708.7484 912.84375 1725.8359 C 929.93059 1798.947 987.47321 1856.4885 1060.584 1873.5762 C 1077.6708 1946.6872 1135.2135 2004.2287 1208.3242 2021.3164 C 1228.8113 2108.9763 1307.4539 2174.2598 1401.3594 2174.2598 L 1401.3594 2123.7598 A 147.75 147.75 0 0 1 1253.6211 1976.0215 A 147.75 147.75 0 0 1 1105.8809 1828.2812 A 147.75 147.75 0 0 1 958.14062 1680.541 A 147.75 147.75 0 0 1 810.40039 1532.8008 A 147.75 147.75 0 0 1 662.66016 1385.0605 A 147.75 147.75 0 0 1 514.91992 1237.3203 A 147.75 147.75 0 0 1 367.17969 1089.5801 A 147.75 147.75 0 0 1 219.43945 941.83984 A 147.75 147.75 0 0 1 71.701172 794.10156 A 147.75 147.75 0 0 1 -76.039062 646.36133 L -126.53906 646.36133 z M -192.70898 712.53125 C -192.70898 806.43656 -127.42531 885.07921 -39.765625 905.56641 C -22.678529 978.6779 34.863114 1036.2195 107.97461 1053.3066 C 125.06179 1126.4182 182.60323 1183.9599 255.71484 1201.0469 C 272.80237 1274.157 330.34293 1331.6997 403.45312 1348.7871 C 420.54053 1421.8974 478.08303 1479.4399 551.19336 1496.5273 C 568.28076 1569.6377 625.82327 1627.1802 698.93359 1644.2676 C 716.021 1717.3779 773.5635 1774.9204 846.67383 1792.0078 C 863.7612 1865.118 921.3039 1922.6586 994.41406 1939.7461 C 1011.5009 2012.8572 1069.0435 2070.3987 1142.1543 2087.4863 C 1162.6413 2175.1462 1241.284 2240.4297 1335.1895 2240.4297 L 1335.1895 2189.9297 A 147.75 147.75 0 0 1 1187.4512 2042.1914 A 147.75 147.75 0 0 1 1039.7109 1894.4512 A 147.75 147.75 0 0 1 891.9707 1746.7109 A 147.75 147.75 0 0 1 744.23047 1598.9707 A 147.75 147.75 0 0 1 596.49023 1451.2305 A 147.75 147.75 0 0 1 448.75 1303.4902 A 147.75 147.75 0 0 1 301.00977 1155.75 A 147.75 147.75 0 0 1 153.26953 1008.0098 A 147.75 147.75 0 0 1 5.5292969 860.27148 A 147.75 147.75 0 0 1 -142.20898 712.53125 L -192.70898 712.53125 z M -111.14062 926.44141 C -111.14062 1020.3467 -45.85499 1098.9894 41.804688 1119.4766 C 58.892353 1192.5873 116.43385 1250.13 189.54492 1267.2168 C 206.63244 1340.3269 264.17301 1397.8697 337.2832 1414.957 C 354.37061 1488.0674 411.91311 1545.6099 485.02344 1562.6973 C 502.11084 1635.8076 559.65335 1693.3501 632.76367 1710.4375 C 649.85108 1783.5478 707.39358 1841.0903 780.50391 1858.1777 C 797.59128 1931.2879 855.13401 1988.8285 928.24414 2005.916 C 945.33113 2079.0277 1002.8727 2136.5691 1075.9844 2153.6562 C 1075.9844 2153.6562 1075.9844 2153.6582 1075.9844 2153.6582 C 1096.4723 2241.3169 1175.1149 2306.6016 1269.0195 2306.6016 L 1269.0195 2256.1016 A 147.75 147.75 0 0 1 1121.2812 2108.3613 A 147.75 147.75 0 0 1 1121.2793 2108.3613 A 147.75 147.75 0 0 1 1106.5293 2107.6211 A 147.75 147.75 0 0 1 983.57812 2014.1387 A 147.75 147.75 0 0 1 978.92188 2000.123 A 147.75 147.75 0 0 1 973.54102 1960.6211 A 147.75 147.75 0 0 1 825.80078 1812.8809 A 147.75 147.75 0 0 1 678.06055 1665.1406 A 147.75 147.75 0 0 1 530.32031 1517.4004 A 147.75 147.75 0 0 1 382.58008 1369.6602 A 147.75 147.75 0 0 1 234.83984 1221.9199 A 147.75 147.75 0 0 1 87.099609 1074.1797 A 147.75 147.75 0 0 1 -60.640625 926.44141 L -111.14062 926.44141 z M -178.90234 994.20312 C -178.90234 1088.1079 -113.61793 1166.7525 -25.958984 1187.2402 C -8.8716111 1260.3504 48.671116 1317.891 121.78125 1334.9785 C 138.86808 1408.0896 196.41073 1465.6311 269.52148 1482.7188 C 286.60832 1555.8298 344.15097 1613.3713 417.26172 1630.459 C 434.34873 1703.5708 491.89013 1761.1122 565.00195 1778.1992 C 582.08962 1851.31 639.63112 1908.8526 712.74219 1925.9395 C 729.82985 1999.0502 787.37135 2056.5929 860.48242 2073.6797 C 880.97029 2161.3384 959.61295 2226.623 1053.5176 2226.623 L 1053.5176 2176.123 A 147.75 147.75 0 0 1 905.77734 2028.3828 A 147.75 147.75 0 0 1 758.03711 1880.6426 A 147.75 147.75 0 0 1 610.29688 1732.9023 A 147.75 147.75 0 0 1 462.55859 1585.1641 A 147.75 147.75 0 0 1 314.81836 1437.4238 A 147.75 147.75 0 0 1 167.07812 1289.6836 A 147.75 147.75 0 0 1 19.337891 1141.9434 A 147.75 147.75 0 0 1 -128.40234 994.20312 L -178.90234 994.20312 z M -97.332031 1208.1133 C -97.332031 1302.0179 -32.047418 1380.6606 55.611328 1401.1484 C 72.698163 1474.2595 130.24081 1531.801 203.35156 1548.8887 C 220.4384 1621.9997 277.98105 1679.5412 351.0918 1696.6289 C 368.17881 1769.7407 425.72021 1827.2821 498.83203 1844.3691 C 515.9197 1917.4799 573.4612 1975.0225 646.57227 1992.1094 C 663.65979 2065.2195 721.20036 2122.7622 794.31055 2139.8496 C 814.79827 2227.5086 893.44289 2292.793 987.34766 2292.793 L 987.34766 2242.293 A 147.75 147.75 0 0 1 839.60742 2094.5527 A 147.75 147.75 0 0 1 691.86719 1946.8125 A 147.75 147.75 0 0 1 544.12695 1799.0723 A 147.75 147.75 0 0 1 396.38867 1651.334 A 147.75 147.75 0 0 1 248.64844 1503.5938 A 147.75 147.75 0 0 1 100.9082 1355.8535 A 147.75 147.75 0 0 1 -46.832031 1208.1133 L -97.332031 1208.1133 z M -163.50195 1274.2832 C -163.50195 1368.188 -98.217542 1446.8326 -10.558594 1467.3203 C 6.5287795 1540.4305 64.071507 1597.9711 137.18164 1615.0586 C 154.26862 1688.1703 211.81025 1745.7117 284.92188 1762.7988 C 284.92188 1762.7988 284.92188 1762.8008 284.92188 1762.8008 C 302.00951 1835.9114 359.55123 1893.4521 432.66211 1910.5391 C 449.74978 1983.6498 507.29127 2041.1925 580.40234 2058.2793 C 600.89021 2145.938 679.53288 2211.2227 773.4375 2211.2227 L 773.4375 2160.7227 A 147.75 147.75 0 0 1 625.69727 2012.9824 A 147.75 147.75 0 0 1 477.95703 1865.2422 A 147.75 147.75 0 0 1 330.21875 1717.5039 A 147.75 147.75 0 0 1 182.47852 1569.7637 A 147.75 147.75 0 0 1 34.738281 1422.0234 A 147.75 147.75 0 0 1 -113.00195 1274.2832 L -163.50195 1274.2832 z M -81.931641 1488.1934 C -81.931641 1582.098 -16.647027 1660.7406 71.011719 1681.2285 C 88.098698 1754.3402 145.64032 1811.8816 218.75195 1828.9688 C 235.83905 1902.0802 293.38069 1959.6219 366.49219 1976.709 C 383.57931 2049.8206 441.12074 2107.3622 514.23242 2124.4492 C 534.72029 2212.108 613.36295 2277.3926 707.26758 2277.3926 L 707.26758 2226.8926 A 147.75 147.75 0 0 1 559.52734 2079.1523 A 147.75 147.75 0 0 1 411.78711 1931.4141 A 147.75 147.75 0 0 1 264.04688 1783.6738 A 147.75 147.75 0 0 1 116.30859 1635.9336 A 147.75 147.75 0 0 1 -31.431641 1488.1934 L -81.931641 1488.1934 z M -149.69531 1555.9551 C -149.69531 1649.8605 -84.409873 1728.5051 3.25 1748.9922 C 20.337522 1822.1023 77.878091 1879.645 150.98828 1896.7324 C 168.07569 1969.8427 225.61819 2027.3853 298.72852 2044.4727 C 315.81589 2117.5828 373.35862 2175.1234 446.46875 2192.2109 C 466.9558 2279.8708 545.60043 2345.1562 639.50586 2345.1562 L 639.50586 2294.6562 A 147.75 147.75 0 0 1 491.76562 2146.916 A 147.75 147.75 0 0 1 344.02539 1999.1758 A 147.75 147.75 0 0 1 196.28516 1851.4355 A 147.75 147.75 0 0 1 48.544922 1703.6953 A 147.75 147.75 0 0 1 -99.195312 1555.9551 L -149.69531 1555.9551 z M -68.125 1769.8652 C -68.125 1863.77 -2.8405887 1942.4146 84.818359 1962.9023 C 101.90576 2036.0127 159.44829 2093.5552 232.55859 2110.6426 C 253.04631 2198.3015 331.69094 2263.5859 425.5957 2263.5859 L 425.5957 2213.0859 A 147.75 147.75 0 0 1 277.85547 2065.3457 A 147.75 147.75 0 0 1 130.11523 1917.6055 A 147.75 147.75 0 0 1 -17.625 1769.8652 L -68.125 1769.8652 z M -134.29492 1836.0352 C -134.29492 1895.9125 -107.75296 1949.5871 -65.791016 1985.9355 C -65.791016 1985.9355 -65.789062 1985.9355 -65.789062 1985.9355 C -41.942919 2006.5913 -13.115247 2021.6484 18.648438 2029.0723 C 35.735842 2102.1826 93.278347 2159.7251 166.38867 2176.8125 C 186.87639 2264.4714 265.52104 2329.7559 359.42578 2329.7559 L 359.42578 2279.2559 A 147.75 147.75 0 0 1 211.68555 2131.5156 A 147.75 147.75 0 0 1 63.945312 1983.7754 A 147.75 147.75 0 0 1 -83.794922 1836.0352 L -134.29492 1836.0352 z M -52.724609 2049.9453 C -52.724609 2159.4353 36.025625 2248.1855 145.51562 2248.1855 L 145.51562 2197.6855 A 147.75 147.75 0 0 1 -2.2246094 2049.9453 L -52.724609 2049.9453 z "
     id="path7351-4" />
  <text
     xml:space="preserve"
     id="text2958"
     style="font-style:normal;font-weight:normal;font-size:1024px;line-height:1.25;font-family:sans-serif;white-space:pre;shape-inside:url(#rect2960);fill:#000000;fill-opacity:1;stroke:none"
     transform="translate(4.5957031,122.85352)"><tspan
       x="471.9043"
       y="1299.8965"
       id="tspan11948">404</tspan></text>
</svg>
