<svg xmlns="http://www.w3.org/2000/svg" viewBox="0 0 158 33">
	<path d="M3.53 5a2.7 2.7 0 0 1-.72-2 2.8 2.8 0 0 1 .8-1.9A2.7 2.7 0 0 1 5.55.34a2.4 2.4 0 0 1 1.86.8A2.5 2.5 0 0 1 8.25 3a2.6 2.6 0 0 1-.84 2 2.7 2.7 0 0 1-1.94.75A2.7 2.7 0 0 1 3.53 5m7.73 13.6c-2.7 7.34-12.93 9.32-11-.2l2.2-10.8h4.68c-1.07 5.75-1.87 9.25-2.66 13.25s4.28 1.07 5.43-2.26z"/>
	<path d="M36.89 18.79c-2.7 7.3-12.14 8.33-10.71.75.47-2.62 1-5.31 1.54-8.29.84-3.89-2.85-1-4.08 2.14a1 1 0 0 0-.12.28c-.2 1.07-1.79 10-1.94 10.91h-4.41c.95-5.31 1.67-9.52 2.34-13.21s-2.77-1.47-4.16 1.39c0 0 0 .08-.08.12l-2.34 11.66H8.25l3.41-17h4.68l-.44 2.3c2.7-3.25 7.62-3.65 7.9 1 3.57-4.84 9.68-5.2 8.05 2.77l-.56 3-.83 4.39c-.54 2.81 4 1 5.08-2.22z"/>
	<path d="M46.49 10.7c-2.07-3.77-6.07-.12-7.26 5.39-1.31 6.15 1 9.32 5.63 3l1.63-8.41zm9.2 8.05C53.35 25 45.22 27.2 44.74 21.37 41.13 26.72 33.4 25.73 34 18.71c.48-5.47 3.17-11 9.24-11.15h8.61l-.25 1.31c-1.07 5.2-1.78 8.21-2.53 12.14s4.2.95 5.31-2.22h1.31z"/>
	<path d="M65.57 10.42c-2.07-3.85-6.19-.12-7.42 5.47-1.35 6.31 1 9.52 5.71 3.14-.04-.03 1.71-8.61 1.71-8.61M71 7.4l-2.66 12.82c-1.42 7.89-3.73 15-13.8 12.14l3.13-3.26c1.71 1.31 2.94 1.47 3.89.92l.12-.56 1.55-7.54c-3.77 4.72-11 3.53-10.48-3.37.68-7.81 5.2-10.91 8.61-11.07.64 0 1.27-.08 2-.08zm4.64 8.93c5.36.16 6-6.27 5.12-6.94-.67-.52-2.18.12-3.41 2.06A13 13 0 0 0 75.6 16a1 1 0 0 1 0 .36zm10.2 2.38c-2.66 4.88-5.44 6.15-9.32 6-6.43-.2-6.51-8.33-3.38-13.33 2.58-4 7-4.84 8.93-3.21 1.74 1.39 1.78 4 .75 6A7.5 7.5 0 0 1 75.48 18c0 1.62.64 3.53 2.11 4.24 2.61 1.23 5.35-.83 7-3.45-.02-.08 1.21-.08 1.21-.08z"/>
	<path d="M95 9.74c-1.59.84-3.69 4-4.88 5.48l-.36 1.63q.53-.2 1-.4c5.47-2.26 6.94-8.17 4.24-6.71m3 14.84h-4.79l-3.76-5.83-1.07 5.83h-4.76L88.34.82h4.6c-.8 4.24-1.51 7.5-2.3 11.74A17 17 0 0 1 95.08 8c4.84-2.94 6.27 5.55-1.87 9l4.84 7.54zM102.93 5a2.7 2.7 0 0 1-.71-2 3 3 0 0 1 .79-1.9A2.7 2.7 0 0 1 105 .34a2.4 2.4 0 0 1 1.86.8 2.5 2.5 0 0 1 .83 1.9 2.6 2.6 0 0 1-.87 1.96 2.7 2.7 0 0 1-1.94.75 2.6 2.6 0 0 1-1.95-.75m7.7 13.6c-2.7 7.34-12.93 9.32-11-.2l2.19-10.8h4.68c-1.07 5.75-1.86 9.25-2.65 13.25s4.28 1.07 5.43-2.26z"/>
	<path d="M120 18.63c-2.7 7.26-12.73 9.2-10.83-.12L111 9.67h-2l.84-2.07h1.62l.91-4.4 4.84-1-1.11 5.4h2.74l-1 2.07h-2.14l-2.26 11.26c-.8 4 4 1 5.19-2.3zm1.27 1.47a2.7 2.7 0 0 1 1.94-.8 2.7 2.7 0 0 1 2.79 2.78 2.8 2.8 0 0 1-.79 2 3 3 0 0 1-2 .79 2.78 2.78 0 0 1-1.94-4.72M133.16 5a2.6 2.6 0 0 1-.71-2 2.8 2.8 0 0 1 .79-1.9 2.7 2.7 0 0 1 1.94-.8 2.5 2.5 0 0 1 1.87.8 2.6 2.6 0 0 1 .83 1.9 2.6 2.6 0 0 1-.83 2 2.8 2.8 0 0 1-2 .75 2.6 2.6 0 0 1-1.89-.75m7.7 13.6c-2.7 7.34-12.94 9.32-11-.2l2.19-10.8h4.68c-1.07 5.75-1.86 9.25-2.66 13.25s4.29 1.07 5.44-2.26z"/>
	<path d="M149.74 15.85a7.5 7.5 0 0 1-3.25-1.54l1.78-2.42a5 5 0 0 0 1.47.91c-.55-2.5-2.7-4.76-4.6-2.06-1.71 2.46-3.21 9.87-.2 11.58 1.63.95 4-.71 4.84-6.31v-.16zm8.09-3.45a16 16 0 0 1-4 2.78c-1 7.73-7.3 10.75-11.31 9.2-3.17-1.15-4.32-4.08-4-7.18A11.5 11.5 0 0 1 144 8.67c3.17-1.82 7.89-2 9.52 1.95A6 6 0 0 1 154 13a12 12 0 0 0 3.76-1.75z"/>
</svg>
