<svg xmlns="http://www.w3.org/2000/svg" viewBox="0 0 104 24">
	<path fill="#18e299" d="M18.47 9.6V3.92c0-.6-.5-1.1-1.1-1.1H11.7a7 7 0 0 0-4.8 2l-.05.04A7 7 0 0 0 5.1 7.9q.82-.2 1.66-.22a6.7 6.7 0 0 1 6.46 4.51c.46 1.28.5 2.68.16 4 1.15-.3 2.2-.9 3.04-1.72l.04-.05a7 7 0 0 0 2-4.8"/>
	<path fill="#0c8c5e" d="M4.94 9.5a6.7 6.7 0 0 1 1.93-4.66L2.14 9.57l-.05.05a6.74 6.74 0 0 0-.83 8.57c.08.12.3.15.42.04l2.9-2.9c.91-.9 1.2-2.25.76-3.46a7 7 0 0 1-.4-2.36m11.5 4.9a6.8 6.8 0 0 1-7 1.55h-.02a3.3 3.3 0 0 0-3.46.75l-2.9 2.9c-.13.12-.1.32.04.42a6.8 6.8 0 0 0 8.57-.83l.04-.04 4.73-4.74"/>
	<path fill="currentColor" d="M96.24 23.5h-3.56l2.5-5.65-5-11.25h3.58l2.91 7.05c.1.25.45.25.56 0l2.89-7.05h3.6z"/>
	<path fill="currentColor" d="M85.45 18.52V9.46h-2.4V6.6h2.4V5.05q0-2.12 1.29-3.33A4.6 4.6 0 0 1 90 .5q1.21 0 2.07.26v2.89a4 4 0 0 0-1.33-.22q-1.08 0-1.55.48-.48.45-.48 1.55V6.6h3.36v2.86h-3.36v9.06zM80.12 4.65q-.84 0-1.45-.6-.63-.61-.62-1.48 0-.85.62-1.45.62-.62 1.45-.62.88 0 1.48.62.62.6.62 1.45 0 .87-.62 1.48a2 2 0 0 1-1.48.6M78.5 18.52V6.6h3.27v11.92zm-5.69 0V.64h3.27v17.88zm-3.68.14a5 5 0 0 1-3.3-1.1q-1.26-1.11-1.26-3.21V9.46h-2.4V6.6h2.4V3.3h3.27v3.3h3.36v2.86h-3.36v4.24q0 1.1.48 1.58.47.45 1.54.45.77 0 1.34-.21v2.88q-.86.26-2.07.26m-19.19-.14V6.6h3.27v.87c0 .15.2.22.3.1q1.09-1.23 3.1-1.23 2.16 0 3.37 1.43 1.23 1.41 1.24 3.77v6.98h-3.27v-6.44q0-1.31-.55-2.02-.54-.74-1.55-.74-1.18 0-1.93.86-.7.86-.71 2.52v5.82zM45.88 4.65q-.84 0-1.46-.6-.61-.61-.62-1.48 0-.85.62-1.45.63-.62 1.46-.62.88 0 1.48.62.61.6.62 1.45 0 .87-.62 1.48a2 2 0 0 1-1.48.6m-1.62 13.87V6.6h3.26v11.92zm-5.55 0v-6.36q0-2.85-1.85-2.84-1.08 0-1.72.8a4 4 0 0 0-.67 2.42v5.98h-3.26v-6.36q0-2.85-1.86-2.84-1.1 0-1.74.86a4 4 0 0 0-.65 2.52v5.82H23.7V6.6h3.26v.88c0 .15.2.21.3.1a3.6 3.6 0 0 1 2.87-1.24 3.9 3.9 0 0 1 3.56 1.95c.06.1.21.1.28 0q.51-.86 1.43-1.35 1.05-.6 2.12-.6 2.12 0 3.3 1.4a6 6 0 0 1 1.16 3.87v6.9z"/>
</svg>
