<svg xmlns="http://www.w3.org/2000/svg" viewBox="0 0 77 24">
	<path d="M47.73 0a2.98 2.98 0 0 0-2.97 3v9c0 3.31-2.67 6-5.94 6a5.97 5.97 0 0 1-5.94-6V3c0-1.66-1.33-3-2.97-3a2.98 2.98 0 0 0-2.97 3v9c0 6.62 5.33 12 11.88 12 6.55 0 11.88-5.38 11.88-12V3c.01-1.66-1.32-3-2.97-3zm13.19 12-6.81 6.88a3.02 3.02 0 0 0 0 4.24 2.95 2.95 0 0 0 4.2 0l6.81-6.88 6.81 6.88a2.95 2.95 0 0 0 4.2 0 3.02 3.02 0 0 0 0-4.24L69.32 12l6.81-6.88a3.02 3.02 0 0 0 0-4.24 2.95 2.95 0 0 0-4.2 0l-6.81 6.88L58.3.88a2.95 2.95 0 0 0-4.2 0 3.02 3.02 0 0 0 0 4.24L60.92 12zM21.93.23a2.96 2.96 0 0 0-3.24.65l-6.81 6.88L5.07.88A2.94 2.94 0 0 0 1.83.23 3 3 0 0 0 0 3v18c0 1.66 1.33 3 2.97 3s2.97-1.34 2.97-3V10.24l3.84 3.88a2.95 2.95 0 0 0 4.2 0l3.84-3.88V21c0 1.66 1.33 3 2.97 3s2.97-1.34 2.97-3V3A2.98 2.98 0 0 0 21.93.23z"></path>
</svg>
