<svg xmlns="http://www.w3.org/2000/svg" viewBox="0 0 256 105">
	<path fill="#32E6E2" d="M58.5 103.8V77.4l.5-.5h6.6l.6.5v26.4l-.6.5H59l-.5-.5Zm0-76.9V.5L59 0h6.6l.6.5V27l-.6.5H59l-.5-.5ZM35.8 85.2h-1l-4.4-4.5v-.9l8.5-8.5h4.7l.7.6v4.8l-8.5 8.5Zm-5.4-60.5v-.9l4.5-4.5h.9l8.5 8.5v4.8l-.7.6H39l-8.5-8.5ZM.5 48.3H38l.5.6v6.6l-.5.5H.5l-.5-.5v-6.6l.5-.6Zm255 0 .5.6v6.6l-.6.5h-37.8l-.6-.5 2.8-6.6.5-.6h35.1Z"></path>
	<path d="M74.7 65.9H68l-.6-.6V50c0-2.7-1-4.9-4.4-5-1.7 0-3.6 0-5.7.2l-.3.3v20l-.6.5H50l-.6-.6V39l.6-.6h14.8c5.7 0 10.4 4.7 10.4 10.5v16.4l-.5.6Zm31.9-11.6-.6.6H89l-.6.5c0 1.1 1.1 4.4 5.5 4.4 1.7 0 3.3-.5 3.9-1.6l.5-.6h6.6l.6.6c-.6 3.3-3.3 8.2-11.6 8.2-9.3 0-13.7-6.6-13.7-14.3S84.6 38 93.4 38s13.2 6.6 13.2 14.2v2.2ZM98.3 49c0-.6-.5-4.4-5-4.4s-4.9 3.8-4.9 4.4l.6.5h8.8l.5-.5Zm23.7 8.7c0 1.1.5 1.7 1.6 1.7h5l.5.5v5.5l-.6.6h-4.9c-5 0-9.3-2.2-9.3-8.3v-12l-.6-.6H110l-.6-.5V39l.6-.6h3.8l.6-.5v-5l.5-.5h6.6l.5.5v5l.6.5h6l.6.6v5.5l-.6.5h-6l-.6.6v12Zm20.3 8.3h-6.6l-.6-.6V28l.6-.6h6.6l.5.6v37.3l-.5.6ZM157 34h-6.6l-.5-.5V28l.5-.6h6.6l.6.6v5.5l-.6.5Zm0 31.9h-6.6l-.5-.6V39l.5-.6h6.6l.6.6v26.3l-.6.6Zm25.8-38v5.6l-.5.5h-5c-1 0-1.6.6-1.6 1.7v2.2l.5.5h5.5l.6.6v5.5l-.6.5h-5.5l-.5.6v19.7l-.6.6h-6.5l-.6-.6V45.5l-.5-.5h-3.9l-.5-.5V39l.5-.6h3.9l.5-.5v-2.2c0-6 4.4-8.3 9.4-8.3h4.9l.5.6Zm20.3 38.5c-2.2 5.5-4.3 8.8-12 8.8h-2.8l-.5-.5v-5.5l.5-.6h2.8c2.7 0 3.3-.5 3.8-2.2V66l-8.8-21.4V39l.6-.6h5l.5.6 6.5 18.7h.6L206 39l.5-.6h5l.5.6v5.5l-8.8 22Z"></path>
</svg>
