<svg xmlns="http://www.w3.org/2000/svg" fill="currentColor" viewBox="0 0 1080 181">
  <path fill="#146EF5" d="m288.6.7-92 180H110l38.6-74.6h-1.8C115 147.4 67.6 174.5 0 180.7v-73.6s43.2-2.5 68.7-29.2H0V.7h77.2v63.5h1.7L110.4.6h58.4v63h1.7l32.7-63h85.4Z"/>
  <path d="M790.8 160.8h24.8V18.2h-24.8v142.6Zm-137-1.4a46.2 46.2 0 0 0 58.2-22c4-8 6-17 6-27s-2.1-19-6.2-27a45.2 45.2 0 0 0-42.3-25c-6 0-11.6 1-17 3.4a36.2 36.2 0 0 0-14.6 10.8V18.3h-25v142.5h24.9l-.1-13.3a42.6 42.6 0 0 0 16 11.9Zm25.5-23a27 27 0 0 1-14 3.7 27.4 27.4 0 0 1-24.5-14.5 31 31 0 0 1-3.7-15.3 31 31 0 0 1 3.7-15.3 27.3 27.3 0 0 1 24.5-14.3c5.3 0 9.9 1.2 14 3.7 4 2.4 7.2 5.9 9.4 10.4 2.3 4.5 3.4 9.7 3.4 15.5 0 5.8-1.1 11-3.4 15.5a25 25 0 0 1-9.4 10.6ZM324.6 26.8H353l25.4 92.8 27-92.8h23.7l29.3 91 24.4-91h26l-38.4 134H446L416.2 72l-27.4 88.8H364l-39.4-134Zm226.2 136.4a49.2 49.2 0 0 1-45.4-25.2c-4.5-8-6.8-17-6.8-27.2 0-10 2.4-18.9 7-26.9s10.8-14.2 18.7-18.7a52.4 52.4 0 0 1 26.4-6.8c11 0 20.5 2.5 28.7 7.3a45 45 0 0 1 18.5 20.7c4.1 8.8 5.6 19 4.4 30.5h-78c.3 4.5 1.4 8.7 3.5 12.4 2.3 4.2 5.5 7.4 9.6 9.7 4.2 2.3 8.8 3.4 13.9 3.4a29.2 29.2 0 0 0 19.3-7.3 20 20 0 0 0 5-7.7h26c-1.6 7-4.7 13.2-9.5 18.7a48.4 48.4 0 0 1-17.8 12.6c-7.2 3-15 4.6-23.5 4.5Zm-23-71.4a26.3 26.3 0 0 0-3 8.2h51.7a23.1 23.1 0 0 0-12.3-18.4c-3.8-2-8-3-12.8-3-5 0-9.6 1.2-13.7 3.5a25.7 25.7 0 0 0-9.8 9.7Zm208.5-31.3a42 42 0 0 1 5.5-21.6A38.2 38.2 0 0 1 757.4 24a51 51 0 0 1 23.5-5.5v22a22 22 0 0 0-10.7 2.7c-3 1.7-5.2 4-6.7 7.2a24 24 0 0 0-2.4 10.1h19.3v21h-19.3v79.3h-24.9V81.5h-16v-21h16ZM878.8 163a55.3 55.3 0 0 1-27.2-6.6 49.2 49.2 0 0 1-18.8-18.6 54 54 0 0 1-6.7-27c0-10.2 2.2-19.2 6.7-27.2A48 48 0 0 1 851.6 65c8-4.5 17-6.7 27.2-6.7s19.3 2.2 27.3 6.7c8 4.4 14.4 10.6 18.9 18.6a55 55 0 0 1 6.8 27.2c0 10-2.3 19-6.8 27a47.6 47.6 0 0 1-18.8 18.6 56 56 0 0 1-27.4 6.6Zm0-22.8c5.4 0 10-1.2 14.2-3.7a25 25 0 0 0 9.6-10.3 34 34 0 0 0 3.3-15.4c0-5.9-1-11-3.3-15.5s-5.5-8-9.6-10.4a27 27 0 0 0-14.2-3.7 25.2 25.2 0 0 0-23.6 14.1 33.4 33.4 0 0 0-3.2 15.5 34 34 0 0 0 3.3 15.4c2.3 4.4 5.5 7.8 9.5 10.3a26 26 0 0 0 14 3.7Zm79.8-79.7H931l30 100.3h24l19.7-64 21.3 64h23.9l30-100.3h-25l-17 62.5-18.9-62.5h-24.2L976 124.3l-17.5-63.8Z"/>
</svg>
